<svg width="23" height="28" fill="none" xmlns="http://www.w3.org/2000/svg"><path fill-rule="evenodd" clip-rule="evenodd" d="M15.374 0c4.456 0 7.013 2.206 7.013 6.05v19.098c0 .801-.412 1.522-1.106 1.926a2.212 2.212 0 01-2.223.018l-7.83-4.424-7.904 4.433a2.226 2.226 0 01-1.092.29c-.387 0-.775-.104-1.127-.312A2.207 2.207 0 010 25.154V5.81C0 2.117 2.558 0 7.019 0h8.355zm0 1.97H7.019c-3.35 0-5.048 1.291-5.048 3.839v19.345c0 .124.07.19.13.225a.244.244 0 00.26.002l8.385-4.703a.99.99 0 01.967.001l8.313 4.696c.11.063.203.034.262-.001a.252.252 0 00.128-.226V5.899c-.01-1.13-.229-3.928-5.042-3.928zm.576 6.87a.986.986 0 010 1.971H6.335a.986.986 0 010-1.97h9.615z" fill="#8A8A8A"/></svg>