<svg width="30" height="23" fill="none" xmlns="http://www.w3.org/2000/svg"><path fill-rule="evenodd" clip-rule="evenodd" d="M14.797 14.155h.154l.343.001c2.624.018 8.621.283 8.621 4.347 0 4.038-5.788 4.302-8.58 4.319h-1.034c-2.625-.018-8.623-.282-8.623-4.342 0-4.043 5.998-4.307 8.623-4.324h.343l.153-.001zm0 2.039c-3.23 0-7.08.397-7.08 2.286 0 1.847 3.621 2.278 6.785 2.303l.295.001c3.23 0 7.08-.395 7.08-2.28 0-1.91-3.85-2.31-7.08-2.31zm10.811-2.59c3.294.493 3.985 2.04 3.985 3.25 0 .74-.29 2.09-2.234 2.83a1.02 1.02 0 01-.726-1.906c.922-.35.922-.737.922-.923 0-.596-.758-1.011-2.25-1.234a1.022 1.022 0 01-.858-1.161c.083-.558.6-.929 1.161-.857zm-20.462.856a1.022 1.022 0 01-.858 1.16c-1.492.224-2.25.64-2.25 1.235 0 .186 0 .572.924.924a1.019 1.019 0 11-.726 1.906C.29 18.943 0 17.593 0 16.855c0-1.21.692-2.758 3.987-3.252a1.026 1.026 0 011.159.857zM14.797 0a6.217 6.217 0 016.21 6.21 6.217 6.217 0 01-6.21 6.21h-.036a6.145 6.145 0 01-4.376-1.829 6.142 6.142 0 01-1.797-4.385A6.216 6.216 0 0114.798 0zm0 2.039c-2.3 0-4.17 1.872-4.17 4.171a4.122 4.122 0 001.205 2.944 4.127 4.127 0 002.931 1.228l.034 1.02v-1.02c2.3 0 4.172-1.87 4.172-4.172 0-2.3-1.872-4.171-4.172-4.171zm8.413-.708a4.908 4.908 0 014.125 4.861c-.006 2.44-1.828 4.533-4.24 4.871a1.02 1.02 0 01-.281-2.02 2.899 2.899 0 002.482-2.854 2.875 2.875 0 00-2.418-2.846 1.02 1.02 0 01.332-2.012zm-15.653.84a1.02 1.02 0 01-.84 1.172 2.876 2.876 0 00-2.418 2.849A2.897 2.897 0 006.78 9.044a1.019 1.019 0 11-.282 2.02 4.949 4.949 0 01-4.24-4.87 4.909 4.909 0 014.126-4.863c.572-.09 1.08.287 1.172.84z" fill="#8A8A8A"/></svg>