<svg width="25" height="28" fill="none" xmlns="http://www.w3.org/2000/svg"><path fill-rule="evenodd" clip-rule="evenodd" d="M17.766 0C22.093 0 25 2.963 25 7.373v12.656c0 4.448-2.817 7.34-7.177 7.369l-10.588.004C2.908 27.402 0 24.439 0 20.029V7.373C0 2.923 2.817.032 7.177.006L17.765 0h.001zm0 2.064L7.184 2.07c-3.204.02-5.12 2.001-5.12 5.303v12.656c0 3.324 1.934 5.308 5.17 5.308l10.582-.004c3.204-.02 5.12-2.004 5.12-5.304V7.373c0-3.324-1.933-5.309-5.17-5.309zm-.265 16.48a1.033 1.033 0 010 2.064H7.564a1.033 1.033 0 010-2.064h9.937zm0-5.762a1.033 1.033 0 010 2.064H7.564a1.033 1.033 0 010-2.064h9.937zm-6.146-5.749a1.033 1.033 0 010 2.065H7.564a1.033 1.033 0 010-2.065h3.791z" fill="#8A8A8A"/></svg>