<svg width="25" height="27" fill="none" xmlns="http://www.w3.org/2000/svg"><path d="M8.73 24.702v-4.024c0-1.027.839-1.86 1.873-1.86h3.782c.497 0 .973.197 1.325.545.35.35.548.822.548 1.315v4.024c-.003.427.166.837.469 1.14a1.62 1.62 0 001.145.474h2.58A4.553 4.553 0 0023.667 25 4.486 4.486 0 0025 21.813V10.35c0-.966-.431-1.883-1.178-2.503L15.045.89a4.076 4.076 0 00-5.196.094L1.272 7.848A3.255 3.255 0 000 10.351v11.45c0 2.494 2.036 4.515 4.548 4.515h2.52a1.62 1.62 0 001.627-1.602l.035-.012z" fill="#929292"/></svg>