<svg width="13" height="13" fill="none" xmlns="http://www.w3.org/2000/svg"><path fill-rule="evenodd" clip-rule="evenodd" d="M9.317 0c1.047 0 1.95.35 2.612 1.012.691.692 1.07 1.699 1.069 2.835l.001 4.557a.514.514 0 010 .053l-.001.696c0 2.3-1.48 3.846-3.684 3.846H3.68c-2.2 0-3.68-1.546-3.68-3.846V3.846C0 1.546 1.48 0 3.681 0h5.636zm.18 7.056c-.383 0-.833.634-1.23 1.194-.546.769-1.111 1.564-1.962 1.564-.575 0-1.102-.221-1.567-.418-.738-.31-1.073-.41-1.401-.14-.656.54-1.304 1.524-1.602 2.008.47.485 1.138.758 1.946.758h5.633c1.644 0 2.707-1.126 2.707-2.87v-.52l-.015-.016c-.57-.587-1.555-1.56-2.509-1.56zM9.317.978H3.68C2.04.977.977 2.103.977 3.846v5.307c0 .435.066.832.191 1.183.377-.57.947-1.34 1.548-1.835.816-.671 1.694-.303 2.401-.005.417.175.81.34 1.188.34.347 0 .781-.611 1.165-1.152.534-.753 1.14-1.605 2.027-1.605.974 0 1.856.599 2.525 1.193l-.001-3.426c.001-.888-.27-1.63-.783-2.143-.474-.475-1.138-.726-1.921-.726zM4.467 2.73c.932 0 1.69.76 1.691 1.69v.001c0 .932-.758 1.69-1.691 1.69a1.692 1.692 0 01-1.691-1.69c0-.933.758-1.69 1.69-1.69zm0 .977a.714.714 0 100 1.428.714.714 0 000-1.428z" fill="#07F"/></svg>