<svg width="26" height="27" fill="none" xmlns="http://www.w3.org/2000/svg"><path d="M13 7.889a5.911 5.911 0 00-5.91 5.909 5.911 5.911 0 005.91 5.91 5.911 5.911 0 005.91-5.91A5.911 5.911 0 0013 7.888zm-11.818 7.09h2.363c.65 0 1.182-.531 1.182-1.181s-.532-1.182-1.182-1.182H1.182c-.65 0-1.182.532-1.182 1.182 0 .65.532 1.182 1.182 1.182zm21.273 0h2.363c.65 0 1.182-.531 1.182-1.181s-.532-1.182-1.182-1.182h-2.364c-.65 0-1.181.532-1.181 1.182 0 .65.532 1.182 1.181 1.182zm-10.637-13v2.364c0 .65.532 1.182 1.182 1.182.65 0 1.182-.532 1.182-1.182V1.98c0-.65-.532-1.182-1.182-1.182-.65 0-1.182.532-1.182 1.182zm0 21.274v2.363c0 .65.532 1.182 1.182 1.182.65 0 1.182-.532 1.182-1.182v-2.363c0-.65-.532-1.182-1.182-1.182-.65 0-1.182.531-1.182 1.181zM5.898 5.029a1.177 1.177 0 00-2.013.833 1.177 1.177 0 00.346.833l1.253 1.253c.46.46 1.217.46 1.666 0 .45-.46.46-1.217 0-1.666L5.897 5.029zm14.618 14.619a1.177 1.177 0 00-2.012.833 1.178 1.178 0 00.346.833l1.253 1.253a1.177 1.177 0 001.922-1.284 1.177 1.177 0 00-.256-.382l-1.253-1.253zM21.77 6.695a1.178 1.178 0 10-1.666-1.666L18.85 6.282c-.46.46-.46 1.217 0 1.666.46.45 1.217.46 1.666 0l1.253-1.253zM7.15 21.315a1.177 1.177 0 10-1.666-1.667L4.23 20.901a1.176 1.176 0 000 1.666c.46.45 1.217.461 1.666 0l1.253-1.253z" fill="#07F"/></svg>