<svg width="112" height="35" fill="none" xmlns="http://www.w3.org/2000/svg"><path d="M27.436 34.919h-2.494v-3.742a6.243 6.243 0 00-6.236-6.235h-7.482a6.243 6.243 0 00-6.236 6.235v3.742H2.494v-3.742a8.74 8.74 0 018.73-8.73h7.482a8.74 8.74 0 018.73 8.73v3.742zM1.247 4.988A1.247 1.247 0 000 6.235V17.46h2.494V6.235a1.247 1.247 0 00-1.247-1.247z" fill="#5285F2"/><path d="M0 0v2.494h6.235v8.73a8.73 8.73 0 0017.46 0v-8.73h6.235V0H0zm8.73 2.494H21.2v3.741H8.73v-3.74zm6.235 14.965a6.236 6.236 0 01-6.235-6.235V8.73H21.2v2.494a6.235 6.235 0 01-6.235 6.235zm21.757 8.631V10.386h10.606v2.97h-7.07v3.081h6.277v2.901h-6.277v3.785h7.592v2.969H36.722zm16.13-6.05c0 1.042.234 1.88.703 2.515.468.635 1.163.952 2.085.952.302 0 .581-.007.838-.022.257-.03.469-.06.635-.091v-6.142a2.925 2.925 0 00-.839-.34 3.86 3.86 0 00-1.02-.136c-1.601 0-2.402 1.088-2.402 3.264zm7.638 5.666c-.303.09-.65.18-1.043.272-.393.075-.808.143-1.246.203-.423.061-.862.106-1.315.136-.438.046-.861.069-1.269.069-.982 0-1.858-.144-2.629-.431-.77-.287-1.42-.695-1.949-1.224a5.624 5.624 0 01-1.224-1.949c-.272-.77-.408-1.632-.408-2.584 0-.966.121-1.835.363-2.606.242-.785.59-1.45 1.042-1.994a4.483 4.483 0 011.655-1.247c.665-.287 1.42-.43 2.266-.43.469 0 .884.045 1.247.136.377.09.755.219 1.133.385V9.048l3.377-.544v17.202zm13.337-.023c-.574.166-1.314.317-2.22.453-.907.151-1.86.227-2.856.227-1.013 0-1.859-.136-2.539-.408-.664-.272-1.193-.65-1.586-1.133a4.567 4.567 0 01-.839-1.768 9.447 9.447 0 01-.249-2.244v-6.64h3.377v6.232c0 1.088.143 1.874.43 2.357.288.484.824.726 1.61.726.241 0 .498-.008.77-.023.272-.03.514-.06.725-.09V14.17h3.377v11.513zm7.93.634c-.983-.015-1.784-.12-2.403-.317-.604-.196-1.088-.468-1.45-.816a2.963 2.963 0 01-.726-1.291 7.533 7.533 0 01-.181-1.723V9.048l3.377-.544V21.49c0 .302.023.574.068.816.045.242.128.446.25.612.135.166.324.302.566.408.241.106.566.174.974.204l-.476 2.787zm13.561-6.21c0 .938-.136 1.799-.408 2.584a5.724 5.724 0 01-1.178 1.995 5.352 5.352 0 01-1.859 1.269c-.71.302-1.51.453-2.402.453-.876 0-1.677-.15-2.402-.453a5.404 5.404 0 01-1.836-1.27 6.013 6.013 0 01-1.201-1.994c-.287-.785-.43-1.646-.43-2.583 0-.937.143-1.79.43-2.561a6.05 6.05 0 011.224-1.972 5.65 5.65 0 011.858-1.269 6.068 6.068 0 012.357-.453c.861 0 1.647.15 2.357.453a5.353 5.353 0 011.858 1.27 5.758 5.758 0 011.201 1.97c.287.771.431 1.625.431 2.562zm-3.445 0c0-1.042-.211-1.858-.634-2.447-.408-.604-.998-.906-1.768-.906s-1.367.302-1.79.906c-.424.59-.635 1.405-.635 2.448 0 1.042.211 1.873.635 2.493.423.604 1.02.906 1.79.906s1.36-.302 1.768-.906c.423-.62.634-1.45.634-2.493zm8.939-.362c0 1.889.763 2.833 2.289 2.833a3.647 3.647 0 001.745-.453V16.73a5.302 5.302 0 00-.589-.068 6.086 6.086 0 00-.793-.045c-.892 0-1.557.294-1.995.884-.438.589-.657 1.337-.657 2.243zm7.411 4.85c0 1.95-.499 3.392-1.496 4.329-.982.952-2.508 1.428-4.578 1.428-.725 0-1.45-.068-2.175-.204a12.709 12.709 0 01-2.017-.499l.589-2.833a9.99 9.99 0 001.654.499c.589.12 1.254.181 1.995.181.966 0 1.646-.211 2.039-.635.408-.423.612-.966.612-1.631v-.43c-.362.165-.74.294-1.133.384a6.373 6.373 0 01-1.247.114c-1.646 0-2.908-.484-3.784-1.45-.877-.983-1.315-2.35-1.315-4.103 0-.876.136-1.67.408-2.38a5.143 5.143 0 011.179-1.858 5.301 5.301 0 011.926-1.178c.756-.287 1.609-.43 2.561-.43.408 0 .823.022 1.246.067.439.03.869.076 1.292.136.423.06.824.136 1.201.227.393.075.741.158 1.043.249v10.017z" fill="#5285F2"/></svg>