<svg width="20" height="31" fill="none" xmlns="http://www.w3.org/2000/svg"><path d="M14.542 11.626A9.998 9.998 0 0120 20.537c0 5.523-4.477 10-10 10s-10-4.477-10-10a9.998 9.998 0 0114.542-8.91z" fill="#E3E3E3"/><path d="M10 30.128a9.527 9.527 0 01-6.782-2.81 9.528 9.528 0 01-2.808-6.78c0-3.52 1.923-6.75 5.019-8.433A9.607 9.607 0 0110 10.947c1.534 0 3 .35 4.356 1.044a9.624 9.624 0 013.783 3.47 9.566 9.566 0 011.452 5.076c0 2.562-.998 4.97-2.81 6.782A9.528 9.528 0 0110 30.128z" fill="#C9C9C9"/><path d="M10 28.958a8.366 8.366 0 01-5.955-2.466 8.366 8.366 0 01-2.466-5.955 8.422 8.422 0 014.406-7.404A8.432 8.432 0 0110 12.116c1.347 0 2.634.309 3.825.917a8.448 8.448 0 013.321 3.047 8.397 8.397 0 011.275 4.457c0 2.25-.876 4.364-2.466 5.955A8.367 8.367 0 0110 28.958z" stroke="#929292" stroke-width="2.611" stroke-miterlimit="10"/><path d="M10 26.247a5.673 5.673 0 01-4.038-1.672 5.674 5.674 0 01-1.672-4.038 5.711 5.711 0 115.71 5.71v0z" stroke="#C9C9C9" stroke-width="1.865" stroke-miterlimit="10"/><path d="M10 27.49a6.907 6.907 0 01-4.917-2.036 6.908 6.908 0 01-2.036-4.917 6.955 6.955 0 013.638-6.114A6.964 6.964 0 0110 13.584a6.88 6.88 0 013.158.757 6.977 6.977 0 012.742 2.516 6.934 6.934 0 011.053 3.68 6.909 6.909 0 01-2.036 4.917A6.908 6.908 0 0110 27.49v0z" stroke="#929292" stroke-width="2.611" stroke-miterlimit="10"/><path d="M13.053 10.103v-.37a.194.194 0 00-.194-.193H6.781a.194.194 0 00-.193.194v.37c0 .107.086.194.193.194h6.078a.194.194 0 00.194-.195zm1.002-.276c.255.568.396 1.179.419 1.8a9.954 9.954 0 00-4.542-1.09 9.96 9.96 0 00-4.768 1.207 4.81 4.81 0 01.422-1.917l.126-.281a1 1 0 01.775-.583l.373-.053a21.36 21.36 0 015.921 0l.372.053c.342.048.635.268.776.583l.126.28z" fill="#C9C9C9"/><path d="M16.168 0l-3.467 9.683h-1.927L14.232.008V0h1.936z" fill="#FF545F"/><path d="M14.232 0v.008l-3.458 9.675H8.872L12.33.008V0h1.903z" fill="#62DADC"/><path d="M12.33 0v.008L8.871 9.683H6.93L10.396 0h1.933z" fill="#AC748C"/><path d="M19.335 20.537a5.71 5.71 0 11-11.42 0 5.71 5.71 0 0111.42 0z" fill="#9A9898"/><path d="M3.46 0l3.468 9.683h1.926L5.397.008V0H3.461z" fill="#AC748C"/><path d="M5.397 0v.008l3.457 9.675h1.903L7.3.008V0H5.397z" fill="#62DADC"/><path d="M7.3 0v.008l3.457 9.675H12.7L9.233 0H7.3z" fill="#FF545F"/><path d="M18.963 20.537a5.338 5.338 0 11-10.677 0 5.338 5.338 0 0110.677 0z" fill="#E3E3E3"/><path d="M17.69 20.537a4.065 4.065 0 11-8.13 0 4.065 4.065 0 018.13 0zM8.827 18.76c0 .025-.001.38.088.616.092.244.013.624.013.624s-.25-.286-.268-.495c-.022-.25.162-.731.167-.746z" fill="#929292"/><path d="M8.887 18.966c.07.155.144.279.205.463.036.108-.017.384-.098.498a.171.171 0 01-.066.073s.079-.38-.013-.624c-.09-.236-.088-.591-.088-.616.003.014.023.125.06.206z" fill="#E6E6E6"/><path d="M9.663 19.102v.001c-.017.019-.253.284-.342.52-.092.244-.401.478-.401.478s0-.38.125-.548c.15-.204.604-.443.618-.45z" fill="#929292"/><path d="M9.571 19.297c-.049.163-.076.304-.152.483-.044.105-.266.277-.402.31-.054.022-.097.01-.097.01s.31-.233.401-.477c.09-.236.325-.501.341-.52-.007.012-.065.11-.091.194z" fill="#E6E6E6"/><path d="M8.606 19.629c.004.025.055.376.177.597.127.228.105.615.105.615s-.29-.246-.338-.45c-.058-.245.053-.747.056-.762z" fill="#929292"/><path d="M8.696 19.825c.093.142.183.254.27.428.051.101.04.382-.023.506-.019.056-.055.082-.055.082s.022-.387-.105-.615c-.122-.22-.173-.572-.176-.596.004.013.04.12.089.195z" fill="#E6E6E6"/><path d="M9.483 19.846c-.014.021-.208.319-.261.565-.056.255-.328.531-.328.531s-.055-.375.044-.56c.118-.223.532-.527.545-.536z" fill="#929292"/><path d="M9.42 20.052c-.024.169-.03.312-.079.5-.028.11-.222.313-.352.365-.05.03-.095.025-.095.025s.272-.276.327-.531c.054-.246.248-.544.262-.564a.897.897 0 00-.062.205z" fill="#E6E6E6"/><path d="M8.515 20.573c.01.023.14.354.31.54.177.192.245.574.245.574s-.339-.172-.433-.36c-.113-.225-.122-.739-.122-.754z" fill="#929292"/><path d="M8.648 20.743c.123.117.237.205.362.354.073.086.127.362.094.498-.005.058-.034.092-.034.092s-.068-.382-.245-.574c-.17-.186-.3-.517-.31-.54.008.012.068.108.133.17z" fill="#E6E6E6"/><path d="M9.419 20.58v.002c-.01.023-.13.357-.124.609.005.261-.195.593-.195.593s-.141-.353-.088-.555c.063-.245.396-.636.407-.648z" fill="#929292"/><path d="M9.406 20.796c.015.17.042.31.038.505-.002.113-.144.356-.258.436a.172.172 0 01-.086.047s.2-.332.195-.593c-.005-.252.115-.586.123-.61-.002.015-.02.127-.012.215z" fill="#E6E6E6"/><path d="M8.622 21.458c.012.023.178.336.367.502.197.173.307.544.307.544s-.356-.134-.47-.31c-.138-.21-.202-.72-.204-.736z" fill="#929292"/><path d="M8.772 21.612c.135.103.258.178.399.312.082.078.166.346.148.485a.173.173 0 01-.024.095s-.11-.371-.306-.544c-.19-.166-.355-.48-.367-.502.01.011.08.1.15.154z" fill="#E6E6E6"/><path d="M9.52 21.367c-.006.025-.088.37-.055.62.033.259-.13.61-.13.61s-.178-.335-.148-.542c.037-.25.324-.675.334-.688z" fill="#929292"/><path d="M9.531 21.582c.034.167.077.304.094.498.01.113-.104.37-.209.462a.172.172 0 01-.08.056s.162-.352.129-.611c-.033-.25.05-.595.055-.62 0 .015-.006.128.011.215z" fill="#E6E6E6"/><path d="M8.857 22.326c.016.02.237.297.454.426.225.133.402.477.402.477s-.374-.065-.519-.217c-.174-.182-.332-.67-.337-.686z" fill="#929292"/><path d="M9.033 22.45c.152.076.287.127.45.233.095.061.227.309.236.448.012.058-.006.098-.006.098s-.177-.344-.402-.477c-.217-.128-.438-.406-.453-.425.01.008.096.083.175.123z" fill="#E6E6E6"/><path d="M9.723 22.07c-.001.026-.018.38.06.62.081.248-.013.623-.013.623s-.238-.296-.247-.505c-.01-.252.194-.724.2-.738z" fill="#929292"/><path d="M9.774 22.28c.064.157.131.284.184.47.031.11-.034.383-.12.494-.028.05-.068.07-.068.07s.095-.376.013-.624c-.078-.24-.061-.594-.06-.62.002.014.017.127.05.21z" fill="#E6E6E6"/><path d="M9.224 23.122c.019.017.285.252.521.34.245.091.48.4.48.4s-.38 0-.549-.123c-.204-.15-.445-.603-.452-.617z" fill="#929292"/><path d="M9.419 23.213c.163.049.304.075.484.15.104.044.277.265.31.401.022.054.012.098.012.098s-.235-.309-.48-.4c-.236-.088-.502-.323-.52-.34.012.007.109.066.194.091z" fill="#E6E6E6"/><path d="M10.032 22.718v.001c.003.025.048.377.167.599.124.23.096.616.096.616s-.286-.25-.33-.454c-.055-.246.063-.746.067-.762z" fill="#929292"/><path d="M10.118 22.916c.09.143.18.257.264.432.05.102.034.382-.031.506-.02.055-.056.08-.056.08s.028-.386-.096-.616c-.119-.222-.164-.574-.167-.599.004.013.039.121.086.197z" fill="#E6E6E6"/><path d="M9.824 23.917c.023.011.338.174.588.202.26.029.563.271.563.271s-.368.093-.562.014c-.234-.094-.579-.475-.59-.487z" fill="#929292"/><path d="M10.035 23.957c.17.008.314-.001.506.028.112.017.334.19.399.313.035.047.035.092.035.092s-.303-.242-.563-.27c-.25-.03-.566-.191-.587-.203a.95.95 0 00.21.04z" fill="#E6E6E6"/><path d="M10.509 23.328v.001c.01.023.139.354.309.54.175.193.243.575.243.575s-.338-.173-.432-.36c-.113-.226-.12-.74-.12-.756z" fill="#929292"/><path d="M10.64 23.499c.124.117.237.205.362.354.073.087.126.363.093.499-.005.058-.034.092-.034.092s-.068-.382-.243-.575c-.17-.186-.3-.517-.309-.54.008.012.068.108.132.17z" fill="#E6E6E6"/><path d="M10.478 24.486c.023.011.345.162.596.18.26.02.571.251.571.251s-.364.107-.56.035c-.238-.086-.596-.455-.607-.466z" fill="#929292"/><path d="M10.69 24.52c.171 0 .314-.014.507.008.113.013.34.177.41.299.037.045.038.09.038.09s-.31-.23-.571-.25c-.252-.02-.573-.17-.595-.18.013.003.123.031.212.032z" fill="#E6E6E6"/><path d="M11.141 23.873c.01.023.152.349.328.529.183.187.264.566.264.566s-.344-.16-.444-.345c-.121-.22-.147-.734-.148-.75z" fill="#929292"/><path d="M11.28 24.038c.126.113.243.197.373.342.076.084.14.358.111.494a.17.17 0 01-.03.094s-.082-.38-.265-.566c-.176-.18-.318-.506-.327-.528.008.011.071.105.137.164z" fill="#E6E6E6"/><path d="M11.319 25.026c.025.004.375.063.622.013.256-.052.618.087.618.087s-.322.201-.53.185c-.252-.02-.697-.277-.71-.285z" fill="#929292"/><path d="M11.533 25c.164-.045.298-.097.49-.127.112-.018.375.078.475.176a.172.172 0 01.061.077s-.362-.139-.618-.087c-.247.05-.597-.01-.621-.013.013 0 .127-.003.213-.026z" fill="#E6E6E6"/><path d="M12.305 25.37h.001c.025 0 .38-.001.615-.091.244-.094.624-.018.624-.018s-.284.252-.492.271c-.251.024-.733-.156-.748-.162z" fill="#929292"/><path d="M12.512 25.309c.154-.072.278-.146.462-.208.107-.036.383.015.498.095a.172.172 0 01.073.065s-.38-.076-.624.018c-.235.09-.59.09-.615.09a.95.95 0 00.206-.06z" fill="#E6E6E6"/><path d="M11.792 24.256v.001c.016.02.24.295.459.42.226.13.407.474.407.474s-.375-.062-.521-.212c-.177-.18-.34-.667-.345-.683z" fill="#929292"/><path d="M11.97 24.378c.153.075.288.125.452.228.096.06.23.307.24.447.013.057-.004.098-.004.098s-.18-.343-.407-.474c-.218-.125-.443-.4-.458-.42.01.009.097.082.177.121z" fill="#E6E6E6"/><path d="M12.63 24.619c.016.015.252.218.46.293.214.078.422.346.422.346s-.332.004-.481-.103c-.18-.129-.395-.524-.402-.536z" fill="#929292"/><path d="M12.801 24.697c.143.041.267.063.425.128.092.037.245.23.275.348.02.047.011.085.011.085s-.208-.268-.423-.346c-.207-.075-.443-.278-.459-.293.01.006.096.057.171.078z" fill="#E6E6E6"/><path d="M12.997 25.594c.012-.006.176-.088.264-.183.091-.1.284-.152.284-.152s-.073.182-.165.239c-.111.068-.375.095-.383.096z" fill="#929292"/><path d="M13.078 25.518c.055-.068.096-.13.166-.202a.402.402 0 01.252-.07c.03 0 .05.013.05.013s-.194.052-.285.152a1.058 1.058 0 01-.264.182.49.49 0 00.081-.075z" fill="#E6E6E6"/><path d="M18.422 18.76c0 .025.001.38-.087.616-.093.244-.014.624-.014.624s.25-.286.268-.495c.022-.25-.161-.731-.167-.746z" fill="#929292"/><path d="M18.362 18.966c-.07.155-.143.279-.205.463-.035.108.017.384.098.498.026.052.066.073.066.073s-.078-.38.014-.624c.088-.236.087-.591.087-.616-.003.014-.023.125-.06.206z" fill="#E6E6E6"/><path d="M17.586 19.102v.001c.017.019.253.284.342.52.092.244.401.478.401.478s0-.38-.124-.548c-.15-.204-.604-.443-.619-.45z" fill="#929292"/><path d="M17.678 19.297c.05.163.076.304.152.483.045.105.266.277.402.31.054.022.098.01.098.01s-.31-.233-.402-.477c-.089-.236-.325-.501-.341-.52.007.012.066.11.091.194z" fill="#E6E6E6"/><path d="M18.643 19.629c-.004.025-.054.376-.177.597-.127.228-.105.615-.105.615s.29-.246.338-.45c.058-.245-.052-.747-.056-.762z" fill="#929292"/><path d="M18.553 19.825c-.092.142-.182.254-.27.428-.051.101-.04.382.024.506a.172.172 0 00.054.082s-.022-.387.105-.615c.123-.22.173-.572.177-.596-.005.013-.041.12-.09.195z" fill="#E6E6E6"/><path d="M17.766 19.846c.014.021.208.319.262.565.055.255.327.531.327.531s.055-.375-.043-.56c-.118-.223-.533-.527-.546-.536z" fill="#929292"/><path d="M17.828 20.052c.025.169.031.312.08.5.028.11.223.313.352.365.05.03.095.025.095.025s-.272-.276-.327-.531c-.054-.246-.248-.544-.261-.564.005.013.049.117.061.205z" fill="#E6E6E6"/><path d="M18.734 20.573c-.01.023-.14.354-.31.54-.176.192-.245.574-.245.574s.339-.172.433-.36c.113-.225.122-.739.122-.754z" fill="#929292"/><path d="M18.602 20.743c-.124.117-.237.205-.363.354-.073.086-.126.362-.094.498.005.058.034.092.034.092s.069-.382.245-.574c.17-.186.3-.517.31-.54-.008.012-.068.108-.132.17z" fill="#E6E6E6"/><path d="M17.83 20.58l.001.002c.009.023.128.357.123.609-.005.261.196.593.196.593s.14-.353.088-.555c-.064-.245-.397-.636-.407-.648z" fill="#929292"/><path d="M17.844 20.796c-.016.17-.043.31-.039.505.003.113.144.356.258.436.043.04.087.047.087.047s-.2-.332-.195-.593c.005-.252-.115-.586-.124-.61.002.015.02.127.013.215z" fill="#E6E6E6"/><path d="M18.627 21.458c-.011.023-.177.336-.367.502-.196.173-.306.544-.306.544s.355-.134.47-.31c.137-.21.202-.72.203-.736z" fill="#929292"/><path d="M18.477 21.612c-.135.103-.258.178-.399.312-.082.078-.165.346-.148.485a.172.172 0 00.024.095s.11-.371.306-.544c.19-.166.356-.48.367-.502-.009.011-.08.1-.15.154z" fill="#E6E6E6"/><path d="M17.729 21.367c.006.025.088.37.056.62-.034.259.129.61.129.61s.178-.335.148-.542c-.036-.25-.324-.675-.333-.688z" fill="#929292"/><path d="M17.718 21.582c-.034.167-.076.304-.094.498-.01.113.104.37.21.462.037.045.08.056.08.056s-.163-.352-.13-.611c.033-.25-.05-.595-.055-.62 0 .015.006.128-.011.215z" fill="#E6E6E6"/><path d="M18.392 22.326c-.016.02-.237.297-.454.426-.225.133-.402.477-.402.477s.374-.065.519-.217c.174-.182.332-.67.337-.686z" fill="#929292"/><path d="M18.216 22.45c-.152.076-.287.127-.45.233-.095.061-.227.309-.236.448a.172.172 0 00.006.098s.177-.344.402-.477c.217-.128.438-.406.453-.425-.01.008-.096.083-.175.123z" fill="#E6E6E6"/><path d="M17.526 22.07c.001.026.018.38-.06.62-.081.248.014.623.014.623s.237-.296.246-.505c.01-.252-.194-.724-.2-.738z" fill="#929292"/><path d="M17.475 22.28c-.064.157-.13.284-.184.47-.03.11.034.383.12.494.028.05.069.07.069.07s-.095-.376-.014-.624c.078-.24.061-.594.06-.62-.002.014-.017.127-.05.21z" fill="#E6E6E6"/><path d="M18.026 23.122h-.001c-.019.017-.285.252-.521.34-.245.091-.48.4-.48.4s.38 0 .55-.123c.203-.15.444-.603.452-.617z" fill="#929292"/><path d="M17.83 23.213c-.163.049-.304.075-.483.15-.105.044-.278.265-.311.401-.022.054-.011.098-.011.098s.234-.309.479-.4c.236-.088.502-.323.52-.34a.946.946 0 01-.194.091z" fill="#E6E6E6"/><path d="M17.218 22.718v.001c-.004.025-.049.377-.168.599-.123.23-.096.616-.096.616s.286-.25.331-.454c.055-.246-.063-.746-.067-.762z" fill="#929292"/><path d="M17.131 22.916c-.09.143-.179.257-.264.432-.05.102-.033.382.031.506.02.055.056.08.056.08s-.027-.386.096-.616c.12-.222.165-.574.167-.599a.952.952 0 01-.086.197z" fill="#E6E6E6"/><path d="M17.426 23.917h-.001c-.022.011-.338.174-.588.202-.26.029-.563.271-.563.271s.369.093.563.014c.233-.094.578-.475.589-.487z" fill="#929292"/><path d="M17.214 23.957c-.17.008-.313-.001-.505.028-.113.017-.334.19-.4.313a.172.172 0 00-.035.092s.303-.242.563-.27c.25-.03.566-.191.588-.203-.014.004-.122.037-.211.04z" fill="#E6E6E6"/><path d="M16.74 23.328v.001c-.009.023-.139.354-.308.54-.176.193-.244.575-.244.575s.339-.173.432-.36c.113-.226.12-.74.12-.756z" fill="#929292"/><path d="M16.608 23.499c-.123.117-.236.205-.36.354-.074.087-.127.363-.094.499.005.058.034.092.034.092s.068-.382.244-.575c.17-.186.3-.517.308-.54-.008.012-.067.108-.131.17z" fill="#E6E6E6"/><path d="M16.771 24.486c-.023.011-.344.162-.596.18-.26.02-.571.251-.571.251s.364.107.561.035c.237-.086.596-.455.607-.466z" fill="#929292"/><path d="M16.558 24.52c-.17 0-.313-.014-.506.008-.112.013-.34.177-.41.299-.036.045-.038.09-.038.09s.311-.23.572-.25c.25-.02.572-.17.595-.18-.014.003-.124.031-.213.032z" fill="#E6E6E6"/><path d="M16.108 23.873c-.01.023-.152.349-.328.529-.183.187-.264.566-.264.566s.344-.16.444-.345c.122-.22.148-.734.148-.75z" fill="#929292"/><path d="M15.97 24.038c-.127.113-.244.197-.374.342-.076.084-.139.358-.111.494a.17.17 0 00.03.094s.082-.38.265-.566c.176-.18.318-.506.328-.528-.008.011-.072.105-.138.164z" fill="#E6E6E6"/><path d="M15.93 25.026c-.025.004-.375.063-.622.013-.256-.052-.618.087-.618.087s.322.201.531.185c.252-.02.696-.277.71-.285z" fill="#929292"/><path d="M15.717 25c-.164-.045-.298-.097-.49-.127-.112-.018-.376.078-.476.176a.17.17 0 00-.06.077s.361-.139.617-.087c.247.05.597-.01.622-.013-.014 0-.128-.003-.213-.026z" fill="#E6E6E6"/><path d="M15.457 24.256v.001c-.016.02-.24.295-.459.42-.226.13-.406.474-.406.474s.374-.062.52-.212c.177-.18.34-.667.345-.683z" fill="#929292"/><path d="M15.28 24.378c-.153.075-.288.125-.453.228-.096.06-.23.307-.24.447a.172.172 0 00.005.098s.18-.343.407-.474c.218-.125.442-.4.457-.42a.99.99 0 01-.176.121z" fill="#E6E6E6"/><path d="M15.078 25.368h-.001c-.025 0-.38-.003-.614-.095-.244-.096-.624-.022-.624-.022s.282.254.49.274c.251.026.734-.151.749-.157z" fill="#929292"/><path d="M14.872 25.306c-.154-.073-.277-.148-.46-.211-.108-.037-.384.012-.5.09-.052.026-.073.066-.073.066s.38-.074.624.022c.234.092.59.095.614.095-.014-.003-.125-.024-.205-.062z" fill="#E6E6E6"/><path d="M14.62 24.619c-.017.015-.252.218-.46.293-.215.078-.423.346-.423.346s.333.004.482-.103c.18-.129.394-.524.4-.536z" fill="#929292"/><path d="M14.448 24.697c-.143.041-.267.063-.425.128-.091.037-.245.23-.275.348-.02.047-.01.085-.01.085s.207-.268.422-.346c.208-.075.443-.278.46-.293-.011.006-.097.057-.172.078z" fill="#E6E6E6"/><path d="M14.253 25.594a1.056 1.056 0 01-.264-.183c-.092-.1-.285-.152-.285-.152s.073.182.166.239c.11.068.374.095.383.096z" fill="#929292"/><path d="M14.17 25.518c-.054-.068-.094-.13-.165-.202a.402.402 0 00-.252-.07c-.03 0-.049.013-.049.013s.193.052.284.152c.089.095.253.177.264.182a.51.51 0 01-.081-.075z" fill="#E6E6E6"/><path d="M11.225 13.164c-2.668.54-4.692 2.13-5.836 4.06-.943 1.587-1.077 2.864-.678 4.378 1.926 7.632 4.66 3.62 8.334 7.339.032.032.027.074 0 .098l-.278.263a.067.067 0 01-.095-.003c-2.266-2.268-4.023-1.405-5.825-2.663-1.53-1.08-2.193-3.337-2.61-5.215-.407-1.84.145-3.484 1.317-5.03.07-.095.291-.357.328-.398 1.437-1.566 3.116-2.573 5.343-2.829zm-7.878 2.159v.004c-.013.076-.18 1.178-.013 1.95.174.802-.244 1.945-.244 1.945s-.646-1.002-.605-1.658c.048-.79.837-2.197.862-2.24z" fill="#929292"/><path d="M3.437 15.994c.149.513.318.931.423 1.532.062.35-.23 1.183-.532 1.5a.54.54 0 01-.238.196s.418-1.143.244-1.944c-.167-.773 0-1.875.013-1.951.002.043.013.4.09.667z" fill="#E6E6E6"/><path d="M5.032 16.654v.003c-.026.074-.387 1.128-.36 1.918.03.82-.585 1.87-.585 1.87s-.458-1.1-.301-1.739c.187-.77 1.214-2.014 1.246-2.052z" fill="#929292"/><path d="M5.002 17.33c.055.531.148.973.144 1.583-.002.356-.435 1.123-.79 1.382-.13.129-.269.15-.269.15s.614-1.05.586-1.87c-.028-.79.333-1.844.359-1.918-.006.044-.059.396-.03.673z" fill="#E6E6E6"/><path d="M1.672 17.427l.002.003c.028.06.442.912.933 1.373.508.478.767 1.48.767 1.48s-.936-.39-1.224-.87c-.348-.576-.475-1.943-.478-1.986z" fill="#929292"/><path d="M2.059 17.854c.352.287.672.498 1.036.87.213.215.41.938.352 1.307-.002.156-.073.252-.073.252s-.259-1.002-.768-1.48c-.49-.46-.904-1.314-.932-1.373.022.03.201.274.385.424z" fill="#E6E6E6"/><path d="M1.38 19.85l.002.001c.044.054.682.824 1.3 1.174.641.362 1.158 1.324 1.158 1.324s-1.058-.164-1.473-.584c-.501-.504-.973-1.873-.988-1.916z" fill="#929292"/><path d="M1.883 20.19c.433.206.814.342 1.28.63.272.169.656.86.688 1.253.038.16-.011.276-.011.276s-.517-.962-1.158-1.324c-.618-.35-1.256-1.12-1.3-1.174.03.025.275.23.5.338z" fill="#E6E6E6"/><path d="M3.64 18.9v.003c.006.08.093 1.232.442 1.974.362.769.206 2.02.206 2.02s-.886-.861-.997-1.534c-.136-.809.334-2.413.35-2.463z" fill="#929292"/><path d="M3.887 19.556c.27.483.538.866.784 1.449.144.34.044 1.248-.188 1.639-.071.176-.195.253-.195.253s.156-1.251-.206-2.02c-.349-.742-.436-1.893-.441-1.974.012.044.106.4.246.653z" fill="#E6E6E6"/><path d="M1.477 23.628h.004c.075.028 1.167.404 1.986.378.85-.028 1.937.61 1.937.61s-1.142.473-1.803.31c-.797-.197-2.084-1.264-2.124-1.298z" fill="#929292"/><path d="M2.178 23.662c.55-.057 1.008-.151 1.64-.146.37.002 1.164.454 1.43.822.134.135.156.279.156.279s-1.087-.639-1.937-.611c-.819.026-1.91-.35-1.986-.377.044.006.41.061.697.032z" fill="#E6E6E6"/><path d="M3.815 22.425c0 .002.001.002.002.003.04.07.635 1.06 1.28 1.566.668.525 1.09 1.713 1.09 1.713s-1.178-.372-1.58-.923c-.484-.662-.784-2.307-.792-2.358z" fill="#929292"/><path d="M4.33 22.901c.458.311.87.533 1.35.943.281.24.6 1.096.568 1.55.015.189-.061.313-.061.313s-.422-1.188-1.09-1.713c-.645-.506-1.24-1.497-1.28-1.566.03.034.274.31.513.473z" fill="#E6E6E6"/><path d="M6.387 22.177v.004c.007.08.109 1.23.467 1.967.372.764.233 2.017.233 2.017s-.897-.849-1.017-1.52c-.146-.807.302-2.418.317-2.468z" fill="#929292"/><path d="M6.642 22.83c.276.48.55.86.803 1.439.148.338.06 1.247-.166 1.64a.559.559 0 01-.192.256s.14-1.253-.233-2.017c-.358-.737-.46-1.887-.467-1.967.013.043.111.399.255.65z" fill="#E6E6E6"/><path d="M8.14 23.256v.003c.007.08.11 1.23.468 1.968.372.764.233 2.017.233 2.017s-.898-.85-1.018-1.52c-.146-.808.302-2.418.317-2.468z" fill="#929292"/><path d="M8.396 23.909c.276.48.55.859.803 1.438.148.338.06 1.247-.167 1.641-.069.177-.191.256-.191.256s.139-1.253-.233-2.017c-.359-.737-.461-1.887-.467-1.968.012.043.11.4.255.65z" fill="#E6E6E6"/><path d="M2.887 26.265h.003c.083.015 1.276.215 2.118.047.873-.175 2.106.298 2.106.298s-1.098.685-1.81.63c-.857-.066-2.37-.947-2.417-.975z" fill="#929292"/><path d="M3.616 26.179c.56-.153 1.016-.33 1.67-.434.383-.06 1.28.27 1.62.603.161.117.208.262.208.262s-1.233-.473-2.106-.298c-.842.168-2.035-.032-2.118-.047.047-.001.434-.007.726-.086z" fill="#E6E6E6"/><path d="M6.387 29.025l.003-.001c.067-.025 1.026-.38 1.573-.859.566-.496 1.67-.67 1.67-.67s-.517.966-1.062 1.225c-.657.313-2.138.306-2.184.305z" fill="#929292"/><path d="M6.886 28.654c.345-.348.606-.67 1.042-1.022.254-.206 1.052-.342 1.442-.24a.495.495 0 01.262.103s-1.103.174-1.67.67c-.546.479-1.505.834-1.572.859.034-.021.315-.189.496-.37z" fill="#E6E6E6"/><path d="M12.297 11.555l-.002.002c-.064.025-.973.402-1.48.882-.527.497-1.581.704-1.581.704s.46-.947.976-1.216c.619-.324 2.043-.37 2.087-.372z" fill="#929292"/><path d="M11.832 11.93c-.32.347-.559.666-.965 1.02-.237.206-.999.367-1.377.283-.161-.01-.256-.09-.256-.09s1.054-.207 1.58-.704c.508-.48 1.417-.857 1.48-.882-.031.021-.296.192-.463.373z" fill="#E6E6E6"/><path d="M10.09 11.035l-.002.002c-.037.058-.56.891-.697 1.576-.142.71-.882 1.489-.882 1.489s-.171-1.039.093-1.556c.317-.623 1.451-1.485 1.487-1.511z" fill="#929292"/><path d="M9.926 11.61c-.06.468-.07.866-.197 1.39-.073.305-.602.877-.959 1.027-.138.085-.261.075-.261.075s.74-.779.882-1.489c.136-.685.66-1.518.697-1.575-.013.035-.13.328-.162.572z" fill="#E6E6E6"/><path d="M8.32 11.857v.002c-.016.053-.233.816-.184 1.377.052.582-.345 1.351-.345 1.351s-.367-.765-.28-1.224c.104-.554.787-1.478.809-1.506z" fill="#929292"/><path d="M8.323 12.338c.06.376.142.686.163 1.12.012.253-.267.815-.51 1.013a.385.385 0 01-.185.116s.397-.77.345-1.351c-.049-.56.168-1.324.183-1.377-.002.03-.026.283.004.48z" fill="#E6E6E6"/><path d="M11.916 13.704h-.002c-.058.016-.887.237-1.38.594-.511.37-1.446.428-1.446.428s.507-.765.982-.939c.572-.21 1.808-.088 1.846-.083z" fill="#929292"/><path d="M11.47 13.974c-.315.264-.557.512-.949.771-.228.152-.904.204-1.222.088-.138-.028-.21-.107-.21-.107s.934-.059 1.445-.428c.493-.357 1.322-.578 1.38-.593-.03.015-.278.132-.443.27z" fill="#E6E6E6"/><path d="M9.387 13.193l-.001.002c-.04.052-.604.802-.79 1.441-.19.664-.956 1.344-.956 1.344s-.08-1.001.213-1.471c.351-.567 1.498-1.294 1.534-1.316z" fill="#929292"/><path d="M9.186 13.726c-.094.44-.136.817-.298 1.304-.095.285-.643.785-.994.9-.138.069-.254.05-.254.05s.765-.68.957-1.344c.185-.64.749-1.389.789-1.44-.016.032-.15.3-.2.53z" fill="#E6E6E6"/><path d="M9.883 15.382l-.002.001c-.06.027-.912.42-1.378.895-.483.493-1.48.729-1.48.729s.405-.919.885-1.194c.578-.332 1.933-.43 1.975-.431z" fill="#929292"/><path d="M9.453 15.755c-.291.343-.507.655-.88 1.008-.219.205-.938.386-1.302.32-.154-.004-.247-.076-.247-.076s.996-.236 1.48-.73c.465-.475 1.317-.867 1.377-.894-.03.021-.275.194-.428.373z" fill="#E6E6E6"/><path d="M6.065 13.256v.003c-.002.082-.018 1.255.268 2.037.296.811.025 2.063.025 2.063s-.819-.952-.87-1.642c-.064-.831.557-2.412.577-2.461z" fill="#929292"/><path d="M6.255 13.942c.23.514.466.925.662 1.537.114.357-.069 1.267-.339 1.642-.088.171-.22.238-.22.238s.27-1.252-.026-2.063c-.285-.782-.269-1.955-.267-2.037.008.045.07.415.19.683z" fill="#E6E6E6"/><path d="M7.761 14.768v.003c-.04.071-.595 1.105-.7 1.931-.111.857-.928 1.843-.928 1.843s-.289-1.221-.017-1.858c.326-.767 1.605-1.885 1.645-1.92z" fill="#929292"/><path d="M7.615 15.465c-.033.561-.013 1.036-.12 1.669-.063.37-.644 1.093-1.056 1.301-.158.112-.306.11-.306.11s.817-.986.927-1.843c.107-.826.661-1.86.7-1.931-.013.044-.128.401-.145.694z" fill="#E6E6E6"/><path d="M8.651 17.359l-.001.002c-.055.046-.833.71-1.18 1.346-.361.66-1.337 1.202-1.337 1.202s.153-1.083.575-1.514c.508-.52 1.9-1.021 1.943-1.036z" fill="#929292"/><path d="M8.311 17.878c-.204.445-.338.837-.626 1.317-.168.28-.869.683-1.27.721-.162.04-.282-.007-.282-.007s.976-.542 1.336-1.202c.348-.637 1.126-1.3 1.18-1.346-.024.031-.23.285-.338.517z" fill="#E6E6E6"/><path d="M5.2 17.007v.002c.014.06.227.903.581 1.409.368.524.413 1.473.413 1.473s-.769-.525-.938-1.01c-.204-.584-.062-1.835-.057-1.874z" fill="#929292"/><path d="M5.467 17.462c.262.325.51.574.768.976.15.234.193.92.071 1.24-.03.14-.112.213-.112.213s-.045-.949-.413-1.473c-.354-.506-.566-1.35-.58-1.409.014.03.13.284.266.453z" fill="#E6E6E6"/><path d="M7.747 19.584l-.002.002c-.045.04-.693.622-.975 1.171-.293.57-1.111 1.052-1.111 1.052s.106-.925.456-1.3c.421-.454 1.595-.91 1.632-.925z" fill="#929292"/><path d="M7.469 20.034c-.165.383-.27.719-.505 1.134-.137.242-.725.6-1.065.641-.138.038-.24 0-.24 0s.818-.482 1.11-1.052c.283-.55.93-1.13.976-1.17a2.44 2.44 0 00-.276.447z" fill="#E6E6E6"/><path d="M5.75 19.331v.004c-.019.081-.276 1.25-.151 2.092.13.872-.399 2.068-.399 2.068s-.623-1.12-.533-1.821c.108-.844 1.053-2.298 1.083-2.343z" fill="#929292"/><path d="M5.8 20.057c.123.56.276 1.02.346 1.673.041.38-.33 1.253-.677 1.572a.58.58 0 01-.269.193s.529-1.196.399-2.068c-.125-.841.132-2.01.151-2.092 0 .046-.014.43.05.722z" fill="#E6E6E6"/><path d="M15.758 23.094h-4.034v-.848c1.381-1 2.44-1.9 2.44-2.657 0-.922-1.211-.937-2.195-.27h-.11v-1.142c1.044-.456 3.66-.709 3.66 1.232 0 1.093-1.02 1.948-2.07 2.702h2.309v.983z" fill="#E6E3E3"/></svg>