<svg width="21" height="31" fill="none" xmlns="http://www.w3.org/2000/svg"><path d="M14.704 11.626a9.998 9.998 0 015.458 8.91c0 5.524-4.477 10.001-10 10.001s-10-4.477-10-10a9.998 9.998 0 0114.542-8.91z" fill="#FFCE68"/><path d="M10.162 30.128a9.527 9.527 0 01-6.781-2.81 9.528 9.528 0 01-2.81-6.781c0-3.52 1.924-6.75 5.02-8.433a9.607 9.607 0 014.571-1.157c1.534 0 3 .35 4.356 1.044a9.624 9.624 0 013.783 3.47 9.564 9.564 0 011.452 5.076c0 2.562-.998 4.97-2.81 6.782a9.528 9.528 0 01-6.781 2.809z" fill="#FDBC62"/><path d="M10.162 28.958a8.365 8.365 0 01-5.954-2.466 8.366 8.366 0 01-2.467-5.955 8.422 8.422 0 014.407-7.404 8.433 8.433 0 014.014-1.017c1.347 0 2.634.308 3.825.917a8.45 8.45 0 013.322 3.047 8.397 8.397 0 011.274 4.457c0 2.25-.876 4.364-2.466 5.955a8.366 8.366 0 01-5.955 2.466z" stroke="#C49047" stroke-width="2.611" stroke-miterlimit="10"/><path d="M10.162 26.247a5.673 5.673 0 01-4.037-1.672 5.674 5.674 0 01-1.673-4.038 5.711 5.711 0 119.748 4.038 5.674 5.674 0 01-4.038 1.672v0z" stroke="#FDBC62" stroke-width="1.865" stroke-miterlimit="10"/><path d="M10.162 27.49a6.907 6.907 0 01-4.916-2.036 6.908 6.908 0 01-2.037-4.917 6.955 6.955 0 013.638-6.114 6.964 6.964 0 013.315-.839c1.113 0 2.175.255 3.158.757a6.979 6.979 0 012.743 2.516 6.935 6.935 0 011.052 3.68 6.908 6.908 0 01-2.036 4.917 6.907 6.907 0 01-4.917 2.036v0z" stroke="#C49047" stroke-width="2.611" stroke-miterlimit="10"/><path d="M13.215 10.103v-.37a.194.194 0 00-.193-.193H6.944a.194.194 0 00-.194.194v.37c0 .107.087.194.194.194h6.078a.194.194 0 00.193-.195zm1.003-.276c.254.568.396 1.179.418 1.8a9.955 9.955 0 00-4.542-1.09c-1.727 0-3.35.438-4.767 1.207.007-.66.15-1.313.42-1.917l.127-.281a1 1 0 01.776-.583l.372-.053a21.362 21.362 0 015.922 0l.372.053a1 1 0 01.775.583l.127.28z" fill="#FDBC62"/><path d="M16.33 0l-3.467 9.683h-1.926L14.394.008V0h1.937z" fill="#FF545F"/><path d="M14.394 0v.008l-3.457 9.675H9.034L12.491.008V0h1.903z" fill="#62DADC"/><path d="M12.491 0v.008L9.034 9.683H7.091L10.558 0h1.933z" fill="#AC748C"/><path d="M19.497 20.537a5.71 5.71 0 11-11.42 0 5.71 5.71 0 0111.42 0z" fill="#FFDEAE"/><path d="M3.623 0L7.09 9.683h1.927L5.56.008V0H3.623z" fill="#AC748C"/><path d="M5.56 0v.008l3.457 9.675h1.902L7.462.008V0H5.56z" fill="#62DADC"/><path d="M7.462 0v.008l3.457 9.675h1.944L9.395 0H7.462z" fill="#FF545F"/><path d="M19.125 20.537a5.338 5.338 0 11-10.676 0 5.338 5.338 0 0110.676 0z" fill="#FFCE68"/><path d="M17.852 20.537a4.065 4.065 0 11-8.13 0 4.065 4.065 0 018.13 0z" fill="#C49047"/><path d="M15.514 23.131H12.06v-.903h1.09v-2.735h-1.09v-.845c.167 0 .326-.01.48-.029.152-.02.28-.054.382-.103a.645.645 0 00.27-.225.716.716 0 00.105-.348h1.15v4.285h1.067v.903z" fill="#FFCE68"/><path d="M8.99 18.759v.001c0 .025-.002.38.087.616.092.244.014.624.014.624s-.25-.286-.268-.495c-.022-.25.16-.731.167-.746z" fill="#C49047"/><path d="M9.05 18.966c.07.155.143.279.204.463.036.108-.017.384-.097.498A.172.172 0 019.09 20s.078-.38-.014-.624c-.089-.236-.087-.591-.087-.616.003.014.023.125.06.206z" fill="#FFDEAE"/><path d="M9.825 19.102v.001c-.017.019-.252.284-.341.52-.093.244-.402.478-.402.478s0-.38.125-.549c.15-.203.604-.442.618-.45z" fill="#C49047"/><path d="M9.733 19.297c-.049.163-.076.304-.152.483-.044.105-.266.277-.402.31-.054.021-.097.01-.097.01s.31-.233.402-.477c.089-.236.324-.501.34-.52-.006.012-.065.11-.09.194z" fill="#FFDEAE"/><path d="M8.769 19.628v.001c.003.025.054.376.176.597.127.228.105.615.105.615s-.29-.246-.337-.45c-.059-.245.052-.747.056-.762z" fill="#C49047"/><path d="M8.858 19.825c.093.142.183.254.27.428.052.101.04.382-.023.506-.019.056-.055.082-.055.082s.022-.387-.105-.615c-.122-.22-.173-.572-.176-.597.005.014.04.121.09.196z" fill="#FFDEAE"/><path d="M9.646 19.846h-.001c-.014.021-.208.319-.261.565-.056.255-.328.531-.328.531s-.055-.375.044-.56c.118-.223.532-.527.546-.536z" fill="#C49047"/><path d="M9.583 20.052c-.024.168-.03.312-.08.5-.028.11-.222.313-.352.365-.05.03-.095.025-.095.025s.272-.276.328-.531c.053-.247.247-.544.261-.564-.005.013-.049.117-.062.205z" fill="#FFDEAE"/><path d="M8.678 20.572v.001c.009.023.14.353.31.54.176.192.244.574.244.574s-.338-.172-.432-.36c-.114-.225-.122-.739-.122-.755z" fill="#C49047"/><path d="M8.81 20.742c.123.118.237.206.362.354.073.087.127.363.094.499-.005.058-.034.092-.034.092s-.068-.382-.244-.575c-.17-.186-.301-.516-.31-.539.008.012.068.108.132.17z" fill="#FFDEAE"/><path d="M9.58 20.58v.002c-.008.023-.128.357-.123.609.005.261-.195.593-.195.593s-.141-.353-.088-.556c.063-.244.396-.635.407-.647z" fill="#C49047"/><path d="M9.568 20.796c.015.17.042.31.038.505-.002.113-.144.356-.258.436-.042.04-.086.047-.086.047s.2-.332.195-.593c-.005-.252.115-.586.124-.61-.002.014-.02.127-.013.215z" fill="#FFDEAE"/><path d="M8.784 21.457v.001c.012.022.178.336.368.502.196.172.306.544.306.544s-.356-.134-.47-.31c-.137-.21-.202-.72-.204-.736z" fill="#C49047"/><path d="M8.934 21.612c.136.103.258.178.4.312.082.078.165.346.148.485.001.058-.024.095-.024.095s-.11-.372-.306-.544c-.19-.166-.356-.48-.367-.502.008.011.079.1.15.154z" fill="#FFDEAE"/><path d="M9.683 21.366v.002c-.006.024-.089.369-.056.619.034.259-.13.61-.13.61s-.178-.335-.147-.542c.036-.25.324-.675.333-.689z" fill="#C49047"/><path d="M9.694 21.582c.033.167.076.304.093.497.01.113-.104.37-.208.463-.038.044-.081.055-.081.055s.163-.351.129-.61c-.033-.25.05-.595.056-.62 0 .014-.007.128.01.215z" fill="#FFDEAE"/><path d="M9.02 22.326c.015.02.237.297.454.425.225.133.401.478.401.478s-.374-.065-.518-.217c-.175-.182-.333-.671-.338-.686z" fill="#C49047"/><path d="M9.196 22.45c.152.076.286.127.45.232.095.062.226.31.235.45a.171.171 0 01-.006.097s-.176-.345-.401-.477c-.217-.129-.439-.406-.454-.426.01.01.096.084.176.124z" fill="#FFDEAE"/><path d="M9.886 22.07c-.002.026-.019.38.06.62.08.248-.014.623-.014.623s-.238-.296-.246-.505c-.01-.252.193-.724.2-.738z" fill="#C49047"/><path d="M9.936 22.28c.064.157.132.284.184.47.032.11-.033.383-.119.494a.172.172 0 01-.069.07s.095-.376.014-.625c-.079-.239-.062-.593-.06-.618.002.013.017.126.05.208z" fill="#FFDEAE"/><path d="M9.386 23.122c.02.017.286.251.522.34.245.09.479.4.479.4s-.38 0-.549-.123c-.203-.15-.445-.603-.452-.617z" fill="#C49047"/><path d="M9.581 23.213c.163.048.305.075.484.15.104.044.277.265.31.4.023.055.012.098.012.098s-.234-.308-.48-.4c-.235-.088-.502-.322-.52-.339.012.007.11.066.194.091z" fill="#FFDEAE"/><path d="M10.194 22.718v.001c.003.025.048.377.168.599.123.23.095.616.095.616s-.285-.25-.33-.454c-.055-.246.063-.747.067-.762z" fill="#C49047"/><path d="M10.28 22.915c.091.144.18.258.264.432.05.103.034.383-.03.507-.02.055-.056.08-.056.08s.027-.386-.096-.616c-.12-.222-.165-.574-.168-.599.005.013.04.121.086.196z" fill="#FFDEAE"/><path d="M9.986 23.916c.023.012.338.175.589.203.26.029.562.27.562.27s-.368.094-.562.015c-.234-.094-.578-.476-.589-.488z" fill="#C49047"/><path d="M10.198 23.957c.17.008.313-.001.505.028.112.017.334.19.4.313a.172.172 0 01.034.092s-.303-.242-.562-.271c-.25-.028-.566-.19-.588-.202a.95.95 0 00.21.04z" fill="#FFDEAE"/><path d="M10.671 23.328c.01.024.14.354.309.54.176.194.243.576.243.576s-.338-.173-.432-.36c-.113-.226-.12-.74-.12-.756z" fill="#C49047"/><path d="M10.803 23.498c.123.118.237.206.361.355.074.087.126.363.094.499a.17.17 0 01-.035.092s-.067-.382-.243-.575c-.17-.187-.3-.517-.308-.54a.982.982 0 00.131.17z" fill="#FFDEAE"/><path d="M10.64 24.486h.001c.022.01.344.162.595.18.26.02.572.25.572.25s-.365.108-.562.036c-.237-.086-.595-.455-.606-.466z" fill="#C49047"/><path d="M10.853 24.519c.17 0 .313-.013.506.01.113.012.341.176.41.297.037.046.039.09.039.09s-.311-.23-.572-.25c-.251-.018-.572-.17-.595-.18.014.003.123.032.212.033z" fill="#FFDEAE"/><path d="M11.303 23.873h.001c.01.023.151.349.328.529.183.187.264.565.264.565s-.344-.16-.445-.344c-.121-.221-.147-.734-.148-.75z" fill="#C49047"/><path d="M11.442 24.038c.127.113.243.197.374.342.076.084.138.357.11.494a.173.173 0 01-.03.093s-.082-.378-.264-.565c-.176-.18-.318-.506-.328-.528.008.01.071.105.138.164z" fill="#FFDEAE"/><path d="M11.48 25.025h.002c.024.005.374.063.621.014.257-.052.619.087.619.087s-.323.2-.531.185c-.252-.02-.696-.277-.71-.286z" fill="#C49047"/><path d="M11.695 25c.164-.045.298-.097.49-.128.112-.018.376.08.475.177.048.034.062.077.062.077s-.362-.139-.619-.087c-.247.05-.597-.01-.621-.014a.993.993 0 00.213-.025z" fill="#FFDEAE"/><path d="M12.468 25.37c.025 0 .38-.001.616-.091.244-.094.623-.018.623-.018s-.283.252-.492.271c-.251.024-.732-.157-.747-.162z" fill="#C49047"/><path d="M12.674 25.309c.155-.072.278-.146.462-.208.108-.036.384.015.498.095.053.025.073.065.073.065s-.38-.076-.623.018c-.236.09-.59.09-.615.09a.963.963 0 00.205-.06z" fill="#FFDEAE"/><path d="M11.954 24.256h.001c.016.02.24.295.458.421.226.13.407.474.407.474s-.375-.062-.521-.212c-.176-.18-.34-.668-.345-.683z" fill="#C49047"/><path d="M12.132 24.378c.153.075.288.124.452.228.096.06.23.307.24.447.014.057-.004.098-.004.098s-.18-.343-.407-.474c-.218-.126-.442-.4-.458-.42.01.009.097.082.177.121z" fill="#FFDEAE"/><path d="M12.792 24.619c.017.015.252.218.46.293.214.078.422.346.422.346s-.332.004-.481-.103c-.18-.129-.395-.524-.401-.536z" fill="#C49047"/><path d="M12.963 24.697c.144.041.268.063.425.127.092.038.245.23.276.349.02.047.01.085.01.085s-.208-.268-.423-.346c-.207-.075-.442-.278-.458-.293.01.006.096.057.17.078z" fill="#FFDEAE"/><path d="M13.159 25.594c.012-.006.176-.088.264-.184.091-.099.284-.15.284-.15s-.073.18-.165.237c-.11.069-.375.096-.383.097z" fill="#C49047"/><path d="M13.24 25.518c.056-.069.096-.13.167-.202a.4.4 0 01.252-.07c.03 0 .049.013.049.013s-.194.052-.285.151a1.067 1.067 0 01-.264.183.525.525 0 00.082-.075z" fill="#FFDEAE"/><path d="M18.584 18.759v.001c0 .025.002.38-.087.616-.092.244-.014.624-.014.624s.25-.286.268-.495c.022-.25-.16-.731-.167-.746z" fill="#C49047"/><path d="M18.524 18.966c-.07.155-.143.279-.204.463-.036.108.017.384.097.498a.17.17 0 00.066.073s-.078-.38.014-.624c.089-.236.087-.591.087-.616-.003.014-.023.125-.06.206z" fill="#FFDEAE"/><path d="M17.748 19.102l.001.001c.017.019.252.284.341.52.093.244.402.478.402.478s0-.38-.125-.549c-.15-.203-.604-.442-.619-.45z" fill="#C49047"/><path d="M17.84 19.297c.05.163.076.304.152.483.045.105.267.277.402.31.054.021.098.01.098.01s-.31-.233-.402-.477c-.089-.236-.324-.501-.34-.52.006.012.065.11.09.194z" fill="#FFDEAE"/><path d="M18.805 19.628v.001c-.003.025-.054.376-.176.597-.127.228-.105.615-.105.615s.29-.246.337-.45c.058-.245-.052-.747-.056-.762z" fill="#C49047"/><path d="M18.716 19.825c-.093.142-.183.254-.27.428-.052.101-.04.382.023.506.018.056.055.082.055.082s-.022-.387.105-.615c.122-.22.173-.572.176-.597-.005.014-.041.121-.09.196z" fill="#FFDEAE"/><path d="M17.928 19.846c.014.021.208.319.262.565.056.255.327.531.327.531s.056-.375-.043-.56c-.118-.223-.533-.527-.546-.536z" fill="#C49047"/><path d="M17.99 20.052c.025.168.031.312.08.5.029.11.223.313.353.365.05.03.094.025.094.025s-.271-.276-.327-.531c-.054-.247-.248-.544-.261-.564.005.013.049.117.062.205z" fill="#FFDEAE"/><path d="M18.896 20.572v.001c-.01.023-.14.353-.31.54-.176.192-.244.574-.244.574s.338-.172.432-.36c.114-.225.122-.739.122-.755z" fill="#C49047"/><path d="M18.764 20.742c-.123.118-.237.206-.362.354-.074.087-.127.363-.095.499a.172.172 0 00.035.092s.068-.382.244-.575c.17-.186.301-.516.31-.539-.008.012-.068.108-.132.17z" fill="#FFDEAE"/><path d="M17.993 20.58v.002c.009.023.129.357.124.609-.005.261.195.593.195.593s.141-.353.088-.556c-.063-.244-.396-.635-.407-.647z" fill="#C49047"/><path d="M18.006 20.796c-.015.17-.043.31-.039.505.003.113.145.356.259.436.042.04.086.047.086.047s-.2-.332-.195-.593c.005-.252-.115-.586-.124-.61.002.014.02.127.013.215z" fill="#FFDEAE"/><path d="M18.79 21.457v.001c-.012.022-.178.336-.368.502-.196.172-.306.544-.306.544s.355-.134.47-.31c.137-.21.202-.72.204-.736z" fill="#C49047"/><path d="M18.64 21.612c-.136.103-.259.178-.4.312-.082.078-.165.346-.148.485a.172.172 0 00.024.095s.11-.372.306-.544c.19-.166.356-.48.367-.502-.009.011-.079.1-.15.154z" fill="#FFDEAE"/><path d="M17.891 21.366v.002c.006.024.089.369.056.619-.034.259.129.61.129.61s.179-.335.148-.542c-.036-.25-.324-.675-.333-.689z" fill="#C49047"/><path d="M17.88 21.582c-.033.167-.076.304-.093.497-.01.113.104.37.208.463.038.044.081.055.081.055s-.163-.351-.13-.61c.034-.25-.049-.595-.055-.62 0 .014.007.128-.01.215z" fill="#FFDEAE"/><path d="M18.555 22.326h-.001c-.015.02-.237.297-.454.425-.225.133-.402.478-.402.478s.375-.065.52-.217c.174-.182.332-.671.337-.686z" fill="#C49047"/><path d="M18.378 22.45c-.152.076-.286.127-.45.232-.095.062-.227.31-.235.45a.17.17 0 00.005.097s.177-.345.402-.477c.217-.129.438-.406.454-.426a.916.916 0 01-.176.124z" fill="#FFDEAE"/><path d="M17.688 22.07c.002.026.019.38-.06.62-.08.248.014.623.014.623s.238-.296.246-.505c.01-.252-.193-.724-.2-.738z" fill="#C49047"/><path d="M17.638 22.28c-.064.157-.132.284-.185.47-.03.11.034.383.12.494.028.05.069.07.069.07s-.095-.376-.014-.625c.078-.239.062-.593.06-.618-.002.013-.017.126-.05.208z" fill="#FFDEAE"/><path d="M18.188 23.122h-.001c-.018.017-.285.251-.521.34-.245.09-.48.4-.48.4s.38 0 .55-.123c.203-.15.445-.603.452-.617z" fill="#C49047"/><path d="M17.993 23.213c-.163.048-.305.075-.484.15-.105.044-.278.265-.31.4-.023.055-.012.098-.012.098s.234-.308.479-.4c.236-.088.503-.322.521-.339-.012.007-.11.066-.194.091z" fill="#FFDEAE"/><path d="M17.38 22.718v.001c-.003.025-.049.377-.168.599-.123.23-.096.616-.096.616s.286-.25.331-.454c.055-.246-.063-.747-.067-.762z" fill="#C49047"/><path d="M17.294 22.915c-.091.144-.18.258-.265.432-.05.103-.033.383.032.507.019.055.055.08.055.08s-.027-.386.096-.616c.12-.222.165-.574.168-.599-.005.013-.04.121-.086.196z" fill="#FFDEAE"/><path d="M17.588 23.916h-.001c-.022.012-.337.175-.588.203-.26.029-.562.27-.562.27s.368.094.562.015c.234-.094.578-.476.589-.488z" fill="#C49047"/><path d="M17.376 23.957c-.17.008-.313-.001-.505.028-.112.017-.334.19-.4.313a.172.172 0 00-.034.092s.302-.242.562-.271c.25-.028.566-.19.588-.202a.95.95 0 01-.21.04z" fill="#FFDEAE"/><path d="M16.903 23.328c-.01.024-.14.354-.309.54-.176.194-.243.576-.243.576s.338-.173.431-.36c.113-.226.12-.74.12-.756z" fill="#C49047"/><path d="M16.77 23.498c-.122.118-.236.206-.36.355-.074.087-.127.363-.094.499.005.058.035.092.035.092s.067-.382.243-.575c.17-.187.3-.517.308-.54a.982.982 0 01-.131.17z" fill="#FFDEAE"/><path d="M16.934 24.486h-.001c-.023.01-.344.162-.595.18-.26.02-.572.25-.572.25s.365.108.561.036c.237-.086.596-.455.607-.466z" fill="#C49047"/><path d="M16.72 24.519c-.17 0-.313-.013-.506.01-.112.012-.34.176-.41.297a.172.172 0 00-.038.09s.311-.23.572-.25c.251-.018.572-.17.595-.18-.014.003-.123.032-.212.033z" fill="#FFDEAE"/><path d="M16.27 23.873c-.01.023-.152.349-.328.529-.183.187-.264.565-.264.565s.344-.16.445-.344c.12-.221.147-.734.147-.75z" fill="#C49047"/><path d="M16.132 24.038c-.127.113-.243.197-.374.342-.076.084-.139.357-.111.494a.173.173 0 00.031.093s.081-.378.264-.565c.176-.18.318-.506.328-.528-.008.01-.071.105-.138.164z" fill="#FFDEAE"/><path d="M16.093 25.025h-.001c-.024.005-.374.063-.622.014-.256-.052-.618.087-.618.087s.322.2.531.185c.252-.02.696-.277.71-.286z" fill="#C49047"/><path d="M15.879 25c-.164-.045-.298-.097-.49-.128-.112-.018-.376.08-.475.177a.17.17 0 00-.062.077s.362-.139.618-.087c.247.05.598-.01.622-.014a.993.993 0 01-.213-.025z" fill="#FFDEAE"/><path d="M15.62 24.256h-.001c-.016.02-.24.295-.458.421-.227.13-.407.474-.407.474s.375-.062.52-.212c.177-.18.34-.668.346-.683z" fill="#C49047"/><path d="M15.442 24.378c-.153.075-.288.124-.452.228-.096.06-.23.307-.24.447a.17.17 0 00.004.098s.18-.343.407-.474c.218-.126.442-.4.458-.42a.972.972 0 01-.177.121z" fill="#FFDEAE"/><path d="M15.24 25.368c-.026 0-.38-.003-.615-.095-.243-.096-.624-.023-.624-.023s.282.255.49.275c.252.025.734-.151.75-.157z" fill="#C49047"/><path d="M15.034 25.305c-.154-.072-.277-.147-.46-.21-.108-.038-.384.012-.5.09-.052.026-.073.066-.073.066s.38-.074.624.022c.235.091.59.095.614.095-.013-.003-.125-.025-.205-.063z" fill="#FFDEAE"/><path d="M14.782 24.619c-.017.015-.252.218-.46.293-.215.078-.422.346-.422.346s.332.004.48-.103c.18-.129.396-.524.402-.536z" fill="#C49047"/><path d="M14.61 24.697c-.143.041-.267.063-.424.127-.092.038-.245.23-.276.349-.02.047-.01.085-.01.085s.207-.268.422-.346c.208-.075.443-.278.46-.293-.011.006-.097.057-.171.078z" fill="#FFDEAE"/><path d="M14.415 25.594c-.012-.006-.176-.088-.264-.184-.092-.099-.285-.15-.285-.15s.074.18.166.237c.11.069.375.096.383.097z" fill="#C49047"/><path d="M14.333 25.518c-.055-.069-.095-.13-.166-.202a.401.401 0 00-.252-.07c-.03 0-.049.013-.049.013s.193.052.285.151c.088.096.252.178.263.183-.005-.004-.052-.04-.08-.075z" fill="#FFDEAE"/><path d="M11.387 13.164c-2.667.54-4.691 2.13-5.836 4.06-.943 1.587-1.076 2.864-.678 4.378 1.926 7.632 4.66 3.62 8.335 7.339.031.032.026.074 0 .098l-.28.263a.067.067 0 01-.094-.003c-2.266-2.269-4.023-1.405-5.825-2.663-1.53-1.08-2.192-3.337-2.61-5.215-.407-1.84.146-3.484 1.317-5.03a9.98 9.98 0 01.328-.399c1.438-1.565 3.116-2.572 5.343-2.828zM3.51 15.323v.003c-.013.077-.18 1.179-.014 1.952.174.801-.243 1.944-.243 1.944s-.647-1.002-.606-1.658c.048-.79.837-2.197.862-2.24z" fill="#C49047"/><path d="M3.6 15.994c.148.513.318.93.422 1.532.062.35-.229 1.183-.531 1.5-.106.15-.239.196-.239.196s.418-1.143.244-1.944c-.167-.773 0-1.875.013-1.951.002.043.013.4.09.667z" fill="#FFDEAE"/><path d="M5.195 16.654l-.001.003c-.026.074-.386 1.128-.36 1.918.03.82-.584 1.87-.584 1.87s-.459-1.1-.302-1.739c.188-.77 1.214-2.014 1.247-2.052z" fill="#C49047"/><path d="M5.164 17.33c.056.531.148.973.145 1.583-.002.356-.436 1.123-.79 1.382-.13.129-.27.15-.27.15s.614-1.05.586-1.87c-.027-.79.333-1.844.359-1.918-.006.043-.058.396-.03.673z" fill="#FFDEAE"/><path d="M1.834 17.427l.002.003c.028.06.443.912.933 1.373.509.478.768 1.48.768 1.48s-.937-.39-1.225-.87c-.348-.576-.474-1.943-.478-1.986z" fill="#C49047"/><path d="M2.221 17.854c.352.287.673.498 1.036.869.213.216.41.94.352 1.308-.002.156-.072.252-.072.252s-.26-1.002-.768-1.48c-.49-.461-.905-1.314-.933-1.373.022.03.202.274.385.424z" fill="#FFDEAE"/><path d="M1.542 19.85l.002.001c.044.054.682.824 1.3 1.174.642.362 1.158 1.324 1.158 1.324s-1.057-.164-1.473-.584c-.501-.504-.973-1.873-.987-1.916z" fill="#C49047"/><path d="M2.045 20.19c.433.206.814.342 1.28.63.272.169.656.86.688 1.253a.485.485 0 01-.01.276s-.517-.962-1.159-1.324c-.618-.35-1.256-1.12-1.3-1.174.03.025.276.23.501.338z" fill="#FFDEAE"/><path d="M3.803 18.9v.003c.006.08.093 1.232.441 1.974.362.769.207 2.02.207 2.02s-.886-.861-.998-1.534c-.135-.809.334-2.413.35-2.463z" fill="#C49047"/><path d="M4.05 19.556c.27.483.537.866.783 1.449.144.34.044 1.248-.188 1.639-.071.176-.195.253-.195.253s.156-1.251-.206-2.02c-.348-.742-.436-1.894-.44-1.974.011.044.105.4.245.653z" fill="#FFDEAE"/><path d="M1.64 23.628h.003c.076.028 1.168.404 1.987.378.85-.028 1.936.61 1.936.61s-1.141.473-1.803.309c-.797-.196-2.084-1.263-2.123-1.297z" fill="#C49047"/><path d="M2.34 23.661c.55-.056 1.008-.15 1.64-.145.37.002 1.164.454 1.431.822.133.135.155.279.155.279s-1.087-.639-1.936-.611c-.82.026-1.911-.35-1.987-.377.045.006.41.061.697.032z" fill="#FFDEAE"/><path d="M3.977 22.425c0 .002.002.002.002.003.04.07.635 1.06 1.28 1.566.668.525 1.09 1.713 1.09 1.713s-1.178-.372-1.58-.923c-.483-.663-.783-2.307-.792-2.359z" fill="#C49047"/><path d="M4.492 22.901c.458.311.87.533 1.35.943.282.24.6 1.096.568 1.55.015.189-.06.313-.06.313s-.423-1.188-1.091-1.713c-.645-.507-1.239-1.497-1.28-1.566.03.033.275.31.513.473z" fill="#FFDEAE"/><path d="M6.549 22.177v.004c.007.08.11 1.23.468 1.967.372.764.233 2.017.233 2.017s-.898-.849-1.018-1.52c-.146-.807.302-2.418.317-2.468z" fill="#C49047"/><path d="M6.804 22.83c.277.48.55.86.803 1.439.149.338.06 1.247-.166 1.64-.069.178-.191.256-.191.256s.139-1.253-.233-2.017c-.359-.737-.461-1.887-.467-1.967.012.043.11.399.254.65z" fill="#FFDEAE"/><path d="M8.302 23.256l.001.003c.006.08.109 1.23.467 1.968.372.764.233 2.017.233 2.017s-.897-.85-1.017-1.52c-.147-.808.302-2.418.316-2.468z" fill="#C49047"/><path d="M8.558 23.909c.276.48.55.859.803 1.438.148.338.06 1.247-.166 1.641-.07.177-.192.256-.192.256s.14-1.253-.233-2.017c-.358-.738-.46-1.887-.467-1.968.013.043.111.4.255.65z" fill="#FFDEAE"/><path d="M3.05 26.265h.003c.083.015 1.276.215 2.118.047.873-.175 2.106.298 2.106.298s-1.098.685-1.81.63c-.857-.066-2.371-.947-2.418-.975z" fill="#C49047"/><path d="M3.779 26.178c.559-.152 1.016-.33 1.67-.433.382-.06 1.28.27 1.62.603.16.117.208.262.208.262s-1.233-.473-2.106-.298c-.842.168-2.035-.032-2.118-.047.047-.001.434-.007.726-.087z" fill="#FFDEAE"/><path d="M6.55 29.025l.002-.002c.067-.024 1.027-.38 1.573-.858.566-.496 1.67-.67 1.67-.67s-.517.965-1.062 1.225c-.656.313-2.137.306-2.183.305z" fill="#C49047"/><path d="M7.048 28.654c.346-.348.606-.67 1.042-1.022.254-.206 1.052-.343 1.442-.24a.496.496 0 01.263.103s-1.104.174-1.67.67c-.546.479-1.506.834-1.573.858.034-.02.316-.188.496-.369z" fill="#FFDEAE"/><path d="M12.46 11.555c-.002 0-.002.001-.003.002-.064.025-.973.402-1.48.882-.527.497-1.581.704-1.581.704s.461-.947.976-1.216c.62-.324 2.043-.37 2.087-.372z" fill="#C49047"/><path d="M11.994 11.93c-.32.347-.558.666-.965 1.02-.237.206-.998.367-1.377.283-.161-.011-.256-.09-.256-.09s1.054-.207 1.58-.704c.508-.48 1.417-.857 1.48-.882-.03.021-.295.192-.462.373z" fill="#FFDEAE"/><path d="M10.252 11.035c-.001 0 0 .002-.002.002-.037.058-.56.891-.697 1.576-.142.71-.882 1.489-.882 1.489s-.171-1.039.093-1.556c.317-.623 1.452-1.485 1.488-1.511z" fill="#C49047"/><path d="M10.088 11.61c-.06.468-.07.866-.196 1.39-.074.305-.603.877-.96 1.027-.138.085-.261.075-.261.075s.74-.779.882-1.489c.137-.685.66-1.518.697-1.575-.013.035-.13.328-.162.572z" fill="#FFDEAE"/><path d="M8.482 11.857v.002c-.016.053-.232.816-.183 1.377.051.582-.345 1.351-.345 1.351s-.368-.765-.28-1.224c.104-.554.786-1.478.808-1.506z" fill="#C49047"/><path d="M8.486 12.338c.06.376.142.686.162 1.12.013.253-.267.815-.509 1.012-.088.097-.185.117-.185.117s.396-.77.345-1.351c-.05-.56.167-1.324.183-1.377-.003.03-.027.283.004.48z" fill="#FFDEAE"/><path d="M12.078 13.704h-.002c-.058.016-.886.237-1.38.594-.511.37-1.445.428-1.445.428s.506-.765.982-.939c.572-.21 1.807-.088 1.845-.083z" fill="#C49047"/><path d="M11.633 13.974c-.315.264-.558.512-.95.771-.228.152-.904.204-1.221.088-.138-.028-.211-.107-.211-.107s.934-.059 1.445-.428c.494-.357 1.322-.578 1.38-.593-.03.014-.278.132-.443.27z" fill="#FFDEAE"/><path d="M9.55 13.193l-.002.002c-.04.052-.604.801-.789 1.441-.191.664-.957 1.343-.957 1.343s-.08-1 .213-1.47c.352-.567 1.499-1.294 1.535-1.316z" fill="#C49047"/><path d="M9.348 13.726c-.094.44-.136.817-.298 1.304-.095.285-.642.785-.993.9-.139.069-.255.05-.255.05s.766-.68.957-1.344c.185-.64.75-1.39.79-1.44-.017.032-.151.3-.2.53z" fill="#FFDEAE"/><path d="M10.045 15.382l-.002.001c-.06.027-.912.42-1.378.895-.483.493-1.48.729-1.48.729s.405-.919.886-1.194c.577-.332 1.932-.43 1.974-.431z" fill="#C49047"/><path d="M9.616 15.755c-.292.343-.508.655-.882 1.007-.218.206-.937.387-1.3.322-.155-.005-.248-.077-.248-.077s.996-.236 1.48-.73c.465-.475 1.317-.867 1.377-.894-.03.021-.275.194-.427.372z" fill="#FFDEAE"/><path d="M6.227 13.255v.004c-.002.082-.018 1.255.268 2.037.296.811.025 2.063.025 2.063s-.818-.952-.87-1.642c-.064-.832.557-2.412.577-2.462z" fill="#C49047"/><path d="M6.417 13.942c.23.514.466.925.662 1.537.115.357-.069 1.267-.338 1.642-.089.171-.22.238-.22.238s.27-1.252-.026-2.063c-.286-.782-.27-1.955-.268-2.037.009.045.071.415.19.683z" fill="#FFDEAE"/><path d="M7.924 14.768l-.001.003c-.04.071-.594 1.105-.7 1.931-.11.857-.927 1.843-.927 1.843s-.29-1.221-.017-1.858c.326-.767 1.604-1.885 1.645-1.92z" fill="#C49047"/><path d="M7.777 15.465c-.033.561-.012 1.036-.12 1.669-.063.37-.644 1.093-1.056 1.301-.158.112-.305.11-.305.11s.816-.986.926-1.843c.107-.826.661-1.86.7-1.931-.013.043-.128.401-.145.694z" fill="#FFDEAE"/><path d="M8.814 17.359l-.002.002c-.055.046-.832.71-1.18 1.346-.361.66-1.336 1.202-1.336 1.202s.152-1.083.575-1.514c.507-.52 1.9-1.021 1.943-1.036z" fill="#C49047"/><path d="M8.474 17.878c-.205.445-.338.837-.626 1.317-.168.28-.87.682-1.27.721-.163.04-.282-.007-.282-.007s.975-.542 1.336-1.202c.348-.637 1.125-1.3 1.18-1.346-.025.031-.231.285-.338.517z" fill="#FFDEAE"/><path d="M5.362 17.007v.002c.015.059.227.903.582 1.409.367.524.412 1.473.412 1.473s-.768-.525-.937-1.01c-.205-.584-.062-1.835-.057-1.874z" fill="#C49047"/><path d="M5.63 17.462c.262.324.51.574.767.975.15.234.193.921.071 1.241-.03.14-.112.213-.112.213s-.045-.949-.412-1.473c-.355-.506-.567-1.35-.581-1.409.014.03.13.284.266.453z" fill="#FFDEAE"/><path d="M7.91 19.584c-.002 0-.002.002-.003.002-.045.04-.692.622-.975 1.171-.293.57-1.111 1.052-1.111 1.052s.106-.925.457-1.3c.42-.454 1.594-.911 1.631-.925z" fill="#C49047"/><path d="M7.63 20.033c-.164.384-.269.72-.504 1.134-.137.243-.725.6-1.065.642-.138.038-.24 0-.24 0s.818-.482 1.111-1.052c.283-.55.93-1.13.975-1.17-.02.026-.19.247-.276.446z" fill="#FFDEAE"/><path d="M5.913 19.331v.004c-.02.08-.277 1.25-.152 2.092.13.872-.398 2.068-.398 2.068s-.624-1.12-.533-1.821c.107-.845 1.053-2.298 1.083-2.343z" fill="#C49047"/><path d="M5.962 20.057c.124.56.276 1.02.346 1.673.041.38-.33 1.253-.676 1.572-.124.154-.27.193-.27.193s.529-1.196.4-2.068c-.126-.841.132-2.011.15-2.092 0 .046-.014.43.05.722z" fill="#FFDEAE"/></svg>