<svg width="27" height="27" fill="none" xmlns="http://www.w3.org/2000/svg"><path fill-rule="evenodd" clip-rule="evenodd" d="M13.49 0a13.4 13.4 0 019.541 3.949c5.262 5.261 5.262 13.821 0 19.083a13.534 13.534 0 01-9.57 3.946c-1.918 0-3.849-.405-5.655-1.241-.532-.213-1.03-.414-1.388-.414-.412.002-.965.193-1.5.377-1.097.377-2.462.846-3.473-.16-1.006-1.008-.542-2.37-.168-3.466.185-.54.374-1.097.374-1.518 0-.347-.167-.789-.423-1.425C-1.122 14.054-.036 7.935 3.952 3.95A13.397 13.397 0 0113.49 0zm.002 1.883a11.53 11.53 0 00-8.21 3.399C1.851 8.71.917 13.976 2.956 18.385c.294.727.578 1.435.578 2.17 0 .735-.252 1.474-.475 2.127-.183.537-.46 1.348-.282 1.526.174.18.99-.104 1.529-.289.646-.22 1.38-.474 2.106-.48.728 0 1.414.277 2.141.57 4.452 2.058 9.717 1.122 13.148-2.308 4.526-4.528 4.526-11.895 0-16.42a11.53 11.53 0 00-8.209-3.398zm4.954 10.873a1.255 1.255 0 110 2.51 1.26 1.26 0 01-1.26-1.255 1.25 1.25 0 011.249-1.255h.011zm-5.032 0a1.255 1.255 0 110 2.51 1.26 1.26 0 01-1.26-1.255c0-.694.555-1.255 1.25-1.255h.01zm-5.032 0a1.255 1.255 0 110 2.51 1.26 1.26 0 01-1.26-1.255 1.25 1.25 0 011.249-1.255h.011z" fill="#8A8A8A"/></svg>