<svg xmlns="http://www.w3.org/2000/svg" viewBox="0 0 512 512"><path d="M394.667 214.421v-75.755C394.667 62.208 332.459 0 256 0S117.333 62.208 117.333 138.667v75.755c-24.32 4.949-42.667 26.517-42.667 52.245v192C74.667 488.064 98.581 512 128 512h256c29.419 0 53.333-23.936 53.333-53.333v-192c0-25.75-18.346-47.296-42.666-52.246zm-256-75.754c0-64.704 52.651-117.333 117.333-117.333s117.333 52.629 117.333 117.333v74.667H352v-74.667c0-52.928-43.072-96-96-96s-96 43.072-96 96v74.667h-21.333v-74.667zm192 0v74.667H181.333v-74.667C181.333 97.493 214.827 64 256 64s74.667 33.493 74.667 74.667zm85.333 320c0 17.643-14.357 32-32 32H128c-17.643 0-32-14.357-32-32v-192c0-17.643 14.357-32 32-32h256c17.643 0 32 14.357 32 32v192z"/><path d="M256 277.333c-29.419 0-53.333 23.936-53.333 53.333 0 20.267 11.84 38.677 29.675 47.595l-8.235 57.579a10.607 10.607 0 002.496 8.491 10.709 10.709 0 008.064 3.669h42.667c3.093 0 6.037-1.365 8.064-3.691a10.584 10.584 0 002.496-8.491l-8.235-57.579c17.835-8.896 29.675-27.307 29.675-47.573-.001-29.397-23.915-53.333-53.334-53.333zm8.917 83.862c-5.077 1.493-8.299 6.507-7.552 11.755l7.68 53.717h-18.091l7.68-53.717c.768-5.248-2.475-10.261-7.552-11.755C233.28 357.163 224 344.896 224 330.667c0-17.643 14.357-32 32-32s32 14.357 32 32c0 14.229-9.28 26.496-23.083 30.528z"/></svg>