<svg width="24" height="26" fill="none" xmlns="http://www.w3.org/2000/svg"><path fill-rule="evenodd" clip-rule="evenodd" d="M12.778 0c.89 0 1.757.366 2.378 1.002.62.64.962 1.517.936 2.407.002.2.068.432.188.634.197.336.51.573.88.67.372.092.76.042 1.09-.153a3.324 3.324 0 014.53 1.216l.775 1.343c.02.036.037.07.052.107a3.326 3.326 0 01-1.257 4.411 1.421 1.421 0 00-.527.524 1.461 1.461 0 00-.15 1.1c.1.372.338.682.672.874a3.322 3.322 0 011.545 2.011c.225.844.102 1.76-.338 2.515l-.826 1.377a3.316 3.316 0 01-4.514 1.193 1.483 1.483 0 00-.694-.193h-.008c-.36 0-.729.153-.998.42a1.423 1.423 0 00-.42 1.023 3.323 3.323 0 01-3.314 3.306h-1.56a3.318 3.318 0 01-3.315-3.314 1.34 1.34 0 00-.188-.662 1.442 1.442 0 00-.876-.682 1.439 1.439 0 00-1.085.146 3.367 3.367 0 01-2.543.305 3.337 3.337 0 01-1.991-1.581l-.778-1.34a3.308 3.308 0 011.207-4.512 1.45 1.45 0 00.725-1.253c0-.515-.278-.997-.725-1.254A3.32 3.32 0 01.441 7.118l.844-1.385c.897-1.56 2.926-2.11 4.507-1.202.216.128.45.193.687.196.776 0 1.424-.64 1.436-1.427-.005-.867.338-1.7.961-2.328A3.286 3.286 0 0111.218 0h1.56zm0 1.867h-1.56a1.435 1.435 0 00-1.436 1.442C9.756 5.13 8.27 6.593 6.468 6.593a3.211 3.211 0 01-1.617-.45 1.45 1.45 0 00-1.96.542l-.843 1.386c-.386.67-.15 1.554.537 1.953a3.327 3.327 0 011.655 2.87c0 1.18-.636 2.279-1.657 2.87a1.438 1.438 0 00-.524 1.96l.785 1.354c.194.35.512.602.879.706.366.102.769.058 1.105-.128a3.266 3.266 0 011.646-.441c.285 0 .57.036.849.11a3.32 3.32 0 012.005 1.545 3.19 3.19 0 01.442 1.593c0 .809.65 1.457 1.448 1.457h1.56a1.45 1.45 0 001.448-1.44 3.27 3.27 0 01.967-2.342c.62-.62 1.486-.992 2.352-.967a3.39 3.39 0 011.596.441c.693.397 1.578.16 1.978-.524l.827-1.378a1.44 1.44 0 00-.53-1.956 3.281 3.281 0 01-1.546-2.014 3.323 3.323 0 01.337-2.512 3.285 3.285 0 011.209-1.206 1.451 1.451 0 00.519-1.964.7.7 0 01-.044-.086l-.73-1.264a1.45 1.45 0 00-1.973-.534c-.75.443-1.64.57-2.496.345a3.272 3.272 0 01-2.019-1.527 3.178 3.178 0 01-.447-1.6 1.485 1.485 0 00-.41-1.088 1.454 1.454 0 00-1.038-.437zm-.775 6.812a4.22 4.22 0 014.214 4.215 4.218 4.218 0 01-4.214 4.213 4.218 4.218 0 01-4.213-4.213 4.22 4.22 0 014.213-4.215zm0 1.867a2.35 2.35 0 00-2.347 2.348 2.349 2.349 0 002.347 2.346 2.349 2.349 0 002.348-2.346 2.35 2.35 0 00-2.348-2.348z" fill="#8A8A8A"/></svg>