<svg width="24" height="24" fill="none" xmlns="http://www.w3.org/2000/svg"><path fill-rule="evenodd" clip-rule="evenodd" d="M10.877 0a5.19 5.19 0 015.184 5.184v1.09a.877.877 0 01-1.752 0v-1.09a3.434 3.434 0 00-3.431-3.431H5.18a3.433 3.433 0 00-3.427 3.431v13.005a3.432 3.432 0 003.427 3.43h5.71a3.422 3.422 0 003.418-3.417V17.1a.877.877 0 011.753 0v1.102c0 2.852-2.32 5.17-5.17 5.17H5.18A5.187 5.187 0 010 18.19V5.184A5.188 5.188 0 015.18 0h5.697zm9.443 7.66l3.422 3.406a.83.83 0 01.083.095l-.083-.095a.865.865 0 01.258.62l-.006.073-.002.046-.001.006.009-.125a.881.881 0 01-.266.629l-3.414 3.4a.873.873 0 01-1.239-.003.876.876 0 01.003-1.239L21 12.563H9.052a.877.877 0 010-1.753h11.95L19.084 8.9a.875.875 0 111.236-1.24z" fill="#E55858"/></svg>