<svg width="23" height="28" viewBox="0 0 23 28" fill="none" xmlns="http://www.w3.org/2000/svg">
<path fill-rule="evenodd" clip-rule="evenodd" d="M15.3737 0C19.8304 0 22.3872 2.206 22.3872 6.04909V25.1476C22.3872 25.9491 21.9746 26.6704 21.2809 27.0738C20.5898 27.4784 19.7568 27.4863 19.0578 27.0922L11.2271 22.6683L3.32411 27.1014C2.9825 27.2932 2.60805 27.3904 2.23228 27.3904C1.84468 27.3904 1.45709 27.2866 1.10497 27.079C0.412557 26.6757 0 25.9543 0 25.1542V5.80865C0 2.11666 2.55812 0 7.01873 0H15.3737ZM15.3737 1.97082H7.01873C3.66966 1.97082 1.97082 3.26104 1.97082 5.80865V25.1542C1.97082 25.2777 2.04177 25.3447 2.10089 25.3789C2.16001 25.4156 2.2533 25.4419 2.36104 25.3815L10.7462 20.6778C11.0458 20.5109 11.4123 20.5096 11.7132 20.6791L20.0261 25.3749C20.1352 25.438 20.2285 25.4091 20.2876 25.3736C20.3467 25.3381 20.4163 25.2711 20.4163 25.1476L20.4159 5.89937C20.4059 4.76855 20.1871 1.97082 15.3737 1.97082ZM15.9502 8.84043C16.4942 8.84043 16.9356 9.28189 16.9356 9.82583C16.9356 10.3698 16.4942 10.8112 15.9502 10.8112H6.33525C5.79131 10.8112 5.34985 10.3698 5.34985 9.82583C5.34985 9.28189 5.79131 8.84043 6.33525 8.84043H15.9502Z" fill="#8A8A8A"/>
</svg>
