<svg width="30" height="23" viewBox="0 0 30 23" fill="none" xmlns="http://www.w3.org/2000/svg">
<path fill-rule="evenodd" clip-rule="evenodd" d="M14.7974 14.155L14.9509 14.1551L15.2942 14.1562C17.9183 14.1735 23.9151 14.4386 23.9151 18.5032C23.9151 22.5411 18.1274 22.8045 15.3351 22.8217L14.3006 22.8216C11.6763 22.8044 5.67832 22.5396 5.67832 18.4801C5.67832 14.4371 11.6763 14.1734 14.3006 14.1562L14.6439 14.1551C14.6972 14.155 14.7484 14.155 14.7974 14.155ZM14.7974 16.1939C11.5679 16.1939 7.71717 16.5908 7.71717 18.4801C7.71717 20.3267 11.338 20.7584 14.5022 20.7829L14.7974 20.784C18.0269 20.784 21.8763 20.3885 21.8763 18.5032C21.8763 16.5949 18.0269 16.1939 14.7974 16.1939ZM25.6082 13.6035C28.9016 14.0969 29.5935 15.6437 29.5935 16.8547C29.5935 17.5942 29.3026 18.9439 27.3589 19.6847C27.2393 19.7295 27.1169 19.7513 26.996 19.7513C26.5855 19.7513 26.1981 19.5012 26.0431 19.0948C25.842 18.5687 26.107 17.9788 26.633 17.779C27.5546 17.4283 27.5546 17.041 27.5546 16.8547C27.5546 16.2594 26.7975 15.8435 25.3051 15.6206C24.7492 15.5363 24.3645 15.0184 24.4474 14.4598C24.5303 13.9025 25.0468 13.5314 25.6082 13.6035ZM5.14605 14.4598C5.22896 15.0184 4.8443 15.5363 4.28837 15.6206C2.79594 15.8435 2.03885 16.2594 2.03885 16.8547C2.03885 17.041 2.03885 17.427 2.96176 17.779C3.48779 17.9788 3.75284 18.5687 3.55167 19.0948C3.39672 19.5012 3.00934 19.7513 2.59885 19.7513C2.47788 19.7513 2.35555 19.7295 2.23594 19.6847C0.290875 18.9425 0 17.5928 0 16.8547C0 15.645 0.691849 14.0969 3.98662 13.6035C4.54799 13.5328 5.06178 13.9025 5.14605 14.4598ZM14.7974 0C18.2227 0 21.0077 2.78642 21.0077 6.21033C21.0077 9.63423 18.2227 12.4207 14.7974 12.4207H14.7607C13.1024 12.4152 11.5488 11.7655 10.3853 10.5911C9.21912 9.41811 8.58164 7.86043 8.58838 6.20625C8.58838 2.78642 11.3735 0 14.7974 0ZM14.7974 2.03885C12.4976 2.03885 10.6273 3.91051 10.6273 6.21033C10.6232 7.3249 11.05 8.36743 11.8316 9.15442C12.6131 9.94142 13.6543 10.3777 14.7634 10.3818L14.7974 11.4012V10.3818C17.0972 10.3818 18.9689 8.5115 18.9689 6.21033C18.9689 3.91051 17.0972 2.03885 14.7974 2.03885ZM23.2097 1.33137C25.5992 1.72418 27.335 3.76847 27.335 6.19198C27.3295 8.6318 25.5068 10.725 23.0942 11.0635C23.0466 11.0703 22.999 11.073 22.9528 11.073C22.4526 11.073 22.0163 10.7046 21.9442 10.1949C21.8668 9.63627 22.2541 9.12112 22.8128 9.04364C24.2264 8.8452 25.2934 7.61917 25.2961 6.18926C25.2961 4.77158 24.2794 3.57274 22.878 3.34303C22.3235 3.25196 21.947 2.7273 22.038 2.17137C22.1305 1.61545 22.651 1.24302 23.2097 1.33137ZM7.55678 2.17137C7.64785 2.7273 7.27134 3.25196 6.71678 3.34303C5.31541 3.57274 4.2987 4.77158 4.2987 6.19198C4.30142 7.61917 5.36842 8.84656 6.78066 9.04364C7.3393 9.12112 7.72668 9.63627 7.64921 10.1949C7.57717 10.7046 7.14086 11.073 6.64066 11.073C6.59445 11.073 6.54687 11.0703 6.4993 11.0635C4.08666 10.725 2.26529 8.6318 2.25986 6.1947C2.25986 3.76847 3.9956 1.72418 6.38512 1.33137C6.95736 1.24166 7.46435 1.61816 7.55678 2.17137Z" fill="#8A8A8A"/>
</svg>
