<svg width="20" height="21" viewBox="0 0 20 21" fill="none" xmlns="http://www.w3.org/2000/svg">
<path d="M10 0.797974C8.02219 0.797974 6.08879 1.38446 4.4443 2.48328C2.79981 3.58209 1.51808 5.14388 0.761209 6.97114C0.00433278 8.7984 -0.1937 10.8091 0.192152 12.7489C0.578004 14.6887 1.53041 16.4705 2.92894 17.869C4.32746 19.2676 6.10929 20.22 8.0491 20.6058C9.98891 20.9917 11.9996 20.7936 13.8268 20.0368C15.6541 19.2799 17.2159 17.9982 18.3147 16.3537C19.4135 14.7092 20 12.7758 20 10.798C20 10.2869 19.9556 9.77575 19.8889 9.28686C19.3337 10.0654 18.6001 10.6996 17.7496 11.1365C16.899 11.5733 15.9562 11.8002 15 11.798C13.728 11.798 12.4889 11.394 11.4613 10.6443C10.4338 9.89451 9.67094 8.83776 9.28282 7.62642C8.8947 6.41509 8.90136 5.11178 9.30185 3.90448C9.70234 2.69718 10.476 1.64829 11.5111 0.909085C11.0222 0.842418 10.5111 0.797974 10 0.797974Z" fill="#333333"/>
</svg>
