<svg width="25" height="28" viewBox="0 0 25 28" fill="none" xmlns="http://www.w3.org/2000/svg">
<path fill-rule="evenodd" clip-rule="evenodd" d="M17.7663 0C22.0933 0 25 2.96312 25 7.37269V20.0289C25 24.477 22.1828 27.3699 17.8227 27.3975L7.23507 27.4016C2.90807 27.4016 0 24.4385 0 20.0289V7.37269C0 2.9232 2.81723 0.0316543 7.17726 0.00550509L17.7649 0H17.7663ZM17.7663 2.06441L7.18415 2.06991C3.98018 2.08918 2.06441 4.07102 2.06441 7.37269V20.0289C2.06441 23.3526 3.99807 25.3372 7.23369 25.3372L17.8159 25.3331C21.0198 25.3138 22.9356 23.3292 22.9356 20.0289V7.37269C22.9356 4.049 21.0033 2.06441 17.7663 2.06441ZM17.5008 18.5435C18.0706 18.5435 18.533 19.0059 18.533 19.5757C18.533 20.1455 18.0706 20.6079 17.5008 20.6079H7.56413C6.99436 20.6079 6.53193 20.1455 6.53193 19.5757C6.53193 19.0059 6.99436 18.5435 7.56413 18.5435H17.5008ZM17.5008 12.7817C18.0706 12.7817 18.533 13.2442 18.533 13.8139C18.533 14.3837 18.0706 14.8461 17.5008 14.8461H7.56413C6.99436 14.8461 6.53193 14.3837 6.53193 13.8139C6.53193 13.2442 6.99436 12.7817 7.56413 12.7817H17.5008ZM11.3554 7.03331C11.9251 7.03331 12.3876 7.49573 12.3876 8.06551C12.3876 8.63529 11.9251 9.09772 11.3554 9.09772H7.56372C6.99395 9.09772 6.53152 8.63529 6.53152 8.06551C6.53152 7.49573 6.99395 7.03331 7.56372 7.03331H11.3554Z" fill="#8A8A8A"/>
</svg>
