<svg width="13" height="13" viewBox="0 0 13 13" fill="none" xmlns="http://www.w3.org/2000/svg">
<path fill-rule="evenodd" clip-rule="evenodd" d="M9.31677 0C10.3643 0 11.2678 0.349819 11.929 1.01232C12.6202 1.70414 12.9993 2.71061 12.998 3.8467L12.999 8.40438C13.0001 8.42191 13.0003 8.43949 12.9996 8.45704L12.998 9.15261C12.998 11.4528 11.5173 12.9987 9.31351 12.9987H3.68124C1.4794 12.9987 0 11.4528 0 9.15261V3.84605C0 1.54585 1.4794 0 3.68124 0H9.31677ZM9.49696 7.0565C9.11391 7.0565 8.66443 7.69034 8.2664 8.24992C7.7205 9.01861 7.15571 9.81401 6.30494 9.81401C5.72973 9.81401 5.20272 9.59252 4.73825 9.39644C3.99953 9.08506 3.66469 8.98539 3.33702 9.25508C2.68109 9.7956 2.03297 10.7798 1.73517 11.2642C2.20521 11.7488 2.87292 12.0215 3.68124 12.0215H9.31351C10.9584 12.0215 12.0209 10.8958 12.0209 9.15261L12.0209 8.63212L12.0058 8.61628C11.4356 8.02874 10.4508 7.0565 9.49696 7.0565ZM9.31677 0.977147H3.68124C2.03898 0.977147 0.977147 2.10347 0.977147 3.84605V9.15261C0.977147 9.58815 1.04343 9.98514 1.16849 10.3356C1.54546 9.76647 2.1148 8.99586 2.71621 8.50072C3.5318 7.82975 4.40993 8.19846 5.11738 8.49616C5.53365 8.6714 5.92711 8.83686 6.30494 8.83686C6.6515 8.83686 7.08601 8.22451 7.47035 7.68448C8.00388 6.93142 8.60971 6.07935 9.49696 6.07935C10.4707 6.07935 11.3526 6.67773 12.0216 7.27156L12.0209 3.84605C12.0222 2.95815 11.7512 2.21682 11.2378 1.70284C10.7636 1.22795 10.0998 0.977147 9.31677 0.977147ZM4.46686 2.72917C5.39906 2.72982 6.15733 3.48809 6.15798 4.41964V4.42029C6.15798 5.35249 5.39971 6.11075 4.46686 6.11075C3.53401 6.11075 2.77575 5.35249 2.77575 4.42029C2.77575 3.48744 3.53401 2.72917 4.46686 2.72917ZM4.46621 3.70632C4.07275 3.70632 3.7529 4.02617 3.7529 4.42029C3.7529 4.81375 4.07275 5.1336 4.46686 5.1336C4.86033 5.1336 5.18083 4.81375 5.18083 4.42094C5.18018 4.02682 4.85968 3.70697 4.46621 3.70632Z" fill="#0077FF"/>
</svg>
