<svg width="26" height="27" viewBox="0 0 26 27" fill="none" xmlns="http://www.w3.org/2000/svg">
<path d="M13 7.88888C9.73818 7.88888 7.09091 10.5362 7.09091 13.798C7.09091 17.0598 9.73818 19.7071 13 19.7071C16.2618 19.7071 18.9091 17.0598 18.9091 13.798C18.9091 10.5362 16.2618 7.88888 13 7.88888ZM1.18182 14.9798H3.54545C4.19545 14.9798 4.72727 14.448 4.72727 13.798C4.72727 13.148 4.19545 12.6162 3.54545 12.6162H1.18182C0.531818 12.6162 0 13.148 0 13.798C0 14.448 0.531818 14.9798 1.18182 14.9798ZM22.4545 14.9798H24.8182C25.4682 14.9798 26 14.448 26 13.798C26 13.148 25.4682 12.6162 24.8182 12.6162H22.4545C21.8045 12.6162 21.2727 13.148 21.2727 13.798C21.2727 14.448 21.8045 14.9798 22.4545 14.9798ZM11.8182 1.97979V4.34343C11.8182 4.99343 12.35 5.52525 13 5.52525C13.65 5.52525 14.1818 4.99343 14.1818 4.34343V1.97979C14.1818 1.32979 13.65 0.797974 13 0.797974C12.35 0.797974 11.8182 1.32979 11.8182 1.97979ZM11.8182 23.2525V25.6162C11.8182 26.2662 12.35 26.798 13 26.798C13.65 26.798 14.1818 26.2662 14.1818 25.6162V23.2525C14.1818 22.6025 13.65 22.0707 13 22.0707C12.35 22.0707 11.8182 22.6025 11.8182 23.2525ZM5.89727 5.02888C5.78794 4.91932 5.65807 4.8324 5.5151 4.7731C5.37213 4.71379 5.21887 4.68327 5.06409 4.68327C4.90931 4.68327 4.75605 4.71379 4.61308 4.7731C4.47011 4.8324 4.34024 4.91932 4.23091 5.02888C4.12135 5.13822 4.03443 5.26809 3.97512 5.41105C3.91582 5.55402 3.88529 5.70728 3.88529 5.86206C3.88529 6.01685 3.91582 6.17011 3.97512 6.31308C4.03443 6.45604 4.12135 6.58591 4.23091 6.69525L5.48364 7.94797C5.94454 8.40888 6.70091 8.40888 7.15 7.94797C7.59909 7.48706 7.61091 6.7307 7.15 6.28161L5.89727 5.02888ZM20.5164 19.648C20.407 19.5384 20.2772 19.4515 20.1342 19.3922C19.9912 19.3329 19.838 19.3024 19.6832 19.3024C19.5284 19.3024 19.3751 19.3329 19.2322 19.3922C19.0892 19.4515 18.9593 19.5384 18.85 19.648C18.7404 19.7573 18.6535 19.8872 18.5942 20.0301C18.5349 20.1731 18.5044 20.3264 18.5044 20.4812C18.5044 20.6359 18.5349 20.7892 18.5942 20.9322C18.6535 21.0751 18.7404 21.205 18.85 21.3143L20.1027 22.5671C20.5636 23.028 21.32 23.028 21.7691 22.5671C21.8786 22.4577 21.9656 22.3279 22.0249 22.1849C22.0842 22.0419 22.1147 21.8887 22.1147 21.7339C22.1147 21.5791 22.0842 21.4258 22.0249 21.2829C21.9656 21.1399 21.8786 21.01 21.7691 20.9007L20.5164 19.648ZM21.7691 6.69525C21.8786 6.58591 21.9656 6.45604 22.0249 6.31308C22.0842 6.17011 22.1147 6.01685 22.1147 5.86206C22.1147 5.70728 22.0842 5.55402 22.0249 5.41105C21.9656 5.26809 21.8786 5.13822 21.7691 5.02888C21.6598 4.91932 21.5299 4.8324 21.3869 4.7731C21.2439 4.71379 21.0907 4.68327 20.9359 4.68327C20.7811 4.68327 20.6279 4.71379 20.4849 4.7731C20.3419 4.8324 20.2121 4.91932 20.1027 5.02888L18.85 6.28161C18.3891 6.74252 18.3891 7.49888 18.85 7.94797C19.3109 8.39706 20.0673 8.40888 20.5164 7.94797L21.7691 6.69525ZM7.15 21.3143C7.25956 21.205 7.34648 21.0751 7.40578 20.9322C7.46509 20.7892 7.49562 20.6359 7.49562 20.4812C7.49562 20.3264 7.46509 20.1731 7.40578 20.0301C7.34648 19.8872 7.25956 19.7573 7.15 19.648C7.04067 19.5384 6.9108 19.4515 6.76783 19.3922C6.62486 19.3329 6.4716 19.3024 6.31682 19.3024C6.16204 19.3024 6.00878 19.3329 5.86581 19.3922C5.72284 19.4515 5.59297 19.5384 5.48364 19.648L4.23091 20.9007C3.77 21.3616 3.77 22.118 4.23091 22.5671C4.69182 23.0162 5.44818 23.028 5.89727 22.5671L7.15 21.3143Z" fill="#0077FF"/>
</svg>
