<svg width="112" height="35" viewBox="0 0 112 35" fill="none" xmlns="http://www.w3.org/2000/svg">
<path d="M27.4359 34.9185H24.9418V31.1773C24.9398 29.5241 24.2822 27.9393 23.1132 26.7703C21.9443 25.6014 20.3594 24.9438 18.7063 24.9418H11.2238C9.57063 24.9438 7.98577 25.6014 6.81683 26.7703C5.64788 27.9393 4.9903 29.5241 4.98832 31.1773V34.9185H2.49414V31.1773C2.49678 28.8628 3.41736 26.6439 5.05391 25.0074C6.69046 23.3708 8.90934 22.4503 11.2238 22.4476H18.7063C21.0207 22.4503 23.2396 23.3708 24.8762 25.0074C26.5127 26.6439 27.4333 28.8628 27.4359 31.1773V34.9185Z" fill="#5285F2"/>
<path d="M1.24709 4.9884C0.916341 4.9884 0.599139 5.11979 0.365264 5.35367C0.13139 5.58754 0 5.90474 0 6.23549V17.4593H2.49418V6.23549C2.49418 5.90474 2.36279 5.58754 2.12891 5.35367C1.89504 5.11979 1.57784 4.9884 1.24709 4.9884Z" fill="#5285F2"/>
<path d="M0 0V2.49418H6.23545V11.2238C6.23545 13.539 7.15517 15.7595 8.79229 17.3966C10.4294 19.0337 12.6498 19.9534 14.9651 19.9534C17.2803 19.9534 19.5007 19.0337 21.1378 17.3966C22.775 15.7595 23.6947 13.539 23.6947 11.2238V2.49418H29.9301V0H0ZM8.72962 2.49418H21.2005V6.23545H8.72962V2.49418ZM14.9651 17.4593C13.3113 17.4593 11.7253 16.8023 10.5559 15.6329C9.38657 14.4636 8.72962 12.8775 8.72962 11.2238V8.72963H21.2005V11.2238C21.2005 12.8775 20.5436 14.4636 19.3742 15.6329C18.2048 16.8023 16.6188 17.4593 14.9651 17.4593Z" fill="#5285F2"/>
<path d="M36.7221 26.0909V10.3853H47.3285V13.3542H40.2576V16.4364H46.5353V19.3373H40.2576V23.122H47.8497V26.0909H36.7221ZM52.8521 20.0398C52.8521 21.0823 53.0863 21.9209 53.5546 22.5554C54.023 23.19 54.718 23.5073 55.6396 23.5073C55.9418 23.5073 56.2213 23.4997 56.4782 23.4846C56.735 23.4544 56.9466 23.4242 57.1127 23.394V17.2523C56.9012 17.1163 56.6217 17.003 56.2742 16.9123C55.9418 16.8217 55.6019 16.7763 55.2544 16.7763C53.6528 16.7763 52.8521 17.8642 52.8521 20.0398ZM60.4896 25.7056C60.1874 25.7963 59.8399 25.8869 59.4471 25.9776C59.0542 26.0531 58.6387 26.1211 58.2006 26.1815C57.7775 26.242 57.3394 26.2873 56.8861 26.3175C56.448 26.3628 56.0249 26.3855 55.617 26.3855C54.6349 26.3855 53.7586 26.242 52.9881 25.9549C52.2175 25.6678 51.5678 25.2599 51.039 24.7311C50.5102 24.1872 50.1023 23.5375 49.8152 22.7821C49.5433 22.0115 49.4073 21.1503 49.4073 20.1985C49.4073 19.2315 49.5281 18.3627 49.7699 17.5922C50.0116 16.8065 50.3591 16.1418 50.8124 15.5978C51.2657 15.0539 51.8171 14.6384 52.4668 14.3514C53.1316 14.0643 53.887 13.9208 54.7331 13.9208C55.2015 13.9208 55.617 13.9661 55.9796 14.0567C56.3573 14.1474 56.735 14.2758 57.1127 14.442V9.04819L60.4896 8.50428V25.7056ZM73.8272 25.6829C73.253 25.8491 72.5127 26.0002 71.6062 26.1362C70.6997 26.2873 69.7478 26.3628 68.7506 26.3628C67.7383 26.3628 66.8923 26.2269 66.2124 25.9549C65.5476 25.6829 65.0188 25.3052 64.6259 24.8217C64.2331 24.3232 63.9536 23.7339 63.7874 23.054C63.6212 22.3741 63.5381 21.6262 63.5381 20.8104V14.1701H66.9149V20.4024C66.9149 21.4903 67.0584 22.2759 67.3455 22.7594C67.6326 23.2429 68.1689 23.4846 68.9546 23.4846C69.1963 23.4846 69.4532 23.4771 69.7251 23.462C69.9971 23.4317 70.2388 23.4015 70.4504 23.3713V14.1701H73.8272V25.6829ZM81.7563 26.3175C80.7742 26.3024 79.9734 26.1966 79.354 26.0002C78.7496 25.8038 78.2661 25.5319 77.9035 25.1844C77.556 24.8217 77.3143 24.3911 77.1783 23.8926C77.0574 23.3789 76.997 22.8047 76.997 22.1702V9.04819L80.3738 8.50428V21.4903C80.3738 21.7924 80.3965 22.0644 80.4418 22.3061C80.4871 22.5479 80.5702 22.7518 80.6911 22.918C80.8271 23.0842 81.0159 23.2202 81.2577 23.326C81.4994 23.4317 81.8243 23.4997 82.2322 23.5299L81.7563 26.3175ZM95.318 20.1078C95.318 21.0446 95.1821 21.9058 94.9101 22.6914C94.6381 23.462 94.2453 24.1267 93.7316 24.6858C93.2179 25.2297 92.5985 25.6527 91.8732 25.9549C91.1631 26.2571 90.3624 26.4082 89.4709 26.4082C88.5946 26.4082 87.7939 26.2571 87.0687 25.9549C86.3585 25.6527 85.7466 25.2297 85.2329 24.6858C84.7192 24.1267 84.3189 23.462 84.0318 22.6914C83.7447 21.9058 83.6012 21.0446 83.6012 20.1078C83.6012 19.1711 83.7447 18.3174 84.0318 17.5469C84.334 16.7763 84.7419 16.1191 85.2556 15.5752C85.7844 15.0313 86.4039 14.6082 87.114 14.306C87.8392 14.0039 88.6249 13.8528 89.4709 13.8528C90.3321 13.8528 91.1178 14.0039 91.8279 14.306C92.5531 14.6082 93.1726 15.0313 93.6863 15.5752C94.2 16.1191 94.6004 16.7763 94.8874 17.5469C95.1745 18.3174 95.318 19.1711 95.318 20.1078ZM91.8732 20.1078C91.8732 19.0653 91.6617 18.2494 91.2387 17.6602C90.8307 17.0558 90.2415 16.7537 89.4709 16.7537C88.7004 16.7537 88.1036 17.0558 87.6806 17.6602C87.2575 18.2494 87.046 19.0653 87.046 20.1078C87.046 21.1503 87.2575 21.9813 87.6806 22.6008C88.1036 23.2051 88.7004 23.5073 89.4709 23.5073C90.2415 23.5073 90.8307 23.2051 91.2387 22.6008C91.6617 21.9813 91.8732 21.1503 91.8732 20.1078ZM100.812 19.7452C100.812 21.6338 101.575 22.5781 103.101 22.5781C103.449 22.5781 103.773 22.5328 104.076 22.4421C104.378 22.3515 104.635 22.2457 104.846 22.1248V16.731C104.68 16.7008 104.484 16.6781 104.257 16.663C104.03 16.6328 103.766 16.6177 103.464 16.6177C102.572 16.6177 101.907 16.9123 101.469 17.5015C101.031 18.0908 100.812 18.8387 100.812 19.7452ZM108.223 24.5951C108.223 26.5441 107.724 27.987 106.727 28.9238C105.745 29.8756 104.219 30.3516 102.149 30.3516C101.424 30.3516 100.699 30.2836 99.9735 30.1476C99.2483 30.0267 98.576 29.8605 97.9565 29.649L98.5458 26.8161C99.0746 27.0276 99.626 27.1938 100.2 27.3147C100.789 27.4356 101.454 27.496 102.195 27.496C103.161 27.496 103.841 27.2845 104.234 26.8614C104.642 26.4384 104.846 25.8945 104.846 25.2297V24.7991C104.484 24.9653 104.106 25.0937 103.713 25.1844C103.335 25.2599 102.92 25.2977 102.466 25.2977C100.82 25.2977 99.5581 24.8142 98.6817 23.8472C97.8054 22.8652 97.3673 21.4978 97.3673 19.7452C97.3673 18.8689 97.5033 18.0757 97.7752 17.3656C98.0472 16.6403 98.44 16.0209 98.9537 15.5072C99.4825 14.9935 100.125 14.6007 100.88 14.3287C101.636 14.0416 102.489 13.8981 103.441 13.8981C103.849 13.8981 104.264 13.9208 104.687 13.9661C105.126 13.9963 105.556 14.0416 105.979 14.1021C106.402 14.1625 106.803 14.2381 107.18 14.3287C107.573 14.4042 107.921 14.4873 108.223 14.578V24.5951Z" fill="#5285F2"/>
</svg>
