<svg width="20" height="31" viewBox="0 0 20 31" fill="none" xmlns="http://www.w3.org/2000/svg">
<path d="M14.5419 11.6262C17.7817 13.28 20 16.6493 20 20.537C20 26.0598 15.5227 30.5373 9.99971 30.5373C4.47676 30.5373 0 26.0598 0 20.537C0 16.7406 2.11533 13.4383 5.23221 11.7444C6.64901 10.9749 8.27315 10.5373 9.99971 10.5373C11.6351 10.5373 13.1792 10.9298 14.5419 11.6262Z" fill="#E3E3E3"/>
<path d="M9.99975 30.1279C7.438 30.1279 5.0296 29.1303 3.21832 27.3187C1.40689 25.5073 0.409439 23.0988 0.409439 20.537C0.409439 17.0176 2.33236 13.7863 5.42773 12.1041C6.822 11.3469 8.40297 10.9465 9.99975 10.9465C11.5342 10.9465 12.9997 11.2978 14.3557 11.9907C15.9063 12.7822 17.2144 13.9822 18.1389 15.4609C19.0886 16.9804 19.5908 18.7357 19.5908 20.537C19.5908 23.0988 18.593 25.5073 16.7816 27.3187C14.97 29.1303 12.5616 30.1279 9.99975 30.1279Z" fill="#C9C9C9"/>
<path d="M9.99976 28.9584C7.75041 28.9584 5.63581 28.0823 4.04533 26.4918C2.45484 24.9012 1.57898 22.7864 1.57898 20.537C1.57898 17.4468 3.26735 14.6097 5.98537 13.1326C7.20947 12.4675 8.59774 12.1161 9.99976 12.1161C11.3472 12.1161 12.6339 12.4245 13.8245 13.0329C15.1862 13.7279 16.3348 14.7816 17.1463 16.08C17.9804 17.4141 18.4211 18.9553 18.4211 20.537C18.4211 22.7864 17.5453 24.9011 15.9546 26.4918C14.364 28.0823 12.2493 28.9584 9.99976 28.9584Z" stroke="#929292" stroke-width="2.61099" stroke-miterlimit="10"/>
<path d="M9.99988 26.2473C8.47465 26.2473 7.04073 25.6534 5.96222 24.575C4.88385 23.4963 4.28979 22.0624 4.28979 20.537C4.28979 18.4417 5.43474 16.5178 7.27777 15.5162C8.10783 15.0653 9.0491 14.8271 9.99988 14.8271C10.9135 14.8271 11.786 15.0361 12.5934 15.4486C13.5167 15.9201 14.2955 16.6344 14.8458 17.5148C15.4113 18.4195 15.7103 19.4646 15.7103 20.537C15.7103 22.0624 15.1162 23.4963 14.0377 24.575C12.9592 25.6534 11.5251 26.2473 9.99988 26.2473V26.2473Z" stroke="#C9C9C9" stroke-width="1.865" stroke-miterlimit="10"/>
<path d="M9.99991 27.4904C8.14269 27.4904 6.39652 26.7671 5.08331 25.4537C3.7701 24.1403 3.047 22.3944 3.047 20.537C3.047 17.9855 4.44112 15.6429 6.68521 14.4232C7.69598 13.8742 8.84224 13.5841 9.99991 13.5841C11.1124 13.5841 12.1748 13.8388 13.1579 14.341C14.2821 14.915 15.2305 15.785 15.9005 16.8569C16.5892 17.9586 16.9533 19.2311 16.9533 20.537C16.9533 22.3942 16.2299 24.1403 14.9167 25.4537C13.6033 26.7671 11.8571 27.4904 9.99991 27.4904V27.4904Z" stroke="#929292" stroke-width="2.61099" stroke-miterlimit="10"/>
<path d="M13.0531 10.1034V9.73383C13.0531 9.62688 12.9663 9.54011 12.8592 9.54011H6.78141C6.67446 9.54011 6.58769 9.62688 6.58769 9.73383V10.1034C6.58769 10.211 6.67446 10.2977 6.78141 10.2977H12.8592C12.9663 10.2977 13.0531 10.211 13.0531 10.1034ZM14.0552 9.82689C14.3098 10.3946 14.4513 11.0059 14.4738 11.6262C13.111 10.9298 11.5669 10.5371 9.93166 10.5371C8.2051 10.5371 6.58096 10.9749 5.16415 11.7444C5.17147 11.0836 5.31516 10.4308 5.58555 9.82689L5.71168 9.54567C5.85258 9.23079 6.14551 9.01058 6.48746 8.96274L6.85984 8.91035C8.82359 8.63542 10.8172 8.63542 12.7815 8.91035L13.1533 8.96274C13.4952 9.01058 13.7882 9.23079 13.9291 9.54567L14.0552 9.82689Z" fill="#C9C9C9"/>
<path d="M16.1684 1.14441e-05L12.7011 9.68265H10.7743L14.2316 0.00791264V1.14441e-05H16.1684Z" fill="#FF545F"/>
<path d="M14.2316 1.14441e-05V0.00791264L10.7744 9.68265H8.87209L12.3293 0.00791264V1.14441e-05H14.2316Z" fill="#62DADC"/>
<path d="M12.3293 1.14441e-05V0.00791264L8.87213 9.68265H6.92857L10.3959 1.14441e-05H12.3293Z" fill="#AC748C"/>
<path d="M19.3348 20.5373C19.3348 23.6909 16.7783 26.2473 13.6246 26.2473C10.471 26.2473 7.91432 23.6909 7.91432 20.5373C7.91432 17.3835 10.471 14.8271 13.6246 14.8271C16.7783 14.8271 19.3348 17.3835 19.3348 20.5373Z" fill="#9A9898"/>
<path d="M3.4606 1.14441e-05L6.92791 9.68265H8.85449L5.39727 0.00791264V1.14441e-05H3.4606Z" fill="#AC748C"/>
<path d="M5.39726 1.14441e-05V0.00791264L8.85448 9.68265H10.7569L7.2997 0.00791264V1.14441e-05H5.39726Z" fill="#62DADC"/>
<path d="M7.2997 1.14441e-05V0.00791264L10.7569 9.68265H12.7003L9.23301 1.14441e-05H7.2997Z" fill="#FF545F"/>
<path d="M18.9629 20.5373C18.9629 23.4855 16.5729 25.8756 13.6246 25.8756C10.6764 25.8756 8.28632 23.4855 8.28632 20.5373C8.28632 17.589 10.6764 15.1989 13.6246 15.1989C16.5729 15.1989 18.9629 17.589 18.9629 20.5373Z" fill="#E3E3E3"/>
<path d="M17.6896 20.5373C17.6896 22.7823 15.8697 24.6022 13.6246 24.6022C11.3796 24.6022 9.55954 22.7823 9.55954 20.5373C9.55954 18.2922 11.3796 16.4723 13.6246 16.4723C15.8697 16.4723 17.6896 18.2922 17.6896 20.5373Z" fill="#929292"/>
<path d="M8.82738 18.7591C8.82738 18.7595 8.82753 18.7598 8.82753 18.7602C8.82723 18.785 8.82577 19.1399 8.91458 19.3756C9.00662 19.6201 8.92834 19.9997 8.92834 19.9997C8.92834 19.9997 8.67784 19.7142 8.66028 19.5054C8.63848 19.2542 8.82153 18.774 8.82738 18.7591Z" fill="#929292"/>
<path d="M8.88703 18.9662C8.95785 19.1209 9.03072 19.2448 9.09188 19.4293C9.12758 19.537 9.07476 19.8128 8.99429 19.927C8.9681 19.9792 8.9283 19.9997 8.9283 19.9997C8.9283 19.9997 9.00658 19.6201 8.91454 19.3756C8.82573 19.1399 8.82719 18.785 8.82749 18.7602C8.83012 18.7737 8.85016 18.8855 8.88703 18.9662Z" fill="#E6E6E6"/>
<path d="M9.66292 19.1025C9.66263 19.1028 9.66263 19.1031 9.66234 19.1034C9.6458 19.1216 9.41038 19.3874 9.32142 19.6231C9.22909 19.8674 8.91977 20.1008 8.91977 20.1008C8.91977 20.1008 8.92006 19.7211 9.04458 19.5526C9.19412 19.3495 9.64873 19.1097 9.66292 19.1025Z" fill="#929292"/>
<path d="M9.57103 19.2974C9.52216 19.4604 9.4951 19.6014 9.41916 19.7805C9.37497 19.885 9.15315 20.0572 9.01722 20.0898C8.96308 20.1116 8.91977 20.1008 8.91977 20.1008C8.91977 20.1008 9.22909 19.8674 9.32142 19.6231C9.41038 19.3874 9.6458 19.1216 9.66234 19.1034C9.65546 19.1152 9.59664 19.2124 9.57103 19.2974Z" fill="#E6E6E6"/>
<path d="M8.60646 19.6286C8.60646 19.6289 8.60676 19.6292 8.60676 19.6295C8.60997 19.6541 8.6606 20.0054 8.78292 20.2257C8.90978 20.4542 8.88798 20.841 8.88798 20.841C8.88798 20.841 8.59841 20.5953 8.55027 20.3914C8.49204 20.146 8.6028 19.6441 8.60646 19.6286Z" fill="#929292"/>
<path d="M8.69577 19.8247C8.78854 19.9674 8.87882 20.0793 8.96632 20.2528C9.01738 20.3542 9.00553 20.6347 8.94261 20.7594C8.92418 20.8148 8.88804 20.841 8.88804 20.841C8.88804 20.841 8.90984 20.4542 8.78298 20.2257C8.66066 20.0054 8.61003 19.6541 8.60681 19.6295C8.61135 19.6427 8.64749 19.7504 8.69577 19.8247Z" fill="#E6E6E6"/>
<path d="M9.48329 19.8458C9.483 19.8462 9.483 19.8465 9.48285 19.8468C9.4691 19.8673 9.27508 20.1646 9.22153 20.4109C9.16607 20.6662 8.89421 20.9423 8.89421 20.9423C8.89421 20.9423 8.8389 20.5667 8.93752 20.3818C9.05575 20.1589 9.47027 19.8552 9.48329 19.8458Z" fill="#929292"/>
<path d="M9.42071 20.0522C9.39627 20.2205 9.39013 20.3642 9.34125 20.5524C9.31272 20.6621 9.11856 20.865 8.98892 20.9171C8.93859 20.9467 8.8941 20.9423 8.8941 20.9423C8.8941 20.9423 9.16597 20.6662 9.22142 20.4109C9.27497 20.1646 9.46899 19.8673 9.48275 19.8468C9.47748 19.8597 9.43358 19.9645 9.42071 20.0522Z" fill="#E6E6E6"/>
<path d="M8.51535 20.5726C8.5155 20.5728 8.51579 20.573 8.51579 20.5734C8.52472 20.5965 8.65538 20.9265 8.82525 21.1126C9.00171 21.3053 9.07004 21.6868 9.07004 21.6868C9.07004 21.6868 8.73146 21.5148 8.63738 21.3276C8.52384 21.1024 8.51535 20.5885 8.51535 20.5726Z" fill="#929292"/>
<path d="M8.64768 20.7426C8.77088 20.8599 8.88457 20.9479 9.00982 21.0965C9.08298 21.1831 9.13653 21.4588 9.10419 21.5947C9.09907 21.653 9.06995 21.6868 9.06995 21.6868C9.06995 21.6868 9.00162 21.3053 8.82516 21.1126C8.65529 20.9265 8.52463 20.5965 8.5157 20.5734C8.52331 20.585 8.58345 20.6814 8.64768 20.7426Z" fill="#E6E6E6"/>
<path d="M9.41852 20.5807C9.41837 20.5812 9.41852 20.5815 9.41837 20.5818C9.40974 20.605 9.28991 20.9391 9.29473 21.191C9.3 21.4522 9.09954 21.7839 9.09954 21.7839C9.09954 21.7839 8.95864 21.4311 9.01175 21.2285C9.07511 20.9843 9.40798 20.5929 9.41852 20.5807Z" fill="#929292"/>
<path d="M9.40566 20.796C9.42074 20.9654 9.4481 21.1064 9.44414 21.3009C9.4418 21.4143 9.30002 21.6566 9.18589 21.7374C9.14375 21.7778 9.09956 21.7839 9.09956 21.7839C9.09956 21.7839 9.30002 21.4522 9.29475 21.191C9.28993 20.9391 9.40976 20.605 9.41839 20.5818C9.41634 20.5955 9.39776 20.7076 9.40566 20.796Z" fill="#E6E6E6"/>
<path d="M8.6219 21.4577C8.62205 21.4581 8.62234 21.4581 8.62249 21.4585C8.6339 21.4805 8.79982 21.7942 8.98931 21.9604C9.18581 22.1326 9.29555 22.5043 9.29555 22.5043C9.29555 22.5043 8.94014 22.3705 8.82616 22.1948C8.68848 21.9834 8.62366 21.4736 8.6219 21.4577Z" fill="#929292"/>
<path d="M8.7721 21.6123C8.90745 21.7153 9.03006 21.7902 9.17097 21.9241C9.2532 22.0023 9.3366 22.2705 9.31948 22.409C9.3208 22.4674 9.29549 22.5043 9.29549 22.5043C9.29549 22.5043 9.18575 22.1326 8.98924 21.9604C8.79976 21.7942 8.63383 21.4805 8.62242 21.4585C8.6312 21.4692 8.70158 21.5585 8.7721 21.6123Z" fill="#E6E6E6"/>
<path d="M9.52055 21.3666C9.5204 21.3671 9.52055 21.3674 9.5204 21.3678C9.5144 21.3918 9.43203 21.737 9.46451 21.9869C9.49846 22.2459 9.3356 22.5976 9.3356 22.5976C9.3356 22.5976 9.1568 22.2625 9.18723 22.0552C9.22352 21.8056 9.51133 21.3798 9.52055 21.3666Z" fill="#929292"/>
<path d="M9.53139 21.582C9.56504 21.7488 9.60762 21.8859 9.62504 22.0796C9.63528 22.1926 9.52086 22.4491 9.41639 22.5419C9.37893 22.5867 9.33562 22.5976 9.33562 22.5976C9.33562 22.5976 9.49847 22.2459 9.46452 21.9869C9.43204 21.737 9.51442 21.3918 9.52042 21.3678C9.51998 21.3816 9.51383 21.495 9.53139 21.582Z" fill="#E6E6E6"/>
<path d="M8.85718 22.3258C8.85732 22.3262 8.85761 22.3262 8.85791 22.3265C8.87312 22.3461 9.09436 22.6235 9.31135 22.7517C9.53639 22.8846 9.71314 23.2293 9.71314 23.2293C9.71314 23.2293 9.339 23.1639 9.19444 23.0123C9.02003 22.8301 8.86186 22.3411 8.85718 22.3258Z" fill="#929292"/>
<path d="M9.0333 22.4498C9.18547 22.5259 9.31994 22.5768 9.48323 22.6825C9.57848 22.744 9.71017 22.9919 9.71895 23.1314C9.7311 23.1885 9.7131 23.2293 9.7131 23.2293C9.7131 23.2293 9.53634 22.8846 9.31131 22.7517C9.09432 22.6235 8.87308 22.3461 8.85786 22.3265C8.8684 22.3354 8.954 22.41 9.0333 22.4498Z" fill="#E6E6E6"/>
<path d="M9.72324 22.0698C9.7231 22.0703 9.72339 22.0704 9.72324 22.0708C9.72193 22.0956 9.7048 22.4501 9.78309 22.6896C9.86444 22.9379 9.76963 23.3135 9.76963 23.3135C9.76963 23.3135 9.53186 23.0173 9.52337 22.8082C9.51269 22.556 9.71666 22.0844 9.72324 22.0698Z" fill="#929292"/>
<path d="M9.77383 22.2793C9.83777 22.4369 9.90522 22.5639 9.95819 22.7509C9.98906 22.8601 9.92424 23.1333 9.83879 23.2439C9.81026 23.2948 9.76973 23.3135 9.76973 23.3135C9.76973 23.3135 9.86454 22.9379 9.78319 22.6896C9.70491 22.4501 9.72203 22.0956 9.72335 22.0708C9.72539 22.0844 9.74046 22.1971 9.77383 22.2793Z" fill="#E6E6E6"/>
<path d="M9.22362 23.1218C9.22391 23.1221 9.2242 23.1221 9.2245 23.1225C9.24293 23.139 9.50938 23.3735 9.74539 23.4616C9.99018 23.5531 10.2247 23.8615 10.2247 23.8615C10.2247 23.8615 9.84489 23.8627 9.67604 23.7386C9.47236 23.5898 9.23093 23.1361 9.22362 23.1218Z" fill="#929292"/>
<path d="M9.41902 23.2132C9.58217 23.2615 9.72337 23.288 9.90261 23.3633C10.0072 23.4072 10.1803 23.6282 10.2134 23.764C10.2353 23.8182 10.2248 23.8615 10.2248 23.8615C10.2248 23.8615 9.99025 23.5531 9.74546 23.4616C9.50945 23.3735 9.243 23.139 9.22456 23.1225C9.23656 23.1294 9.33386 23.1878 9.41902 23.2132Z" fill="#E6E6E6"/>
<path d="M10.0316 22.7181C10.0316 22.7186 10.0318 22.7188 10.0318 22.7192C10.0348 22.7437 10.0801 23.0958 10.1992 23.3177C10.3227 23.5481 10.2951 23.9345 10.2951 23.9345C10.2951 23.9345 10.0092 23.6846 9.96411 23.48C9.90953 23.2338 10.0278 22.7337 10.0316 22.7181Z" fill="#929292"/>
<path d="M10.1181 22.9155C10.2087 23.0595 10.2973 23.1727 10.3822 23.3476C10.4318 23.4497 10.4159 23.7301 10.351 23.8539C10.3319 23.909 10.2951 23.9345 10.2951 23.9345C10.2951 23.9345 10.3228 23.5481 10.1993 23.3177C10.0802 23.0958 10.0348 22.7437 10.0319 22.7192C10.0363 22.7322 10.071 22.8404 10.1181 22.9155Z" fill="#E6E6E6"/>
<path d="M9.82368 23.9166C9.82398 23.9168 9.82427 23.9168 9.82456 23.9169C9.84651 23.9285 10.1621 24.0909 10.4125 24.119C10.6722 24.148 10.9748 24.39 10.9748 24.39C10.9748 24.39 10.6068 24.4835 10.4126 24.4045C10.1789 24.3098 9.83422 23.9286 9.82368 23.9166Z" fill="#929292"/>
<path d="M10.0353 23.9575C10.2053 23.9647 10.3487 23.956 10.5409 23.9853C10.653 24.0024 10.8748 24.1746 10.9399 24.2983C10.9745 24.3452 10.9748 24.39 10.9748 24.39C10.9748 24.39 10.6722 24.148 10.4125 24.1191C10.1621 24.0909 9.8465 23.9286 9.82455 23.917C9.83787 23.9208 9.94659 23.9537 10.0353 23.9575Z" fill="#E6E6E6"/>
<path d="M10.5089 23.3282C10.509 23.3285 10.5092 23.3287 10.5093 23.3291C10.5181 23.3522 10.648 23.6826 10.8176 23.8688C10.9935 24.0621 11.061 24.4437 11.061 24.4437C11.061 24.4437 10.7227 24.2709 10.6292 24.0835C10.5161 23.858 10.5089 23.3441 10.5089 23.3282Z" fill="#929292"/>
<path d="M10.6409 23.4986C10.7638 23.6161 10.8773 23.7044 11.0023 23.8533C11.0751 23.9401 11.128 24.2159 11.0953 24.3519C11.0902 24.4099 11.0609 24.4437 11.0609 24.4437C11.0609 24.4437 10.9935 24.0621 10.8176 23.8688C10.648 23.6826 10.5181 23.3522 10.5093 23.3291C10.5168 23.3407 10.5768 23.4372 10.6409 23.4986Z" fill="#E6E6E6"/>
<path d="M10.4778 24.4859C10.4782 24.4862 10.4785 24.486 10.4788 24.4863C10.5012 24.497 10.8225 24.6479 11.0737 24.6667C11.3342 24.6862 11.6454 24.9171 11.6454 24.9171C11.6454 24.9171 11.2811 25.024 11.0843 24.9521C10.8472 24.8659 10.4889 24.4975 10.4778 24.4859Z" fill="#929292"/>
<path d="M10.6908 24.5191C10.861 24.5199 11.0041 24.5061 11.1971 24.5284C11.3099 24.5414 11.5377 24.7054 11.6074 24.8266C11.6435 24.8724 11.6454 24.917 11.6454 24.917C11.6454 24.917 11.3342 24.6861 11.0737 24.6667C10.8225 24.6478 10.5012 24.4969 10.4788 24.4863C10.4923 24.4895 10.6021 24.5184 10.6908 24.5191Z" fill="#E6E6E6"/>
<path d="M11.1411 23.8729C11.1413 23.8732 11.1416 23.8733 11.1417 23.8738C11.1514 23.8964 11.2931 24.222 11.4693 24.402C11.6522 24.5887 11.7334 24.9675 11.7334 24.9675C11.7334 24.9675 11.3891 24.8073 11.2889 24.6234C11.1676 24.4021 11.1417 23.8889 11.1411 23.8729Z" fill="#929292"/>
<path d="M11.2793 24.0384C11.4064 24.1513 11.523 24.2354 11.6533 24.3798C11.7295 24.4639 11.7922 24.7375 11.7644 24.8744C11.7615 24.9328 11.7334 24.9675 11.7334 24.9675C11.7334 24.9675 11.6522 24.5887 11.4693 24.402C11.2932 24.222 11.1514 23.8964 11.1417 23.8738C11.1496 23.885 11.213 23.9794 11.2793 24.0384Z" fill="#E6E6E6"/>
<path d="M11.3186 25.0256C11.3189 25.0256 11.3192 25.0255 11.3196 25.0256C11.3439 25.0299 11.694 25.0885 11.941 25.0389C12.1972 24.9874 12.5592 25.1258 12.5592 25.1258C12.5592 25.1258 12.237 25.327 12.0282 25.3109C11.7767 25.2919 11.3323 25.0338 11.3186 25.0256Z" fill="#929292"/>
<path d="M11.5327 25C11.6967 24.9551 11.8307 24.9032 12.0227 24.8726C12.1346 24.8546 12.3983 24.9511 12.4981 25.0492C12.5453 25.0835 12.5592 25.1259 12.5592 25.1259C12.5592 25.1259 12.1972 24.9874 11.941 25.0389C11.6941 25.0885 11.3439 25.0299 11.3196 25.0256C11.3334 25.0252 11.4471 25.0234 11.5327 25Z" fill="#E6E6E6"/>
<path d="M12.3053 25.3699C12.3057 25.3699 12.306 25.3698 12.3063 25.3698C12.3311 25.3699 12.686 25.369 12.9213 25.2789C13.1652 25.1852 13.5452 25.2611 13.5452 25.2611C13.5452 25.2611 13.2613 25.5134 13.0527 25.5323C12.8016 25.5557 12.3202 25.3756 12.3053 25.3699Z" fill="#929292"/>
<path d="M12.5121 25.3089C12.6663 25.2371 12.7897 25.1634 12.9739 25.1011C13.0813 25.0647 13.3574 25.1157 13.4721 25.1956C13.5243 25.2215 13.5451 25.2611 13.5451 25.2611C13.5451 25.2611 13.1651 25.1852 12.9212 25.2789C12.6859 25.369 12.331 25.3699 12.3062 25.3698C12.3199 25.367 12.4315 25.3463 12.5121 25.3089Z" fill="#E6E6E6"/>
<path d="M11.7922 24.2563C11.7923 24.2567 11.7926 24.2567 11.7929 24.257C11.8083 24.2763 12.0326 24.5516 12.2509 24.6774C12.4772 24.8079 12.6576 25.1507 12.6576 25.1507C12.6576 25.1507 12.2829 25.0893 12.1368 24.9391C11.9604 24.7589 11.797 24.2717 11.7922 24.2563Z" fill="#929292"/>
<path d="M11.9696 24.3785C12.1227 24.4531 12.2576 24.5025 12.4219 24.6062C12.5179 24.6668 12.6522 24.9134 12.6624 25.0529C12.6753 25.1097 12.6576 25.1507 12.6576 25.1507C12.6576 25.1507 12.4772 24.8079 12.2508 24.6774C12.0325 24.5516 11.8082 24.2763 11.7929 24.257C11.8035 24.2658 11.89 24.3395 11.9696 24.3785Z" fill="#E6E6E6"/>
<path d="M12.6294 24.6189C12.6297 24.6192 12.6299 24.6192 12.6302 24.6195C12.6464 24.6336 12.8817 24.8367 13.0892 24.9119C13.3042 24.99 13.5122 25.258 13.5122 25.258C13.5122 25.258 13.1796 25.2621 13.0306 25.1551C12.8511 25.0265 12.636 24.6313 12.6294 24.6189Z" fill="#929292"/>
<path d="M12.8011 24.6971C12.9443 24.7381 13.0681 24.7601 13.2257 24.8246C13.3177 24.862 13.4711 25.0542 13.5012 25.1728C13.521 25.2199 13.512 25.258 13.512 25.258C13.512 25.258 13.3041 24.9899 13.089 24.9119C12.8816 24.8367 12.6463 24.6336 12.63 24.6194C12.6406 24.6253 12.7263 24.6758 12.8011 24.6971Z" fill="#E6E6E6"/>
<path d="M12.9967 25.5938C12.9969 25.5936 12.9969 25.5935 12.9972 25.5933C13.0086 25.5878 13.1726 25.5061 13.2607 25.4106C13.3521 25.3113 13.5451 25.2594 13.5451 25.2594C13.5451 25.2594 13.4717 25.441 13.3795 25.4976C13.2687 25.566 13.0049 25.5929 12.9967 25.5938Z" fill="#929292"/>
<path d="M13.0784 25.5181C13.1332 25.4496 13.1735 25.3873 13.2443 25.3163C13.2857 25.2748 13.425 25.2351 13.4964 25.2458C13.5265 25.2458 13.5451 25.2594 13.5451 25.2594C13.5451 25.2594 13.3521 25.3114 13.2607 25.4106C13.1726 25.5061 13.0086 25.5878 12.9972 25.5933C13.0027 25.5891 13.0497 25.5538 13.0784 25.5181Z" fill="#E6E6E6"/>
<path d="M18.4218 18.7591C18.4218 18.7595 18.4216 18.7598 18.4216 18.7602C18.4219 18.785 18.4234 19.1399 18.3347 19.3756C18.2425 19.6201 18.3208 19.9997 18.3208 19.9997C18.3208 19.9997 18.5713 19.7142 18.589 19.5054C18.6108 19.2542 18.4276 18.774 18.4218 18.7591Z" fill="#929292"/>
<path d="M18.3622 18.9662C18.2914 19.1209 18.2185 19.2448 18.1573 19.4293C18.1216 19.537 18.1745 19.8128 18.2549 19.927C18.2813 19.9792 18.3209 19.9997 18.3209 19.9997C18.3209 19.9997 18.2426 19.6201 18.3348 19.3756C18.4235 19.1399 18.422 18.785 18.4217 18.7602C18.4191 18.7737 18.3991 18.8855 18.3622 18.9662Z" fill="#E6E6E6"/>
<path d="M17.5863 19.1025C17.5866 19.1028 17.5866 19.1031 17.5869 19.1034C17.6034 19.1216 17.8389 19.3874 17.928 19.6231C18.0201 19.8674 18.3295 20.1008 18.3295 20.1008C18.3295 20.1008 18.3292 19.7211 18.2046 19.5526C18.0551 19.3495 17.6005 19.1097 17.5863 19.1025Z" fill="#929292"/>
<path d="M17.6783 19.2974C17.7272 19.4604 17.7542 19.6014 17.8303 19.7805C17.8745 19.885 18.0962 20.0572 18.2321 20.0898C18.2863 20.1116 18.3296 20.1008 18.3296 20.1008C18.3296 20.1008 18.0203 19.8674 17.9281 19.6231C17.839 19.3874 17.6035 19.1216 17.587 19.1034C17.594 19.1152 17.6527 19.2124 17.6783 19.2974Z" fill="#E6E6E6"/>
<path d="M18.6428 19.6286C18.6428 19.6289 18.6426 19.6292 18.6426 19.6295C18.6392 19.6541 18.5888 20.0054 18.4664 20.2257C18.3394 20.4542 18.3614 20.841 18.3614 20.841C18.3614 20.841 18.651 20.5953 18.6989 20.3914C18.7573 20.146 18.6466 19.6441 18.6428 19.6286Z" fill="#929292"/>
<path d="M18.5535 19.8247C18.4607 19.9674 18.3706 20.0793 18.2831 20.2528C18.2319 20.3542 18.2437 20.6347 18.3068 20.7594C18.3251 20.8148 18.3614 20.841 18.3614 20.841C18.3614 20.841 18.3394 20.4542 18.4664 20.2257C18.5887 20.0054 18.6392 19.6541 18.6426 19.6295C18.6379 19.6427 18.6018 19.7504 18.5535 19.8247Z" fill="#E6E6E6"/>
<path d="M17.766 19.8458C17.7663 19.8462 17.7663 19.8465 17.7666 19.8468C17.7802 19.8673 17.9742 20.1646 18.0278 20.4109C18.0832 20.6662 18.3551 20.9423 18.3551 20.9423C18.3551 20.9423 18.4104 20.5667 18.3119 20.3818C18.1937 20.1589 17.7792 19.8552 17.766 19.8458Z" fill="#929292"/>
<path d="M17.8285 20.0522C17.8531 20.2205 17.8591 20.3642 17.9081 20.5524C17.9365 20.6621 18.1307 20.865 18.2603 20.9171C18.3106 20.9467 18.3551 20.9423 18.3551 20.9423C18.3551 20.9423 18.0833 20.6662 18.0278 20.4109C17.9743 20.1646 17.7802 19.8673 17.7666 19.8468C17.7718 19.8597 17.8157 19.9645 17.8285 20.0522Z" fill="#E6E6E6"/>
<path d="M18.7339 20.5726C18.7337 20.5728 18.7336 20.573 18.7334 20.5734C18.7245 20.5965 18.594 20.9265 18.424 21.1126C18.2477 21.3053 18.1792 21.6868 18.1792 21.6868C18.1792 21.6868 18.5179 21.5148 18.6118 21.3276C18.7254 21.1024 18.7339 20.5885 18.7339 20.5726Z" fill="#929292"/>
<path d="M18.6017 20.7426C18.4783 20.8599 18.3648 20.9479 18.2394 21.0965C18.1662 21.1831 18.1128 21.4588 18.1451 21.5947C18.1501 21.653 18.1792 21.6868 18.1792 21.6868C18.1792 21.6868 18.2477 21.3053 18.424 21.1126C18.594 20.9265 18.7246 20.5965 18.7335 20.5734C18.726 20.585 18.6659 20.6814 18.6017 20.7426Z" fill="#E6E6E6"/>
<path d="M17.8307 20.5807C17.8308 20.5812 17.8308 20.5815 17.831 20.5818C17.8395 20.605 17.9594 20.9391 17.9545 21.191C17.9494 21.4522 18.1498 21.7839 18.1498 21.7839C18.1498 21.7839 18.2906 21.4311 18.2376 21.2285C18.1741 20.9843 17.8412 20.5929 17.8307 20.5807Z" fill="#929292"/>
<path d="M17.8437 20.796C17.8285 20.9654 17.8012 21.1064 17.8053 21.3009C17.8075 21.4143 17.9494 21.6566 18.0634 21.7374C18.1055 21.7778 18.1499 21.7839 18.1499 21.7839C18.1499 21.7839 17.9494 21.4522 17.9545 21.191C17.9595 20.9391 17.8395 20.605 17.831 20.5818C17.8331 20.5955 17.8515 20.7076 17.8437 20.796Z" fill="#E6E6E6"/>
<path d="M18.6274 21.4577C18.6273 21.4581 18.627 21.4581 18.6269 21.4585C18.6156 21.4805 18.4495 21.7942 18.26 21.9604C18.0637 22.1326 17.9538 22.5043 17.9538 22.5043C17.9538 22.5043 18.3092 22.3705 18.4232 22.1948C18.5609 21.9834 18.6257 21.4736 18.6274 21.4577Z" fill="#929292"/>
<path d="M18.4774 21.6123C18.3419 21.7153 18.2193 21.7902 18.0784 21.9241C17.9961 22.0023 17.9127 22.2705 17.93 22.409C17.9285 22.4674 17.9538 22.5043 17.9538 22.5043C17.9538 22.5043 18.0637 22.1326 18.2601 21.9604C18.4496 21.7942 18.6156 21.4805 18.6269 21.4585C18.6183 21.4692 18.5479 21.5585 18.4774 21.6123Z" fill="#E6E6E6"/>
<path d="M17.7287 21.3666C17.7289 21.3671 17.7287 21.3674 17.7289 21.3678C17.7349 21.3918 17.8173 21.737 17.7848 21.9869C17.751 22.2459 17.9138 22.5976 17.9138 22.5976C17.9138 22.5976 18.0925 22.2625 18.0621 22.0552C18.0259 21.8056 17.738 21.3798 17.7287 21.3666Z" fill="#929292"/>
<path d="M17.718 21.582C17.6842 21.7488 17.6417 21.8859 17.6244 22.0796C17.6142 22.1926 17.7284 22.4491 17.8331 22.5419C17.8705 22.5867 17.9138 22.5976 17.9138 22.5976C17.9138 22.5976 17.751 22.2459 17.7848 21.9869C17.8173 21.737 17.7349 21.3918 17.7289 21.3678C17.7295 21.3816 17.7355 21.495 17.718 21.582Z" fill="#E6E6E6"/>
<path d="M18.3922 22.3258C18.3919 22.3262 18.3916 22.3262 18.3914 22.3265C18.3763 22.3461 18.1549 22.6235 17.9379 22.7517C17.713 22.8846 17.5361 23.2293 17.5361 23.2293C17.5361 23.2293 17.9103 23.1639 18.0548 23.0123C18.2292 22.8301 18.3875 22.3411 18.3922 22.3258Z" fill="#929292"/>
<path d="M18.2159 22.4498C18.0638 22.5259 17.9294 22.5768 17.7661 22.6825C17.6707 22.744 17.5391 22.9919 17.5303 23.1314C17.5181 23.1885 17.5361 23.2293 17.5361 23.2293C17.5361 23.2293 17.713 22.8846 17.9379 22.7517C18.1549 22.6235 18.3763 22.3461 18.3914 22.3265C18.3808 22.3354 18.2952 22.41 18.2159 22.4498Z" fill="#E6E6E6"/>
<path d="M17.526 22.0698C17.526 22.0703 17.5259 22.0704 17.5259 22.0708C17.5273 22.0956 17.5443 22.4501 17.466 22.6896C17.3847 22.9379 17.4795 23.3135 17.4795 23.3135C17.4795 23.3135 17.7172 23.0173 17.7257 22.8082C17.7366 22.556 17.5324 22.0844 17.526 22.0698Z" fill="#929292"/>
<path d="M17.4754 22.2793C17.4115 22.4369 17.3442 22.5639 17.2912 22.7509C17.2602 22.8601 17.325 23.1333 17.4106 23.2439C17.439 23.2948 17.4795 23.3135 17.4795 23.3135C17.4795 23.3135 17.3847 22.9379 17.4661 22.6896C17.5443 22.4501 17.5274 22.0956 17.5259 22.0708C17.5239 22.0844 17.5088 22.1971 17.4754 22.2793Z" fill="#E6E6E6"/>
<path d="M18.0256 23.1218C18.0253 23.1221 18.025 23.1221 18.0247 23.1225C18.0064 23.139 17.7398 23.3735 17.5038 23.4616C17.259 23.5531 17.0246 23.8615 17.0246 23.8615C17.0246 23.8615 17.4043 23.8627 17.5732 23.7386C17.7769 23.5898 18.0183 23.1361 18.0256 23.1218Z" fill="#929292"/>
<path d="M17.8304 23.2132C17.6673 23.2615 17.5259 23.288 17.3467 23.3633C17.2421 23.4072 17.069 23.6282 17.0359 23.764C17.014 23.8182 17.0246 23.8615 17.0246 23.8615C17.0246 23.8615 17.259 23.5531 17.5038 23.4616C17.7398 23.3735 18.0064 23.139 18.0247 23.1225C18.0129 23.1294 17.9154 23.1878 17.8304 23.2132Z" fill="#E6E6E6"/>
<path d="M17.2176 22.7181C17.2176 22.7186 17.2173 22.7188 17.2173 22.7192C17.2144 22.7437 17.1691 23.0958 17.0501 23.3177C16.9265 23.5481 16.9541 23.9345 16.9541 23.9345C16.9541 23.9345 17.24 23.6846 17.2851 23.48C17.3398 23.2338 17.2216 22.7337 17.2176 22.7181Z" fill="#929292"/>
<path d="M17.1312 22.9155C17.0407 23.0595 16.9521 23.1727 16.8673 23.3476C16.8175 23.4497 16.8336 23.7301 16.8984 23.8539C16.9174 23.909 16.9542 23.9345 16.9542 23.9345C16.9542 23.9345 16.9265 23.5481 17.0502 23.3177C17.1691 23.0958 17.2145 22.7437 17.2174 22.7192C17.213 22.7322 17.1785 22.8404 17.1312 22.9155Z" fill="#E6E6E6"/>
<path d="M17.4257 23.9166C17.4253 23.9168 17.425 23.9168 17.4247 23.9169C17.4029 23.9285 17.0872 24.0909 16.8368 24.119C16.5772 24.148 16.2745 24.39 16.2745 24.39C16.2745 24.39 16.6426 24.4835 16.8367 24.4045C17.0705 24.3098 17.4151 23.9286 17.4257 23.9166Z" fill="#929292"/>
<path d="M17.214 23.9575C17.0441 23.9647 16.9006 23.956 16.7085 23.9853C16.5963 24.0024 16.3746 24.1746 16.3093 24.2983C16.2748 24.3452 16.2745 24.39 16.2745 24.39C16.2745 24.39 16.5772 24.148 16.8368 24.1191C17.0872 24.0909 17.4029 23.9286 17.4247 23.917C17.4114 23.9208 17.3027 23.9537 17.214 23.9575Z" fill="#E6E6E6"/>
<path d="M16.7405 23.3282C16.7403 23.3285 16.74 23.3287 16.7399 23.3291C16.7311 23.3522 16.6013 23.6826 16.4317 23.8688C16.2559 24.0621 16.1884 24.4437 16.1884 24.4437C16.1884 24.4437 16.5266 24.2709 16.6201 24.0835C16.7332 23.858 16.7405 23.3441 16.7405 23.3282Z" fill="#929292"/>
<path d="M16.6085 23.4986C16.4855 23.6161 16.3721 23.7044 16.2471 23.8533C16.1741 23.9401 16.1213 24.2159 16.1539 24.3519C16.159 24.4099 16.1884 24.4437 16.1884 24.4437C16.1884 24.4437 16.2559 24.0621 16.4318 23.8688C16.6013 23.6826 16.7311 23.3522 16.7399 23.3291C16.7324 23.3407 16.6726 23.4372 16.6085 23.4986Z" fill="#E6E6E6"/>
<path d="M16.7715 24.4859C16.771 24.4862 16.7708 24.486 16.7705 24.4863C16.7482 24.497 16.4269 24.6479 16.1755 24.6667C15.9151 24.6862 15.6039 24.9171 15.6039 24.9171C15.6039 24.9171 15.9682 25.024 16.165 24.9521C16.4022 24.8659 16.7605 24.4975 16.7715 24.4859Z" fill="#929292"/>
<path d="M16.5584 24.5191C16.3883 24.5199 16.2453 24.5061 16.0522 24.5284C15.9395 24.5414 15.7116 24.7054 15.6421 24.8266C15.6058 24.8724 15.6039 24.917 15.6039 24.917C15.6039 24.917 15.9151 24.6861 16.1755 24.6667C16.4269 24.6478 16.7482 24.4969 16.7705 24.4863C16.757 24.4895 16.6473 24.5184 16.5584 24.5191Z" fill="#E6E6E6"/>
<path d="M16.1081 23.8729C16.1079 23.8732 16.1077 23.8733 16.1075 23.8738C16.0978 23.8964 15.9562 24.222 15.7799 24.402C15.5971 24.5887 15.5158 24.9675 15.5158 24.9675C15.5158 24.9675 15.8601 24.8073 15.9605 24.6234C16.0816 24.4021 16.1075 23.8889 16.1081 23.8729Z" fill="#929292"/>
<path d="M15.97 24.0384C15.8429 24.1513 15.7262 24.2354 15.596 24.3798C15.5199 24.4639 15.4572 24.7375 15.4848 24.8744C15.4877 24.9328 15.5158 24.9675 15.5158 24.9675C15.5158 24.9675 15.5972 24.5887 15.7799 24.402C15.9563 24.222 16.0979 23.8964 16.1075 23.8738C16.0996 23.885 16.0363 23.9794 15.97 24.0384Z" fill="#E6E6E6"/>
<path d="M15.9308 25.0256C15.9304 25.0256 15.9301 25.0255 15.9296 25.0256C15.9053 25.0299 15.5552 25.0885 15.3082 25.0389C15.052 24.9874 14.6902 25.1258 14.6902 25.1258C14.6902 25.1258 15.0122 25.327 15.2211 25.3109C15.4727 25.2919 15.917 25.0338 15.9308 25.0256Z" fill="#929292"/>
<path d="M15.7167 25C15.5526 24.9551 15.4187 24.9032 15.2266 24.8726C15.1146 24.8546 14.851 24.9511 14.7512 25.0492C14.7041 25.0835 14.6902 25.1259 14.6902 25.1259C14.6902 25.1259 15.052 24.9874 15.3082 25.0389C15.5552 25.0885 15.9053 25.0299 15.9296 25.0256C15.9159 25.0252 15.8023 25.0234 15.7167 25Z" fill="#E6E6E6"/>
<path d="M15.4572 24.2563C15.4569 24.2567 15.4566 24.2567 15.4563 24.257C15.441 24.2763 15.2167 24.5516 14.9985 24.6774C14.772 24.8079 14.5916 25.1507 14.5916 25.1507C14.5916 25.1507 14.9663 25.0893 15.1125 24.9391C15.2889 24.7589 15.4522 24.2717 15.4572 24.2563Z" fill="#929292"/>
<path d="M15.2797 24.3785C15.1268 24.4531 14.9917 24.5025 14.8274 24.6062C14.7314 24.6668 14.5971 24.9134 14.5868 25.0529C14.5741 25.1097 14.5917 25.1507 14.5917 25.1507C14.5917 25.1507 14.7721 24.8079 14.9986 24.6774C15.2167 24.5516 15.4411 24.2763 15.4564 24.257C15.4459 24.2658 15.3594 24.3395 15.2797 24.3785Z" fill="#E6E6E6"/>
<path d="M15.078 25.368C15.0776 25.368 15.0773 25.3679 15.0769 25.3679C15.0521 25.3679 14.6973 25.3647 14.4626 25.2728C14.2194 25.1775 13.8389 25.2507 13.8389 25.2507C13.8389 25.2507 14.121 25.505 14.3295 25.5253C14.5804 25.5505 15.063 25.3738 15.078 25.368Z" fill="#929292"/>
<path d="M14.8716 25.3056C14.7179 25.2326 14.595 25.1582 14.4113 25.0947C14.3041 25.0575 14.0276 25.1067 13.9125 25.1857C13.8599 25.2113 13.8389 25.2507 13.8389 25.2507C13.8389 25.2507 14.2194 25.1775 14.4626 25.2727C14.6973 25.3646 15.0521 25.3678 15.0769 25.3678C15.0634 25.3651 14.9519 25.3435 14.8716 25.3056Z" fill="#E6E6E6"/>
<path d="M14.6198 24.6189C14.6197 24.6192 14.6194 24.6192 14.6191 24.6195C14.6029 24.6336 14.3676 24.8367 14.1601 24.9119C13.9452 24.99 13.7372 25.258 13.7372 25.258C13.7372 25.258 14.0697 25.2621 14.2186 25.1551C14.3982 25.0265 14.6134 24.6313 14.6198 24.6189Z" fill="#929292"/>
<path d="M14.4482 24.6971C14.305 24.7381 14.1811 24.7601 14.0235 24.8246C13.9316 24.862 13.7781 25.0542 13.7481 25.1728C13.7283 25.2199 13.7373 25.258 13.7373 25.258C13.7373 25.258 13.9452 24.9899 14.1601 24.9119C14.3676 24.8367 14.6029 24.6336 14.6191 24.6194C14.6086 24.6253 14.5229 24.6758 14.4482 24.6971Z" fill="#E6E6E6"/>
<path d="M14.2526 25.5938C14.2523 25.5936 14.2523 25.5935 14.2521 25.5933C14.2406 25.5878 14.0766 25.5061 13.9885 25.4106C13.8972 25.3113 13.704 25.2594 13.704 25.2594C13.704 25.2594 13.7775 25.441 13.8697 25.4976C13.9804 25.566 14.2443 25.5929 14.2526 25.5938Z" fill="#929292"/>
<path d="M14.1708 25.5181C14.1161 25.4496 14.0758 25.3873 14.0049 25.3163C13.9636 25.2748 13.8242 25.2351 13.7528 25.2458C13.7228 25.2458 13.704 25.2594 13.704 25.2594C13.704 25.2594 13.8972 25.3114 13.9885 25.4106C14.0766 25.5061 14.2406 25.5878 14.2521 25.5933C14.2464 25.5891 14.1995 25.5538 14.1708 25.5181Z" fill="#E6E6E6"/>
<path d="M11.2246 13.1644C8.55746 13.7033 6.53329 15.2943 5.38893 17.2238C4.4462 18.8115 4.31247 20.0882 4.71104 21.6022C6.63674 29.234 9.37144 25.2221 13.0455 28.9409C13.077 28.9734 13.072 29.0148 13.0459 29.0394L12.7666 29.3019C12.7409 29.326 12.6994 29.3277 12.6716 29.299C10.4061 27.0305 8.64862 27.8939 6.84656 26.6364C5.3165 25.5557 4.65427 23.2987 4.23697 21.421C3.8302 19.5804 4.38226 17.9368 5.55398 16.3919C5.62407 16.2962 5.8453 16.0335 5.88188 15.9925C7.31946 14.427 8.99803 13.4201 11.2246 13.1644Z" fill="#929292"/>
<path d="M3.34707 15.3234C3.34677 15.3247 3.34721 15.3254 3.34692 15.3266C3.33448 15.4033 3.16695 16.5049 3.33404 17.2779C3.50758 18.0794 3.09013 19.2219 3.09013 19.2219C3.09013 19.2219 2.44355 18.2205 2.48452 17.5641C2.53251 16.7737 3.3219 15.3668 3.34707 15.3234Z" fill="#929292"/>
<path d="M3.43701 15.994C3.58596 16.5068 3.75511 16.925 3.86002 17.5262C3.92162 17.8769 3.63074 18.7089 3.32815 19.0266C3.22265 19.1764 3.09009 19.2219 3.09009 19.2219C3.09009 19.2219 3.50753 18.0794 3.334 17.2779C3.1669 16.5049 3.33444 15.4033 3.34688 15.3266C3.34893 15.3701 3.35961 15.7263 3.43701 15.994Z" fill="#E6E6E6"/>
<path d="M5.03233 16.6543C5.03174 16.6554 5.03218 16.6562 5.0316 16.6575C5.00585 16.7307 4.64532 17.7849 4.67253 18.5754C4.70107 19.395 4.08741 20.4451 4.08741 20.4451C4.08741 20.4451 3.62884 19.3449 3.78584 18.7062C3.97328 17.9369 4.99985 16.6925 5.03233 16.6543Z" fill="#929292"/>
<path d="M5.00181 17.3301C5.05741 17.8613 5.14973 18.3028 5.14622 18.9131C5.14447 19.2691 4.71063 20.0364 4.35654 20.2953C4.22617 20.4239 4.08746 20.4451 4.08746 20.4451C4.08746 20.4451 4.70112 19.395 4.67259 18.5754C4.64538 17.7849 5.0059 16.7307 5.03165 16.6575C5.02595 16.7005 4.97328 17.0531 5.00181 17.3301Z" fill="#E6E6E6"/>
<path d="M1.672 17.4274C1.67244 17.4284 1.67317 17.4287 1.6736 17.4298C1.70184 17.4895 2.11622 18.3421 2.60653 18.8031C3.11514 19.2808 3.37427 20.2828 3.37427 20.2828C3.37427 20.2828 2.43768 19.8935 2.14958 19.4137C1.80163 18.8368 1.67536 17.47 1.672 17.4274Z" fill="#929292"/>
<path d="M2.05883 17.8538C2.41072 18.1412 2.73131 18.3524 3.09506 18.7231C3.30751 18.939 3.50548 19.6624 3.44666 20.031C3.4452 20.187 3.37423 20.2828 3.37423 20.2828C3.37423 20.2828 3.1151 19.2808 2.6065 18.8031C2.11618 18.3421 1.70181 17.4895 1.67357 17.4298C1.69581 17.4592 1.87549 17.7037 2.05883 17.8538Z" fill="#E6E6E6"/>
<path d="M1.3795 19.8493C1.38023 19.8502 1.38096 19.8503 1.38169 19.8512C1.42559 19.9053 2.06413 20.6754 2.68218 21.025C3.3232 21.3871 3.83985 22.3491 3.83985 22.3491C3.83985 22.3491 2.7824 22.1847 2.36686 21.7653C1.86557 21.2613 1.39355 19.8922 1.3795 19.8493Z" fill="#929292"/>
<path d="M1.88281 20.1893C2.31562 20.3956 2.69693 20.5319 3.16266 20.8204C3.43452 20.9887 3.8189 21.6803 3.85109 22.0729C3.88855 22.233 3.83982 22.3491 3.83982 22.3491C3.83982 22.3491 3.32317 21.3871 2.68215 21.025C2.0641 20.6754 1.42556 19.9053 1.38167 19.8512C1.41181 19.8758 1.65719 20.0815 1.88281 20.1893Z" fill="#E6E6E6"/>
<path d="M3.64008 18.9C3.64008 18.9013 3.64081 18.902 3.64081 18.9033C3.64608 18.9835 3.73329 20.135 4.08196 20.8767C4.44381 21.6458 4.28813 22.8966 4.28813 22.8966C4.28813 22.8966 3.40202 22.0359 3.29067 21.3634C3.15518 20.5541 3.62486 18.9497 3.64008 18.9Z" fill="#929292"/>
<path d="M3.88717 19.5562C4.15698 20.0395 4.42518 20.4223 4.67114 21.005C4.81483 21.3449 4.71489 22.2528 4.48312 22.6439C4.41157 22.8197 4.28823 22.8966 4.28823 22.8966C4.28823 22.8966 4.44391 21.6458 4.08206 20.8767C3.73339 20.135 3.64618 18.9835 3.64091 18.9033C3.65291 18.9466 3.74685 19.3039 3.88717 19.5562Z" fill="#E6E6E6"/>
<path d="M1.47739 23.6281C1.47856 23.6287 1.47943 23.6283 1.48061 23.6289C1.5564 23.6558 2.64808 24.032 3.46732 24.0058C4.31685 23.9783 5.40356 24.6168 5.40356 24.6168C5.40356 24.6168 4.26227 25.0893 3.60076 24.9251C2.80391 24.7287 1.51689 23.6619 1.47739 23.6281Z" fill="#929292"/>
<path d="M2.1778 23.6615C2.7284 23.6051 3.18608 23.5106 3.81847 23.5157C4.18749 23.5184 4.98156 23.9699 5.24888 24.3376C5.38189 24.4731 5.40354 24.6168 5.40354 24.6168C5.40354 24.6168 4.31683 23.9782 3.46731 24.0057C2.64807 24.0319 1.55638 23.6558 1.48059 23.6288C1.52522 23.6348 1.89058 23.6904 2.1778 23.6615Z" fill="#E6E6E6"/>
<path d="M3.81482 22.4255C3.8154 22.4267 3.81628 22.427 3.81687 22.4282C3.85754 22.4975 4.45204 23.4875 5.09643 23.994C5.76481 24.5191 6.18679 25.7069 6.18679 25.7069C6.18679 25.7069 5.00878 25.3349 4.60757 24.7839C4.1234 24.1215 3.82345 22.4769 3.81482 22.4255Z" fill="#929292"/>
<path d="M4.32989 22.9013C4.78787 23.2121 5.19931 23.434 5.68041 23.8444C5.96134 24.0838 6.27929 24.94 6.24769 25.3934C6.26261 25.5828 6.18682 25.7069 6.18682 25.7069C6.18682 25.7069 5.76484 24.5191 5.09645 23.994C4.45207 23.4875 3.85757 22.4975 3.81689 22.4282C3.84718 22.4615 4.09124 22.7388 4.32989 22.9013Z" fill="#E6E6E6"/>
<path d="M6.38655 22.1773C6.38655 22.1788 6.38728 22.1794 6.38728 22.1807C6.39357 22.2609 6.49599 23.4111 6.85447 24.1481C7.22642 24.9123 7.08741 26.1651 7.08741 26.1651C7.08741 26.1651 6.19004 25.3162 6.06977 24.6453C5.9236 23.8379 6.37192 22.2274 6.38655 22.1773Z" fill="#929292"/>
<path d="M6.64208 22.8304C6.91818 23.31 7.19151 23.6892 7.44508 24.2685C7.5933 24.6065 7.50536 25.5157 7.27886 25.9099C7.20965 26.0867 7.08732 26.1651 7.08732 26.1651C7.08732 26.1651 7.22633 24.9123 6.85439 24.1481C6.49591 23.4111 6.39348 22.2609 6.38719 22.1807C6.39978 22.2239 6.49839 22.58 6.64208 22.8304Z" fill="#E6E6E6"/>
<path d="M8.14001 23.256C8.14001 23.2573 8.14059 23.2581 8.14074 23.2594C8.14703 23.3396 8.24945 24.4896 8.60793 25.2267C8.97988 25.9909 8.84073 27.2438 8.84073 27.2438C8.84073 27.2438 7.94335 26.3947 7.82323 25.7238C7.67691 24.9164 8.12523 23.3059 8.14001 23.256Z" fill="#929292"/>
<path d="M8.39565 23.909C8.67176 24.3885 8.94508 24.7678 9.19865 25.3472C9.34687 25.6852 9.25893 26.5943 9.03243 26.9884C8.96308 27.1652 8.84075 27.2438 8.84075 27.2438C8.84075 27.2438 8.9799 25.9909 8.60796 25.2267C8.24948 24.4896 8.14705 23.3396 8.14076 23.2594C8.15335 23.3025 8.25182 23.6585 8.39565 23.909Z" fill="#E6E6E6"/>
<path d="M2.88689 26.2649C2.8882 26.2652 2.88908 26.2647 2.8904 26.265C2.97336 26.2798 4.1663 26.4804 5.00836 26.3122C5.8813 26.1374 7.11432 26.6101 7.11432 26.6101C7.11432 26.6101 6.01635 27.295 5.30451 27.2392C4.44737 27.1737 2.93371 26.293 2.88689 26.2649Z" fill="#929292"/>
<path d="M3.61638 26.1786C4.17561 26.0257 4.63242 25.8491 5.28676 25.7454C5.6685 25.6846 6.56675 26.0144 6.90636 26.3483C7.06716 26.4652 7.11428 26.6101 7.11428 26.6101C7.11428 26.6101 5.88125 26.1375 5.00831 26.3122C4.16625 26.4805 2.97331 26.2799 2.89035 26.2651C2.93746 26.2637 3.32448 26.258 3.61638 26.1786Z" fill="#E6E6E6"/>
<path d="M6.38719 29.0249C6.38836 29.0246 6.38865 29.0239 6.38982 29.0236C6.45698 28.9994 7.4161 28.6436 7.9626 28.1651C8.529 27.669 9.63225 27.4954 9.63225 27.4954C9.63225 27.4954 9.11603 28.4606 8.57056 28.72C7.91447 29.0333 6.43328 29.0258 6.38719 29.0249Z" fill="#929292"/>
<path d="M6.88575 28.6542C7.23121 28.3062 7.49166 27.984 7.92769 27.6321C8.18199 27.4265 8.97972 27.2896 9.36951 27.3913C9.53675 27.4092 9.6323 27.4954 9.6323 27.4954C9.6323 27.4954 8.52906 27.669 7.96266 28.1651C7.41616 28.6436 6.45704 28.9994 6.38988 29.0236C6.42382 29.0027 6.7052 28.8355 6.88575 28.6542Z" fill="#E6E6E6"/>
<path d="M12.2971 11.5554C12.296 11.5557 12.2957 11.5564 12.2946 11.5568C12.2311 11.5824 11.322 11.9591 10.8141 12.4387C10.2877 12.936 9.23358 13.1426 9.23358 13.1426C9.23358 13.1426 9.69492 12.1964 10.2097 11.9275C10.8289 11.6026 12.2527 11.5563 12.2971 11.5554Z" fill="#929292"/>
<path d="M11.8315 11.9298C11.5119 12.2767 11.2733 12.5957 10.8669 12.9496C10.6299 13.1564 9.86831 13.3169 9.49008 13.2333C9.32869 13.2221 9.23358 13.1426 9.23358 13.1426C9.23358 13.1426 10.2877 12.936 10.8141 12.4387C11.322 11.959 12.2311 11.5824 12.2946 11.5568C12.2627 11.578 11.9983 11.7491 11.8315 11.9298Z" fill="#E6E6E6"/>
<path d="M10.0892 11.0349C10.0887 11.0358 10.0888 11.0367 10.0881 11.0375C10.0511 11.0952 9.52738 11.9283 9.39058 12.6132C9.24894 13.3235 8.50857 14.1017 8.50857 14.1017C8.50857 14.1017 8.33752 13.063 8.60192 12.5459C8.91899 11.9226 10.0535 11.0612 10.0892 11.0349Z" fill="#929292"/>
<path d="M9.92612 11.6097C9.86613 12.0776 9.85604 12.4757 9.72918 12.9996C9.65558 13.3054 9.12708 13.8767 8.77021 14.0274C8.63208 14.1116 8.50859 14.1018 8.50859 14.1018C8.50859 14.1018 9.24896 13.3235 9.3906 12.6133C9.52741 11.9284 10.0511 11.0952 10.0881 11.0376C10.0745 11.0734 9.95773 11.3658 9.92612 11.6097Z" fill="#E6E6E6"/>
<path d="M8.31963 11.8566C8.31933 11.8575 8.31963 11.8581 8.31919 11.859C8.30368 11.9119 8.08727 12.6751 8.13644 13.236C8.18765 13.8176 7.79112 14.5874 7.79112 14.5874C7.79112 14.5874 7.42357 13.8224 7.51107 13.3625C7.61525 12.8086 8.29797 11.8852 8.31963 11.8566Z" fill="#929292"/>
<path d="M8.32344 12.3383C8.38299 12.7139 8.46537 13.0243 8.486 13.4582C8.49815 13.7114 8.21868 14.2732 7.97667 14.4706C7.88888 14.567 7.79114 14.5874 7.79114 14.5874C7.79114 14.5874 8.18766 13.8176 8.13645 13.236C8.08729 12.6751 8.30369 11.9119 8.3192 11.859C8.31672 11.8898 8.29272 12.1424 8.32344 12.3383Z" fill="#E6E6E6"/>
<path d="M11.9159 13.7039C11.915 13.7041 11.9146 13.7046 11.9136 13.7049C11.8558 13.7197 11.0274 13.9415 10.5341 14.2978C10.0225 14.6674 9.08829 14.7256 9.08829 14.7256C9.08829 14.7256 9.5947 13.9608 10.0702 13.7872C10.6422 13.5772 11.8776 13.6995 11.9159 13.7039Z" fill="#929292"/>
<path d="M11.4709 13.9743C11.1553 14.2375 10.9127 14.4858 10.5213 14.7453C10.2931 14.8969 9.61665 14.9487 9.29943 14.8332C9.1613 14.8051 9.08829 14.7257 9.08829 14.7257C9.08829 14.7257 10.0225 14.6674 10.5341 14.2978C11.0274 13.9415 11.8558 13.7197 11.9136 13.7049C11.8836 13.7196 11.6357 13.8372 11.4709 13.9743Z" fill="#E6E6E6"/>
<path d="M9.38718 13.1928C9.38645 13.1937 9.38645 13.1944 9.38572 13.1952C9.34592 13.247 8.78171 13.9966 8.59691 14.6361C8.40538 15.2995 7.6397 15.9795 7.6397 15.9795C7.6397 15.9795 7.56039 14.9789 7.85303 14.509C8.20419 13.9424 9.35119 13.2149 9.38718 13.1928Z" fill="#929292"/>
<path d="M9.18608 13.7257C9.09156 14.1654 9.05001 14.5428 8.88759 15.0303C8.79307 15.3148 8.24525 15.8153 7.89424 15.9297C7.75626 15.9987 7.63979 15.9795 7.63979 15.9795C7.63979 15.9795 8.40547 15.2995 8.597 14.6361C8.78181 13.9966 9.34601 13.247 9.38581 13.1952C9.37001 13.2281 9.23569 13.4966 9.18608 13.7257Z" fill="#E6E6E6"/>
<path d="M9.88315 15.3816C9.88213 15.3819 9.88183 15.3826 9.88081 15.383C9.82111 15.4098 8.9691 15.8022 8.50307 16.2778C8.01993 16.771 7.0235 17.0067 7.0235 17.0067C7.0235 17.0067 7.42792 16.0883 7.90843 15.8131C8.48625 15.4808 9.84086 15.3839 9.88315 15.3816Z" fill="#929292"/>
<path d="M9.45341 15.7555C9.1618 16.0977 8.94627 16.4104 8.57214 16.7626C8.35412 16.9683 7.63452 17.1493 7.27107 17.0837C7.11685 17.0789 7.0235 17.0068 7.0235 17.0068C7.0235 17.0068 8.01993 16.7711 8.50307 16.2778C8.9691 15.8023 9.82111 15.4098 9.88081 15.3831C9.85125 15.4044 9.60558 15.5771 9.45341 15.7555Z" fill="#E6E6E6"/>
<path d="M6.06472 13.2556C6.06457 13.2571 6.0653 13.2577 6.06516 13.2591C6.06311 13.3408 6.04701 14.5138 6.33263 15.296C6.62892 16.1071 6.35809 17.3588 6.35809 17.3588C6.35809 17.3588 5.53943 16.4073 5.48778 15.7168C5.42399 14.8856 6.04467 13.3046 6.06472 13.2556Z" fill="#929292"/>
<path d="M6.25492 13.9421C6.4842 14.4556 6.72095 14.8673 6.91687 15.4794C7.03143 15.8362 6.84795 16.7459 6.57814 17.1208C6.48962 17.2923 6.35793 17.3588 6.35793 17.3588C6.35793 17.3588 6.62877 16.1071 6.33247 15.296C6.04686 14.5138 6.06295 13.3408 6.065 13.2591C6.07319 13.304 6.13582 13.6742 6.25492 13.9421Z" fill="#E6E6E6"/>
<path d="M7.76141 14.7676C7.76068 14.7688 7.76097 14.7697 7.76024 14.7708C7.72088 14.8425 7.16648 15.8764 7.0601 16.7024C6.94993 17.5588 6.13332 18.5453 6.13332 18.5453C6.13332 18.5453 5.84449 17.324 6.11635 16.687C6.44235 15.9197 7.72102 14.8019 7.76141 14.7676Z" fill="#929292"/>
<path d="M7.61462 15.4647C7.5817 16.0261 7.60233 16.5006 7.49464 17.134C7.43216 17.5036 6.85055 18.2269 6.43851 18.4354C6.28108 18.5469 6.13344 18.5453 6.13344 18.5453C6.13344 18.5453 6.95004 17.5588 7.06022 16.7024C7.1666 15.8764 7.72099 14.8425 7.76035 14.7708C7.74689 14.8146 7.63203 15.172 7.61462 15.4647Z" fill="#E6E6E6"/>
<path d="M8.65144 17.3588C8.65056 17.3594 8.65041 17.3603 8.64953 17.361C8.59481 17.4066 7.81742 18.0702 7.46933 18.7067C7.10865 19.3669 6.13344 19.9088 6.13344 19.9088C6.13344 19.9088 6.2859 18.8261 6.70847 18.3953C7.21605 17.8759 8.60798 17.3737 8.65144 17.3588Z" fill="#929292"/>
<path d="M8.31139 17.8779C8.10684 18.323 7.9734 18.7147 7.68529 19.1946C7.51747 19.4748 6.81631 19.8775 6.41583 19.9161C6.25269 19.9568 6.13344 19.9088 6.13344 19.9088C6.13344 19.9088 7.10865 19.3669 7.46933 18.7067C7.81742 18.0702 8.59481 17.4066 8.64953 17.361C8.6248 17.3921 8.41835 17.6459 8.31139 17.8779Z" fill="#E6E6E6"/>
<path d="M5.19928 17.0068C5.19943 17.0078 5.20001 17.0083 5.20031 17.0091C5.2145 17.0681 5.4271 17.9119 5.78134 18.4179C6.14874 18.9424 6.19381 19.8913 6.19381 19.8913C6.19381 19.8913 5.42535 19.3659 5.25635 18.881C5.05165 18.2973 5.19431 17.0457 5.19928 17.0068Z" fill="#929292"/>
<path d="M5.46713 17.4624C5.72948 17.7865 5.97778 18.0364 6.23516 18.4375C6.38557 18.6715 6.42801 19.3584 6.30627 19.6786C6.27554 19.8183 6.1939 19.8913 6.1939 19.8913C6.1939 19.8913 6.14883 18.9424 5.78142 18.4179C5.42719 17.9119 5.21459 17.0681 5.20039 17.0091C5.21488 17.0399 5.33047 17.2931 5.46713 17.4624Z" fill="#E6E6E6"/>
<path d="M7.74681 19.5843C7.74594 19.5849 7.74594 19.5856 7.74506 19.5862C7.69955 19.6263 7.05224 20.2078 6.7697 20.7571C6.47691 21.3267 5.65855 21.8088 5.65855 21.8088C5.65855 21.8088 5.76507 20.8841 6.11536 20.5085C6.53617 20.0553 7.70994 19.5981 7.74681 19.5843Z" fill="#929292"/>
<path d="M7.46852 20.0335C7.30405 20.4167 7.1987 20.753 6.96386 21.1676C6.82705 21.4098 6.239 21.7675 5.89895 21.8091C5.76112 21.8471 5.65855 21.8088 5.65855 21.8088C5.65855 21.8088 6.47691 21.3267 6.7697 20.757C7.05224 20.2078 7.69955 19.6263 7.74506 19.5862C7.72472 19.6134 7.55455 19.8338 7.46852 20.0335Z" fill="#E6E6E6"/>
<path d="M5.75034 19.3312C5.7499 19.3325 5.75049 19.3334 5.75005 19.3347C5.73132 19.4161 5.47394 20.5859 5.59875 21.4269C5.72854 22.299 5.20018 23.495 5.20018 23.495C5.20018 23.495 4.57716 22.3752 4.66744 21.674C4.77454 20.8296 5.7202 19.3761 5.75034 19.3312Z" fill="#929292"/>
<path d="M5.79969 20.0569C5.92333 20.6176 6.07551 21.0779 6.14559 21.7302C6.187 22.1108 5.81638 22.983 5.46945 23.3023C5.34582 23.4555 5.20023 23.495 5.20023 23.495C5.20023 23.495 5.72858 22.299 5.5988 21.4269C5.47399 20.5859 5.73136 19.4161 5.75009 19.3347C5.74907 19.3814 5.73561 19.7644 5.79969 20.0569Z" fill="#E6E6E6"/>
<path d="M15.7576 23.0944H11.7239V22.2456C13.1055 21.2456 14.1633 20.3459 14.1633 19.5886C14.1633 18.6665 12.9525 18.6523 11.9688 19.3195H11.8585V18.1772C12.903 17.7214 15.5194 17.4683 15.5194 19.4092C15.5194 20.5016 14.4989 21.3573 13.4491 22.1108H15.7576V23.0944Z" fill="#E6E3E3"/>
</svg>
