<svg width="21" height="31" viewBox="0 0 21 31" fill="none" xmlns="http://www.w3.org/2000/svg">
<path d="M14.7043 11.6261C17.9439 13.2799 20.1624 16.6492 20.1624 20.5369C20.1624 26.0597 15.6849 30.5371 10.162 30.5371C4.63917 30.5371 0.162354 26.0597 0.162354 20.5369C0.162354 16.7405 2.27769 13.4383 5.39459 11.7443C6.81136 10.9748 8.43543 10.5372 10.162 10.5372C11.7974 10.5372 13.3415 10.9298 14.7043 11.6261Z" fill="#FFCE68"/>
<path d="M10.162 30.1277C7.60027 30.1277 5.19197 29.1301 3.38061 27.3186C1.56924 25.5072 0.571701 23.0986 0.571701 20.5369C0.571701 17.0175 2.49464 13.7862 5.59005 12.104C6.98426 11.3468 8.56522 10.9465 10.162 10.9465C11.6965 10.9465 13.1621 11.2978 14.518 11.9906C16.0685 12.7822 17.3767 13.9821 18.301 15.4608C19.2509 16.9803 19.753 18.7356 19.753 20.5369C19.753 23.0986 18.7554 25.5072 16.9438 27.3186C15.1322 29.1301 12.7238 30.1277 10.162 30.1277Z" fill="#FDBC62"/>
<path d="M10.1621 28.9582C7.91276 28.9582 5.79805 28.0822 4.20765 26.4916C2.61719 24.9011 1.74127 22.7862 1.74127 20.5369C1.74127 17.4466 3.42965 14.6095 6.14762 13.1325C7.37183 12.4674 8.76002 12.116 10.1621 12.116C11.5094 12.116 12.7963 12.4244 13.9869 13.0328C15.3484 13.7278 16.4969 14.7815 17.3086 16.0799C18.1426 17.414 18.5834 18.9552 18.5834 20.5369C18.5834 22.7862 17.7074 24.901 16.1168 26.4916C14.5262 28.0822 12.4115 28.9582 10.1621 28.9582Z" stroke="#C49047" stroke-width="2.61099" stroke-miterlimit="10"/>
<path d="M10.1622 26.2472C8.63694 26.2472 7.20303 25.6533 6.12456 24.5749C5.04616 23.4962 4.45219 22.0623 4.45219 20.5369C4.45219 18.4416 5.59707 16.5177 7.44005 15.5162C8.27017 15.0652 9.21146 14.827 10.1622 14.827C11.0758 14.827 11.9484 15.0361 12.7556 15.4486C13.6789 15.92 14.4577 16.6343 15.008 17.5147C15.5736 18.4194 15.8726 19.4645 15.8726 20.5369C15.8726 22.0623 15.2786 23.4962 14.2001 24.5749C13.1214 25.6533 11.6875 26.2472 10.1622 26.2472V26.2472Z" stroke="#FDBC62" stroke-width="1.865" stroke-miterlimit="10"/>
<path d="M10.1622 27.4902C8.30488 27.4902 6.55884 26.767 5.24564 25.4536C3.93244 24.1402 3.20926 22.3942 3.20926 20.5369C3.20926 17.9854 4.60333 15.6428 6.84748 14.4231C7.85828 13.8741 9.00447 13.584 10.1622 13.584C11.2746 13.584 12.3371 13.8387 13.3201 14.3409C14.4442 14.9149 15.3927 15.7849 16.0628 16.8568C16.7514 17.9585 17.1154 19.231 17.1154 20.5369C17.1154 22.3941 16.3922 24.1402 15.0788 25.4536C13.7655 26.767 12.0195 27.4902 10.1622 27.4902V27.4902Z" stroke="#C49047" stroke-width="2.61099" stroke-miterlimit="10"/>
<path d="M13.2153 10.1034V9.7338C13.2153 9.62684 13.1286 9.54008 13.0216 9.54008H6.94386C6.8368 9.54008 6.75005 9.62684 6.75005 9.7338V10.1034C6.75005 10.2109 6.8368 10.2977 6.94386 10.2977H13.0216C13.1286 10.2977 13.2153 10.2109 13.2153 10.1034ZM14.2176 9.82686C14.4722 10.3946 14.6136 11.0059 14.6361 11.6261C13.2734 10.9298 11.7293 10.5372 10.094 10.5372C8.36737 10.5372 6.7433 10.9749 5.32654 11.7444C5.33385 11.0836 5.47748 10.4307 5.74789 9.82686L5.87409 9.54564C6.01492 9.23076 6.30783 9.01055 6.64973 8.96271L7.02211 8.91032C8.9859 8.63539 10.9795 8.63539 12.9439 8.91032L13.3157 8.96271C13.6577 9.01055 13.9506 9.23076 14.0913 9.54564L14.2176 9.82686Z" fill="#FDBC62"/>
<path d="M16.3306 0L12.8633 9.68259H10.9367L14.3939 0.00790215V0H16.3306Z" fill="#FF545F"/>
<path d="M14.3939 0V0.00790215L10.9367 9.68259H9.03436L12.4915 0.00790215V0H14.3939Z" fill="#62DADC"/>
<path d="M12.4914 0V0.00790215L9.03432 9.68259H7.09081L10.5581 0H12.4914Z" fill="#AC748C"/>
<path d="M19.497 20.5372C19.497 23.6908 16.9406 26.2472 13.787 26.2472C10.6333 26.2472 8.07671 23.6908 8.07671 20.5372C8.07671 17.3835 10.6333 14.827 13.787 14.827C16.9406 14.827 19.497 17.3835 19.497 20.5372Z" fill="#FFDEAE"/>
<path d="M3.62292 0L7.09026 9.68259H9.01686L5.55969 0.00790215V0H3.62292Z" fill="#AC748C"/>
<path d="M5.55969 0V0.00790215L9.01686 9.68259H10.9192L7.46206 0.00790215V0H5.55969Z" fill="#62DADC"/>
<path d="M7.46207 0V0.00790215L10.9192 9.68259H12.8627L9.39541 0H7.46207Z" fill="#FF545F"/>
<path d="M19.1253 20.5372C19.1253 23.4853 16.7352 25.8754 13.787 25.8754C10.8387 25.8754 8.44865 23.4853 8.44865 20.5372C8.44865 17.5889 10.8387 15.1988 13.787 15.1988C16.7352 15.1988 19.1253 17.5889 19.1253 20.5372Z" fill="#FFCE68"/>
<path d="M17.8518 20.5372C17.8518 22.7821 16.0319 24.602 13.787 24.602C11.5419 24.602 9.72192 22.7821 9.72192 20.5372C9.72192 18.2921 11.5419 16.4722 13.787 16.4722C16.0319 16.4722 17.8518 18.2921 17.8518 20.5372Z" fill="#C49047"/>
<path d="M15.514 23.1313H12.0598V22.2277H13.1509V19.4929H12.0598V18.6485C12.2266 18.6485 12.3864 18.6386 12.5393 18.619C12.6922 18.5992 12.8197 18.5651 12.9217 18.5164C13.0421 18.4586 13.1324 18.3832 13.1926 18.2905C13.2529 18.1979 13.2876 18.082 13.297 17.943H14.4472V22.2277H15.514V23.1313Z" fill="#FFCE68"/>
<path d="M8.98983 18.759C8.98977 18.7594 8.99 18.7597 8.98994 18.7602C8.98959 18.7849 8.98817 19.1399 9.07693 19.3756C9.16906 19.6201 9.09075 19.9996 9.09075 19.9996C9.09075 19.9996 8.8403 19.7142 8.82258 19.5054C8.80081 19.2541 8.98388 18.7739 8.98983 18.759Z" fill="#C49047"/>
<path d="M9.04939 18.9662C9.12032 19.1208 9.19313 19.2448 9.25423 19.4293C9.29002 19.537 9.2372 19.8128 9.15667 19.9269C9.13043 19.9791 9.09071 19.9996 9.09071 19.9996C9.09071 19.9996 9.16902 19.6201 9.07688 19.3756C8.98812 19.1399 8.98955 18.7849 8.9899 18.7602C8.99252 18.7736 9.01259 18.8854 9.04939 18.9662Z" fill="#FFDEAE"/>
<path d="M9.82524 19.1024C9.82494 19.1027 9.82494 19.103 9.82461 19.1033C9.80803 19.1216 9.5726 19.3873 9.48361 19.623C9.3913 19.8673 9.08199 20.1007 9.08199 20.1007C9.08199 20.1007 9.08226 19.721 9.20687 19.5525C9.35639 19.3494 9.81094 19.1096 9.82524 19.1024Z" fill="#C49047"/>
<path d="M9.73326 19.2973C9.68435 19.4603 9.65731 19.6013 9.58135 19.7804C9.53711 19.8849 9.31541 20.0571 9.17949 20.0897C9.12537 20.1115 9.08199 20.1007 9.08199 20.1007C9.08199 20.1007 9.3913 19.8673 9.48361 19.623C9.5726 19.3873 9.80803 19.1216 9.82461 19.1033C9.81763 19.1151 9.75887 19.2123 9.73326 19.2973Z" fill="#FFDEAE"/>
<path d="M8.76874 19.6285C8.76878 19.6288 8.76896 19.6291 8.76902 19.6294C8.77228 19.654 8.82286 20.0053 8.94517 20.2257C9.07205 20.4541 9.05022 20.8409 9.05022 20.8409C9.05022 20.8409 8.76062 20.5953 8.71261 20.3913C8.65424 20.1459 8.76508 19.644 8.76874 19.6285Z" fill="#C49047"/>
<path d="M8.85808 19.8246C8.95084 19.9673 9.04103 20.0792 9.12847 20.2527C9.17964 20.3541 9.16774 20.6346 9.10481 20.7593C9.08646 20.8147 9.05024 20.8409 9.05024 20.8409C9.05024 20.8409 9.07207 20.4541 8.94518 20.2257C8.82287 20.0053 8.77229 19.654 8.76903 19.6294C8.77361 19.6426 8.80978 19.7503 8.85808 19.8246Z" fill="#FFDEAE"/>
<path d="M9.6455 19.8458C9.64522 19.8461 9.64528 19.8464 9.64499 19.8467C9.63134 19.8673 9.43735 20.1645 9.38374 20.4107C9.3283 20.6661 9.05647 20.9422 9.05647 20.9422C9.05647 20.9422 9.00113 20.5666 9.09968 20.3816C9.21793 20.1588 9.63242 19.855 9.6455 19.8458Z" fill="#C49047"/>
<path d="M9.58307 20.0521C9.55861 20.2204 9.55249 20.3641 9.50356 20.5523C9.4751 20.662 9.28094 20.8649 9.15126 20.917C9.10097 20.9466 9.0565 20.9422 9.0565 20.9422C9.0565 20.9422 9.32833 20.6661 9.38377 20.4108C9.43738 20.1645 9.63137 19.8673 9.64502 19.8467C9.63989 19.8596 9.59599 19.9644 9.58307 20.0521Z" fill="#FFDEAE"/>
<path d="M8.67767 20.5724C8.67779 20.5727 8.67801 20.5729 8.67813 20.5733C8.68705 20.5964 8.81758 20.9264 8.98763 21.1125C9.16395 21.3052 9.23231 21.6866 9.23231 21.6866C9.23231 21.6866 8.89373 21.5147 8.7997 21.3274C8.68613 21.1023 8.67767 20.5884 8.67767 20.5724Z" fill="#C49047"/>
<path d="M8.80996 20.7425C8.93325 20.8598 9.04692 20.9477 9.17222 21.0964C9.24543 21.183 9.29887 21.4587 9.26646 21.5946C9.26148 21.6528 9.23228 21.6866 9.23228 21.6866C9.23228 21.6866 9.16392 21.3052 8.98761 21.1125C8.81756 20.9264 8.68703 20.5964 8.6781 20.5733C8.68565 20.5849 8.74571 20.6813 8.80996 20.7425Z" fill="#FFDEAE"/>
<path d="M9.5809 20.5806C9.58074 20.5811 9.58086 20.5813 9.58068 20.5816C9.57211 20.6049 9.45225 20.9389 9.4571 21.1909C9.46231 21.4521 9.26187 21.7838 9.26187 21.7838C9.26187 21.7838 9.12104 21.431 9.17408 21.2284C9.23747 20.9842 9.57034 20.5928 9.5809 20.5806Z" fill="#C49047"/>
<path d="M9.56795 20.7958C9.58316 20.9653 9.61042 21.1063 9.60642 21.3008C9.60412 21.4142 9.46233 21.6565 9.34824 21.7373C9.30612 21.7776 9.26189 21.7838 9.26189 21.7838C9.26189 21.7838 9.46233 21.4521 9.45712 21.1909C9.45226 20.9389 9.57212 20.6049 9.5807 20.5816C9.57864 20.5954 9.56017 20.7075 9.56795 20.7958Z" fill="#FFDEAE"/>
<path d="M8.7841 21.4575C8.78428 21.4579 8.78457 21.4579 8.78473 21.4584C8.79606 21.4803 8.96209 21.794 9.15151 21.9602C9.34794 22.1325 9.4578 22.5041 9.4578 22.5041C9.4578 22.5041 9.10234 22.3704 8.98838 22.1946C8.85075 21.9832 8.78587 21.4734 8.7841 21.4575Z" fill="#C49047"/>
<path d="M8.93444 21.6122C9.06985 21.7152 9.19245 21.7901 9.33334 21.924C9.41564 22.0021 9.49903 22.2703 9.48176 22.409C9.4832 22.4672 9.45787 22.5041 9.45787 22.5041C9.45787 22.5041 9.34801 22.1325 9.15158 21.9602C8.96216 21.794 8.79613 21.4803 8.78481 21.4584C8.7935 21.4691 8.86386 21.5583 8.93444 21.6122Z" fill="#FFDEAE"/>
<path d="M9.68286 21.3665C9.68269 21.367 9.68286 21.3672 9.68275 21.3677C9.67675 21.3917 9.59433 21.7368 9.62685 21.9868C9.6607 22.2457 9.49786 22.5975 9.49786 22.5975C9.49786 22.5975 9.31913 22.2624 9.34959 22.0551C9.38576 21.8055 9.67366 21.3797 9.68286 21.3665Z" fill="#C49047"/>
<path d="M9.69362 21.5819C9.72728 21.7487 9.76991 21.8858 9.7873 22.0795C9.79746 22.1925 9.68316 22.449 9.57862 22.5417C9.54119 22.5865 9.49786 22.5975 9.49786 22.5975C9.49786 22.5975 9.6607 22.2457 9.62686 21.9868C9.59433 21.7368 9.67675 21.3917 9.68275 21.3677C9.68218 21.3814 9.67618 21.4948 9.69362 21.5819Z" fill="#FFDEAE"/>
<path d="M9.01938 22.3256C9.0196 22.3261 9.01995 22.3261 9.02017 22.3263C9.03537 22.346 9.25668 22.6234 9.47364 22.7515C9.6986 22.8844 9.87544 23.2291 9.87544 23.2291C9.87544 23.2291 9.50136 23.1637 9.35676 23.0121C9.18232 22.83 9.02412 22.341 9.01938 22.3256Z" fill="#C49047"/>
<path d="M9.19569 22.4497C9.34785 22.5259 9.48221 22.5767 9.64551 22.6823C9.74085 22.7438 9.87247 22.9918 9.88128 23.1313C9.89351 23.1883 9.87544 23.2291 9.87544 23.2291C9.87544 23.2291 9.6986 22.8844 9.47364 22.7515C9.25668 22.6234 9.03537 22.346 9.02017 22.3263C9.03069 22.3353 9.11636 22.4099 9.19569 22.4497Z" fill="#FFDEAE"/>
<path d="M9.88556 22.0697C9.88551 22.0702 9.88573 22.0703 9.88567 22.0707C9.88425 22.0955 9.86722 22.45 9.94551 22.6895C10.0268 22.9378 9.93198 23.3134 9.93198 23.3134C9.93198 23.3134 9.69425 23.0172 9.68574 22.808C9.67506 22.5559 9.87898 22.0843 9.88556 22.0697Z" fill="#C49047"/>
<path d="M9.93617 22.2792C10.0002 22.4368 10.0675 22.5638 10.1205 22.7508C10.1515 22.8599 10.0866 23.1332 10.0011 23.2438C9.97257 23.2947 9.93206 23.3134 9.93206 23.3134C9.93206 23.3134 10.0269 22.9378 9.94559 22.6895C9.8673 22.45 9.88433 22.0955 9.88575 22.0707C9.88775 22.0843 9.9029 22.197 9.93617 22.2792Z" fill="#FFDEAE"/>
<path d="M9.38596 23.1217C9.38625 23.122 9.38653 23.122 9.38682 23.1224C9.40523 23.1389 9.67173 23.3734 9.90773 23.4615C10.1525 23.5529 10.387 23.8614 10.387 23.8614C10.387 23.8614 10.0072 23.8626 9.83828 23.7385C9.63464 23.5896 9.39327 23.1361 9.38596 23.1217Z" fill="#C49047"/>
<path d="M9.58128 23.2131C9.7444 23.2614 9.88564 23.2879 10.0649 23.3631C10.1695 23.407 10.3425 23.6281 10.3756 23.7639C10.3976 23.818 10.387 23.8614 10.387 23.8614C10.387 23.8614 10.1526 23.5529 9.90775 23.4615C9.67175 23.3734 9.40525 23.1389 9.38684 23.1224C9.39878 23.1293 9.49617 23.1877 9.58128 23.2131Z" fill="#FFDEAE"/>
<path d="M10.194 22.718C10.194 22.7185 10.1942 22.7186 10.1942 22.719C10.1972 22.7436 10.2425 23.0957 10.3616 23.3176C10.4851 23.548 10.4575 23.9344 10.4575 23.9344C10.4575 23.9344 10.1716 23.6844 10.1266 23.4799C10.0719 23.2337 10.1901 22.7335 10.194 22.718Z" fill="#C49047"/>
<path d="M10.2804 22.9154C10.3711 23.0594 10.4596 23.1726 10.5445 23.3474C10.5941 23.4496 10.5781 23.7299 10.5133 23.8537C10.4941 23.9089 10.4576 23.9344 10.4576 23.9344C10.4576 23.9344 10.4851 23.548 10.3616 23.3176C10.2425 23.0957 10.1972 22.7436 10.1942 22.719C10.1986 22.7321 10.2332 22.8403 10.2804 22.9154Z" fill="#FFDEAE"/>
<path d="M9.98595 23.9165C9.98628 23.9167 9.98658 23.9167 9.98691 23.9168C10.0088 23.9284 10.3244 24.0908 10.5748 24.1189C10.8345 24.1479 11.1371 24.3899 11.1371 24.3899C11.1371 24.3899 10.769 24.4834 10.575 24.4043C10.3412 24.3097 9.99653 23.9285 9.98595 23.9165Z" fill="#C49047"/>
<path d="M10.1976 23.9573C10.3676 23.9645 10.511 23.9559 10.7032 23.9852C10.8154 24.0023 11.0371 24.1745 11.1023 24.2982C11.1368 24.3451 11.1371 24.3899 11.1371 24.3899C11.1371 24.3899 10.8345 24.1479 10.5748 24.1189C10.3244 24.0908 10.0088 23.9284 9.98692 23.9168C10.0003 23.9207 10.1089 23.9536 10.1976 23.9573Z" fill="#FFDEAE"/>
<path d="M10.6711 23.3281C10.6713 23.3284 10.6716 23.3285 10.6717 23.3289C10.6805 23.3521 10.8103 23.6824 10.9799 23.8687C11.1558 24.062 11.2233 24.4436 11.2233 24.4436C11.2233 24.4436 10.8851 24.2708 10.7915 24.0834C10.6784 23.8579 10.6712 23.344 10.6711 23.3281Z" fill="#C49047"/>
<path d="M10.8031 23.4985C10.9261 23.616 11.0396 23.7043 11.1645 23.8532C11.2375 23.94 11.2903 24.2157 11.2576 24.3517C11.2525 24.4098 11.2232 24.4436 11.2232 24.4436C11.2232 24.4436 11.1557 24.062 10.9799 23.8687C10.8103 23.6824 10.6805 23.3521 10.6717 23.3289C10.6791 23.3406 10.739 23.4371 10.8031 23.4985Z" fill="#FFDEAE"/>
<path d="M10.6402 24.4857C10.6405 24.486 10.6408 24.4859 10.6411 24.4862C10.6634 24.4968 10.9848 24.6477 11.236 24.6666C11.4966 24.686 11.8078 24.9169 11.8078 24.9169C11.8078 24.9169 11.4433 25.0239 11.2465 24.9519C11.0095 24.8657 10.6512 24.4974 10.6402 24.4857Z" fill="#C49047"/>
<path d="M10.8532 24.519C11.0233 24.5198 11.1663 24.506 11.3594 24.5283C11.4721 24.5413 11.7 24.7053 11.7696 24.8265C11.8059 24.8723 11.8078 24.9169 11.8078 24.9169C11.8078 24.9169 11.4966 24.686 11.236 24.6666C10.9848 24.6477 10.6635 24.4968 10.6412 24.4862C10.6546 24.4894 10.7644 24.5183 10.8532 24.519Z" fill="#FFDEAE"/>
<path d="M11.3035 23.8728C11.3036 23.8731 11.3039 23.8732 11.3041 23.8737C11.3137 23.8963 11.4554 24.2219 11.6316 24.4019C11.8145 24.5886 11.8958 24.9674 11.8958 24.9674C11.8958 24.9674 11.5516 24.8072 11.4512 24.6233C11.33 24.402 11.3041 23.8888 11.3035 23.8728Z" fill="#C49047"/>
<path d="M11.4416 24.0383C11.5689 24.1512 11.6853 24.2353 11.8157 24.3796C11.8918 24.4638 11.9545 24.7374 11.9269 24.8743C11.9238 24.9327 11.8959 24.9674 11.8959 24.9674C11.8959 24.9674 11.8145 24.5886 11.6316 24.4019C11.4555 24.2219 11.3137 23.8963 11.3041 23.8737C11.3119 23.8849 11.3753 23.9793 11.4416 24.0383Z" fill="#FFDEAE"/>
<path d="M11.4808 25.0254C11.4813 25.0254 11.4814 25.0253 11.4819 25.0254C11.5063 25.0297 11.8563 25.0884 12.1034 25.0388C12.3595 24.9873 12.7215 25.1257 12.7215 25.1257C12.7215 25.1257 12.3994 25.3269 12.1905 25.3108C11.939 25.2918 11.4946 25.0337 11.4808 25.0254Z" fill="#C49047"/>
<path d="M11.6949 24.9998C11.8589 24.955 11.993 24.903 12.1849 24.8724C12.297 24.8544 12.5607 24.9511 12.6603 25.049C12.7076 25.0833 12.7215 25.1257 12.7215 25.1257C12.7215 25.1257 12.3595 24.9873 12.1034 25.0388C11.8563 25.0884 11.5063 25.0297 11.4819 25.0254C11.4958 25.025 11.6093 25.0233 11.6949 24.9998Z" fill="#FFDEAE"/>
<path d="M12.4676 25.3698C12.468 25.3698 12.4682 25.3697 12.4686 25.3697C12.4934 25.3698 12.8483 25.3689 13.0836 25.2788C13.3275 25.1851 13.7075 25.2609 13.7075 25.2609C13.7075 25.2609 13.4236 25.5133 13.215 25.5322C12.9638 25.5556 12.4825 25.3755 12.4676 25.3698Z" fill="#C49047"/>
<path d="M12.6744 25.3088C12.8286 25.2369 12.9519 25.1633 13.1362 25.101C13.2436 25.0646 13.5197 25.1156 13.6344 25.1955C13.6868 25.2214 13.7075 25.2609 13.7075 25.2609C13.7075 25.2609 13.3275 25.1851 13.0836 25.2788C12.8484 25.3689 12.4934 25.3698 12.4687 25.3697C12.4823 25.3668 12.5939 25.3462 12.6744 25.3088Z" fill="#FFDEAE"/>
<path d="M11.9544 24.2561C11.9547 24.2566 11.955 24.2566 11.9551 24.2569C11.9706 24.2762 12.1948 24.5514 12.4131 24.6773C12.6394 24.8078 12.82 25.1506 12.82 25.1506C12.82 25.1506 12.4453 25.0891 12.299 24.939C12.1226 24.7588 11.9592 24.2715 11.9544 24.2561Z" fill="#C49047"/>
<path d="M12.132 24.3784C12.2849 24.4529 12.4198 24.5024 12.5842 24.6061C12.6802 24.6667 12.8144 24.9133 12.8246 25.0527C12.8375 25.1096 12.82 25.1506 12.82 25.1506C12.82 25.1506 12.6394 24.8078 12.4131 24.6773C12.1947 24.5514 11.9706 24.2762 11.9551 24.2569C11.9658 24.2658 12.0522 24.3394 12.132 24.3784Z" fill="#FFDEAE"/>
<path d="M12.7916 24.6187C12.7919 24.619 12.7922 24.619 12.7925 24.6193C12.8087 24.6335 13.044 24.8365 13.2513 24.9118C13.4664 24.9898 13.6743 25.2578 13.6743 25.2578C13.6743 25.2578 13.3419 25.2619 13.1929 25.1549C13.0134 25.0263 12.7982 24.6311 12.7916 24.6187Z" fill="#C49047"/>
<path d="M12.9634 24.697C13.1066 24.738 13.2305 24.7599 13.388 24.8244C13.48 24.8619 13.6334 25.054 13.6635 25.1727C13.6832 25.2198 13.6743 25.2578 13.6743 25.2578C13.6743 25.2578 13.4664 24.9898 13.2513 24.9118C13.044 24.8366 12.8087 24.6335 12.7925 24.6193C12.803 24.6253 12.8887 24.6757 12.9634 24.697Z" fill="#FFDEAE"/>
<path d="M13.159 25.5936C13.1591 25.5935 13.1592 25.5934 13.1594 25.5934C13.1709 25.5876 13.3348 25.506 13.4231 25.4105C13.5144 25.3112 13.7075 25.2593 13.7075 25.2593C13.7075 25.2593 13.634 25.4409 13.5419 25.4975C13.4311 25.5659 13.1671 25.5929 13.159 25.5936Z" fill="#C49047"/>
<path d="M13.2407 25.5179C13.2956 25.4495 13.3358 25.3872 13.4068 25.3162C13.448 25.2746 13.5875 25.235 13.6587 25.2457C13.6889 25.2457 13.7076 25.2593 13.7076 25.2593C13.7076 25.2593 13.5145 25.3112 13.4231 25.4104C13.3349 25.5059 13.171 25.5876 13.1595 25.5933C13.1652 25.5889 13.212 25.5537 13.2407 25.5179Z" fill="#FFDEAE"/>
<path d="M18.5841 18.759C18.5842 18.7594 18.5839 18.7597 18.5839 18.7602C18.5843 18.7849 18.5857 19.1399 18.497 19.3756C18.405 19.6201 18.4831 19.9996 18.4831 19.9996C18.4831 19.9996 18.7336 19.7142 18.7513 19.5054C18.7731 19.2541 18.5901 18.7739 18.5841 18.759Z" fill="#C49047"/>
<path d="M18.5245 18.9662C18.4535 19.1208 18.3807 19.2448 18.3197 19.4293C18.2838 19.537 18.3366 19.8128 18.4173 19.9269C18.4434 19.9791 18.4831 19.9996 18.4831 19.9996C18.4831 19.9996 18.405 19.6201 18.497 19.3756C18.5857 19.1399 18.5843 18.7849 18.5839 18.7602C18.5813 18.7736 18.5614 18.8854 18.5245 18.9662Z" fill="#FFDEAE"/>
<path d="M17.7485 19.1024C17.7488 19.1027 17.7488 19.103 17.7491 19.1033C17.7658 19.1216 18.0012 19.3873 18.0902 19.623C18.1825 19.8673 18.4918 20.1007 18.4918 20.1007C18.4918 20.1007 18.4915 19.721 18.3669 19.5525C18.2173 19.3494 17.7629 19.1096 17.7485 19.1024Z" fill="#C49047"/>
<path d="M17.8406 19.2973C17.8895 19.4603 17.9165 19.6013 17.9925 19.7804C18.0367 19.8849 18.2585 20.0571 18.3943 20.0897C18.4484 20.1115 18.4919 20.1007 18.4919 20.1007C18.4919 20.1007 18.1825 19.8673 18.0902 19.623C18.0013 19.3873 17.7658 19.1216 17.7491 19.1033C17.7562 19.1151 17.815 19.2123 17.8406 19.2973Z" fill="#FFDEAE"/>
<path d="M18.8051 19.6285C18.8051 19.6288 18.8048 19.6291 18.8048 19.6294C18.8016 19.654 18.751 20.0053 18.6287 20.2257C18.5018 20.4541 18.5236 20.8409 18.5236 20.8409C18.5236 20.8409 18.8132 20.5953 18.8613 20.3913C18.9195 20.1459 18.8088 19.644 18.8051 19.6285Z" fill="#C49047"/>
<path d="M18.7157 19.8246C18.6229 19.9673 18.5328 20.0792 18.4453 20.2527C18.3942 20.3541 18.4061 20.6346 18.469 20.7593C18.4873 20.8147 18.5236 20.8409 18.5236 20.8409C18.5236 20.8409 18.5018 20.4541 18.6286 20.2257C18.7509 20.0053 18.8016 19.654 18.8048 19.6294C18.8002 19.6426 18.764 19.7503 18.7157 19.8246Z" fill="#FFDEAE"/>
<path d="M17.9283 19.8458C17.9285 19.8461 17.9285 19.8464 17.9288 19.8467C17.9425 19.8673 18.1364 20.1645 18.1901 20.4107C18.2456 20.6661 18.5174 20.9422 18.5174 20.9422C18.5174 20.9422 18.5727 20.5666 18.4741 20.3816C18.3559 20.1588 17.9414 19.855 17.9283 19.8458Z" fill="#C49047"/>
<path d="M17.9907 20.0521C18.0153 20.2204 18.0214 20.3641 18.0703 20.5523C18.0988 20.662 18.2928 20.8649 18.4226 20.917C18.4729 20.9466 18.5174 20.9422 18.5174 20.9422C18.5174 20.9422 18.2456 20.6661 18.1901 20.4108C18.1364 20.1645 17.9425 19.8673 17.9288 19.8467C17.9339 19.8596 17.9778 19.9644 17.9907 20.0521Z" fill="#FFDEAE"/>
<path d="M18.8963 20.5724C18.8961 20.5727 18.8958 20.5729 18.8957 20.5733C18.8869 20.5964 18.7562 20.9264 18.5862 21.1125C18.4099 21.3052 18.3416 21.6866 18.3416 21.6866C18.3416 21.6866 18.6801 21.5147 18.7741 21.3274C18.8878 21.1023 18.8961 20.5884 18.8963 20.5724Z" fill="#C49047"/>
<path d="M18.7639 20.7425C18.6407 20.8598 18.527 20.9477 18.4018 21.0964C18.3285 21.183 18.2751 21.4587 18.3074 21.5946C18.3124 21.6528 18.3416 21.6866 18.3416 21.6866C18.3416 21.6866 18.41 21.3052 18.5863 21.1125C18.7563 20.9264 18.887 20.5964 18.8957 20.5733C18.8883 20.5849 18.8281 20.6813 18.7639 20.7425Z" fill="#FFDEAE"/>
<path d="M17.9931 20.5806C17.9932 20.5811 17.9931 20.5813 17.9932 20.5816C18.0019 20.6049 18.1217 20.9389 18.1167 21.1909C18.1116 21.4521 18.312 21.7838 18.312 21.7838C18.312 21.7838 18.453 21.431 18.3998 21.2284C18.3365 20.9842 18.0036 20.5928 17.9931 20.5806Z" fill="#C49047"/>
<path d="M18.0059 20.7958C17.9907 20.9653 17.9635 21.1063 17.9674 21.3008C17.9698 21.4142 18.1116 21.6565 18.2257 21.7373C18.2678 21.7776 18.312 21.7838 18.312 21.7838C18.312 21.7838 18.1116 21.4521 18.1167 21.1909C18.1217 20.9389 18.0018 20.6049 17.9932 20.5816C17.9952 20.5954 18.0137 20.7075 18.0059 20.7958Z" fill="#FFDEAE"/>
<path d="M18.7897 21.4575C18.7896 21.4579 18.7893 21.4579 18.7891 21.4584C18.7777 21.4803 18.6116 21.794 18.4223 21.9602C18.2258 22.1325 18.1159 22.5041 18.1159 22.5041C18.1159 22.5041 18.4715 22.3704 18.5854 22.1946C18.723 21.9832 18.7878 21.4734 18.7897 21.4575Z" fill="#C49047"/>
<path d="M18.6395 21.6122C18.5041 21.7152 18.3815 21.7901 18.2406 21.924C18.1582 22.0021 18.0748 22.2703 18.0921 22.409C18.0906 22.4672 18.1159 22.5041 18.1159 22.5041C18.1159 22.5041 18.2258 22.1325 18.4223 21.9602C18.6117 21.794 18.7777 21.4803 18.7891 21.4584C18.7804 21.4691 18.71 21.5583 18.6395 21.6122Z" fill="#FFDEAE"/>
<path d="M17.891 21.3665C17.8912 21.367 17.891 21.3672 17.8912 21.3677C17.897 21.3917 17.9796 21.7368 17.9469 21.9868C17.9131 22.2457 18.076 22.5975 18.076 22.5975C18.076 22.5975 18.2546 22.2624 18.2242 22.0551C18.1881 21.8055 17.9001 21.3797 17.891 21.3665Z" fill="#C49047"/>
<path d="M17.8802 21.5819C17.8466 21.7487 17.804 21.8858 17.7866 22.0795C17.7763 22.1925 17.8907 22.449 17.9952 22.5417C18.0327 22.5865 18.076 22.5975 18.076 22.5975C18.076 22.5975 17.9131 22.2457 17.9469 21.9868C17.9796 21.7368 17.897 21.3917 17.8912 21.3677C17.8916 21.3814 17.8978 21.4948 17.8802 21.5819Z" fill="#FFDEAE"/>
<path d="M18.5545 22.3256C18.5543 22.3261 18.5541 22.3261 18.5538 22.3263C18.5385 22.346 18.3172 22.6234 18.1003 22.7515C17.8753 22.8844 17.6985 23.2291 17.6985 23.2291C17.6985 23.2291 18.0725 23.1637 18.2171 23.0121C18.3916 22.83 18.5498 22.341 18.5545 22.3256Z" fill="#C49047"/>
<path d="M18.3782 22.4497C18.2261 22.5259 18.0917 22.5767 17.9284 22.6823C17.8331 22.7438 17.7015 22.9918 17.6927 23.1313C17.6804 23.1883 17.6985 23.2291 17.6985 23.2291C17.6985 23.2291 17.8753 22.8844 18.1003 22.7515C18.3172 22.6234 18.5385 22.346 18.5538 22.3263C18.5432 22.3353 18.4575 22.4099 18.3782 22.4497Z" fill="#FFDEAE"/>
<path d="M17.6883 22.0697C17.6883 22.0702 17.6882 22.0703 17.6882 22.0707C17.6896 22.0955 17.7066 22.45 17.6283 22.6895C17.5471 22.9378 17.6419 23.3134 17.6419 23.3134C17.6419 23.3134 17.8797 23.0172 17.8882 22.808C17.8989 22.5559 17.6949 22.0843 17.6883 22.0697Z" fill="#C49047"/>
<path d="M17.6378 22.2792C17.5737 22.4368 17.5064 22.5638 17.4534 22.7508C17.4224 22.8599 17.4874 23.1332 17.5728 23.2438C17.6013 23.2947 17.6419 23.3134 17.6419 23.3134C17.6419 23.3134 17.5471 22.9378 17.6283 22.6895C17.7065 22.45 17.6896 22.0955 17.6881 22.0707C17.6861 22.0843 17.671 22.197 17.6378 22.2792Z" fill="#FFDEAE"/>
<path d="M18.1879 23.1217C18.1876 23.122 18.1873 23.122 18.187 23.1224C18.1686 23.1389 17.902 23.3734 17.666 23.4615C17.4214 23.5529 17.1868 23.8614 17.1868 23.8614C17.1868 23.8614 17.5665 23.8626 17.7355 23.7385C17.9392 23.5896 18.1806 23.1361 18.1879 23.1217Z" fill="#C49047"/>
<path d="M17.9926 23.2131C17.8295 23.2614 17.6883 23.2879 17.509 23.3631C17.4044 23.407 17.2313 23.6281 17.1982 23.7639C17.1762 23.818 17.1868 23.8614 17.1868 23.8614C17.1868 23.8614 17.4214 23.5529 17.666 23.4615C17.902 23.3734 18.1686 23.1389 18.1871 23.1224C18.1751 23.1293 18.0776 23.1877 17.9926 23.2131Z" fill="#FFDEAE"/>
<path d="M17.3798 22.718C17.3798 22.7185 17.3797 22.7186 17.3795 22.719C17.3768 22.7436 17.3314 23.0957 17.2123 23.3176C17.0888 23.548 17.1163 23.9344 17.1163 23.9344C17.1163 23.9344 17.4022 23.6844 17.4473 23.4799C17.502 23.2337 17.3838 22.7335 17.3798 22.718Z" fill="#C49047"/>
<path d="M17.2935 22.9154C17.2028 23.0594 17.1143 23.1726 17.0294 23.3474C16.9798 23.4496 16.9958 23.7299 17.0606 23.8537C17.0798 23.9089 17.1163 23.9344 17.1163 23.9344C17.1163 23.9344 17.0888 23.548 17.2123 23.3176C17.3314 23.0957 17.3768 22.7436 17.3796 22.719C17.3752 22.7321 17.3406 22.8403 17.2935 22.9154Z" fill="#FFDEAE"/>
<path d="M17.5879 23.9165C17.5876 23.9167 17.5873 23.9167 17.5869 23.9168C17.5651 23.9284 17.2495 24.0908 16.999 24.1189C16.7394 24.1479 16.4368 24.3899 16.4368 24.3899C16.4368 24.3899 16.8048 24.4834 16.9988 24.4043C17.2326 24.3097 17.5774 23.9285 17.5879 23.9165Z" fill="#C49047"/>
<path d="M17.3763 23.9573C17.2063 23.9645 17.0629 23.9559 16.8706 23.9852C16.7586 24.0023 16.5367 24.1745 16.4716 24.2982C16.4371 24.3451 16.4368 24.3899 16.4368 24.3899C16.4368 24.3899 16.7394 24.1479 16.999 24.1189C17.2495 24.0908 17.5651 23.9284 17.5869 23.9168C17.5737 23.9207 17.465 23.9536 17.3763 23.9573Z" fill="#FFDEAE"/>
<path d="M16.9027 23.3281C16.9026 23.3284 16.9023 23.3285 16.9023 23.3289C16.8934 23.3521 16.7636 23.6824 16.594 23.8687C16.4181 24.062 16.3507 24.4436 16.3507 24.4436C16.3507 24.4436 16.6888 24.2708 16.7824 24.0834C16.8954 23.8579 16.9027 23.344 16.9027 23.3281Z" fill="#C49047"/>
<path d="M16.7707 23.4985C16.6478 23.616 16.5342 23.7043 16.4093 23.8532C16.3363 23.94 16.2835 24.2157 16.3162 24.3517C16.3214 24.4098 16.3506 24.4436 16.3506 24.4436C16.3506 24.4436 16.4181 24.062 16.5939 23.8687C16.7635 23.6824 16.8933 23.3521 16.9022 23.3289C16.8946 23.3406 16.8348 23.4371 16.7707 23.4985Z" fill="#FFDEAE"/>
<path d="M16.9337 24.4857C16.9334 24.486 16.9331 24.4859 16.9327 24.4862C16.9104 24.4968 16.5891 24.6477 16.3379 24.6666C16.0773 24.686 15.7661 24.9169 15.7661 24.9169C15.7661 24.9169 16.1306 25.0239 16.3274 24.9519C16.5644 24.8657 16.9227 24.4974 16.9337 24.4857Z" fill="#C49047"/>
<path d="M16.7207 24.519C16.5506 24.5198 16.4075 24.506 16.2144 24.5283C16.1017 24.5413 15.8739 24.7053 15.8043 24.8265C15.768 24.8723 15.7661 24.9169 15.7661 24.9169C15.7661 24.9169 16.0773 24.686 16.3379 24.6666C16.5891 24.6477 16.9104 24.4968 16.9327 24.4862C16.9194 24.4894 16.8095 24.5183 16.7207 24.519Z" fill="#FFDEAE"/>
<path d="M16.2703 23.8728C16.2701 23.8731 16.27 23.8732 16.2698 23.8737C16.2602 23.8963 16.1184 24.2219 15.9422 24.4019C15.7593 24.5886 15.678 24.9674 15.678 24.9674C15.678 24.9674 16.0223 24.8072 16.1227 24.6233C16.2438 24.402 16.2697 23.8888 16.2703 23.8728Z" fill="#C49047"/>
<path d="M16.1323 24.0383C16.0052 24.1512 15.8886 24.2353 15.7582 24.3796C15.6821 24.4638 15.6193 24.7374 15.647 24.8743C15.6501 24.9327 15.678 24.9674 15.678 24.9674C15.678 24.9674 15.7594 24.5886 15.9423 24.4019C16.1184 24.2219 16.2602 23.8963 16.2699 23.8737C16.262 23.8849 16.1986 23.9793 16.1323 24.0383Z" fill="#FFDEAE"/>
<path d="M16.093 25.0254C16.0925 25.0254 16.0924 25.0253 16.0919 25.0254C16.0677 25.0297 15.7175 25.0884 15.4704 25.0388C15.2143 24.9873 14.8523 25.1257 14.8523 25.1257C14.8523 25.1257 15.1744 25.3269 15.3833 25.3108C15.6348 25.2918 16.0792 25.0337 16.093 25.0254Z" fill="#C49047"/>
<path d="M15.8789 24.9998C15.7149 24.955 15.5809 24.903 15.3889 24.8724C15.2768 24.8544 15.0131 24.9511 14.9135 25.049C14.8662 25.0833 14.8523 25.1257 14.8523 25.1257C14.8523 25.1257 15.2143 24.9873 15.4704 25.0388C15.7175 25.0884 16.0677 25.0297 16.0919 25.0254C16.078 25.025 15.9645 25.0233 15.8789 24.9998Z" fill="#FFDEAE"/>
<path d="M15.6195 24.2561C15.6192 24.2566 15.6189 24.2566 15.6188 24.2569C15.6032 24.2762 15.3791 24.5514 15.1608 24.6773C14.9344 24.8078 14.754 25.1506 14.754 25.1506C14.754 25.1506 15.1287 25.0891 15.2749 24.939C15.4512 24.7588 15.6147 24.2715 15.6195 24.2561Z" fill="#C49047"/>
<path d="M15.4419 24.3784C15.289 24.4529 15.154 24.5024 14.9896 24.6061C14.8937 24.6667 14.7594 24.9133 14.7492 25.0527C14.7363 25.1096 14.754 25.1506 14.754 25.1506C14.754 25.1506 14.9344 24.8078 15.1608 24.6773C15.3791 24.5514 15.6032 24.2762 15.6188 24.2569C15.6081 24.2658 15.5216 24.3394 15.4419 24.3784Z" fill="#FFDEAE"/>
<path d="M15.2402 25.3679C15.2397 25.3679 15.2396 25.3677 15.2392 25.3677C15.2144 25.3677 14.8595 25.3645 14.6248 25.2726C14.3816 25.1774 14.001 25.2505 14.001 25.2505C14.001 25.2505 14.2831 25.5048 14.4916 25.5252C14.7427 25.5503 15.2253 25.3736 15.2402 25.3679Z" fill="#C49047"/>
<path d="M15.0339 25.3055C14.8801 25.2325 14.7572 25.158 14.5736 25.0945C14.4663 25.0574 14.1899 25.1065 14.0746 25.1855C14.0221 25.2111 14.001 25.2505 14.001 25.2505C14.001 25.2505 14.3816 25.1773 14.6248 25.2726C14.8595 25.3645 15.2144 25.3677 15.2392 25.3677C15.2256 25.3649 15.1141 25.3434 15.0339 25.3055Z" fill="#FFDEAE"/>
<path d="M14.7823 24.6187C14.782 24.619 14.7817 24.619 14.7814 24.6193C14.7653 24.6335 14.5299 24.8365 14.3225 24.9118C14.1074 24.9898 13.8995 25.2578 13.8995 25.2578C13.8995 25.2578 14.232 25.2619 14.3809 25.1549C14.5604 25.0263 14.7757 24.6311 14.7823 24.6187Z" fill="#C49047"/>
<path d="M14.6105 24.697C14.4672 24.738 14.3433 24.7599 14.1858 24.8244C14.0938 24.8619 13.9405 25.054 13.9103 25.1727C13.8906 25.2198 13.8995 25.2578 13.8995 25.2578C13.8995 25.2578 14.1074 24.9898 14.3225 24.9118C14.5298 24.8366 14.7653 24.6335 14.7814 24.6193C14.771 24.6253 14.6851 24.6757 14.6105 24.697Z" fill="#FFDEAE"/>
<path d="M14.4148 25.5936C14.4147 25.5935 14.4145 25.5934 14.4144 25.5934C14.403 25.5876 14.2389 25.506 14.1507 25.4105C14.0594 25.3112 13.8663 25.2593 13.8663 25.2593C13.8663 25.2593 13.9397 25.4409 14.0319 25.4975C14.1428 25.5659 14.4066 25.5929 14.4148 25.5936Z" fill="#C49047"/>
<path d="M14.3332 25.5179C14.2783 25.4495 14.2381 25.3872 14.1672 25.3162C14.1258 25.2746 13.9864 25.235 13.9151 25.2457C13.885 25.2457 13.8663 25.2593 13.8663 25.2593C13.8663 25.2593 14.0594 25.3112 14.1507 25.4104C14.2389 25.5059 14.403 25.5876 14.4144 25.5933C14.4087 25.5889 14.3619 25.5537 14.3332 25.5179Z" fill="#FFDEAE"/>
<path d="M11.3867 13.1644C8.71968 13.7033 6.69564 15.2942 5.55121 17.2237C4.60849 18.8114 4.47475 20.0881 4.87341 21.6021C6.79897 29.2339 9.53363 25.222 13.2077 28.9408C13.2391 28.9733 13.2342 29.0147 13.2083 29.0393L12.9288 29.3018C12.9032 29.3259 12.8618 29.3276 12.8338 29.2989C10.5683 27.0304 8.81096 27.8937 7.00879 26.6363C5.4788 25.5556 4.81659 23.2986 4.39925 21.421C3.99247 19.5803 4.54453 17.9367 5.71627 16.3919C5.78634 16.2962 6.00755 16.0334 6.04417 15.9924C7.4817 14.427 9.16029 13.42 11.3867 13.1644Z" fill="#C49047"/>
<path d="M3.50935 15.3233C3.50913 15.3246 3.50959 15.3254 3.50935 15.3265C3.4969 15.4032 3.32926 16.5048 3.49639 17.2778C3.66996 18.0794 3.25251 19.2218 3.25251 19.2218C3.25251 19.2218 2.6059 18.2204 2.64694 17.564C2.69489 16.7736 3.48421 15.3668 3.50935 15.3233Z" fill="#C49047"/>
<path d="M3.59935 15.9939C3.74828 16.5067 3.91753 16.9249 4.02241 17.5261C4.08391 17.8768 3.79316 18.7088 3.49052 19.0265C3.38507 19.1763 3.25247 19.2218 3.25247 19.2218C3.25247 19.2218 3.66993 18.0794 3.49635 17.2778C3.32923 16.5048 3.49687 15.4032 3.50932 15.3265C3.51121 15.37 3.52196 15.7263 3.59935 15.9939Z" fill="#FFDEAE"/>
<path d="M5.19462 16.6542C5.19411 16.6553 5.19445 16.6561 5.19394 16.6574C5.1681 16.7306 4.80763 17.7848 4.83489 18.5753C4.8634 19.3949 4.24979 20.4451 4.24979 20.4451C4.24979 20.4451 3.79123 19.3448 3.94813 18.7061C4.13565 17.9368 5.1621 16.6924 5.19462 16.6542Z" fill="#C49047"/>
<path d="M5.16413 17.33C5.21968 17.8612 5.31204 18.3027 5.30856 18.913C5.30679 19.269 4.87298 20.0363 4.51879 20.2952C4.38841 20.4238 4.24982 20.4451 4.24982 20.4451C4.24982 20.4451 4.86343 19.3949 4.83491 18.5753C4.80765 17.7848 5.16812 16.7306 5.19396 16.6574C5.1882 16.7004 5.13555 17.053 5.16413 17.33Z" fill="#FFDEAE"/>
<path d="M1.8344 17.4273C1.83485 17.4284 1.83554 17.4287 1.83593 17.4297C1.86423 17.4894 2.2786 18.342 2.76894 18.803C3.27752 19.2807 3.5366 20.2827 3.5366 20.2827C3.5366 20.2827 2.60011 19.8934 2.31192 19.4136C1.96396 18.8367 1.83776 17.4699 1.8344 17.4273Z" fill="#C49047"/>
<path d="M2.22118 17.8537C2.57314 18.1412 2.89361 18.3524 3.25735 18.723C3.46979 18.9389 3.66778 19.6623 3.60909 20.0309C3.60748 20.1869 3.53656 20.2827 3.53656 20.2827C3.53656 20.2827 3.27747 19.2807 2.7689 18.803C2.27856 18.342 1.86419 17.4894 1.83589 17.4297C1.85819 17.4591 2.03777 17.7036 2.22118 17.8537Z" fill="#FFDEAE"/>
<path d="M1.54189 19.8492C1.54256 19.8501 1.54336 19.8502 1.54405 19.8513C1.58795 19.9052 2.22643 20.6753 2.84451 21.0249C3.48556 21.387 4.00225 22.349 4.00225 22.349C4.00225 22.349 2.94475 22.1846 2.52918 21.7652C2.02798 21.2612 1.55599 19.8921 1.54189 19.8492Z" fill="#C49047"/>
<path d="M2.0452 20.1892C2.47798 20.3956 2.85933 20.5318 3.32503 20.8203C3.59692 20.9886 3.98116 21.6802 4.01341 22.0728C4.05084 22.2329 4.00221 22.349 4.00221 22.349C4.00221 22.349 3.48551 21.387 2.84446 21.0249C2.22639 20.6753 1.5879 19.9052 1.54401 19.8513C1.57424 19.8758 1.81961 20.0814 2.0452 20.1892Z" fill="#FFDEAE"/>
<path d="M3.80251 18.8999C3.80255 18.9012 3.80324 18.9019 3.80324 18.9033C3.80851 18.9834 3.89567 20.135 4.24437 20.8766C4.60616 21.6457 4.45054 22.8965 4.45054 22.8965C4.45054 22.8965 3.56451 22.0358 3.45318 21.3633C3.31766 20.554 3.78725 18.9496 3.80251 18.8999Z" fill="#C49047"/>
<path d="M4.04946 19.5561C4.31924 20.0394 4.58747 20.4223 4.83336 21.005C4.9771 21.3449 4.87714 22.2528 4.64543 22.6439C4.5738 22.8197 4.45047 22.8965 4.45047 22.8965C4.45047 22.8965 4.6061 21.6457 4.24431 20.8766C3.89561 20.135 3.80844 18.9834 3.80318 18.9033C3.81525 18.9466 3.90904 19.3039 4.04946 19.5561Z" fill="#FFDEAE"/>
<path d="M1.63968 23.628C1.64094 23.6286 1.6418 23.6281 1.64306 23.6287C1.71878 23.6557 2.81051 24.0318 3.62972 24.0056C4.47917 23.9781 5.56597 24.6167 5.56597 24.6167C5.56597 24.6167 4.42458 25.0891 3.76306 24.925C2.96631 24.7286 1.67935 23.6618 1.63968 23.628Z" fill="#C49047"/>
<path d="M2.34009 23.6614C2.89067 23.605 3.34849 23.5105 3.98086 23.5156C4.34992 23.5182 5.14391 23.9698 5.41123 24.3375C5.54424 24.473 5.56595 24.6167 5.56595 24.6167C5.56595 24.6167 4.47914 23.9781 3.6297 24.0056C2.81049 24.0318 1.71876 23.6557 1.64304 23.6287C1.68756 23.6347 2.05289 23.6903 2.34009 23.6614Z" fill="#FFDEAE"/>
<path d="M3.97707 22.4254C3.9777 22.4266 3.97862 22.4269 3.97925 22.428C4.01994 22.4974 4.61435 23.4874 5.25872 23.9939C5.9271 24.5189 6.34907 25.7067 6.34907 25.7067C6.34907 25.7067 5.17105 25.3348 4.76993 24.7837C4.28577 24.1214 3.98576 22.4768 3.97707 22.4254Z" fill="#C49047"/>
<path d="M4.49224 22.9012C4.95017 23.212 5.36163 23.4338 5.84277 23.8443C6.12368 24.0836 6.44165 24.9399 6.41003 25.3933C6.42489 25.5826 6.3491 25.7067 6.3491 25.7067C6.3491 25.7067 5.92714 24.5189 5.25876 23.9939C4.61439 23.4874 4.01997 22.4974 3.97928 22.428C4.00945 22.4614 4.25362 22.7387 4.49224 22.9012Z" fill="#FFDEAE"/>
<path d="M6.5488 22.1773C6.54886 22.1787 6.54954 22.1793 6.5496 22.1806C6.55588 22.2608 6.6583 23.411 7.01678 24.148C7.38875 24.9123 7.24963 26.165 7.24963 26.165C7.24963 26.165 6.35229 25.3161 6.23209 24.6452C6.08583 23.8378 6.53417 22.2273 6.5488 22.1773Z" fill="#C49047"/>
<path d="M6.80449 22.8303C7.08067 23.3099 7.35392 23.6892 7.60746 24.2685C7.75572 24.6065 7.66777 25.5156 7.44131 25.9098C7.37205 26.0866 7.24966 26.165 7.24966 26.165C7.24966 26.165 7.38878 24.9123 7.01681 24.148C6.65834 23.411 6.55591 22.2608 6.54964 22.1806C6.56226 22.2238 6.66074 22.5799 6.80449 22.8303Z" fill="#FFDEAE"/>
<path d="M8.30227 23.2559C8.30233 23.2572 8.303 23.258 8.303 23.2593C8.30929 23.3395 8.41171 24.4895 8.77019 25.2266C9.14216 25.9907 9.0031 27.2436 9.0031 27.2436C9.0031 27.2436 8.10576 26.3945 7.98551 25.7237C7.8393 24.9163 8.28764 23.3058 8.30227 23.2559Z" fill="#C49047"/>
<path d="M8.55789 23.9089C8.83401 24.3884 9.10733 24.7677 9.36087 25.3471C9.50914 25.6851 9.42117 26.5941 9.19473 26.9883C9.1254 27.165 9.00308 27.2436 9.00308 27.2436C9.00308 27.2436 9.14214 25.9907 8.77017 25.2266C8.41169 24.4895 8.30927 23.3395 8.30298 23.2593C8.31562 23.3024 8.41415 23.6584 8.55789 23.9089Z" fill="#FFDEAE"/>
<path d="M3.04921 26.2648C3.05058 26.2651 3.05139 26.2647 3.05281 26.2649C3.13574 26.2797 4.32863 26.4804 5.17064 26.3121C6.04363 26.1374 7.27671 26.61 7.27671 26.61C7.27671 26.61 6.17864 27.2949 5.46683 27.2391C4.60972 27.1736 3.09596 26.2929 3.04921 26.2648Z" fill="#C49047"/>
<path d="M3.77875 26.1784C4.33797 26.0255 4.79475 25.8489 5.44907 25.7452C5.83086 25.6845 6.72912 26.0143 7.06868 26.3482C7.22951 26.4651 7.27673 26.61 7.27673 26.61C7.27673 26.61 6.04365 26.1373 5.17066 26.3121C4.32864 26.4803 3.13576 26.2797 3.05283 26.2649C3.09987 26.2636 3.48692 26.2579 3.77875 26.1784Z" fill="#FFDEAE"/>
<path d="M6.54964 29.0248C6.55078 29.0245 6.55117 29.0238 6.55226 29.0235C6.61936 28.9993 7.5786 28.6435 8.12501 28.165C8.69136 27.6688 9.79469 27.4953 9.79469 27.4953C9.79469 27.4953 9.27841 28.4604 8.73296 28.7199C8.07693 29.0331 6.59576 29.0256 6.54964 29.0248Z" fill="#C49047"/>
<path d="M7.04807 28.654C7.39357 28.306 7.65397 27.9838 8.09007 27.6319C8.34436 27.4265 9.14195 27.2894 9.53176 27.3911C9.699 27.4091 9.79462 27.4953 9.79462 27.4953C9.79462 27.4953 8.69129 27.6688 8.12494 28.165C7.57853 28.6435 6.61929 28.9993 6.55219 29.0234C6.58615 29.0025 6.86757 28.8353 7.04807 28.654Z" fill="#FFDEAE"/>
<path d="M12.4594 11.5553C12.4583 11.5556 12.458 11.5563 12.4569 11.5568C12.3933 11.5824 11.4842 11.959 10.9764 12.4386C10.45 12.936 9.39592 13.1426 9.39592 13.1426C9.39592 13.1426 9.85722 12.1963 10.372 11.9274C10.9912 11.6026 12.4151 11.5562 12.4594 11.5553Z" fill="#C49047"/>
<path d="M11.9937 11.9297C11.6743 12.2767 11.4356 12.5956 11.0292 12.9496C10.7923 13.1563 10.0306 13.3168 9.65231 13.2333C9.49097 13.222 9.39592 13.1426 9.39592 13.1426C9.39592 13.1426 10.45 12.936 10.9764 12.4386C11.4842 11.959 12.3933 11.5824 12.4569 11.5568C12.4251 11.578 12.1607 11.749 11.9937 11.9297Z" fill="#FFDEAE"/>
<path d="M10.2516 11.0348C10.251 11.0357 10.2511 11.0366 10.2505 11.0375C10.2134 11.0951 9.68979 11.9283 9.55289 12.6132C9.41127 13.3234 8.67087 14.1017 8.67087 14.1017C8.67087 14.1017 8.49987 13.063 8.76421 12.5459C9.08137 11.9226 10.216 11.0612 10.2516 11.0348Z" fill="#C49047"/>
<path d="M10.0884 11.6096C10.0284 12.0775 10.0183 12.4756 9.89161 12.9995C9.81788 13.3053 9.28943 13.8766 8.93249 14.0273C8.79435 14.1115 8.67088 14.1017 8.67088 14.1017C8.67088 14.1017 9.41128 13.3234 9.5529 12.6132C9.6898 11.9283 10.2134 11.0951 10.2505 11.0375C10.2368 11.0733 10.12 11.3657 10.0884 11.6096Z" fill="#FFDEAE"/>
<path d="M8.48196 11.8566C8.48166 11.8574 8.48196 11.858 8.48162 11.8589C8.46601 11.9119 8.24956 12.6751 8.29883 13.2359C8.35009 13.8175 7.95356 14.5873 7.95356 14.5873C7.95356 14.5873 7.58599 13.8223 7.67337 13.3625C7.77763 12.8085 8.46029 11.8851 8.48196 11.8566Z" fill="#C49047"/>
<path d="M8.48589 12.3382C8.54544 12.7138 8.6278 13.0242 8.64832 13.4582C8.66055 13.7113 8.38111 14.2732 8.13911 14.4705C8.05132 14.567 7.9536 14.5873 7.9536 14.5873C7.9536 14.5873 8.35013 13.8175 8.29886 13.2359C8.2496 12.6751 8.46605 11.9119 8.48166 11.8589C8.4792 11.8898 8.45501 12.1423 8.48589 12.3382Z" fill="#FFDEAE"/>
<path d="M12.0783 13.7038C12.0773 13.704 12.0768 13.7046 12.076 13.7049C12.018 13.7196 11.1898 13.9415 10.6963 14.2977C10.1849 14.6673 9.2506 14.7256 9.2506 14.7256C9.2506 14.7256 9.7571 13.9608 10.2325 13.7871C10.8045 13.5771 12.0398 13.6994 12.0783 13.7038Z" fill="#C49047"/>
<path d="M11.6332 13.9742C11.3176 14.2375 11.0751 14.4858 10.6837 14.7452C10.4553 14.8968 9.77905 14.9486 9.46179 14.8331C9.32364 14.805 9.2506 14.7256 9.2506 14.7256C9.2506 14.7256 10.1849 14.6673 10.6963 14.2977C11.1898 13.9415 12.018 13.7196 12.076 13.7049C12.046 13.7195 11.7981 13.8371 11.6332 13.9742Z" fill="#FFDEAE"/>
<path d="M9.54953 13.1928C9.54878 13.1937 9.5489 13.1944 9.54815 13.1951C9.50831 13.2469 8.94414 13.9965 8.75924 14.6361C8.56771 15.2995 7.802 15.9794 7.802 15.9794C7.802 15.9794 7.72278 14.9789 8.01536 14.5089C8.36664 13.9424 9.51352 13.2149 9.54953 13.1928Z" fill="#C49047"/>
<path d="M9.34835 13.7256C9.25393 14.1653 9.21237 14.5427 9.04993 15.0302C8.95546 15.3147 8.40763 15.8152 8.05652 15.9296C7.91849 15.9985 7.802 15.9794 7.802 15.9794C7.802 15.9794 8.56771 15.2994 8.75924 14.636C8.94414 13.9965 9.50832 13.2469 9.54816 13.1951C9.53227 13.228 9.39791 13.4965 9.34835 13.7256Z" fill="#FFDEAE"/>
<path d="M10.0454 15.3815C10.0443 15.3818 10.044 15.3826 10.043 15.383C9.9834 15.4098 9.13133 15.8022 8.66528 16.2777C8.18221 16.771 7.1857 17.0067 7.1857 17.0067C7.1857 17.0067 7.5902 16.0882 8.07069 15.813C8.64848 15.4807 10.0031 15.3839 10.0454 15.3815Z" fill="#C49047"/>
<path d="M9.6156 15.7554C9.32406 16.0976 9.10846 16.4103 8.73445 16.7625C8.51634 16.9682 7.79675 17.1492 7.4333 17.0836C7.27915 17.0788 7.1857 17.0067 7.1857 17.0067C7.1857 17.0067 8.18221 16.771 8.66528 16.2777C9.13133 15.8022 9.9834 15.4098 10.043 15.383C10.0135 15.4044 9.76787 15.577 9.6156 15.7554Z" fill="#FFDEAE"/>
<path d="M6.22692 13.2555C6.2268 13.257 6.22743 13.2577 6.22737 13.259C6.22537 13.3407 6.2092 14.5137 6.49474 15.2959C6.79121 16.107 6.52024 17.3587 6.52024 17.3587C6.52024 17.3587 5.70165 16.4072 5.64999 15.7167C5.58627 14.8855 6.20692 13.3045 6.22692 13.2555Z" fill="#C49047"/>
<path d="M6.41741 13.942C6.64656 14.4555 6.88329 14.8672 7.07928 15.4793C7.19394 15.8361 7.01047 16.7458 6.74051 17.1207C6.65209 17.2921 6.5203 17.3587 6.5203 17.3587C6.5203 17.3587 6.79127 16.107 6.4948 15.2959C6.20926 14.5137 6.22543 13.3407 6.22743 13.259C6.23567 13.304 6.29819 13.6741 6.41741 13.942Z" fill="#FFDEAE"/>
<path d="M7.92375 14.7676C7.92301 14.7687 7.92323 14.7696 7.92254 14.7708C7.88322 14.8425 7.32887 15.8764 7.22245 16.7023C7.1123 17.5587 6.29567 18.5452 6.29567 18.5452C6.29567 18.5452 6.00687 17.3239 6.27876 16.687C6.60477 15.9197 7.88346 14.8018 7.92375 14.7676Z" fill="#C49047"/>
<path d="M7.7768 15.4648C7.74392 16.0261 7.76463 16.5006 7.65694 17.134C7.59442 17.5036 7.01286 18.2268 6.60071 18.4353C6.44336 18.5468 6.29567 18.5452 6.29567 18.5452C6.29567 18.5452 7.1123 17.5587 7.22245 16.7023C7.32886 15.8764 7.88322 14.8425 7.92253 14.7708C7.90916 14.8145 7.79434 15.172 7.7768 15.4648Z" fill="#FFDEAE"/>
<path d="M8.81371 17.3587C8.81279 17.3593 8.81267 17.3602 8.81171 17.3609C8.75707 17.4066 7.9797 18.0701 7.63162 18.7066C7.27097 19.3668 6.29567 19.9088 6.29567 19.9088C6.29567 19.9088 6.44822 18.826 6.87065 18.3952C7.3783 17.8758 8.77015 17.3736 8.81371 17.3587Z" fill="#C49047"/>
<path d="M8.47364 17.8779C8.26913 18.323 8.13562 18.7147 7.84755 19.1946C7.67969 19.4748 6.97862 19.8774 6.57808 19.9161C6.41501 19.9568 6.29567 19.9088 6.29567 19.9088C6.29567 19.9088 7.27097 19.3668 7.63162 18.7066C7.9797 18.0701 8.75707 17.4066 8.81171 17.3609C8.78702 17.3921 8.58057 17.6458 8.47364 17.8779Z" fill="#FFDEAE"/>
<path d="M5.36158 17.0067C5.36182 17.0077 5.36239 17.0082 5.36257 17.009C5.37673 17.068 5.5894 17.9118 5.94359 18.4178C6.31106 18.9423 6.35615 19.8912 6.35615 19.8912C6.35615 19.8912 5.58763 19.3658 5.41863 18.8809C5.21401 18.2972 5.35661 17.0456 5.36158 17.0067Z" fill="#C49047"/>
<path d="M5.62933 17.4623C5.89174 17.7864 6.14007 18.0363 6.39744 18.4374C6.54787 18.6714 6.59029 19.3583 6.46849 19.6785C6.43785 19.8182 6.35618 19.8912 6.35618 19.8912C6.35618 19.8912 6.31108 18.9423 5.94362 18.4178C5.58943 17.9118 5.37676 17.068 5.36259 17.009C5.37711 17.0398 5.49267 17.293 5.62933 17.4623Z" fill="#FFDEAE"/>
<path d="M7.90913 19.5842C7.90838 19.5848 7.90826 19.5855 7.90746 19.5861C7.86197 19.6262 7.21463 20.2077 6.93204 20.757C6.63929 21.3266 5.82089 21.8087 5.82089 21.8087C5.82089 21.8087 5.92743 20.884 6.27768 20.5084C6.69857 20.0552 7.87237 19.598 7.90913 19.5842Z" fill="#C49047"/>
<path d="M7.63083 20.0334C7.4664 20.4166 7.36117 20.7529 7.12633 21.1675C6.98949 21.4097 6.40148 21.7674 6.06139 21.809C5.92349 21.847 5.82089 21.8087 5.82089 21.8087C5.82089 21.8087 6.63929 21.3266 6.93204 20.7569C7.21463 20.2077 7.86197 19.6262 7.90746 19.5861C7.88718 19.6133 7.71691 19.8337 7.63083 20.0334Z" fill="#FFDEAE"/>
<path d="M5.91265 19.3311C5.91231 19.3324 5.91277 19.3333 5.91237 19.3346C5.89363 19.4159 5.63626 20.5857 5.76108 21.4268C5.89082 22.2988 5.36254 23.495 5.36254 23.495C5.36254 23.495 4.73949 22.3751 4.82974 21.6739C4.93684 20.8295 5.8826 19.376 5.91265 19.3311Z" fill="#C49047"/>
<path d="M5.96195 20.0568C6.08559 20.6175 6.23773 21.0778 6.30792 21.7301C6.34918 22.1107 5.97871 22.9829 5.63166 23.3021C5.50803 23.4555 5.36252 23.495 5.36252 23.495C5.36252 23.495 5.8908 22.2988 5.76106 21.4268C5.63624 20.5857 5.89361 19.4159 5.91235 19.3346C5.91137 19.3813 5.89784 19.7643 5.96195 20.0568Z" fill="#FFDEAE"/>
</svg>
