<svg width="21" height="31" viewBox="0 0 21 31" fill="none" xmlns="http://www.w3.org/2000/svg">
<path d="M14.7042 11.6261C17.944 13.28 20.1624 16.6493 20.1624 20.5369C20.1624 26.0598 15.685 30.5372 10.1621 30.5372C4.63912 30.5372 0.162354 26.0598 0.162354 20.5369C0.162354 16.7406 2.27768 13.4383 5.39456 11.7444C6.81136 10.9749 8.4355 10.5372 10.1621 10.5372C11.7975 10.5372 13.3416 10.9298 14.7042 11.6261Z" fill="#FFAD67"/>
<path d="M10.1621 30.1278C7.60033 30.1278 5.19193 29.1302 3.38065 27.3187C1.56923 25.5073 0.571625 23.0987 0.571625 20.537C0.571625 17.0176 2.49469 13.7863 5.59006 12.104C6.98419 11.3468 8.5653 10.9465 10.1621 10.9465C11.6965 10.9465 13.162 11.2978 14.518 11.9906C16.0687 12.7822 17.3768 13.9822 18.3011 15.4609C19.251 16.9804 19.753 18.7356 19.753 20.537C19.753 23.0987 18.7554 25.5073 16.9439 27.3187C15.1324 29.1302 12.7238 30.1278 10.1621 30.1278Z" fill="#F69C62"/>
<path d="M10.1621 28.9583C7.91276 28.9583 5.79816 28.0823 4.20768 26.4917C2.6172 24.9011 1.74133 22.7863 1.74133 20.5369C1.74133 17.4467 3.4297 14.6096 6.14772 13.1325C7.37182 12.4675 8.76009 12.116 10.1621 12.116C11.5096 12.116 12.7963 12.4244 13.9869 13.0328C15.3484 13.7278 16.497 14.7815 17.3086 16.0799C18.1426 17.4141 18.5835 18.9552 18.5835 20.5369C18.5835 22.7863 17.7075 24.901 16.117 26.4917C14.5264 28.0823 12.4115 28.9583 10.1621 28.9583Z" stroke="#BC7546" stroke-width="2.61099" stroke-miterlimit="10"/>
<path d="M10.1622 26.2473C8.63686 26.2473 7.20309 25.6534 6.12457 24.575C5.04606 23.4963 4.45215 22.0624 4.45215 20.537C4.45215 18.4417 5.59709 16.5178 7.43997 15.5162C8.27019 15.0653 9.21145 14.8271 10.1622 14.8271C11.0758 14.8271 11.9483 15.0361 12.7557 15.4486C13.6789 15.9201 14.4577 16.6344 15.0082 17.5148C15.5737 18.4195 15.8726 19.4646 15.8726 20.537C15.8726 22.0624 15.2786 23.4963 14.2 24.575C13.1215 25.6534 11.6875 26.2473 10.1622 26.2473V26.2473Z" stroke="#F69C62" stroke-width="1.865" stroke-miterlimit="10"/>
<path d="M10.1622 27.4904C8.30488 27.4904 6.55886 26.7671 5.24565 25.4537C3.93244 24.1403 3.20918 22.3944 3.20918 20.537C3.20918 17.9855 4.60331 15.6429 6.84754 14.4232C7.85831 13.8742 9.00442 13.5841 10.1622 13.5841C11.2747 13.5841 12.3371 13.8388 13.3201 14.341C14.4444 14.915 15.3927 15.785 16.0628 16.8569C16.7516 17.9586 17.1155 19.2311 17.1155 20.537C17.1155 22.3942 16.3922 24.1403 15.0788 25.4537C13.7655 26.7671 12.0195 27.4904 10.1622 27.4904V27.4904Z" stroke="#BC7546" stroke-width="2.61099" stroke-miterlimit="10"/>
<path d="M13.2154 10.1034V9.73382C13.2154 9.62686 13.1287 9.54009 13.0215 9.54009H6.94377C6.83681 9.54009 6.75004 9.62686 6.75004 9.73382V10.1034C6.75004 10.211 6.83681 10.2977 6.94377 10.2977H13.0215C13.1287 10.2977 13.2154 10.211 13.2154 10.1034ZM14.2176 9.82688C14.4722 10.3946 14.6135 11.0059 14.636 11.6262C13.2734 10.9298 11.7293 10.5371 10.094 10.5371C8.3673 10.5371 6.74331 10.9749 5.32651 11.7444C5.33382 11.0836 5.47751 10.4307 5.74791 9.82688L5.87403 9.54565C6.01479 9.23078 6.30772 9.01057 6.64967 8.96272L7.02205 8.91034C8.98593 8.63541 10.9795 8.63541 12.9439 8.91034L13.3156 8.96272C13.6576 9.01057 13.9505 9.23078 14.0914 9.54565L14.2176 9.82688Z" fill="#F69C62"/>
<path d="M16.3306 4.29153e-05L12.8633 9.68268H10.9367L14.3939 0.00794506V4.29153e-05H16.3306Z" fill="#FF545F"/>
<path d="M14.3938 4.29153e-05V0.00794506L10.9366 9.68268H9.03433L12.4914 0.00794506V4.29153e-05H14.3938Z" fill="#62DADC"/>
<path d="M12.4914 4.29153e-05V0.00794506L9.03437 9.68268H7.09082L10.5581 4.29153e-05H12.4914Z" fill="#AC748C"/>
<path d="M19.4971 20.5373C19.4971 23.6909 16.9405 26.2473 13.7869 26.2473C10.6333 26.2473 8.07668 23.6909 8.07668 20.5373C8.07668 17.3835 10.6333 14.8271 13.7869 14.8271C16.9405 14.8271 19.4971 17.3835 19.4971 20.5373Z" fill="#F9C8A9"/>
<path d="M3.62286 4.29153e-05L7.09018 9.68268H9.01675L5.55954 0.00794506V4.29153e-05H3.62286Z" fill="#AC748C"/>
<path d="M5.55952 4.29153e-05V0.00794506L9.01674 9.68268H10.919L7.46196 0.00794506V4.29153e-05H5.55952Z" fill="#62DADC"/>
<path d="M7.46204 4.29153e-05V0.00794506L10.9191 9.68268H12.8627L9.39534 4.29153e-05H7.46204Z" fill="#FF545F"/>
<path d="M19.1252 20.5373C19.1252 23.4855 16.7353 25.8755 13.7869 25.8755C10.8386 25.8755 8.44865 23.4855 8.44865 20.5373C8.44865 17.589 10.8386 15.1989 13.7869 15.1989C16.7353 15.1989 19.1252 17.589 19.1252 20.5373Z" fill="#FFAD67"/>
<path d="M17.8519 20.5372C17.8519 22.7822 16.0319 24.6021 13.7869 24.6021C11.5418 24.6021 9.72188 22.7822 9.72188 20.5372C9.72188 18.2921 11.5418 16.4722 13.7869 16.4722C16.0319 16.4722 17.8519 18.2921 17.8519 20.5372Z" fill="#BC7546"/>
<path d="M8.98978 18.7591C8.98978 18.7595 8.98993 18.7598 8.98993 18.7602C8.98964 18.785 8.98818 19.1399 9.07699 19.3756C9.16903 19.6201 9.09074 19.9997 9.09074 19.9997C9.09074 19.9997 8.84025 19.7142 8.82254 19.5054C8.80074 19.2542 8.98393 18.774 8.98978 18.7591Z" fill="#BC7546"/>
<path d="M9.04947 18.9662C9.12029 19.1209 9.19315 19.2448 9.25431 19.4293C9.29002 19.537 9.2372 19.8128 9.15672 19.927C9.13038 19.9792 9.09073 19.9997 9.09073 19.9997C9.09073 19.9997 9.16901 19.6201 9.07698 19.3756C8.98816 19.1399 8.98962 18.785 8.98992 18.7602C8.99255 18.7737 9.0126 18.8855 9.04947 18.9662Z" fill="#F9C8A9"/>
<path d="M9.82517 19.1024C9.82488 19.1027 9.82488 19.103 9.82458 19.1033C9.80805 19.1216 9.57262 19.3873 9.48351 19.623C9.39133 19.8674 9.08202 20.1008 9.08202 20.1008C9.08202 20.1008 9.08231 19.7211 9.20683 19.5525C9.35636 19.3494 9.81098 19.1096 9.82517 19.1024Z" fill="#BC7546"/>
<path d="M9.73328 19.2973C9.68441 19.4603 9.65734 19.6014 9.5814 19.7805C9.53707 19.8849 9.31539 20.0572 9.17946 20.0898C9.12533 20.1116 9.08202 20.1008 9.08202 20.1008C9.08202 20.1008 9.39133 19.8674 9.48351 19.623C9.57262 19.3873 9.80805 19.1216 9.82458 19.1033C9.81756 19.1152 9.75889 19.2123 9.73328 19.2973Z" fill="#F9C8A9"/>
<path d="M8.76871 19.6286C8.76871 19.6289 8.76885 19.6292 8.769 19.6295C8.77222 19.6541 8.82284 20.0054 8.94502 20.2257C9.07202 20.4541 9.05022 20.841 9.05022 20.841C9.05022 20.841 8.76051 20.5953 8.71252 20.3914C8.65414 20.146 8.7649 19.6441 8.76871 19.6286Z" fill="#BC7546"/>
<path d="M8.85803 19.8247C8.9508 19.9673 9.04093 20.0793 9.12843 20.2528C9.17964 20.3542 9.16779 20.6347 9.10473 20.7594C9.08644 20.8148 9.0503 20.841 9.0503 20.841C9.0503 20.841 9.0721 20.4541 8.9451 20.2257C8.82292 20.0054 8.77229 19.6541 8.76907 19.6295C8.77361 19.6427 8.80975 19.7503 8.85803 19.8247Z" fill="#F9C8A9"/>
<path d="M9.64557 19.8459C9.64528 19.8462 9.64528 19.8465 9.64499 19.8468C9.63138 19.8674 9.43737 20.1646 9.38381 20.4109C9.32836 20.6662 9.0565 20.9423 9.0565 20.9423C9.0565 20.9423 9.00119 20.5667 9.09966 20.3817C9.21788 20.1589 9.63241 19.8551 9.64557 19.8459Z" fill="#BC7546"/>
<path d="M9.58313 20.0522C9.5587 20.2205 9.55255 20.3642 9.50354 20.5523C9.47515 20.6621 9.28099 20.865 9.15135 20.9171C9.10101 20.9467 9.05653 20.9423 9.05653 20.9423C9.05653 20.9423 9.3284 20.6662 9.38385 20.4108C9.4374 20.1646 9.63142 19.8674 9.64503 19.8468C9.63991 19.8597 9.59601 19.9644 9.58313 20.0522Z" fill="#F9C8A9"/>
<path d="M8.67761 20.5725C8.67776 20.5728 8.67791 20.573 8.67805 20.5734C8.68698 20.5965 8.81749 20.9265 8.98751 21.1126C9.16383 21.3053 9.2323 21.6867 9.2323 21.6867C9.2323 21.6867 8.89358 21.5148 8.79964 21.3275C8.6861 21.1023 8.67761 20.5885 8.67761 20.5725Z" fill="#BC7546"/>
<path d="M8.80987 20.7425C8.93322 20.8599 9.04691 20.9478 9.17215 21.0965C9.24531 21.1831 9.29887 21.4588 9.26639 21.5947C9.26141 21.6529 9.23229 21.6867 9.23229 21.6867C9.23229 21.6867 9.16382 21.3053 8.9875 21.1126C8.81748 20.9265 8.68696 20.5965 8.67804 20.5734C8.6855 20.585 8.74564 20.6814 8.80987 20.7425Z" fill="#F9C8A9"/>
<path d="M9.58086 20.5807C9.58072 20.5811 9.58072 20.5814 9.58057 20.5817C9.57208 20.605 9.45225 20.939 9.45708 21.191C9.4622 21.4522 9.26174 21.7839 9.26174 21.7839C9.26174 21.7839 9.12098 21.4311 9.17395 21.2284C9.23745 20.9842 9.57033 20.5928 9.58086 20.5807Z" fill="#BC7546"/>
<path d="M9.56791 20.7959C9.58312 20.9654 9.61049 21.1064 9.60639 21.3009C9.6042 21.4143 9.46227 21.6566 9.34828 21.7373C9.30614 21.7777 9.26181 21.7839 9.26181 21.7839C9.26181 21.7839 9.46227 21.4522 9.45715 21.191C9.45232 20.939 9.57215 20.605 9.58064 20.5817C9.57859 20.5955 9.56015 20.7076 9.56791 20.7959Z" fill="#F9C8A9"/>
<path d="M8.78415 21.4576C8.7843 21.4581 8.78459 21.4581 8.78473 21.4585C8.796 21.4805 8.96207 21.7942 9.15155 21.9604C9.34791 22.1326 9.4578 22.5042 9.4578 22.5042C9.4578 22.5042 9.10239 22.3705 8.98841 22.1948C8.85072 21.9833 8.7859 21.4736 8.78415 21.4576Z" fill="#BC7546"/>
<path d="M8.93453 21.6123C9.06988 21.7153 9.19249 21.7902 9.3334 21.9241C9.41563 22.0022 9.49903 22.2704 9.48177 22.409C9.48323 22.4674 9.45792 22.5042 9.45792 22.5042C9.45792 22.5042 9.34803 22.1326 9.15167 21.9604C8.96219 21.7942 8.79612 21.4805 8.78485 21.4585C8.79348 21.4692 8.86386 21.5584 8.93453 21.6123Z" fill="#F9C8A9"/>
<path d="M9.68289 21.3666C9.68274 21.367 9.68289 21.3673 9.68274 21.3678C9.67674 21.3918 9.59436 21.7369 9.62685 21.9868C9.66065 22.2458 9.49779 22.5976 9.49779 22.5976C9.49779 22.5976 9.31914 22.2625 9.34957 22.0552C9.38586 21.8056 9.67367 21.3798 9.68289 21.3666Z" fill="#BC7546"/>
<path d="M9.69356 21.582C9.72722 21.7488 9.76994 21.8859 9.78735 22.0796C9.79745 22.1926 9.68317 22.4491 9.57856 22.5418C9.5411 22.5866 9.49779 22.5976 9.49779 22.5976C9.49779 22.5976 9.66064 22.2458 9.62684 21.9868C9.59436 21.7369 9.67674 21.3918 9.68274 21.3678C9.68215 21.3815 9.67615 21.4949 9.69356 21.582Z" fill="#F9C8A9"/>
<path d="M9.01926 22.3257C9.01955 22.3262 9.01984 22.3262 9.01999 22.3264C9.03521 22.3461 9.25659 22.6235 9.47358 22.7516C9.69847 22.8845 9.87537 23.2292 9.87537 23.2292C9.87537 23.2292 9.50123 23.1638 9.35667 23.0122C9.18226 22.8301 9.02409 22.3411 9.01926 22.3257Z" fill="#BC7546"/>
<path d="M9.19562 22.4498C9.34779 22.526 9.48211 22.5768 9.6454 22.6825C9.7408 22.7439 9.87249 22.9919 9.88127 23.1314C9.89341 23.1884 9.87541 23.2292 9.87541 23.2292C9.87541 23.2292 9.69851 22.8845 9.47362 22.7516C9.25663 22.6235 9.03525 22.3461 9.02003 22.3264C9.03072 22.3354 9.11631 22.41 9.19562 22.4498Z" fill="#F9C8A9"/>
<path d="M9.88561 22.0698C9.88561 22.0702 9.88576 22.0704 9.88576 22.0708C9.88429 22.0955 9.86732 22.4501 9.9456 22.6896C10.027 22.9378 9.93214 23.3135 9.93214 23.3135C9.93214 23.3135 9.69437 23.0173 9.68589 22.8081C9.67506 22.556 9.87917 22.0844 9.88561 22.0698Z" fill="#BC7546"/>
<path d="M9.93616 22.2793C10.0001 22.4369 10.0674 22.5639 10.1204 22.7509C10.1514 22.86 10.0866 23.1332 10.0011 23.2438C9.97259 23.2947 9.93206 23.3135 9.93206 23.3135C9.93206 23.3135 10.0269 22.9378 9.94552 22.6896C9.86724 22.4501 9.88421 22.0955 9.88567 22.0708C9.88772 22.0844 9.90279 22.1971 9.93616 22.2793Z" fill="#F9C8A9"/>
<path d="M9.38596 23.1218C9.38625 23.1221 9.38654 23.1221 9.38683 23.1224C9.40527 23.1389 9.67171 23.3734 9.90773 23.4616C10.1525 23.553 10.3871 23.8614 10.3871 23.8614C10.3871 23.8614 10.0072 23.8626 9.83837 23.7386C9.6347 23.5897 9.39327 23.1361 9.38596 23.1218Z" fill="#BC7546"/>
<path d="M9.58138 23.2131C9.74437 23.2614 9.88572 23.288 10.065 23.3632C10.1696 23.4071 10.3425 23.6282 10.3757 23.764C10.3977 23.8181 10.3871 23.8615 10.3871 23.8615C10.3871 23.8615 10.1526 23.553 9.90781 23.4616C9.6718 23.3734 9.40535 23.1389 9.38692 23.1224C9.39877 23.1294 9.49622 23.1878 9.58138 23.2131Z" fill="#F9C8A9"/>
<path d="M10.194 22.7181C10.194 22.7186 10.1943 22.7187 10.1943 22.7191C10.1972 22.7437 10.2426 23.0958 10.3617 23.3177C10.4852 23.5481 10.4575 23.9345 10.4575 23.9345C10.4575 23.9345 10.1716 23.6846 10.1265 23.48C10.072 23.2338 10.1902 22.7337 10.194 22.7181Z" fill="#BC7546"/>
<path d="M10.2804 22.9155C10.371 23.0595 10.4595 23.1727 10.5444 23.3476C10.5941 23.4497 10.5781 23.7301 10.5132 23.8539C10.4942 23.909 10.4575 23.9345 10.4575 23.9345C10.4575 23.9345 10.4851 23.5481 10.3616 23.3177C10.2425 23.0958 10.1972 22.7437 10.1943 22.7191C10.1986 22.7322 10.2332 22.8404 10.2804 22.9155Z" fill="#F9C8A9"/>
<path d="M9.98586 23.9166C9.98629 23.9168 9.98659 23.9168 9.98688 23.9169C10.0087 23.9285 10.3244 24.0909 10.5748 24.119C10.8345 24.148 11.1371 24.39 11.1371 24.39C11.1371 24.39 10.769 24.4835 10.5749 24.4044C10.3411 24.3098 9.99654 23.9286 9.98586 23.9166Z" fill="#BC7546"/>
<path d="M10.1977 23.9575C10.3677 23.9647 10.5111 23.956 10.7032 23.9853C10.8154 24.0024 11.0371 24.1746 11.1024 24.2983C11.1369 24.3452 11.1372 24.39 11.1372 24.39C11.1372 24.39 10.8346 24.148 10.5749 24.119C10.3245 24.0909 10.0088 23.9285 9.98698 23.9169C10.0003 23.9208 10.109 23.9537 10.1977 23.9575Z" fill="#F9C8A9"/>
<path d="M10.6711 23.3281C10.6712 23.3284 10.6715 23.3286 10.6716 23.329C10.6804 23.3522 10.8102 23.6825 10.9798 23.8688C11.1557 24.0621 11.2233 24.4437 11.2233 24.4437C11.2233 24.4437 10.885 24.2709 10.7915 24.0835C10.6784 23.858 10.6712 23.3441 10.6711 23.3281Z" fill="#BC7546"/>
<path d="M10.8031 23.4986C10.9261 23.6161 11.0395 23.7043 11.1645 23.8533C11.2375 23.9401 11.2903 24.2158 11.2577 24.3518C11.2525 24.4099 11.2233 24.4437 11.2233 24.4437C11.2233 24.4437 11.1557 24.0621 10.9798 23.8688C10.8102 23.6825 10.6804 23.3522 10.6717 23.329C10.6791 23.3407 10.739 23.4372 10.8031 23.4986Z" fill="#F9C8A9"/>
<path d="M10.6401 24.4858C10.6405 24.4861 10.6408 24.4859 10.6411 24.4862C10.6634 24.4969 10.9847 24.6478 11.2361 24.6667C11.4965 24.6861 11.8077 24.917 11.8077 24.917C11.8077 24.917 11.4434 25.0239 11.2466 24.952C11.0094 24.8658 10.6512 24.4975 10.6401 24.4858Z" fill="#BC7546"/>
<path d="M10.8531 24.519C11.0233 24.5199 11.1662 24.5061 11.3593 24.5284C11.472 24.5414 11.7 24.7054 11.7695 24.8266C11.8058 24.8724 11.8077 24.917 11.8077 24.917C11.8077 24.917 11.4964 24.6861 11.236 24.6667C10.9846 24.6478 10.6633 24.4969 10.6411 24.4862C10.6545 24.4895 10.7644 24.5184 10.8531 24.519Z" fill="#F9C8A9"/>
<path d="M11.3035 23.8729C11.3036 23.8732 11.3039 23.8733 11.3041 23.8737C11.3137 23.8964 11.4553 24.222 11.6317 24.402C11.8144 24.5886 11.8958 24.9675 11.8958 24.9675C11.8958 24.9675 11.5515 24.8073 11.4511 24.6233C11.3299 24.4021 11.3041 23.8888 11.3035 23.8729Z" fill="#BC7546"/>
<path d="M11.4417 24.0383C11.5688 24.1513 11.6855 24.2354 11.8157 24.3797C11.8918 24.4639 11.9545 24.7375 11.9269 24.8744C11.924 24.9328 11.8959 24.9675 11.8959 24.9675C11.8959 24.9675 11.8145 24.5886 11.6318 24.402C11.4554 24.222 11.3138 23.8964 11.3042 23.8737C11.3121 23.885 11.3754 23.9794 11.4417 24.0383Z" fill="#F9C8A9"/>
<path d="M11.4807 25.0256C11.4812 25.0256 11.4815 25.0254 11.4819 25.0256C11.5062 25.0298 11.8563 25.0885 12.1033 25.0389C12.3595 24.9874 12.7214 25.1258 12.7214 25.1258C12.7214 25.1258 12.3993 25.327 12.1905 25.3109C11.9389 25.2919 11.4945 25.0338 11.4807 25.0256Z" fill="#BC7546"/>
<path d="M11.6949 24.9999C11.8591 24.955 11.993 24.9031 12.1851 24.8725C12.297 24.8545 12.5607 24.9512 12.6605 25.0491C12.7076 25.0833 12.7215 25.1258 12.7215 25.1258C12.7215 25.1258 12.3597 24.9873 12.1035 25.0388C11.8565 25.0884 11.5063 25.0298 11.482 25.0255C11.4958 25.0251 11.6093 25.0233 11.6949 24.9999Z" fill="#F9C8A9"/>
<path d="M12.4676 25.3699C12.4681 25.3699 12.4682 25.3698 12.4686 25.3698C12.4934 25.3699 12.8483 25.369 13.0836 25.2789C13.3275 25.1852 13.7075 25.2611 13.7075 25.2611C13.7075 25.2611 13.4237 25.5134 13.215 25.5323C12.9639 25.5557 12.4825 25.3756 12.4676 25.3699Z" fill="#BC7546"/>
<path d="M12.6744 25.3089C12.8286 25.237 12.9521 25.1634 13.1362 25.101C13.2437 25.0646 13.5198 25.1157 13.6345 25.1956C13.6868 25.2215 13.7076 25.261 13.7076 25.261C13.7076 25.261 13.3276 25.1852 13.0837 25.2789C12.8484 25.369 12.4934 25.3698 12.4687 25.3697C12.4823 25.3669 12.5939 25.3463 12.6744 25.3089Z" fill="#F9C8A9"/>
<path d="M11.9543 24.2562C11.9546 24.2567 11.9549 24.2567 11.9552 24.257C11.9706 24.2763 12.1949 24.5515 12.413 24.6774C12.6395 24.8078 12.8199 25.1507 12.8199 25.1507C12.8199 25.1507 12.4452 25.0892 12.2991 24.9391C12.1226 24.7589 11.9593 24.2716 11.9543 24.2562Z" fill="#BC7546"/>
<path d="M12.132 24.3784C12.285 24.453 12.4199 24.5025 12.5842 24.6062C12.6802 24.6668 12.8145 24.9134 12.8248 25.0528C12.8375 25.1097 12.8199 25.1507 12.8199 25.1507C12.8199 25.1507 12.6395 24.8078 12.413 24.6774C12.1949 24.5515 11.9706 24.2763 11.9552 24.257C11.9657 24.2659 12.0522 24.3395 12.132 24.3784Z" fill="#F9C8A9"/>
<path d="M12.7917 24.6188C12.7918 24.6191 12.7921 24.6191 12.7924 24.6194C12.8086 24.6336 13.0439 24.8367 13.2514 24.9119C13.4663 24.9899 13.6743 25.2579 13.6743 25.2579C13.6743 25.2579 13.3418 25.262 13.1929 25.1551C13.0133 25.0265 12.7981 24.6312 12.7917 24.6188Z" fill="#BC7546"/>
<path d="M12.9633 24.697C13.1065 24.738 13.2305 24.76 13.388 24.8245C13.4799 24.8619 13.6334 25.0541 13.6634 25.1727C13.6832 25.2198 13.6742 25.2579 13.6742 25.2579C13.6742 25.2579 13.4663 24.9898 13.2514 24.9118C13.0439 24.8366 12.8086 24.6335 12.7924 24.6194C12.8029 24.6254 12.8887 24.6757 12.9633 24.697Z" fill="#F9C8A9"/>
<path d="M13.1591 25.5937C13.1592 25.5935 13.1592 25.5934 13.1595 25.5934C13.1709 25.5877 13.3349 25.506 13.423 25.4105C13.5143 25.3113 13.7075 25.2594 13.7075 25.2594C13.7075 25.2594 13.634 25.4409 13.5418 25.4976C13.4311 25.5659 13.1673 25.593 13.1591 25.5937Z" fill="#BC7546"/>
<path d="M13.2407 25.518C13.2955 25.4496 13.3358 25.3873 13.4067 25.3163C13.448 25.2747 13.5874 25.2351 13.6588 25.2458C13.6888 25.2458 13.7076 25.2594 13.7076 25.2594C13.7076 25.2594 13.5144 25.3113 13.4231 25.4105C13.335 25.506 13.171 25.5877 13.1596 25.5934C13.1652 25.589 13.2121 25.5538 13.2407 25.518Z" fill="#F9C8A9"/>
<path d="M18.584 18.7591C18.584 18.7595 18.5839 18.7598 18.5839 18.7602C18.5842 18.785 18.5857 19.1399 18.4968 19.3756C18.4048 19.6201 18.4831 19.9997 18.4831 19.9997C18.4831 19.9997 18.7336 19.7142 18.7513 19.5054C18.7729 19.2542 18.5899 18.774 18.584 18.7591Z" fill="#BC7546"/>
<path d="M18.5245 18.9662C18.4537 19.1209 18.3808 19.2448 18.3197 19.4293C18.284 19.537 18.3368 19.8128 18.4173 19.927C18.4436 19.9792 18.4832 19.9997 18.4832 19.9997C18.4832 19.9997 18.405 19.6201 18.497 19.3756C18.5858 19.1399 18.5844 18.785 18.5841 18.7602C18.5814 18.7737 18.5614 18.8855 18.5245 18.9662Z" fill="#F9C8A9"/>
<path d="M17.7487 19.1024C17.749 19.1027 17.749 19.103 17.7493 19.1033C17.7658 19.1216 18.0013 19.3873 18.0902 19.623C18.1826 19.8674 18.4919 20.1008 18.4919 20.1008C18.4919 20.1008 18.4916 19.7211 18.3671 19.5525C18.2175 19.3494 17.7629 19.1096 17.7487 19.1024Z" fill="#BC7546"/>
<path d="M17.8405 19.2973C17.8894 19.4603 17.9165 19.6014 17.9924 19.7805C18.0368 19.8849 18.2584 20.0572 18.3944 20.0898C18.4485 20.1116 18.4918 20.1008 18.4918 20.1008C18.4918 20.1008 18.1825 19.8674 18.0902 19.623C18.0012 19.3873 17.7658 19.1216 17.7492 19.1033C17.7561 19.1152 17.8149 19.2123 17.8405 19.2973Z" fill="#F9C8A9"/>
<path d="M18.8051 19.6286C18.8051 19.6289 18.8048 19.6292 18.8048 19.6295C18.8016 19.6541 18.751 20.0054 18.6287 20.2257C18.5018 20.4541 18.5236 20.841 18.5236 20.841C18.5236 20.841 18.8132 20.5953 18.8613 20.3914C18.9197 20.146 18.8088 19.6441 18.8051 19.6286Z" fill="#BC7546"/>
<path d="M18.7158 19.8247C18.6231 19.9673 18.5328 20.0793 18.4453 20.2528C18.3942 20.3542 18.4061 20.6347 18.469 20.7594C18.4874 20.8148 18.5236 20.841 18.5236 20.841C18.5236 20.841 18.5018 20.4541 18.6286 20.2257C18.751 20.0054 18.8016 19.6541 18.8048 19.6295C18.8003 19.6427 18.7641 19.7503 18.7158 19.8247Z" fill="#F9C8A9"/>
<path d="M17.9283 19.8459C17.9286 19.8462 17.9286 19.8465 17.9288 19.8468C17.9425 19.8674 18.1366 20.1646 18.1901 20.4109C18.2456 20.6662 18.5174 20.9423 18.5174 20.9423C18.5174 20.9423 18.5727 20.5667 18.4741 20.3817C18.3559 20.1589 17.9414 19.8551 17.9283 19.8459Z" fill="#BC7546"/>
<path d="M17.9908 20.0522C18.0152 20.2205 18.0214 20.3642 18.0703 20.5523C18.0988 20.6621 18.293 20.865 18.4226 20.9171C18.4729 20.9467 18.5174 20.9423 18.5174 20.9423C18.5174 20.9423 18.2455 20.6662 18.1901 20.4108C18.1365 20.1646 17.9425 19.8674 17.9288 19.8468C17.934 19.8597 17.9779 19.9644 17.9908 20.0522Z" fill="#F9C8A9"/>
<path d="M18.8963 20.5725C18.8961 20.5728 18.8959 20.573 18.8959 20.5734C18.8869 20.5965 18.7564 20.9265 18.5864 21.1126C18.4099 21.3053 18.3416 21.6867 18.3416 21.6867C18.3416 21.6867 18.6802 21.5148 18.7743 21.3275C18.8878 21.1023 18.8963 20.5885 18.8963 20.5725Z" fill="#BC7546"/>
<path d="M18.7638 20.7425C18.6406 20.8599 18.5269 20.9478 18.4017 21.0965C18.3285 21.1831 18.2749 21.4588 18.3074 21.5947C18.3124 21.6529 18.3415 21.6867 18.3415 21.6867C18.3415 21.6867 18.4099 21.3053 18.5863 21.1126C18.7563 20.9265 18.8869 20.5965 18.8958 20.5734C18.8882 20.585 18.828 20.6814 18.7638 20.7425Z" fill="#F9C8A9"/>
<path d="M17.993 20.5807C17.9932 20.5811 17.993 20.5814 17.9933 20.5817C18.0018 20.605 18.1216 20.939 18.1168 21.191C18.1115 21.4522 18.3121 21.7839 18.3121 21.7839C18.3121 21.7839 18.4529 21.4311 18.3999 21.2284C18.3364 20.9842 18.0035 20.5928 17.993 20.5807Z" fill="#BC7546"/>
<path d="M18.0059 20.7959C17.9908 20.9654 17.9634 21.1064 17.9675 21.3009C17.9697 21.4143 18.1115 21.6566 18.2256 21.7373C18.2678 21.7777 18.3121 21.7839 18.3121 21.7839C18.3121 21.7839 18.1115 21.4522 18.1168 21.191C18.1216 20.939 18.0018 20.605 17.9933 20.5817C17.9952 20.5955 18.0138 20.7076 18.0059 20.7959Z" fill="#F9C8A9"/>
<path d="M18.7897 21.4576C18.7895 21.4581 18.7892 21.4581 18.7891 21.4585C18.7777 21.4805 18.6118 21.7942 18.4223 21.9604C18.2258 22.1326 18.116 22.5042 18.116 22.5042C18.116 22.5042 18.4714 22.3705 18.5854 22.1948C18.7231 21.9833 18.7879 21.4736 18.7897 21.4576Z" fill="#BC7546"/>
<path d="M18.6394 21.6123C18.5041 21.7153 18.3814 21.7902 18.2405 21.9241C18.1583 22.0022 18.0749 22.2704 18.092 22.409C18.0907 22.4674 18.116 22.5042 18.116 22.5042C18.116 22.5042 18.2258 22.1326 18.4223 21.9604C18.6117 21.7942 18.7777 21.4805 18.7891 21.4585C18.7803 21.4692 18.7099 21.5584 18.6394 21.6123Z" fill="#F9C8A9"/>
<path d="M17.8911 21.3666C17.8912 21.367 17.8911 21.3673 17.8912 21.3678C17.8972 21.3918 17.9796 21.7369 17.9471 21.9868C17.9132 22.2458 18.076 22.5976 18.076 22.5976C18.076 22.5976 18.2548 22.2625 18.2244 22.0552C18.1881 21.8056 17.9003 21.3798 17.8911 21.3666Z" fill="#BC7546"/>
<path d="M17.8803 21.582C17.8465 21.7488 17.804 21.8859 17.7866 22.0796C17.7763 22.1926 17.8907 22.4491 17.9952 22.5418C18.0327 22.5866 18.076 22.5976 18.076 22.5976C18.076 22.5976 17.9131 22.2458 17.9471 21.9868C17.9796 21.7369 17.8972 21.3918 17.8912 21.3678C17.8918 21.3815 17.8978 21.4949 17.8803 21.582Z" fill="#F9C8A9"/>
<path d="M18.5544 22.3257C18.5543 22.3262 18.554 22.3262 18.5537 22.3264C18.5385 22.3461 18.3172 22.6235 18.1002 22.7516C17.8752 22.8845 17.6984 23.2292 17.6984 23.2292C17.6984 23.2292 18.0724 23.1638 18.2171 23.0122C18.3916 22.8301 18.5497 22.3411 18.5544 22.3257Z" fill="#BC7546"/>
<path d="M18.3783 22.4498C18.2262 22.526 18.0917 22.5768 17.9284 22.6825C17.8332 22.7439 17.7015 22.9919 17.6927 23.1314C17.6805 23.1884 17.6985 23.2292 17.6985 23.2292C17.6985 23.2292 17.8753 22.8845 18.1003 22.7516C18.3173 22.6235 18.5386 22.3461 18.5538 22.3264C18.5432 22.3354 18.4576 22.41 18.3783 22.4498Z" fill="#F9C8A9"/>
<path d="M17.6883 22.0698C17.6885 22.0702 17.6882 22.0704 17.6883 22.0708C17.6898 22.0955 17.7068 22.4501 17.6283 22.6896C17.5471 22.9378 17.6419 23.3135 17.6419 23.3135C17.6419 23.3135 17.8797 23.0173 17.8882 22.8081C17.8989 22.556 17.6949 22.0844 17.6883 22.0698Z" fill="#BC7546"/>
<path d="M17.6377 22.2793C17.5737 22.4369 17.5063 22.5639 17.4535 22.7509C17.4224 22.86 17.4873 23.1332 17.5727 23.2438C17.6012 23.2947 17.6418 23.3135 17.6418 23.3135C17.6418 23.3135 17.547 22.9378 17.6282 22.6896C17.7066 22.4501 17.6896 22.0955 17.6881 22.0708C17.6861 22.0844 17.671 22.1971 17.6377 22.2793Z" fill="#F9C8A9"/>
<path d="M18.1879 23.1218C18.1876 23.1221 18.1873 23.1221 18.187 23.1224C18.1686 23.1389 17.9021 23.3734 17.6661 23.4616C17.4213 23.553 17.1868 23.8614 17.1868 23.8614C17.1868 23.8614 17.5666 23.8626 17.7355 23.7386C17.9392 23.5897 18.1806 23.1361 18.1879 23.1218Z" fill="#BC7546"/>
<path d="M17.9926 23.2131C17.8294 23.2614 17.6882 23.288 17.509 23.3632C17.4044 23.4071 17.2313 23.6282 17.1982 23.764C17.1763 23.8181 17.1868 23.8615 17.1868 23.8615C17.1868 23.8615 17.4214 23.553 17.6661 23.4616C17.9022 23.3734 18.1686 23.1389 18.187 23.1224C18.175 23.1294 18.0777 23.1878 17.9926 23.2131Z" fill="#F9C8A9"/>
<path d="M17.3798 22.7181C17.3798 22.7186 17.3795 22.7187 17.3795 22.7191C17.3766 22.7437 17.3312 23.0958 17.2121 23.3177C17.0886 23.5481 17.1162 23.9345 17.1162 23.9345C17.1162 23.9345 17.4022 23.6846 17.4471 23.48C17.5018 23.2338 17.3836 22.7337 17.3798 22.7181Z" fill="#BC7546"/>
<path d="M17.2935 22.9155C17.2029 23.0595 17.1142 23.1727 17.0294 23.3476C16.9798 23.4497 16.9957 23.7301 17.0605 23.8539C17.0797 23.909 17.1163 23.9345 17.1163 23.9345C17.1163 23.9345 17.0888 23.5481 17.2123 23.3177C17.3314 23.0958 17.3767 22.7437 17.3797 22.7191C17.3753 22.7322 17.3406 22.8404 17.2935 22.9155Z" fill="#F9C8A9"/>
<path d="M17.5881 23.9166C17.5876 23.9168 17.5873 23.9168 17.587 23.9169C17.5651 23.9285 17.2495 24.0909 16.9991 24.119C16.7394 24.148 16.4368 24.39 16.4368 24.39C16.4368 24.39 16.8048 24.4835 16.999 24.4044C17.2327 24.3098 17.5774 23.9286 17.5881 23.9166Z" fill="#BC7546"/>
<path d="M17.3763 23.9575C17.2063 23.9647 17.0629 23.956 16.8707 23.9853C16.7586 24.0024 16.5369 24.1746 16.4717 24.2983C16.4371 24.3452 16.4368 24.39 16.4368 24.39C16.4368 24.39 16.7394 24.148 16.9991 24.119C17.2495 24.0909 17.5651 23.9285 17.587 23.9169C17.5737 23.9208 17.465 23.9537 17.3763 23.9575Z" fill="#F9C8A9"/>
<path d="M16.9027 23.3281C16.9026 23.3284 16.9024 23.3286 16.9023 23.329C16.8935 23.3522 16.7636 23.6825 16.5941 23.8688C16.4181 24.0621 16.3507 24.4437 16.3507 24.4437C16.3507 24.4437 16.689 24.2709 16.7824 24.0835C16.8956 23.858 16.9027 23.3441 16.9027 23.3281Z" fill="#BC7546"/>
<path d="M16.7708 23.4986C16.6478 23.6161 16.5344 23.7043 16.4094 23.8533C16.3364 23.9401 16.2836 24.2158 16.3162 24.3518C16.3213 24.4099 16.3506 24.4437 16.3506 24.4437C16.3506 24.4437 16.4181 24.0621 16.5941 23.8688C16.7635 23.6825 16.8935 23.3522 16.9022 23.329C16.8948 23.3407 16.8349 23.4372 16.7708 23.4986Z" fill="#F9C8A9"/>
<path d="M16.9338 24.4858C16.9335 24.4861 16.9332 24.4859 16.9329 24.4862C16.9105 24.4969 16.5892 24.6478 16.3379 24.6667C16.0775 24.6861 15.7663 24.917 15.7663 24.917C15.7663 24.917 16.1306 25.0239 16.3274 24.952C16.5644 24.8658 16.9228 24.4975 16.9338 24.4858Z" fill="#BC7546"/>
<path d="M16.7209 24.519C16.5507 24.5199 16.4076 24.5061 16.2146 24.5284C16.1018 24.5414 15.874 24.7054 15.8043 24.8266C15.7682 24.8724 15.7663 24.917 15.7663 24.917C15.7663 24.917 16.0775 24.6861 16.3379 24.6667C16.5892 24.6478 16.9105 24.4969 16.9329 24.4862C16.9194 24.4895 16.8095 24.5184 16.7209 24.519Z" fill="#F9C8A9"/>
<path d="M16.2704 23.8729C16.2703 23.8732 16.27 23.8733 16.2698 23.8737C16.2602 23.8964 16.1184 24.222 15.9422 24.402C15.7595 24.5886 15.6781 24.9675 15.6781 24.9675C15.6781 24.9675 16.0224 24.8073 16.1226 24.6233C16.2439 24.4021 16.2698 23.8888 16.2704 23.8729Z" fill="#BC7546"/>
<path d="M16.1322 24.0383C16.0051 24.1513 15.8885 24.2354 15.7582 24.3797C15.682 24.4639 15.6192 24.7375 15.647 24.8744C15.65 24.9328 15.6781 24.9675 15.6781 24.9675C15.6781 24.9675 15.7594 24.5886 15.9422 24.402C16.1183 24.222 16.2601 23.8964 16.2698 23.8737C16.2619 23.885 16.1985 23.9794 16.1322 24.0383Z" fill="#F9C8A9"/>
<path d="M16.093 25.0256C16.0927 25.0256 16.0924 25.0254 16.0919 25.0256C16.0677 25.0298 15.7175 25.0885 15.4705 25.0389C15.2143 24.9874 14.8525 25.1258 14.8525 25.1258C14.8525 25.1258 15.1745 25.327 15.3833 25.3109C15.6348 25.2919 16.0792 25.0338 16.093 25.0256Z" fill="#BC7546"/>
<path d="M15.8789 24.9999C15.7149 24.955 15.5809 24.9031 15.3889 24.8725C15.2769 24.8545 15.0133 24.9512 14.9135 25.0491C14.8662 25.0833 14.8525 25.1258 14.8525 25.1258C14.8525 25.1258 15.2143 24.9873 15.4705 25.0388C15.7175 25.0884 16.0677 25.0298 16.0919 25.0255C16.0782 25.0251 15.9646 25.0233 15.8789 24.9999Z" fill="#F9C8A9"/>
<path d="M15.6194 24.2562C15.6192 24.2567 15.619 24.2567 15.6187 24.257C15.6033 24.2763 15.379 24.5515 15.1607 24.6774C14.9343 24.8078 14.7539 25.1507 14.7539 25.1507C14.7539 25.1507 15.1286 25.0892 15.2748 24.9391C15.4511 24.7589 15.6146 24.2716 15.6194 24.2562Z" fill="#BC7546"/>
<path d="M15.442 24.3784C15.2889 24.453 15.154 24.5025 14.9897 24.6062C14.8937 24.6668 14.7594 24.9134 14.7492 25.0528C14.7365 25.1097 14.754 25.1507 14.754 25.1507C14.754 25.1507 14.9344 24.8078 15.1608 24.6774C15.3791 24.5515 15.6034 24.2763 15.6188 24.257C15.6081 24.2659 15.5217 24.3395 15.442 24.3784Z" fill="#F9C8A9"/>
<path d="M15.2401 25.3679C15.2398 25.3679 15.2395 25.3678 15.2391 25.3678C15.2144 25.3678 14.8594 25.3646 14.6249 25.2727C14.3815 25.1774 14.0011 25.2506 14.0011 25.2506C14.0011 25.2506 14.2831 25.5049 14.4917 25.5252C14.7426 25.5504 15.2252 25.3737 15.2401 25.3679Z" fill="#BC7546"/>
<path d="M15.0338 25.3056C14.8802 25.2326 14.7573 25.1582 14.5735 25.0947C14.4662 25.0575 14.1898 25.1066 14.0746 25.1856C14.0222 25.2113 14.0011 25.2506 14.0011 25.2506C14.0011 25.2506 14.3815 25.1775 14.6249 25.2727C14.8594 25.3646 15.2144 25.3678 15.2391 25.3678C15.2256 25.365 15.114 25.3435 15.0338 25.3056Z" fill="#F9C8A9"/>
<path d="M14.7822 24.6188C14.7819 24.6191 14.7817 24.6191 14.7814 24.6194C14.7652 24.6336 14.5299 24.8367 14.3224 24.9119C14.1073 24.9899 13.8994 25.2579 13.8994 25.2579C13.8994 25.2579 14.232 25.262 14.381 25.1551C14.5605 25.0265 14.7757 24.6312 14.7822 24.6188Z" fill="#BC7546"/>
<path d="M14.6105 24.697C14.4672 24.738 14.3434 24.76 14.1859 24.8245C14.0938 24.8619 13.9405 25.0541 13.9103 25.1727C13.8906 25.2198 13.8995 25.2579 13.8995 25.2579C13.8995 25.2579 14.1074 24.9898 14.3225 24.9118C14.53 24.8366 14.7653 24.6335 14.7815 24.6194C14.771 24.6254 14.6853 24.6757 14.6105 24.697Z" fill="#F9C8A9"/>
<path d="M14.4148 25.5937C14.4146 25.5935 14.4146 25.5934 14.4143 25.5934C14.4029 25.5877 14.2389 25.506 14.1508 25.4105C14.0594 25.3113 13.8664 25.2594 13.8664 25.2594C13.8664 25.2594 13.9398 25.4409 14.032 25.4976C14.1428 25.5659 14.4066 25.593 14.4148 25.5937Z" fill="#BC7546"/>
<path d="M14.3331 25.518C14.2783 25.4496 14.2382 25.3873 14.1672 25.3163C14.1258 25.2747 13.9865 25.2351 13.9151 25.2458C13.885 25.2458 13.8664 25.2594 13.8664 25.2594C13.8664 25.2594 14.0594 25.3113 14.1508 25.4105C14.2389 25.506 14.4029 25.5877 14.4143 25.5934C14.4088 25.589 14.3618 25.5538 14.3331 25.518Z" fill="#F9C8A9"/>
<path d="M11.3869 13.1644C8.7198 13.7033 6.69563 15.2943 5.55127 17.2238C4.60854 18.8115 4.47481 20.0882 4.87338 21.6022C6.79908 29.234 9.53363 25.2222 13.2078 28.9409C13.2393 28.9735 13.2343 29.0148 13.2083 29.0394L12.9288 29.3019C12.9032 29.326 12.8618 29.3277 12.834 29.299C10.5684 27.0305 8.81096 27.8939 7.00875 26.6364C5.47885 25.5557 4.81661 23.2988 4.39931 21.4211C3.99254 19.5804 4.5446 17.9368 5.71632 16.3919C5.78641 16.2963 6.00764 16.0335 6.04422 15.9925C7.48166 14.427 9.16037 13.4201 11.3869 13.1644Z" fill="#BC7546"/>
<path d="M3.50927 15.3233C3.50912 15.3247 3.50956 15.3254 3.50927 15.3266C3.49683 15.4032 3.3293 16.5049 3.49639 17.2779C3.66993 18.0794 3.25248 19.2219 3.25248 19.2219C3.25248 19.2219 2.60575 18.2205 2.64687 17.5641C2.69486 16.7737 3.4841 15.3668 3.50927 15.3233Z" fill="#BC7546"/>
<path d="M3.59922 15.9939C3.74817 16.5068 3.91746 16.925 4.02237 17.5262C4.08382 17.8769 3.79309 18.7089 3.4905 19.0265C3.385 19.1764 3.25244 19.2219 3.25244 19.2219C3.25244 19.2219 3.66989 18.0794 3.49635 17.2779C3.32926 16.5049 3.49679 15.4032 3.50923 15.3266C3.51113 15.37 3.52196 15.7263 3.59922 15.9939Z" fill="#F9C8A9"/>
<path d="M5.19476 16.6542C5.19417 16.6554 5.19461 16.6561 5.19403 16.6575C5.16813 16.7306 4.80775 17.7848 4.83496 18.5754C4.86349 19.3949 4.24983 20.4451 4.24983 20.4451C4.24983 20.4451 3.79127 19.3449 3.94827 18.7062C4.13571 17.9369 5.16213 16.6924 5.19476 16.6542Z" fill="#BC7546"/>
<path d="M5.16415 17.3301C5.21975 17.8612 5.31208 18.3028 5.30856 18.9131C5.30681 19.2691 4.87297 20.0364 4.51874 20.2952C4.38837 20.4239 4.2498 20.4451 4.2498 20.4451C4.2498 20.4451 4.86346 19.3949 4.83493 18.5754C4.80771 17.7848 5.1681 16.7306 5.194 16.6575C5.18829 16.7005 5.13561 17.0531 5.16415 17.3301Z" fill="#F9C8A9"/>
<path d="M1.83444 17.4274C1.83488 17.4284 1.83561 17.4287 1.83605 17.4297C1.86429 17.4894 2.27867 18.342 2.76898 18.8031C3.27758 19.2808 3.53671 20.2828 3.53671 20.2828C3.53671 20.2828 2.60013 19.8934 2.31203 19.4136C1.96408 18.8367 1.83781 17.4699 1.83444 17.4274Z" fill="#BC7546"/>
<path d="M2.22116 17.8537C2.57306 18.1411 2.8935 18.3524 3.25725 18.723C3.4697 18.939 3.66767 19.6624 3.60899 20.031C3.60753 20.1869 3.53657 20.2828 3.53657 20.2828C3.53657 20.2828 3.27744 19.2808 2.76883 18.8031C2.27852 18.342 1.86415 17.4894 1.83591 17.4297C1.85815 17.4591 2.03768 17.7036 2.22116 17.8537Z" fill="#F9C8A9"/>
<path d="M1.54178 19.8492C1.54236 19.8501 1.54324 19.8503 1.54397 19.8513C1.58787 19.9053 2.22626 20.6754 2.84445 21.0249C3.48548 21.387 4.00213 22.3491 4.00213 22.3491C4.00213 22.3491 2.94468 22.1846 2.52914 21.7653C2.02785 21.2612 1.55583 19.8921 1.54178 19.8492Z" fill="#BC7546"/>
<path d="M2.04516 20.1893C2.47797 20.3956 2.85928 20.5318 3.32501 20.8204C3.59687 20.9886 3.9811 21.6803 4.01344 22.0728C4.0509 22.2329 4.00217 22.3491 4.00217 22.3491C4.00217 22.3491 3.48552 21.387 2.8445 21.0249C2.22631 20.6754 1.58792 19.9053 1.54402 19.8513C1.57416 19.8757 1.81954 20.0814 2.04516 20.1893Z" fill="#F9C8A9"/>
<path d="M3.80242 18.8999C3.80242 18.9013 3.80316 18.902 3.80316 18.9033C3.80842 18.9835 3.89548 20.135 4.24431 20.8767C4.60615 21.6458 4.45047 22.8966 4.45047 22.8966C4.45047 22.8966 3.56436 22.0358 3.45302 21.3634C3.31752 20.5541 3.78706 18.9497 3.80242 18.8999Z" fill="#BC7546"/>
<path d="M4.04952 19.5562C4.31934 20.0395 4.58754 20.4224 4.83335 21.005C4.97718 21.3449 4.87725 22.2528 4.64548 22.6439C4.57393 22.8197 4.45058 22.8966 4.45058 22.8966C4.45058 22.8966 4.60627 21.6458 4.24442 20.8767C3.8956 20.135 3.80854 18.9835 3.80327 18.9033C3.81527 18.9466 3.90906 19.3039 4.04952 19.5562Z" fill="#F9C8A9"/>
<path d="M1.63956 23.6281C1.64087 23.6286 1.64175 23.6282 1.64292 23.6288C1.71872 23.6557 2.8104 24.0319 3.62964 24.0057C4.47902 23.9782 5.56587 24.6167 5.56587 24.6167C5.56587 24.6167 4.42444 25.0892 3.76293 24.925C2.96623 24.7286 1.67921 23.6618 1.63956 23.6281Z" fill="#BC7546"/>
<path d="M2.34 23.6615C2.8906 23.6051 3.34843 23.5106 3.98082 23.5157C4.34984 23.5184 5.14391 23.9699 5.41123 24.3376C5.54424 24.4731 5.56589 24.6168 5.56589 24.6168C5.56589 24.6168 4.47904 23.9782 3.62966 24.0057C2.81042 24.0319 1.71874 23.6558 1.64294 23.6288C1.68757 23.6348 2.05278 23.6904 2.34 23.6615Z" fill="#F9C8A9"/>
<path d="M3.97699 22.4255C3.97758 22.4267 3.9786 22.427 3.97918 22.4281C4.01986 22.4975 4.61435 23.4875 5.25874 23.994C5.92698 24.519 6.34911 25.7068 6.34911 25.7068C6.34911 25.7068 5.17095 25.3349 4.76989 24.7838C4.28572 24.1215 3.98562 22.4769 3.97699 22.4255Z" fill="#BC7546"/>
<path d="M4.49215 22.9013C4.94998 23.2121 5.36158 23.4339 5.84267 23.8444C6.1236 24.0837 6.44155 24.94 6.40995 25.3934C6.42473 25.5828 6.34908 25.7068 6.34908 25.7068C6.34908 25.7068 5.92695 24.519 5.25871 23.994C4.61432 23.4875 4.01983 22.4975 3.97916 22.4281C4.0093 22.4615 4.2535 22.7387 4.49215 22.9013Z" fill="#F9C8A9"/>
<path d="M6.54872 22.1773C6.54887 22.1788 6.54945 22.1794 6.5496 22.1807C6.55589 22.2609 6.65831 23.4111 7.01679 24.1481C7.38874 24.9123 7.24959 26.1651 7.24959 26.1651C7.24959 26.1651 6.35221 25.3162 6.23208 24.6453C6.08577 23.8379 6.53409 22.2274 6.54872 22.1773Z" fill="#BC7546"/>
<path d="M6.80451 22.8304C7.08061 23.31 7.35394 23.6893 7.60751 24.2685C7.75573 24.6065 7.66779 25.5157 7.44129 25.9099C7.37194 26.0867 7.24961 26.1651 7.24961 26.1651C7.24961 26.1651 7.38876 24.9123 7.01682 24.1481C6.65834 23.4111 6.55591 22.2609 6.54962 22.1807C6.5622 22.2239 6.66068 22.58 6.80451 22.8304Z" fill="#F9C8A9"/>
<path d="M8.30212 23.2561C8.30227 23.2574 8.30285 23.2581 8.30285 23.2594C8.30929 23.3396 8.41157 24.4896 8.77019 25.2268C9.14213 25.9909 9.00299 27.2438 9.00299 27.2438C9.00299 27.2438 8.10562 26.3947 7.98549 25.7239C7.83917 24.9165 8.28749 23.3059 8.30212 23.2561Z" fill="#BC7546"/>
<path d="M8.55797 23.9091C8.83407 24.3885 9.10739 24.7678 9.36082 25.3472C9.50918 25.6852 9.42125 26.5943 9.19474 26.9885C9.12539 27.1652 9.00307 27.2438 9.00307 27.2438C9.00307 27.2438 9.14222 25.9909 8.77027 25.2268C8.41165 24.4896 8.30937 23.3396 8.30293 23.2594C8.31566 23.3026 8.41413 23.6585 8.55797 23.9091Z" fill="#F9C8A9"/>
<path d="M3.04915 26.2649C3.05047 26.2652 3.05134 26.2647 3.05266 26.265C3.13562 26.2798 4.32856 26.4804 5.17062 26.3122C6.04356 26.1374 7.27659 26.6101 7.27659 26.6101C7.27659 26.6101 6.17861 27.295 5.46677 27.2392C4.60963 27.1737 3.09582 26.293 3.04915 26.2649Z" fill="#BC7546"/>
<path d="M3.77874 26.1786C4.33797 26.0257 4.79463 25.849 5.44896 25.7453C5.83085 25.6846 6.72911 26.0144 7.06871 26.3483C7.22952 26.4652 7.27663 26.6101 7.27663 26.6101C7.27663 26.6101 6.0436 26.1375 5.17066 26.3122C4.3286 26.4805 3.13567 26.2798 3.0527 26.265C3.09982 26.2637 3.48683 26.258 3.77874 26.1786Z" fill="#F9C8A9"/>
<path d="M6.54962 29.0249C6.55079 29.0246 6.55109 29.0239 6.55226 29.0236C6.61927 28.9994 7.57854 28.6436 8.12489 28.1651C8.69129 27.6689 9.79468 27.4954 9.79468 27.4954C9.79468 27.4954 9.27832 28.4605 8.73299 28.72C8.0769 29.0332 6.59571 29.0258 6.54962 29.0249Z" fill="#BC7546"/>
<path d="M7.04809 28.6541C7.39355 28.3061 7.65399 27.9839 8.09002 27.632C8.34432 27.4264 9.14205 27.2895 9.5317 27.3912C9.69894 27.4092 9.79463 27.4954 9.79463 27.4954C9.79463 27.4954 8.69125 27.6689 8.12485 28.165C7.57849 28.6436 6.61923 28.9994 6.55222 29.0235C6.58616 29.0026 6.86753 28.8354 7.04809 28.6541Z" fill="#F9C8A9"/>
<path d="M12.4594 11.5553C12.4584 11.5556 12.4579 11.5564 12.4569 11.5568C12.3933 11.5824 11.4843 11.959 10.9765 12.4387C10.45 12.936 9.39592 13.1426 9.39592 13.1426C9.39592 13.1426 9.85726 12.1964 10.372 11.9274C10.9912 11.6026 12.4151 11.5562 12.4594 11.5553Z" fill="#BC7546"/>
<path d="M11.9937 11.9298C11.6742 12.2767 11.4356 12.5957 11.0293 12.9496C10.7922 13.1564 10.0307 13.3169 9.65227 13.2334C9.49088 13.2221 9.39592 13.1426 9.39592 13.1426C9.39592 13.1426 10.45 12.936 10.9765 12.4387C11.4843 11.9591 12.3933 11.5824 12.4569 11.5568C12.425 11.5781 12.1606 11.7491 11.9937 11.9298Z" fill="#F9C8A9"/>
<path d="M10.2516 11.0349C10.251 11.0358 10.2512 11.0366 10.2504 11.0375C10.2134 11.0952 9.68975 11.9283 9.55294 12.6132C9.4113 13.3234 8.67093 14.1017 8.67093 14.1017C8.67093 14.1017 8.49988 13.063 8.76414 12.5459C9.08135 11.9226 10.2159 11.0612 10.2516 11.0349Z" fill="#BC7546"/>
<path d="M10.0883 11.6097C10.0285 12.0776 10.0182 12.4757 9.89152 12.9995C9.81777 13.3053 9.28942 13.8767 8.9324 14.0274C8.79427 14.1116 8.67093 14.1018 8.67093 14.1018C8.67093 14.1018 9.4113 13.3235 9.55293 12.6133C9.68974 11.9283 10.2134 11.0952 10.2504 11.0376C10.2367 11.0734 10.1199 11.3658 10.0883 11.6097Z" fill="#F9C8A9"/>
<path d="M8.48185 11.8566C8.48155 11.8574 8.48185 11.858 8.48155 11.8589C8.46604 11.9119 8.24949 12.6751 8.2988 13.2359C8.35001 13.8175 7.95349 14.5873 7.95349 14.5873C7.95349 14.5873 7.58594 13.8224 7.67329 13.3625C7.77762 12.8085 8.46034 11.8851 8.48185 11.8566Z" fill="#BC7546"/>
<path d="M8.48587 12.3382C8.54542 12.7138 8.6278 13.0242 8.64829 13.4582C8.66058 13.7113 8.38111 14.2732 8.1391 14.4705C8.05131 14.567 7.95357 14.5873 7.95357 14.5873C7.95357 14.5873 8.35009 13.8175 8.29888 13.2359C8.24957 12.6751 8.46612 11.9119 8.48163 11.8589C8.47914 11.8898 8.455 12.1423 8.48587 12.3382Z" fill="#F9C8A9"/>
<path d="M12.0782 13.7039C12.0772 13.704 12.0769 13.7046 12.0759 13.7049C12.0181 13.7197 11.1898 13.9415 10.6963 14.2978C10.1849 14.6674 9.25064 14.7256 9.25064 14.7256C9.25064 14.7256 9.75705 13.9608 10.2326 13.7871C10.8045 13.5772 12.0398 13.6995 12.0782 13.7039Z" fill="#BC7546"/>
<path d="M11.6333 13.9743C11.3177 14.2375 11.0751 14.4858 10.6837 14.7452C10.4553 14.8968 9.779 14.9486 9.46178 14.8332C9.32365 14.8051 9.25064 14.7256 9.25064 14.7256C9.25064 14.7256 10.1849 14.6674 10.6963 14.2978C11.1898 13.9415 12.0181 13.7197 12.0759 13.7049C12.0459 13.7195 11.798 13.8372 11.6333 13.9743Z" fill="#F9C8A9"/>
<path d="M9.54962 13.1928C9.54889 13.1937 9.54889 13.1944 9.54816 13.1951C9.50836 13.2469 8.94415 13.9965 8.75921 14.6361C8.56768 15.2995 7.80199 15.9794 7.80199 15.9794C7.80199 15.9794 7.72284 14.9789 8.01547 14.5089C8.36664 13.9424 9.51348 13.2149 9.54962 13.1928Z" fill="#BC7546"/>
<path d="M9.34831 13.7257C9.25378 14.1654 9.21223 14.5427 9.04982 15.0303C8.95529 15.3147 8.40748 15.8153 8.05631 15.9297C7.91834 15.9986 7.80186 15.9794 7.80186 15.9794C7.80186 15.9794 8.56755 15.2995 8.75908 14.6361C8.94403 13.9965 9.50823 13.2469 9.54803 13.1951C9.53223 13.228 9.39776 13.4965 9.34831 13.7257Z" fill="#F9C8A9"/>
<path d="M10.0454 15.3816C10.0443 15.3818 10.0441 15.3826 10.043 15.383C9.98333 15.4098 9.13132 15.8022 8.6653 16.2778C8.18215 16.771 7.18558 17.0067 7.18558 17.0067C7.18558 17.0067 7.59015 16.0883 8.07066 15.813C8.64847 15.4808 10.0031 15.3839 10.0454 15.3816Z" fill="#BC7546"/>
<path d="M9.61549 15.7554C9.32402 16.0977 9.10849 16.4103 8.73436 16.7625C8.51634 16.9683 7.79675 17.1493 7.43329 17.0837C7.27907 17.0789 7.18558 17.0067 7.18558 17.0067C7.18558 17.0067 8.18215 16.771 8.6653 16.2778C9.13132 15.8022 9.98333 15.4098 10.043 15.383C10.0135 15.4044 9.76781 15.5771 9.61549 15.7554Z" fill="#F9C8A9"/>
<path d="M6.22697 13.2556C6.22682 13.257 6.22741 13.2577 6.22741 13.2591C6.22536 13.3407 6.20911 14.5137 6.49473 15.296C6.79117 16.107 6.52019 17.3588 6.52019 17.3588C6.52019 17.3588 5.70168 16.4073 5.65003 15.7168C5.58624 14.8855 6.20692 13.3046 6.22697 13.2556Z" fill="#BC7546"/>
<path d="M6.41736 13.9421C6.64649 14.4555 6.88324 14.8673 7.0793 15.4793C7.19387 15.8362 7.01039 16.7458 6.74057 17.1207C6.65205 17.2922 6.52022 17.3588 6.52022 17.3588C6.52022 17.3588 6.7912 16.107 6.49476 15.296C6.20914 14.5137 6.22539 13.3407 6.22744 13.2591C6.23563 13.304 6.29811 13.6742 6.41736 13.9421Z" fill="#F9C8A9"/>
<path d="M7.92384 14.7676C7.92311 14.7688 7.92325 14.7697 7.92252 14.7709C7.88331 14.8425 7.32891 15.8764 7.22239 16.7024C7.11236 17.5588 6.29575 18.5453 6.29575 18.5453C6.29575 18.5453 6.00692 17.324 6.27878 16.687C6.60478 15.9197 7.88346 14.8019 7.92384 14.7676Z" fill="#BC7546"/>
<path d="M7.77674 15.4648C7.74396 16.0261 7.76459 16.5006 7.6569 17.134C7.59442 17.5036 7.01281 18.2269 6.60063 18.4354C6.44333 18.5469 6.2957 18.5453 6.2957 18.5453C6.2957 18.5453 7.11231 17.5588 7.22234 16.7024C7.32886 15.8764 7.88326 14.8425 7.92247 14.7709C7.90915 14.8146 7.79429 15.1721 7.77674 15.4648Z" fill="#F9C8A9"/>
<path d="M8.81369 17.3588C8.81282 17.3594 8.81267 17.3602 8.81165 17.361C8.75707 17.4066 7.97968 18.0702 7.63159 18.7067C7.27091 19.3668 6.2957 19.9088 6.2957 19.9088C6.2957 19.9088 6.44816 18.8261 6.87059 18.3953C7.37831 17.8759 8.77009 17.3737 8.81369 17.3588Z" fill="#BC7546"/>
<path d="M8.47365 17.8779C8.2691 18.323 8.13551 18.7147 7.84756 19.1946C7.67973 19.4748 6.97857 19.8775 6.5781 19.9161C6.41495 19.9568 6.2957 19.9088 6.2957 19.9088C6.2957 19.9088 7.27091 19.3668 7.63159 18.7066C7.97968 18.0701 8.75707 17.4066 8.81165 17.3609C8.78707 17.3921 8.58061 17.6458 8.47365 17.8779Z" fill="#F9C8A9"/>
<path d="M5.36165 17.0067C5.3618 17.0078 5.36238 17.0082 5.36253 17.0091C5.37672 17.068 5.58947 17.9119 5.94356 18.4178C6.31111 18.9424 6.35618 19.8913 6.35618 19.8913C6.35618 19.8913 5.58771 19.3658 5.41857 18.8809C5.21402 18.2973 5.35668 17.0457 5.36165 17.0067Z" fill="#BC7546"/>
<path d="M5.6293 17.4624C5.8918 17.7865 6.1401 18.0364 6.39748 18.4374C6.54789 18.6714 6.59032 19.3584 6.46844 19.6785C6.43786 19.8183 6.35621 19.8913 6.35621 19.8913C6.35621 19.8913 6.31115 18.9424 5.94359 18.4178C5.5895 17.9119 5.37676 17.068 5.36256 17.0091C5.3772 17.0398 5.49264 17.2931 5.6293 17.4624Z" fill="#F9C8A9"/>
<path d="M7.90907 19.5843C7.90834 19.5848 7.9082 19.5856 7.90746 19.5862C7.86196 19.6263 7.21465 20.2077 6.93196 20.757C6.63932 21.3266 5.82082 21.8087 5.82082 21.8087C5.82082 21.8087 5.92734 20.884 6.27762 20.5084C6.69858 20.0553 7.87235 19.598 7.90907 19.5843Z" fill="#BC7546"/>
<path d="M7.63078 20.0335C7.46631 20.4167 7.36111 20.7529 7.12627 21.1676C6.98946 21.4097 6.40141 21.7675 6.06136 21.809C5.92353 21.8471 5.82082 21.8087 5.82082 21.8087C5.82082 21.8087 6.63932 21.3266 6.93196 20.757C7.21465 20.2077 7.86196 19.6263 7.90746 19.5862C7.88713 19.6134 7.71681 19.8337 7.63078 20.0335Z" fill="#F9C8A9"/>
<path d="M5.91272 19.3311C5.91228 19.3324 5.91272 19.3333 5.91243 19.3346C5.8937 19.416 5.63632 20.5858 5.76113 21.4268C5.89077 22.2989 5.36256 23.4951 5.36256 23.4951C5.36256 23.4951 4.73954 22.3751 4.82967 21.674C4.93692 20.8296 5.88258 19.376 5.91272 19.3311Z" fill="#BC7546"/>
<path d="M5.96203 20.0569C6.08567 20.6176 6.2377 21.0779 6.30793 21.7302C6.34919 22.1107 5.97871 22.9829 5.63179 23.3022C5.508 23.4554 5.36256 23.4951 5.36256 23.4951C5.36256 23.4951 5.89077 22.2989 5.76114 21.4268C5.63633 20.5858 5.8937 19.416 5.91243 19.3346C5.91141 19.3813 5.8978 19.7644 5.96203 20.0569Z" fill="#F9C8A9"/>
<path d="M14.56 23.0141C13.8964 23.2101 12.6174 23.1732 11.7701 22.8055V21.6772H11.9047C12.7993 22.2179 14.4788 22.4183 14.4788 21.3804C14.4788 20.6899 13.6717 20.7938 12.9709 20.7938V19.8759C13.5311 19.8759 14.1045 19.9137 14.3201 19.6051C14.4049 19.4838 14.5847 18.8915 13.7991 18.803C13.1745 18.7319 12.58 18.9007 12.0462 19.2169H11.9185V18.1022C12.9854 17.6731 15.0097 17.5514 15.552 18.4992C15.9212 19.1459 15.562 20.0794 14.7238 20.259V20.3073C16.2437 20.5161 16.2305 22.5211 14.56 23.0141Z" fill="#FFAD67"/>
</svg>
