<svg width="24" height="24" viewBox="0 0 24 24" fill="none" xmlns="http://www.w3.org/2000/svg">
<path fill-rule="evenodd" clip-rule="evenodd" d="M10.8775 0C13.7359 0 16.0615 2.32555 16.0615 5.18398V6.27313C16.0615 6.75694 15.6688 7.1496 15.185 7.1496C14.7012 7.1496 14.3085 6.75694 14.3085 6.27313V5.18398C14.3085 3.29082 12.7695 1.75293 10.8775 1.75293H5.18048C3.29082 1.75293 1.75293 3.29082 1.75293 5.18398V18.1895C1.75293 20.0815 3.29082 21.6194 5.18048 21.6194H10.8903C12.7741 21.6194 14.3085 20.0862 14.3085 18.2024V17.1004C14.3085 16.6166 14.7012 16.2239 15.185 16.2239C15.6688 16.2239 16.0615 16.6166 16.0615 17.1004V18.2024C16.0615 21.0538 13.7406 23.3723 10.8903 23.3723H5.18048C2.32438 23.3723 0 21.048 0 18.1895V5.18398C0 2.32555 2.32438 0 5.18048 0H10.8775ZM20.32 7.65911L23.7417 11.0656C23.7723 11.0959 23.7996 11.1274 23.8246 11.1607L23.7417 11.0656C23.7831 11.1065 23.82 11.1511 23.8519 11.1986C23.866 11.2202 23.8795 11.2425 23.8921 11.2654C23.9023 11.2833 23.9117 11.3019 23.9204 11.3209C23.9278 11.3377 23.9349 11.3545 23.9414 11.3715C23.9502 11.3938 23.9579 11.4166 23.9647 11.4397C23.9698 11.4579 23.9745 11.4761 23.9786 11.4945C23.9838 11.5168 23.9879 11.5393 23.9912 11.5619C23.993 11.5766 23.9948 11.5921 23.9962 11.6076C23.9988 11.6342 24 11.6602 24 11.6862L23.994 11.7586L23.9916 11.805C23.9914 11.807 23.9911 11.809 23.9908 11.811L24 11.6862C24 11.751 23.9928 11.8153 23.9789 11.8777C23.9745 11.8962 23.9698 11.9144 23.9646 11.9323C23.9579 11.9558 23.9502 11.9786 23.9416 12.0011C23.9349 12.0178 23.9278 12.0346 23.9202 12.0511C23.9117 12.0704 23.9023 12.0891 23.8922 12.1074C23.8795 12.1299 23.866 12.1522 23.8515 12.1738C23.8433 12.1866 23.8343 12.1992 23.8249 12.2116C23.7971 12.2482 23.7668 12.2827 23.734 12.3146L20.32 15.7144C20.1494 15.885 19.925 15.9703 19.7018 15.9703C19.4775 15.9703 19.2519 15.885 19.0813 15.7121C18.7401 15.3685 18.7412 14.8146 19.0836 14.4733L21 12.5626H9.05187C8.56806 12.5626 8.17541 12.17 8.17541 11.6862C8.17541 11.2024 8.56806 10.8097 9.05187 10.8097H21.0024L19.0836 8.90019C18.7412 8.55895 18.7389 8.00502 19.0813 7.66145C19.4225 7.31788 19.9765 7.31788 20.32 7.65911Z" fill="#E55858"/>
</svg>
