<svg width="99" height="29" viewBox="0 0 99 29" fill="none" xmlns="http://www.w3.org/2000/svg">
<path d="M95.4778 29H3.46867C1.55467 29 0 27.4572 0 25.5686V3.42708C0 1.537 1.55613 0 3.46867 0H95.4778C97.3889 0 99 1.537 99 3.42635V25.5679C99 27.4572 97.3889 29 95.4778 29Z" fill="#A6A6A6"/>
<path d="M98.2901 25.5691C98.2901 27.1032 97.0332 28.3458 95.4785 28.3458H3.46721C1.91401 28.3458 0.652679 27.1032 0.652679 25.5691V3.42539C0.652679 1.89202 1.91401 0.64502 3.46868 0.64502H95.4778C97.0325 0.64502 98.2894 1.89202 98.2894 3.42539L98.2909 25.5691H98.2901Z" fill="black"/>
<path d="M22.0939 14.3436C22.0719 12.007 24.0299 10.8709 24.1179 10.8172C23.0105 9.22006 21.2931 9.00184 20.6895 8.98444C19.2471 8.83436 17.8479 9.83776 17.1131 9.83776C16.3636 9.83776 15.2321 8.99821 14.0125 9.02286C12.4432 9.04679 10.9751 9.94506 10.1699 11.34C8.50814 14.1841 9.74747 18.3638 11.3395 20.6635C12.1359 21.7887 13.0665 23.0458 14.2846 23.0016C15.4755 22.953 15.9199 22.2505 17.3587 22.2505C18.7836 22.2505 19.2016 23.0023 20.4439 22.974C21.7221 22.9537 22.5265 21.843 23.2965 20.707C24.2161 19.4165 24.5857 18.1463 24.6004 18.081C24.5711 18.0709 22.1166 17.1458 22.0924 14.3444L22.0939 14.3436ZM19.7472 7.47209C20.3881 6.67966 20.8267 5.60159 20.7049 4.50684C19.7773 4.54816 18.6171 5.14194 17.9491 5.91696C17.358 6.60064 16.83 7.72004 16.9664 8.77346C18.0077 8.84959 19.0784 8.25291 19.7472 7.47281V7.47209ZM39.3397 22.8406H37.675L36.762 20.0059H33.5911L32.7221 22.8406H31.1014L34.243 13.1923H36.1834L39.3404 22.8406H39.3397ZM36.487 18.8169L35.662 16.2982C35.574 16.0409 35.4112 15.4355 35.1707 14.4807H35.1413C35.0445 14.891 34.8898 15.4971 34.6771 16.2982L33.8668 18.8176H36.487V18.8169ZM47.4188 19.2765C47.4188 20.4597 47.0961 21.395 46.4486 22.0823C45.8693 22.6927 45.1491 22.998 44.2904 22.998C43.3635 22.998 42.6976 22.6695 42.2921 22.012H42.2627V25.6761H40.7V18.1738C40.7 17.43 40.6802 16.6658 40.6413 15.8828H42.0171L42.1051 16.9863H42.1344C42.6551 16.1547 43.4471 15.7393 44.5082 15.7393C45.3383 15.7393 46.0313 16.0641 46.5857 16.7129C47.1416 17.3625 47.4188 18.2166 47.4188 19.2758V19.2765ZM45.826 19.3331C45.826 18.6559 45.672 18.0977 45.3625 17.6583C45.0252 17.2001 44.5705 16.971 44.0015 16.971C43.6157 16.971 43.2652 17.0986 42.9528 17.3502C42.6375 17.604 42.4321 17.936 42.3368 18.3464C42.2884 18.5378 42.2635 18.6944 42.2635 18.8176V19.9776C42.2635 20.4837 42.4211 20.9107 42.735 21.2594C43.0489 21.6081 43.4566 21.7814 43.9582 21.7814C44.5471 21.7814 45.0054 21.5567 45.3332 21.1093C45.6617 20.6598 45.826 20.069 45.826 19.3331ZM55.5133 19.2765C55.5133 20.4597 55.1892 21.395 54.5417 22.0823C53.9623 22.6927 53.2437 22.998 52.3857 22.998C51.458 22.998 50.7921 22.6695 50.3873 22.012H50.358V25.6761H48.7945V18.1738C48.7945 17.43 48.7747 16.6658 48.7359 15.8828H50.1116L50.1996 16.9863H50.2289C50.7496 16.1547 51.5401 15.7393 52.6027 15.7393C53.4329 15.7393 54.1259 16.0641 54.6817 16.7129C55.2354 17.3625 55.5133 18.2166 55.5133 19.2758V19.2765ZM53.9198 19.3331C53.9198 18.6559 53.7658 18.0977 53.4556 17.6583C53.1183 17.2001 52.6651 16.971 52.0953 16.971C51.7081 16.971 51.3583 17.0986 51.0444 17.3502C50.7305 17.604 50.5259 17.936 50.4299 18.3464C50.3815 18.5378 50.3565 18.6944 50.3565 18.8176V19.9776C50.3565 20.4837 50.5135 20.9107 50.8259 21.2594C51.1397 21.6074 51.5475 21.7814 52.0505 21.7814C52.6394 21.7814 53.0977 21.5567 53.4255 21.1093C53.7541 20.6598 53.9183 20.069 53.9183 19.3331H53.9198ZM64.5627 20.1349C64.5627 20.9556 64.2737 21.6234 63.6951 22.1388C63.0593 22.7022 62.1742 22.9835 61.0368 22.9835C59.9867 22.9835 59.1448 22.7841 58.5068 22.3832L58.8698 21.0948C59.5562 21.5052 60.3093 21.7111 61.1299 21.7111C61.7181 21.7111 62.1764 21.5791 62.5057 21.3167C62.8335 21.0557 62.997 20.7026 62.997 20.2633C62.997 19.8718 62.8621 19.5419 62.5915 19.2744C62.3223 19.0061 61.8728 18.7582 61.2451 18.5276C59.5364 17.8983 58.6828 16.9761 58.6828 15.7617C58.6828 14.9686 58.982 14.319 59.5811 13.8115C60.1781 13.3054 60.9745 13.0524 61.9703 13.0524C62.8577 13.0524 63.5961 13.2061 64.185 13.5113L63.7941 14.7714C63.2441 14.4763 62.6223 14.3291 61.9263 14.3291C61.3763 14.3291 60.9466 14.4625 60.6386 14.7293C60.3783 14.9686 60.2477 15.2586 60.2477 15.603C60.2477 15.9843 60.3966 16.299 60.6951 16.5476C60.9561 16.7767 61.4284 17.0247 62.1155 17.2922C62.9552 17.6257 63.5719 18.0172 63.9687 18.4653C64.3647 18.9119 64.5627 19.4708 64.5627 20.1378V20.1349ZM69.7312 17.0435H68.0079V20.422C68.0079 21.2804 68.3115 21.7096 68.9201 21.7096C69.1988 21.7096 69.4313 21.6857 69.6146 21.6371L69.6571 22.8116C69.3491 22.9255 68.9436 22.9827 68.4413 22.9827C67.8238 22.9827 67.3413 22.7964 66.9929 22.4245C66.6461 22.0518 66.4723 21.4269 66.4723 20.5489V17.0421H65.4456V15.8821H66.4723V14.609L68.0071 14.1501V15.8828H69.7305V17.0428L69.7312 17.0435ZM77.506 19.3048C77.506 20.3742 77.198 21.2522 76.5798 21.9387C75.9323 22.6456 75.0728 22.9972 74.0014 22.9972C72.9696 22.9972 72.1475 22.6594 71.5345 21.9822C70.9214 21.3051 70.6149 20.4503 70.6149 19.4201C70.6149 18.342 70.9302 17.459 71.5631 16.7724C72.1937 16.0851 73.0466 15.7414 74.118 15.7414C75.1498 15.7414 75.9807 16.08 76.6077 16.7579C77.2075 17.4155 77.5067 18.2644 77.5067 19.3048H77.506ZM75.8853 19.3556C75.8853 18.7132 75.746 18.1629 75.4651 17.704C75.1373 17.1479 74.6687 16.8703 74.0615 16.8703C73.4331 16.8703 72.9557 17.1487 72.6279 17.704C72.347 18.1629 72.2084 18.7219 72.2084 19.3831C72.2084 20.0247 72.3477 20.575 72.6279 21.0332C72.9652 21.5886 73.4382 21.8655 74.0476 21.8655C74.6445 21.8655 75.1131 21.5828 75.4512 21.0187C75.7394 20.5511 75.8839 19.995 75.8839 19.3541L75.8853 19.3556ZM82.588 17.2429C82.434 17.2139 82.269 17.1994 82.0967 17.1994C81.5467 17.1994 81.1213 17.4053 80.8207 17.8157C80.5611 18.1782 80.4305 18.6371 80.4305 19.1903V22.8399H78.8685L78.8832 18.0738C78.8832 17.2719 78.8627 16.5418 78.8245 15.8843H80.1856L80.2428 17.2146H80.2868C80.4511 16.7579 80.7121 16.3881 81.0678 16.1126C81.4161 15.864 81.7923 15.74 82.1971 15.74C82.3423 15.74 82.4729 15.7509 82.5887 15.769V17.2429H82.588ZM89.5811 19.0329C89.5811 19.3099 89.5627 19.5433 89.5239 19.734H84.8335C84.8518 20.4206 85.0784 20.9462 85.514 21.3087C85.91 21.6328 86.4204 21.7945 87.0481 21.7945C87.7426 21.7945 88.3755 21.6857 88.946 21.466L89.1909 22.539C88.5251 22.8254 87.7389 22.9682 86.8318 22.9682C85.7406 22.9682 84.8841 22.6507 84.2607 22.0163C83.6396 21.3812 83.3279 20.5301 83.3279 19.4607C83.3279 18.4116 83.6176 17.538 84.1977 16.8413C84.8049 16.0974 85.6255 15.7248 86.658 15.7248C87.6715 15.7248 88.44 16.0974 88.9607 16.8413C89.3735 17.4321 89.5811 18.1629 89.5811 19.0308V19.0329ZM88.0902 18.632C88.1005 18.1731 87.9985 17.7765 87.7866 17.443C87.5153 17.0131 87.0995 16.7978 86.5399 16.7978C86.0288 16.7978 85.613 17.008 85.2955 17.4285C85.0351 17.762 84.8804 18.1637 84.8335 18.6306H88.0895L88.0902 18.632Z" fill="white"/>
<path d="M35.97 7.25708C35.97 8.10968 35.7111 8.75203 35.1941 9.1834C34.7153 9.58215 34.0355 9.7808 33.1533 9.7808C32.7155 9.7808 32.3415 9.76268 32.0283 9.72498V5.06323C32.4368 4.99798 32.8768 4.9639 33.352 4.9639C34.1924 4.9639 34.826 5.14515 35.2513 5.50548C35.7302 5.91365 35.97 6.49728 35.97 7.25708ZM35.1597 7.27738C35.1597 6.7242 35.0115 6.30008 34.7153 6.00428C34.4183 5.7092 33.9856 5.56203 33.4158 5.56203C33.1738 5.56203 32.9685 5.57653 32.7969 5.6106V9.1544C32.8922 9.1689 33.0645 9.17615 33.3161 9.17615C33.9042 9.17615 34.3574 9.01375 34.6779 8.6904C34.9983 8.36705 35.1582 7.8958 35.1582 7.27665L35.1597 7.27738ZM40.2673 8.00165C40.2673 8.52728 40.1148 8.95865 39.8112 9.29578C39.4929 9.64378 39.0705 9.81633 38.5447 9.81633C38.0387 9.81633 37.6339 9.64958 37.3325 9.31608C37.0319 8.98403 36.8815 8.56425 36.8815 8.0582C36.8815 7.52895 37.0355 7.09395 37.3472 6.75755C37.6589 6.42115 38.0761 6.25223 38.6027 6.25223C39.1087 6.25223 39.5171 6.41898 39.8259 6.75103C40.1192 7.0751 40.2659 7.4927 40.2659 8.0031L40.2673 8.00165ZM39.4695 8.0263C39.4695 7.71165 39.4005 7.44123 39.2641 7.21575C39.1028 6.94315 38.8725 6.80685 38.5748 6.80685C38.2653 6.80685 38.0307 6.94315 37.8693 7.21575C37.7315 7.4405 37.664 7.716 37.664 8.0408C37.664 8.35618 37.7322 8.62661 37.8693 8.85281C38.0358 9.12468 38.2675 9.26098 38.566 9.26098C38.8593 9.26098 39.0903 9.12323 39.2553 8.84483C39.3983 8.61428 39.4695 8.34168 39.4695 8.02558V8.0263ZM46.0277 6.32183L44.946 9.73875H44.242L43.7947 8.25468C43.6803 7.88493 43.5879 7.51518 43.516 7.1505H43.5013C43.4353 7.52605 43.3429 7.89363 43.2241 8.25468L42.7475 9.73875H42.0361L41.019 6.32183H41.8088L42.1997 7.94583C42.295 8.33008 42.372 8.6962 42.4343 9.04275H42.449C42.5055 8.7571 42.6001 8.39315 42.7335 7.95308L43.2249 6.32183H43.8504L44.3197 7.91828C44.4341 8.3076 44.5265 8.68243 44.5984 9.04348H44.6189C44.6703 8.69185 44.7495 8.31703 44.8536 7.91828L45.2731 6.32183H46.0284H46.0277ZM50.0119 9.73875H49.2433V7.78125C49.2433 7.17805 49.0116 6.87645 48.5467 6.87645C48.3193 6.87645 48.1345 6.9591 47.9915 7.12513C47.85 7.29188 47.7789 7.48763 47.7789 7.71093V9.73803H47.0089V7.29768C47.0089 6.99753 47.0001 6.672 46.9817 6.31893H47.6564L47.6931 6.85398H47.7151C47.8031 6.68723 47.9373 6.55093 48.1125 6.44073C48.3208 6.31385 48.554 6.24933 48.8092 6.24933C49.1319 6.24933 49.4003 6.35228 49.6137 6.5589C49.8791 6.81265 50.0119 7.18965 50.0119 7.69135V9.73803V9.73875ZM52.1312 9.73875H51.3627V4.75293H52.1312V9.73875ZM56.6559 8.00165C56.6559 8.52728 56.5041 8.95865 56.2012 9.29578C55.8822 9.64378 55.4605 9.81633 54.934 9.81633C54.4258 9.81633 54.0217 9.64958 53.7211 9.31608C53.4204 8.98403 53.2701 8.56425 53.2701 8.0582C53.2701 7.52895 53.4255 7.09395 53.7365 6.75755C54.0474 6.42115 54.4654 6.25223 54.9905 6.25223C55.4994 6.25223 55.9071 6.41898 56.2151 6.75103C56.5085 7.0751 56.6566 7.4927 56.6566 8.0031L56.6559 8.00165ZM55.858 8.0263C55.858 7.71165 55.7891 7.44123 55.6527 7.21575C55.4913 6.94315 55.2611 6.80685 54.9633 6.80685C54.6539 6.80685 54.4192 6.94315 54.2593 7.21575C54.12 7.4405 54.0525 7.716 54.0525 8.0408C54.0525 8.35618 54.1215 8.62661 54.2579 8.85281C54.4251 9.12468 54.6568 9.26098 54.956 9.26098C55.2493 9.26098 55.4789 9.12323 55.6453 8.84483C55.7876 8.61428 55.858 8.34168 55.858 8.02558V8.0263ZM60.3753 9.73875H59.686L59.6273 9.34508H59.6068C59.3707 9.65901 59.0348 9.81633 58.597 9.81633C58.2707 9.81633 58.0067 9.71265 57.8079 9.50675C57.6268 9.3197 57.5366 9.08625 57.5366 8.81075C57.5366 8.39315 57.7126 8.07488 58.0668 7.85375C58.4203 7.63408 58.9175 7.52605 59.5577 7.53113V7.46733C59.5577 7.01783 59.3186 6.79308 58.839 6.79308C58.4987 6.79308 58.1981 6.87718 57.9385 7.04538L57.7823 6.54658C58.1035 6.35083 58.5009 6.2515 58.9681 6.2515C59.8715 6.2515 60.3247 6.72275 60.3247 7.66525V8.92385C60.3247 9.2646 60.3416 9.53648 60.3746 9.73803L60.3753 9.73875ZM59.5775 8.56425V8.03718C58.7297 8.02268 58.3059 8.2525 58.3059 8.72593C58.3059 8.90428 58.3543 9.03768 58.4525 9.12685C58.5523 9.2153 58.6784 9.25953 58.8287 9.25953C58.9974 9.25953 59.1558 9.2066 59.2995 9.10148C59.444 8.99563 59.5327 8.86223 59.5657 8.69693C59.5731 8.66068 59.5782 8.615 59.5782 8.56353L59.5775 8.56425ZM64.7423 9.73875H64.0603L64.0237 9.18993H64.0031C63.7853 9.60753 63.4143 9.81633 62.8929 9.81633C62.4763 9.81633 62.1302 9.65465 61.8545 9.33058C61.5787 9.0065 61.4423 8.58818 61.4423 8.0727C61.4423 7.51953 61.5912 7.0722 61.8897 6.72928C62.1801 6.41028 62.535 6.25078 62.9574 6.25078C63.4223 6.25078 63.7472 6.4052 63.9327 6.71478H63.9474V4.75293H64.7159V8.818C64.7159 9.1515 64.7247 9.45745 64.7431 9.73875H64.7423ZM63.9467 8.29745V7.7276C63.9467 7.62828 63.9393 7.54853 63.9247 7.48835C63.8807 7.30493 63.7883 7.15123 63.646 7.02725C63.5037 6.904 63.3307 6.84093 63.1327 6.84093C62.8467 6.84093 62.6215 6.95331 62.4565 7.17878C62.293 7.40353 62.2101 7.69208 62.2101 8.0437C62.2101 8.38155 62.2886 8.6556 62.4463 8.86658C62.6127 9.09133 62.8371 9.20443 63.118 9.20443C63.3703 9.20443 63.5727 9.11018 63.7252 8.92313C63.8733 8.74913 63.9452 8.54105 63.9452 8.29745H63.9467ZM71.3152 8.00165C71.3152 8.52728 71.1634 8.95865 70.8605 9.29578C70.5415 9.64378 70.1199 9.81633 69.5933 9.81633C69.0873 9.81633 68.6825 9.64958 68.3804 9.31608C68.0797 8.98403 67.9294 8.56425 67.9294 8.0582C67.9294 7.52895 68.0849 7.09395 68.3958 6.75755C68.7067 6.42115 69.1247 6.25223 69.652 6.25223C70.158 6.25223 70.5665 6.41898 70.8745 6.75103C71.1678 7.0751 71.3145 7.4927 71.3145 8.0031L71.3152 8.00165ZM70.5188 8.0263C70.5188 7.71165 70.4499 7.44123 70.3135 7.21575C70.1507 6.94315 69.9219 6.80685 69.6227 6.80685C69.3147 6.80685 69.08 6.94315 68.9187 7.21575C68.7793 7.4405 68.7119 7.716 68.7119 8.0408C68.7119 8.35618 68.7808 8.62661 68.9172 8.85281C69.0844 9.12468 69.3161 9.26098 69.6153 9.26098C69.9087 9.26098 70.1397 9.12323 70.3047 8.84483C70.4469 8.61428 70.5188 8.34168 70.5188 8.02558V8.0263ZM75.4475 9.73875H74.6797V7.78125C74.6797 7.17805 74.448 6.87645 73.9831 6.87645C73.7543 6.87645 73.5702 6.9591 73.4279 7.12513C73.2857 7.29115 73.2138 7.48763 73.2138 7.71093V9.73803H72.4438V7.29768C72.4438 6.99753 72.4365 6.672 72.4174 6.31893H73.0921L73.1287 6.85398H73.1493C73.2395 6.68723 73.3729 6.55093 73.5475 6.44073C73.7565 6.31385 73.9889 6.24933 74.2441 6.24933C74.5668 6.24933 74.8352 6.35228 75.0486 6.5589C75.3148 6.81265 75.4468 7.18965 75.4468 7.69135V9.73803L75.4475 9.73875ZM80.6197 6.89023H79.7734V8.55048C79.7734 8.97243 79.9238 9.1834 80.2208 9.1834C80.3601 9.1834 80.4738 9.1718 80.564 9.14715L80.5838 9.72425C80.432 9.7808 80.2318 9.80908 79.9869 9.80908C79.6833 9.80908 79.4471 9.71773 79.2755 9.53503C79.1046 9.35233 79.0189 9.04493 79.0189 8.61428V6.8895H78.5143V6.32183H79.0203V5.6947L79.7727 5.46995V6.32038H80.6197V6.89023ZM84.6883 9.73875H83.9183V7.79575C83.9183 7.18313 83.6873 6.87645 83.2231 6.87645C82.8667 6.87645 82.6232 7.05408 82.4897 7.40933C82.4677 7.484 82.4531 7.57608 82.4531 7.68265V9.73803H81.686V4.75293H82.4538V6.81193H82.4685C82.7105 6.43783 83.0573 6.25078 83.5069 6.25078C83.8251 6.25078 84.0884 6.35373 84.2974 6.56035C84.5585 6.817 84.689 7.1998 84.689 7.70585V9.73803L84.6883 9.73875ZM88.8851 7.86825C88.8851 8.00455 88.8749 8.1191 88.8558 8.21263H86.5517C86.5619 8.55048 86.6719 8.80713 86.8853 8.98621C87.0804 9.14571 87.3327 9.22545 87.6407 9.22545C87.9809 9.22545 88.2919 9.1718 88.572 9.06378L88.6923 9.59158C88.3645 9.73223 87.9787 9.80183 87.5321 9.80183C86.9968 9.80183 86.5751 9.64668 86.2708 9.33493C85.9628 9.02318 85.8117 8.60485 85.8117 8.08068C85.8117 7.56448 85.9533 7.13528 86.2385 6.79308C86.5363 6.42768 86.9389 6.24498 87.4471 6.24498C87.9443 6.24498 88.3219 6.42768 88.5764 6.79308C88.7832 7.08308 88.8844 7.44195 88.8844 7.86825H88.8851ZM88.1518 7.6725C88.1577 7.4463 88.1078 7.252 88.0029 7.08815C87.8694 6.8779 87.6656 6.77133 87.3913 6.77133C87.1405 6.77133 86.9367 6.87428 86.7797 7.0809C86.6521 7.24548 86.5766 7.44195 86.5524 7.67178H88.1511L88.1518 7.6725Z" fill="white"/>
</svg>
