<svg width="18" height="17" viewBox="0 0 18 17" fill="none" xmlns="http://www.w3.org/2000/svg">
<g clip-path="url(#clip0)">
<path d="M0.976 16.916C0.437 16.916 0 16.498 0 15.982V0.933023C0 0.417023 0.437 -0.000976562 0.976 -0.000976562H16.709C17.248 -0.000976562 17.685 0.417023 17.685 0.933023V15.982C17.685 16.498 17.248 16.916 16.709 16.916H12.202V10.365H14.501L14.845 7.81202H12.202V6.18202C12.202 5.44302 12.417 4.93902 13.525 4.93902L14.938 4.93802V2.65502C14.694 2.62402 13.855 2.55402 12.879 2.55402C10.841 2.55402 9.446 3.74402 9.446 5.92902V7.81202H7.141V10.365H9.446V16.916H0.976Z" fill="#241C15"/>
</g>
<defs>
<clipPath id="clip0">
<rect width="18" height="17" fill="white"/>
</clipPath>
</defs>
</svg>
