<svg width="51" height="37" viewBox="0 0 51 37" fill="none" xmlns="http://www.w3.org/2000/svg">
<path d="M11.5456 19.1699C11.1498 19.1563 10.7531 19.1746 10.3636 19.2245C9.71386 19.2962 9.09145 19.4554 8.53268 19.6931C7.9739 19.9307 7.48992 20.242 7.10894 20.6087C6.72795 20.9755 6.45759 21.3904 6.31359 21.8292C6.1696 22.2681 6.15485 22.7221 6.27021 23.1649C6.55339 24.991 9.40249 26.5309 12.04 26.5767C12.3107 26.5814 12.5814 26.5691 12.8488 26.54C15.7029 26.2243 16.4502 24.2146 15.9798 22.2405C15.4483 20.0116 13.1236 19.2259 11.5456 19.1699ZM14.3422 24.4507C14.2217 24.5739 14.0545 24.6725 13.8584 24.7358C13.6623 24.7992 13.4447 24.8249 13.2288 24.8103C12.8494 24.7898 12.4955 24.6714 12.2389 24.4793C11.9824 24.2872 11.8423 24.0356 11.847 23.7755C11.8404 23.4289 11.9382 23.0851 12.1343 22.7655C12.2567 22.5624 12.2685 22.3361 12.1674 22.1276C12.0664 21.9191 11.8592 21.7423 11.5836 21.6293C11.2449 21.4858 10.8385 21.4366 10.4483 21.4919C10.0704 21.5415 9.73651 21.6911 9.51926 21.9082C9.37261 22.0702 9.25812 22.2448 9.17881 22.4274C9.16335 22.4594 9.15108 22.4844 9.14176 22.5008C9.01244 22.7261 8.80608 22.792 8.66654 22.7798C8.61515 22.7734 8.56756 22.757 8.52943 22.7326C8.49131 22.7081 8.46427 22.6768 8.45154 22.6421C8.37916 22.3413 8.41307 22.033 8.55045 21.7429C8.68784 21.4528 8.9247 21.1894 9.24131 20.9746C9.51704 20.7866 9.85195 20.644 10.2205 20.5578C10.5891 20.4716 10.9816 20.444 11.3681 20.4772C11.774 20.5105 12.162 20.6108 12.4984 20.7695C12.8349 20.9282 13.1097 21.1405 13.2993 21.388C13.4816 21.6859 13.5554 22.0096 13.5142 22.3313C13.473 22.653 13.3182 22.963 13.0629 23.2348C13.0306 23.2818 13.0011 23.3248 12.9758 23.3633C12.884 23.4697 12.8334 23.5904 12.8286 23.7139C12.8238 23.8375 12.8651 23.9598 12.9486 24.0694C13.022 24.1363 13.1179 24.1901 13.2281 24.2263C13.3384 24.2626 13.4597 24.2802 13.582 24.2777C13.6987 24.2767 13.8149 24.2661 13.9279 24.2461C14.0745 24.224 14.2261 24.2012 14.3183 24.2762C14.349 24.2998 14.3678 24.3294 14.3721 24.3608C14.3764 24.3922 14.3659 24.4236 14.3422 24.4507V24.4507Z" fill="white"/>
<path d="M48.018 28.1954C48.6134 27.1628 48.9577 26.0707 49.0371 24.9621C49.0371 23.5993 47.9079 23.0343 47.1888 23.0343C47.1668 22.9817 47.0246 22.6263 46.8287 22.1985C46.7167 21.9505 46.5838 21.707 46.4306 21.4694C47.0191 20.9139 47.2681 20.2237 47.125 19.5449C47.0073 19.0216 46.6431 18.5387 46.0877 18.1694C45.0334 17.5579 43.7754 17.1327 42.4243 16.9313C42.2207 16.8925 41.5498 16.7668 41.4909 16.7545C41.4862 16.7282 41.4419 15.2531 41.4014 14.6198C41.384 13.9848 41.2455 13.354 40.9894 12.7435C40.6711 11.8673 40.0132 11.0659 39.0848 10.4236C41.4093 8.77942 42.8603 6.96832 42.8568 5.41462C42.8502 2.42662 37.4724 1.52242 30.8452 3.39502C30.838 3.39712 29.4508 3.79837 29.441 3.80182C29.4348 3.79762 26.9024 2.10232 26.8644 2.07952C19.3085 -2.41752 -4.3161 15.5006 3.23717 19.8524L4.88786 20.8066C4.44242 21.6222 4.28516 22.4981 4.42886 23.3631C4.6526 24.6216 5.56293 25.776 6.97799 26.5958C8.3515 27.4476 10.126 27.9351 11.9802 27.9701C14.9195 32.592 21.6352 35.4273 29.5097 35.5869C37.9565 35.7581 45.0471 33.0536 48.018 28.1954ZM49.7518 22.7257C50.4754 23.3638 50.8477 24.1554 50.8036 24.9621C50.7276 26.2205 50.3425 27.4611 49.6645 28.6322L49.6485 28.6596C48.1157 31.1783 45.4397 33.2939 42.0145 34.6947C38.4496 36.1116 34.3878 36.8394 30.2641 36.8002H30.2632C29.9963 36.8002 29.7253 36.7973 29.4573 36.7919C25.3874 36.7338 21.4144 35.9324 17.9507 34.4709C14.9018 33.1654 12.4345 31.314 10.8166 29.1179C8.95266 28.9201 7.2125 28.3575 5.80652 27.4982C4.05845 26.4777 2.93865 25.0438 2.67111 23.4834C2.55188 22.7253 2.6162 21.9589 2.86149 21.215L2.09517 20.7722C1.47488 20.4061 0.970798 19.9572 0.613945 19.453C0.257092 18.9488 0.0550201 18.4 0.0201672 17.8404C-0.0427075 16.6789 0.25106 15.5213 0.882557 14.4421C2.45564 11.5073 6.07445 8.01275 10.5636 5.0939C12.5668 3.76553 14.7891 2.60063 17.1856 1.6226C19.1845 0.748978 21.4802 0.243702 23.8495 0.155917C25.3776 0.128683 26.866 0.490499 28.0256 1.1711C28.0918 1.21055 29.0838 1.87356 29.8363 2.37725C30.0251 2.3228 30.161 2.28363 30.1649 2.2826C32.391 1.62001 34.7834 1.25723 37.2106 1.21415C41.7081 1.21415 44.6177 2.8622 44.6234 5.4128C44.627 6.9866 43.4962 8.75088 41.4115 10.4588C41.9787 11.0581 42.4078 11.7133 42.6837 12.4016C42.9798 13.1062 43.142 13.8339 43.1662 14.5668C43.1864 14.8822 43.2071 15.3881 43.2238 15.8347C44.7618 16.1007 46.183 16.6164 47.3669 17.3381C48.1695 17.8822 48.6958 18.5878 48.8688 19.3512C49.0426 20.1049 48.8722 20.8768 48.3808 21.5618C48.4245 21.6476 48.47 21.7408 48.5153 21.8395C48.5546 21.9256 48.5918 22.0085 48.6265 22.0873C49.0594 22.2474 49.4418 22.4643 49.7518 22.7257H49.7518Z" fill="white"/>
<path d="M44.3973 21.2334C44.6838 21.0494 44.9072 20.8245 45.0516 20.5746C45.196 20.3248 45.2578 20.0562 45.2326 19.7881C45.1753 19.5179 44.9908 19.2678 44.707 19.0756C43.8744 18.6033 42.8837 18.2791 41.8233 18.132C41.3389 18.0381 41.0103 17.9779 40.6562 17.8974C40.0266 17.7542 39.7154 17.6389 39.645 16.821C39.6142 16.4633 39.5239 15.2172 39.4914 14.7023C39.434 13.8 39.2767 12.5667 38.1692 12.0575C37.8875 11.9298 37.5599 11.8574 37.2221 11.8484C37.033 11.8404 36.8432 11.8533 36.6601 11.8864C36.0979 11.9761 35.5863 12.1759 35.1878 12.4613C34.6719 12.7832 34.0636 13.0283 33.4016 13.181C32.7397 13.3337 32.0384 13.3906 31.3425 13.3482C30.5673 13.3257 29.7459 13.2424 28.8042 13.2038C28.6209 13.1964 28.4372 13.1886 28.2537 13.1819C27.0369 13.2065 25.8736 13.5291 24.9758 14.0909C24.0781 14.6528 23.5059 15.4164 23.3634 16.2426C22.8243 18.8051 25.5103 20.1293 26.2857 20.9063C26.4056 21.0055 26.4799 21.1267 26.4991 21.2547C26.479 21.3966 26.3803 21.5279 26.2231 21.6217L26.2233 21.6225C25.1495 22.4485 24.3956 23.4451 24.0305 24.5215C23.6653 25.5978 23.7005 26.7195 24.1329 27.7841C24.2354 28.0398 24.3668 28.2896 24.5259 28.5314C26.4858 31.6957 32.5659 33.1693 38.5059 31.8291C39.284 31.6535 40.0389 31.4331 40.7625 31.1703C42.0649 30.7255 43.2363 30.1207 44.2183 29.3862C45.7504 28.3243 46.7566 26.9609 47.0954 25.4879C47.2744 24.6724 47.0123 24.3568 46.6556 24.205C46.4037 24.1081 46.1118 24.0713 45.8258 24.1004C45.6747 23.4602 45.4093 22.835 45.0356 22.239L44.3973 21.2334Z" fill="white"/>
<path d="M34.6629 9.0125C34.7587 9.02753 34.8196 8.9144 34.7339 8.88155C33.3148 8.37904 31.7496 8.09914 30.1522 8.06223C30.1369 8.06207 30.1219 8.05902 30.1089 8.0534C30.0959 8.04778 30.0855 8.03983 30.0787 8.03041C30.0719 8.02099 30.0691 8.01048 30.0705 8.00003C30.0719 7.98957 30.0775 7.97959 30.0867 7.97119C30.335 7.74941 30.6249 7.55091 30.9489 7.38079C30.9634 7.37309 30.9739 7.36242 30.9789 7.35034C30.9839 7.33826 30.9831 7.3254 30.9767 7.31365C30.9702 7.3019 30.9584 7.29187 30.943 7.28503C30.9276 7.27819 30.9094 7.2749 30.8911 7.27563C28.9352 7.40691 27.0549 7.85987 25.411 8.5958C25.397 8.60226 25.3805 8.6057 25.3635 8.60568C25.3466 8.60565 25.3301 8.60215 25.3162 8.59564C25.3022 8.58913 25.2914 8.5799 25.2852 8.56915C25.279 8.5584 25.2776 8.54663 25.2813 8.53535C25.4137 8.19791 25.6086 7.87339 25.8612 7.56965C25.8695 7.55923 25.8727 7.54725 25.8704 7.53548C25.868 7.52372 25.8601 7.51279 25.848 7.50431C25.8358 7.49582 25.82 7.49023 25.8028 7.48836C25.7856 7.48648 25.768 7.48843 25.7526 7.4939C23.3787 8.38485 21.263 9.56461 19.5095 10.9751C19.4958 10.9858 19.4884 10.9996 19.4886 11.0139C19.4888 11.0281 19.4967 11.0418 19.5107 11.0524C19.5247 11.0629 19.544 11.0695 19.5647 11.071C19.5854 11.0725 19.6062 11.0688 19.6232 11.0604C21.6552 10.0902 23.9444 9.39968 26.3628 9.02763C29.0928 8.59731 31.9295 8.59214 34.6628 9.01248" fill="white"/>
<path d="M27.6712 4.4354C27.6712 4.4354 25.6147 2.8085 24.994 2.6885C21.1747 1.98425 12.9245 5.86668 7.65682 10.9961C5.52537 13.0715 2.47416 16.7468 3.93316 18.6371C4.45174 19.0615 5.03632 19.4462 5.67661 19.7842C6.65416 18.8479 8.12539 18.2074 9.78035 17.9977C11.8573 14.0298 15.5033 10.533 20.3131 7.8956C22.6212 6.60481 25.0824 5.44742 27.6712 4.4354Z" fill="white"/>
<path d="M14.2039 24.3801C14.2336 24.4047 14.2516 24.4347 14.2558 24.4664C14.2599 24.4981 14.2499 24.5298 14.2271 24.5575C14.1163 24.6805 13.9574 24.7798 13.7683 24.8443C13.5792 24.9089 13.3676 24.936 13.1571 24.9228C12.7821 24.8952 12.4364 24.7713 12.1899 24.5762C11.9434 24.3811 11.8144 24.1294 11.8291 23.8718C11.8228 23.5208 11.9166 23.1723 12.1052 22.8458C12.2243 22.6413 12.2368 22.4149 12.1404 22.2048C12.0441 21.9947 11.8449 21.8137 11.5762 21.6921C11.4172 21.6202 11.2388 21.5708 11.0514 21.5469C10.864 21.5229 10.6715 21.5248 10.4852 21.5525C10.3027 21.5788 10.1297 21.6297 9.97646 21.7023C9.82317 21.7748 9.69267 21.8676 9.59264 21.9752C9.45115 22.1407 9.34113 22.3179 9.26526 22.5025C9.25062 22.535 9.23881 22.5605 9.22986 22.577C9.10555 22.8061 8.90737 22.8729 8.77309 22.8606C8.70961 22.8546 8.62232 22.8256 8.56637 22.7207C8.49614 22.4176 8.52801 22.1075 8.65955 21.814C8.7911 21.5205 9.01885 21.2514 9.32549 21.0271C9.58302 20.8381 9.90268 20.6937 10.258 20.6059C10.6134 20.5181 10.9942 20.4894 11.3691 20.5221C11.7662 20.5594 12.1435 20.6634 12.4674 20.8248C12.7912 20.9862 13.0514 21.2 13.2247 21.4469C13.4001 21.7505 13.4709 22.0776 13.4316 22.4029C13.3923 22.7282 13.2438 23.0429 12.9978 23.3226C12.9667 23.3702 12.9382 23.4138 12.9142 23.4533C12.8257 23.5626 12.7771 23.6848 12.7726 23.8096C12.768 23.9345 12.8076 24.0582 12.8879 24.1704C12.9559 24.2373 13.047 24.2916 13.1532 24.3285C13.2594 24.3654 13.3774 24.3837 13.4965 24.3818C13.6088 24.3807 13.7204 24.3699 13.8287 24.3497C13.9697 24.3271 14.1154 24.304 14.2039 24.3801L14.2039 24.3801ZM48.9611 24.9731C48.8823 26.0791 48.5404 27.1689 47.9487 28.1997C44.9971 33.0476 37.953 35.7465 29.5615 35.5757C21.7388 35.4164 15.0668 32.587 12.1467 27.9748C10.3033 27.9395 8.53975 27.4528 7.17754 26.6034C5.77036 25.7836 4.86624 24.632 4.64501 23.3775C4.50222 22.5144 4.65843 21.6405 5.10101 20.8263L3.46108 19.8741C-4.04264 15.5314 19.427 -2.34906 26.9336 2.13863C26.9715 2.16122 29.4871 3.85311 29.4934 3.85728C29.5034 3.85379 30.8814 3.45328 30.8884 3.45132C37.4722 1.58262 42.8148 2.4849 42.8215 5.46648C42.825 7.01708 41.3834 8.82443 39.0743 10.465C39.9972 11.1068 40.6506 11.9064 40.9661 12.78C41.2207 13.3894 41.3583 14.0189 41.3755 14.6526C41.4156 15.2844 41.4599 16.7565 41.4644 16.7828C41.523 16.7949 42.1895 16.9203 42.3916 16.9592C43.7349 17.1605 44.9849 17.5849 46.0311 18.1947C46.5834 18.5638 46.9451 19.0455 47.0617 19.5673C47.204 20.2443 46.9568 20.9327 46.3719 21.4877C46.5241 21.7249 46.6562 21.9678 46.7675 22.2154C46.9618 22.6424 47.1032 22.9968 47.1249 23.0493C47.8393 23.0493 48.9612 23.613 48.9612 24.9731L48.9611 24.9731ZM15.8003 22.3129C15.29 20.0491 13.0558 19.2512 11.5398 19.1943C11.1592 19.1805 10.7777 19.1991 10.4039 19.2497C7.698 19.6239 6.16979 21.2015 6.4705 23.2515C6.6895 24.1711 7.35587 25.0133 8.3619 25.6421C9.36793 26.2709 10.6548 26.6495 12.0147 26.7167C12.2749 26.7215 12.5352 26.7089 12.7919 26.6793C15.5344 26.3587 16.2524 24.3177 15.8003 22.3129ZM20.4252 7.94236C22.7173 6.65471 25.1624 5.49974 27.735 4.48943C27.735 4.48943 25.6923 2.86602 25.0754 2.74638C21.2812 2.04338 13.0849 5.91773 7.85182 11.0363C5.73437 13.1074 2.70318 16.7751 4.15245 18.6613C4.66731 19.0847 5.24809 19.4685 5.88453 19.806C6.85346 18.8727 8.31546 18.2335 9.96153 18.0233C12.0209 14.0675 15.6425 10.5783 20.4252 7.94236ZM28.6716 25.8567C28.7721 26.1576 28.9898 26.4343 29.3014 26.6576C29.6131 26.8809 30.0073 27.0426 30.4423 27.1255C30.8949 27.2407 31.3618 27.3276 31.8373 27.3851C37.8391 28.0927 43.45 25.7407 44.7133 25.1483C44.8082 25.1038 44.8708 25.1472 44.7947 25.2257C44.7567 25.2675 44.7154 25.3078 44.671 25.3466C43.1249 26.7135 38.9683 28.2965 33.5605 28.2959C31.202 28.2957 28.8446 27.7261 27.9791 26.851C26.6362 25.4932 27.9126 23.5112 30.1501 23.7177C30.1527 23.718 30.9157 23.7773 31.1302 23.7936C34.6084 24.0222 38.1142 23.6376 41.313 22.6767C44.3658 21.7054 45.519 20.6365 45.346 19.7712C45.2882 19.5024 45.1033 19.254 44.8197 19.0637C43.9848 18.5941 42.9936 18.2723 41.9335 18.1267C41.4487 18.0334 41.1197 17.9739 40.7652 17.8938C40.1351 17.7516 39.8236 17.6371 39.753 16.8249C39.7223 16.4697 39.632 15.2323 39.5992 14.7209C39.5416 13.8249 39.3845 12.6002 38.2757 12.0945C37.9934 11.9676 37.6656 11.8958 37.3279 11.8869C37.1386 11.879 36.9486 11.8918 36.7652 11.9247C36.2035 12.0135 35.6916 12.2118 35.2917 12.4956C34.7735 12.8157 34.1641 13.0591 33.5017 13.2106C32.8394 13.3622 32.1383 13.4186 31.4426 13.3763C30.6667 13.3541 29.8446 13.2713 28.9021 13.2329C28.7188 13.2255 28.5347 13.2177 28.3509 13.2113C27.1375 13.233 25.9758 13.5519 25.0774 14.1097C24.179 14.6675 23.6036 15.4272 23.456 16.2506C22.9164 18.7952 25.605 20.1102 26.3812 20.8818C26.5011 20.98 26.5755 21.1005 26.5948 21.2278C26.5744 21.3689 26.4755 21.4993 26.3185 21.5922V21.593C25.2449 22.4103 24.4903 23.3995 24.1246 24.469C23.7589 25.5385 23.7939 26.6538 24.2263 27.7116C24.3289 27.9656 24.4604 28.2138 24.6196 28.4538C26.5814 31.596 32.6672 33.0592 38.6128 31.7282C39.3913 31.554 40.1469 31.3353 40.8717 31.0744C42.1736 30.6334 43.3461 30.0328 44.3307 29.3025C45.862 28.2509 46.8696 26.8964 47.2105 25.4314C47.3895 24.6214 47.1275 24.3082 46.7703 24.1574C46.5177 24.0613 46.2258 24.0247 45.9397 24.0534C45.7883 23.4174 45.5227 22.7965 45.1489 22.2049C43.4508 23.0805 41.5312 23.7349 39.4863 24.1353C37.0258 24.6103 34.4663 24.8 31.914 24.6965C30.2721 24.6055 29.1858 24.277 28.7772 25.1871C31.2609 25.7546 33.898 25.9385 36.4982 25.7254C36.5165 25.7241 36.535 25.7253 36.5526 25.7289C36.5702 25.7325 36.5866 25.7385 36.6009 25.7465C36.6151 25.7544 36.6269 25.7642 36.6356 25.7753C36.6443 25.7864 36.6496 25.7985 36.6514 25.811C36.6542 25.832 36.6473 25.8531 36.6318 25.8714C36.6163 25.8896 36.5928 25.9041 36.5648 25.9128C36.5648 25.9128 33.515 26.8834 28.6716 25.8567ZM19.7398 11.1005C21.7569 10.1328 24.0314 9.44373 26.4353 9.07209C29.1471 8.64266 31.9659 8.63746 34.6811 9.05689C34.7761 9.07181 34.8367 8.95899 34.7517 8.92638C33.3427 8.42507 31.7874 8.14564 30.1998 8.1086C30.1845 8.10842 30.1696 8.10535 30.1567 8.09974C30.1438 8.09413 30.1334 8.08619 30.1267 8.07681C30.1199 8.06742 30.1171 8.05695 30.1185 8.04654C30.12 8.03613 30.1255 8.02619 30.1347 8.01782C30.3813 7.79663 30.6694 7.59853 30.9915 7.42862C31.0059 7.42092 31.0164 7.41028 31.0213 7.39824C31.0263 7.3862 31.0255 7.37339 31.0191 7.36167C31.0127 7.34996 31.0009 7.33995 30.9856 7.3331C30.9703 7.32626 30.9522 7.32293 30.9339 7.32361C28.9898 7.45495 27.1214 7.90707 25.4896 8.64108C25.4757 8.64753 25.4592 8.65097 25.4424 8.65094C25.4256 8.65091 25.4091 8.64742 25.3952 8.64092C25.3813 8.63442 25.3706 8.62521 25.3645 8.6145C25.3583 8.60378 25.3571 8.59205 25.3608 8.58083C25.4923 8.24423 25.6858 7.92042 25.9368 7.6172C25.9452 7.60683 25.9484 7.59491 25.9461 7.58318C25.9437 7.57146 25.936 7.56056 25.9239 7.55208C25.9118 7.54361 25.8961 7.538 25.879 7.53609C25.8619 7.53418 25.8444 7.53607 25.829 7.54147C23.4691 8.43158 21.3671 9.60897 19.6268 11.0156C19.6132 11.0263 19.6058 11.04 19.606 11.0541C19.6062 11.0683 19.614 11.0819 19.628 11.0924C19.6419 11.1029 19.661 11.1095 19.6816 11.111C19.7022 11.1125 19.7229 11.1087 19.7398 11.1005ZM35.5446 19.7382C35.7089 19.8093 35.9057 19.8365 36.0975 19.8147C36.2893 19.793 36.4626 19.7237 36.5844 19.6201C36.7358 19.4199 36.516 19.1483 36.0933 19.0135C35.929 18.9424 35.7321 18.9152 35.5403 18.937C35.3485 18.9589 35.1752 19.0282 35.0535 19.1318C34.9019 19.3319 35.1219 19.6034 35.5446 19.7382ZM36.8413 16.4914C36.9427 16.8519 37.1615 17.1922 37.4815 17.487C37.8121 17.4593 38.1464 17.4593 38.4771 17.487C38.6704 17.0913 38.6873 16.6653 38.5257 16.263C38.2868 15.5208 37.9634 15.0716 37.2952 15.1414C36.6272 15.2114 36.6025 15.7492 36.8413 16.4914ZM38.2628 18.1965C38.0942 18.1634 37.9148 18.1673 37.7497 18.2075C37.5846 18.2477 37.442 18.3223 37.3421 18.4208C37.2422 18.5192 37.1899 18.6365 37.1926 18.7563C37.1954 18.8761 37.2529 18.9923 37.3573 19.0886C37.4616 19.1848 37.6074 19.2564 37.7743 19.2931C37.9412 19.3298 38.1207 19.3299 38.2876 19.2933C38.4546 19.2567 38.6005 19.1853 38.705 19.0891C38.8095 18.9929 38.8672 18.8767 38.8701 18.7569C38.8943 18.628 38.8447 18.4977 38.7314 18.3932C38.6182 18.2887 38.4503 18.2182 38.2628 18.1965Z" fill="black"/>
<path d="M27.1694 18.1301C27.0628 18.1199 27.0174 18.0887 27.004 18.0474C26.9626 17.9194 27.2508 17.7087 27.5546 17.5565C27.998 17.335 28.5173 17.1952 29.0626 17.1505C29.6079 17.1057 30.1609 17.1576 30.6684 17.3011C31.1426 17.4348 31.5503 17.659 31.8428 17.947C31.9514 18.0681 31.9724 18.162 31.9022 18.2112C31.7928 18.29 31.5138 18.1997 31.0596 18.0636C30.514 17.8806 29.911 17.7919 29.3036 17.8051C28.5838 17.8861 27.8713 17.9946 27.1694 18.1301ZM31.6964 18.767C31.5001 18.626 31.2558 18.5205 30.9852 18.4599C30.7146 18.3993 30.4263 18.3855 30.146 18.4197C29.7326 18.4498 29.341 18.5613 29.0188 18.7408C28.8686 18.8144 28.7654 18.9245 28.7304 19.0485C28.7296 19.0623 28.7332 19.0761 28.741 19.0888C28.7488 19.1015 28.7606 19.1129 28.7756 19.1222C28.8022 19.1387 28.837 19.1478 28.873 19.1475C29.0217 19.1326 29.1671 19.105 29.3058 19.0655C29.913 18.9091 30.5691 18.8625 31.2104 18.9303C31.5076 18.9531 31.648 18.9658 31.7132 18.8961C31.7299 18.876 31.7373 18.8529 31.7343 18.8298C31.7313 18.8067 31.718 18.7848 31.6964 18.767Z" fill="black"/>
<path d="M30.8548 18.9531C31.0424 18.497 31.0531 18.0155 30.886 17.5557C30.6442 16.8123 30.2787 16.3875 29.6011 16.4575C28.9236 16.5275 28.906 17.1265 29.1244 17.873C29.2248 18.2151 29.4204 18.5409 29.7006 18.8326C30.2397 19.3467 30.6053 19.2136 30.8538 18.9531L30.8548 18.9531Z" fill="black"/>
</svg>
