<svg width="20" height="19" viewBox="0 0 20 19" fill="none" xmlns="http://www.w3.org/2000/svg">
<g clip-path="url(#clip0)">
<path d="M9.51798 0C12.103 0 12.427 0.01 13.442 0.055C14.455 0.099 15.147 0.253 15.752 0.478C16.378 0.711 16.909 1.022 17.438 1.528C17.967 2.034 18.293 2.542 18.536 3.141C18.771 3.72 18.932 4.382 18.978 5.351C19.024 6.322 19.035 6.632 19.035 9.105C19.035 11.578 19.024 11.888 18.978 12.859C18.932 13.828 18.771 14.49 18.536 15.069C18.293 15.668 17.967 16.175 17.438 16.682C16.909 17.188 16.378 17.499 15.752 17.732C15.147 17.957 14.455 18.111 13.442 18.155C12.427 18.199 12.103 18.21 9.51798 18.21C6.93298 18.21 6.60898 18.2 5.59398 18.155C4.58098 18.111 3.88898 17.957 3.28398 17.732C2.65798 17.499 2.12698 17.188 1.59798 16.682C1.06898 16.176 0.742977 15.668 0.499977 15.069C0.264977 14.49 0.103977 13.828 0.0579766 12.859C0.0119766 11.888 0.000976562 11.578 0.000976562 9.105C0.000976562 6.632 0.0119766 6.322 0.0579766 5.351C0.103977 4.382 0.264977 3.72 0.499977 3.141C0.742977 2.542 1.06898 2.035 1.59798 1.528C2.12698 1.022 2.65798 0.711 3.28398 0.478C3.88898 0.253 4.58098 0.099 5.59398 0.055C6.60898 0.011 6.93298 0 9.51798 0V0ZM9.51798 1.64C6.97598 1.64 6.67498 1.649 5.67198 1.693C4.74398 1.733 4.23998 1.882 3.90498 2.006C3.46098 2.171 3.14398 2.368 2.81098 2.687C2.47798 3.006 2.27198 3.309 2.09898 3.734C1.96898 4.055 1.81398 4.537 1.77098 5.425C1.72498 6.385 1.71498 6.673 1.71498 9.104C1.71498 11.535 1.72498 11.823 1.77098 12.783C1.81298 13.671 1.96798 14.153 2.09898 14.474C2.27198 14.899 2.47798 15.202 2.81098 15.521C3.14398 15.84 3.46098 16.037 3.90498 16.202C4.23998 16.327 4.74398 16.475 5.67198 16.515C6.67598 16.559 6.97698 16.568 9.51798 16.568C12.06 16.568 12.361 16.559 13.364 16.515C14.292 16.475 14.796 16.326 15.131 16.202C15.575 16.037 15.892 15.84 16.225 15.521C16.558 15.202 16.764 14.899 16.937 14.474C17.067 14.153 17.222 13.671 17.265 12.783C17.311 11.823 17.321 11.535 17.321 9.104C17.321 6.673 17.311 6.385 17.265 5.425C17.223 4.537 17.068 4.055 16.937 3.734C16.764 3.309 16.558 3.006 16.225 2.687C15.892 2.368 15.575 2.171 15.131 2.006C14.796 1.881 14.292 1.733 13.364 1.693C12.36 1.649 12.059 1.64 9.51798 1.64ZM9.51798 4.429C12.217 4.429 14.406 6.522 14.406 9.104C14.406 11.686 12.218 13.779 9.51798 13.779C6.81898 13.779 4.62998 11.686 4.62998 9.104C4.62998 6.522 6.81798 4.429 9.51798 4.429ZM9.51798 12.139C11.27 12.139 12.691 10.78 12.691 9.104C12.691 7.428 11.271 6.069 9.51798 6.069C7.76598 6.069 6.34498 7.428 6.34498 9.104C6.34498 10.78 7.76498 12.139 9.51798 12.139ZM15.741 4.244C15.741 4.847 15.23 5.337 14.599 5.337C13.968 5.337 13.457 4.848 13.457 4.244C13.457 3.641 13.968 3.151 14.599 3.151C15.23 3.151 15.741 3.64 15.741 4.244Z" fill="#241C15"/>
</g>
<defs>
<clipPath id="clip0">
<rect width="20" height="19" fill="white"/>
</clipPath>
</defs>
</svg>
