<svg width="17" height="17" viewBox="0 0 17 17" fill="none" xmlns="http://www.w3.org/2000/svg">
<path fill-rule="evenodd" clip-rule="evenodd" d="M14.4864 14.4859H11.9656V10.5405C11.9656 9.59981 11.9491 8.3895 10.6552 8.3895C9.34339 8.3895 9.14317 9.41469 9.14317 10.4734V14.4859H6.6248V6.37311H9.04164V7.48236H9.07611C9.41233 6.84439 10.2354 6.17194 11.4622 6.17194C14.0146 6.17194 14.4864 7.85164 14.4864 10.0366V14.4859ZM3.78156 5.26481C2.97169 5.26481 2.31908 4.60983 2.31908 3.80233C2.31908 2.99531 2.97169 2.34033 3.78156 2.34033C4.58811 2.34033 5.24309 2.99531 5.24309 3.80233C5.24309 4.60983 4.58811 5.26481 3.78156 5.26481ZM2.5193 14.4859H5.04286V6.37311H2.5193V14.4859ZM15.742 0H1.25423C0.562422 0 0 0.548722 0 1.22589V15.7732C0 16.4503 0.562422 17 1.25423 17H15.742C16.4357 17 16.9995 16.4503 16.9995 15.7732V1.22589C16.9995 0.548722 16.4357 0 15.742 0Z" fill="#241C15"/>
</svg>
