<svg width="148" height="28" viewBox="0 0 148 28" fill="none" xmlns="http://www.w3.org/2000/svg">
<g clip-path="url(#clip0)">
<path d="M76.9072 13.125C76.3788 15.2206 75.1499 17.0761 73.4214 18.3875C71.693 19.6989 69.5675 20.3886 67.3929 20.3437C66.1232 20.3466 64.8654 20.1011 63.6913 19.6211C62.5171 19.1412 61.4496 18.4362 60.5498 17.5465C59.65 16.6568 58.9354 15.5998 58.4468 14.4358C57.9582 13.2718 57.7053 12.0236 57.7024 10.7625C57.6995 9.5014 57.9467 8.25208 58.4299 7.08588C58.9132 5.91967 59.6229 4.85942 60.5187 3.96566C61.4144 3.07189 62.4786 2.36212 63.6506 1.87687C64.8225 1.39161 66.0792 1.14037 67.3488 1.1375C69.5488 1.08939 71.6986 1.7932 73.4385 3.13116C75.1785 4.46912 76.403 6.36005 76.9072 8.4875H71.8857C71.5511 7.55692 70.9362 6.7512 70.1245 6.17981C69.3128 5.60842 68.3437 5.29906 67.3488 5.29375C64.0893 5.29375 62.3274 8.05 62.3274 10.675C62.3274 13.475 64.2215 16.1875 67.3488 16.1875C70.3441 16.1875 71.5774 13.6937 71.8857 13.0375H76.9072V13.125ZM84.9679 5.6875C90.0774 5.6875 92.5 9.66875 92.5 13.125C92.5 16.4937 90.0774 20.4312 84.9679 20.4312C79.8584 20.4312 77.3917 16.4937 77.3917 13.0812C77.3917 9.66875 79.8584 5.73125 84.9679 5.73125V5.6875ZM84.9679 16.5812C86.7738 16.5812 88.3155 15.0937 88.3155 13.0812C88.3155 11.0687 86.7738 9.58125 84.9679 9.58125C84.5149 9.58675 84.0675 9.68234 83.6523 9.86239C83.2371 10.0424 82.8624 10.3033 82.5504 10.6295C82.2384 10.9558 81.9953 11.3408 81.8355 11.7619C81.6758 12.183 81.6026 12.6316 81.6203 13.0812C81.6203 15.0937 83.1619 16.5812 84.9679 16.5812ZM106.155 20.125H102.191L102.235 18.4187H102.191C101.31 20.1687 99.5917 20.3437 98.5346 20.3437C97.6536 20.3437 95.6715 20.1687 94.3941 18.5937C93.2929 17.2375 93.1607 16.2312 93.1607 14.35V6.0375H97.3453V13.7375C97.3453 14.6562 97.3453 16.4937 99.5917 16.4937C100.825 16.4937 102.014 15.8812 102.014 13.6937V6.08125H106.243L106.199 20.0812L106.155 20.125ZM121.616 6.08125H117.387V20.0812H121.616V6.125V6.08125ZM119.457 0C120.129 0 120.773 0.265038 121.248 0.736809C121.723 1.20858 121.99 1.84844 121.99 2.51562C121.99 3.18281 121.723 3.82267 121.248 4.29444C120.773 4.76621 120.129 5.03125 119.457 5.03125C118.136 5.03125 117.035 3.89375 117.035 2.49375C117.035 1.1375 118.136 0 119.457 0ZM142.142 20.125H137.605V6.0375H142.142V20.0375V20.125ZM145.049 5.81875C146.723 5.81875 148 7 148 8.61875C148 10.15 146.723 11.375 145.049 11.375C144.675 11.3867 144.303 11.3243 143.953 11.1915C143.604 11.0588 143.285 10.8583 143.014 10.6018C142.743 10.3452 142.527 10.0378 142.377 9.69734C142.227 9.35688 142.147 8.99023 142.142 8.61875C142.142 7 143.463 5.81875 145.049 5.81875ZM136.636 15.75C136.023 17.1804 135.015 18.4091 133.729 19.2937C132.583 20.1687 131.174 20.5625 129.72 20.5625C127.723 20.5741 125.802 19.797 124.381 18.4022C122.961 17.0074 122.156 15.1091 122.144 13.125C122.132 11.1408 122.915 9.23335 124.319 7.82214C125.723 6.41093 127.635 5.6116 129.632 5.6C130.634 5.59957 131.626 5.79895 132.55 6.18632C133.473 6.5737 134.308 7.14118 135.006 7.85515C135.705 8.56913 136.252 9.41506 136.615 10.3428C136.978 11.2706 137.15 12.2613 137.12 13.2562L136.988 14.4375H126.417C126.681 16.1 128.046 17.0625 129.72 17.0625C131.042 17.0625 131.702 16.4937 132.275 15.75H136.636ZM132.892 11.55C132.735 10.8328 132.324 10.1953 131.734 9.75368C131.144 9.31204 130.414 9.09559 129.676 9.14375C128.939 9.09559 128.209 9.31204 127.619 9.75368C127.028 10.1953 126.618 10.8328 126.461 11.55H132.892ZM111.22 20.125H107.036V6.0375H111.22V20.0375V20.125ZM113.995 5.81875C115.537 5.81875 116.77 7 116.77 8.61875C116.77 10.15 115.537 11.375 113.995 11.375C113.629 11.3809 113.266 11.3137 112.926 11.1772C112.587 11.0408 112.279 10.838 112.02 10.5809C111.761 10.3238 111.557 10.0176 111.419 9.68048C111.282 9.3434 111.214 8.98234 111.22 8.61875C111.22 7 112.454 5.81875 113.995 5.81875ZM45.1929 6.25625C45.1661 6.24151 45.1358 6.23397 45.1052 6.23439C45.0745 6.23481 45.0445 6.24316 45.0181 6.25862C44.9917 6.27409 44.9698 6.29613 44.9546 6.32257C44.9394 6.349 44.9314 6.37893 44.9314 6.40937C44.9314 6.43982 44.9394 6.46974 44.9546 6.49618C44.9698 6.52262 44.9917 6.54466 45.0181 6.56012C45.0445 6.57559 45.0745 6.58394 45.1052 6.58436C45.1358 6.58477 45.1661 6.57724 45.1929 6.5625C45.2204 6.54737 45.2434 6.52518 45.2594 6.49825C45.2753 6.47132 45.2838 6.44063 45.2838 6.40937C45.2838 6.37811 45.2753 6.34742 45.2594 6.3205C45.2434 6.29357 45.2204 6.27138 45.1929 6.25625Z" fill="black"/>
<path d="M42.7262 1.00625C41.3783 0.913685 40.0255 1.0971 38.7519 1.54512C37.4782 1.99315 36.3108 2.69623 35.3219 3.6108C34.333 4.52536 33.5438 5.63191 33.0032 6.86186C32.4626 8.09181 32.1821 9.41894 32.1791 10.761C32.1761 12.103 32.4506 13.4314 32.9857 14.6637C33.5207 15.8961 34.3049 17.0061 35.2897 17.9251C36.2744 18.844 37.4387 19.5523 38.7103 20.006C39.9819 20.4597 41.3338 20.6491 42.6822 20.5625C45.1794 20.3965 47.5197 19.2941 49.2293 17.4787C50.9389 15.6632 51.89 13.2702 51.89 10.7844C51.89 8.29854 50.9389 5.90559 49.2293 4.0901C47.5197 2.27461 45.1794 1.17225 42.6822 1.00625H42.7262ZM46.5584 6.9125H46.4703C45.1489 7.04375 46.206 8.8375 46.206 8.8375C46.5584 9.58125 46.6024 9.84375 46.6024 10.4125C46.6024 11.8125 45.5893 13.0375 44.4441 13.65C44.4441 13.65 43.7393 14.4813 43.7834 14.8313L44.0036 15.2688H44.7084C44.8405 15.2688 44.9727 15.4 44.9727 15.5313H43.0786C43.0786 15.4 43.2108 15.2688 43.387 15.2688H43.5191C43.5191 15.2688 42.8584 14.9625 42.7703 14.175C40.8762 14.7438 39.2465 13.8688 39.2465 13.8688C39.2465 13.8688 36.2953 14.9188 35.8548 14.6125C36.0751 14.3938 37.7489 13.5625 38.0572 13.3875C43.0346 10.5875 43.431 9.625 43.431 9.625C44.0477 8.8375 43.8715 7.9625 44.0477 7.13125L44.1798 6.60625C44.2679 6.125 44.6643 5.775 45.1489 5.81875C45.5453 5.81875 45.8536 6.08125 45.9858 6.3875C45.9858 6.3875 45.8536 6.51875 45.9858 6.60625C46.1179 6.60625 46.162 6.475 46.162 6.475C46.4262 6.5625 46.6024 6.69375 46.6465 6.9125L46.5143 6.95625L46.5584 6.9125ZM29.512 0.875L22.156 20.6938L29.4679 0.875H29.512Z" fill="black"/>
<path d="M29.512 0.875L22.156 20.6938" stroke="black"/>
<path fill-rule="evenodd" clip-rule="evenodd" d="M14.1833 10.3248H14.6238V9.62485C14.5357 9.1436 14.4036 8.83735 14.0952 8.8811C13.8309 8.92485 13.8309 9.3186 13.919 9.7561C13.9631 10.0186 14.0512 10.2373 14.1833 10.3686V10.3248ZM11.8048 10.7186C11.9809 10.7623 12.1131 10.8498 12.1571 10.8061V10.6311C12.025 10.4561 11.8488 10.3248 11.6286 10.1936C11.1881 10.0186 10.6595 10.1061 10.2631 10.3686C10.1309 10.4561 9.9988 10.5873 9.9988 10.6748L10.0869 10.7186C10.175 10.7186 10.5714 10.5436 11.0119 10.5436C11.3202 10.5436 11.5845 10.6311 11.8048 10.7186ZM11.4083 10.9373C11.144 10.9373 10.9679 11.0248 10.8798 11.1123L10.7917 11.3311V11.3748L11.0119 11.3311C11.3643 11.1998 11.6286 11.1998 11.8929 11.2436H12.069V11.1561C12.025 11.0248 11.7607 10.8936 11.4083 10.9373ZM13.3905 11.7248C13.5667 11.8123 13.7429 11.8123 13.8309 11.6811C13.8309 11.5498 13.7869 11.3748 13.6107 11.2873C13.4345 11.1998 13.2143 11.2436 13.1702 11.3748C13.1262 11.5061 13.1702 11.6373 13.3905 11.7248ZM14.5357 10.7623C14.3595 10.7623 14.2274 10.9373 14.2274 11.1123C14.2274 11.3311 14.3595 11.4623 14.4917 11.4623C14.6238 11.4623 14.7559 11.3311 14.7559 11.1123C14.7559 10.9373 14.6679 10.7623 14.4917 10.7623H14.5357ZM4.88928 14.2186H4.62499C4.57712 14.2256 4.52825 14.2214 4.48233 14.2062C4.43642 14.191 4.39476 14.1653 4.36071 14.1311V13.6936L4.40476 13.6498C4.5369 13.3873 4.71309 12.9498 4.49285 12.5561C4.36071 12.2498 4.05238 12.0748 3.74404 12.0311C3.43571 11.9873 3.12738 12.1186 2.95118 12.3373C2.64285 12.6436 2.55476 13.1248 2.64285 13.2998L2.73095 13.3873C2.77499 13.3873 2.86309 13.3436 2.90714 13.2123V13.1248L3.03928 12.8186C3.12738 12.6873 3.25952 12.5998 3.39166 12.5561C3.56785 12.5561 3.69999 12.5561 3.83214 12.6436C4.05238 12.7748 4.14047 13.0811 4.05238 13.2998C4.00833 13.4311 3.92023 13.7373 3.96428 13.9123C3.96428 14.3498 4.22857 14.4811 4.49285 14.5248C4.71309 14.5248 4.88928 14.3936 4.93333 14.3061V14.1748L4.88928 14.2186Z" fill="black"/>
<path fill-rule="evenodd" clip-rule="evenodd" d="M7.04766 6.56264C7.75659 5.75971 8.60752 5.09246 9.55838 4.59389H9.60242L9.38218 5.16264C9.38218 5.20639 9.38218 5.25014 9.42623 5.20639C9.9548 4.85639 10.8358 4.50639 11.6286 4.46264V4.50639L11.2762 4.85639L11.3203 4.90014C11.8489 4.90014 12.6417 5.11889 13.1262 5.33764V5.46889C12.1061 5.22689 11.0463 5.19917 10.0147 5.38752C8.98316 5.57586 8.00257 5.97611 7.13576 6.56264H7.04766ZM13.875 15.1376V15.0501C13.875 15.0501 13.875 15.0064 13.875 15.0501C13.875 15.0501 12.2453 15.2251 10.7477 14.7001C10.9239 14.1751 11.3643 14.3501 12.025 14.4376C13.2143 14.4814 14.2274 14.3064 15.0643 14.0876C15.8728 13.859 16.6336 13.4886 17.3108 12.9939C17.575 13.4751 17.6191 14.0439 17.6191 14.0439C17.6191 14.0439 17.8393 14.0439 17.9715 14.1314C18.1036 14.2189 18.2358 14.3939 18.1477 14.8314C18.0155 15.7064 17.6191 16.4064 17.0024 17.0626C16.3576 17.6982 15.5737 18.1773 14.7119 18.4626C12.2893 19.2064 9.86671 18.3751 9.07385 16.5814L8.94171 16.1439C8.58933 14.9626 8.85361 13.5189 9.77861 12.6439L9.86671 12.4251C9.86671 12.3814 9.86671 12.2939 9.77861 12.2501C9.47028 11.8126 8.41314 11.0251 8.63338 9.58139C8.76552 8.53139 9.69052 7.83139 10.5715 7.83139H10.7917L11.8048 7.91889C12.3334 7.91889 12.8179 7.87514 13.3465 7.43764C13.5667 7.26264 13.6989 7.13139 13.9631 7.08764H14.1834C14.3155 7.08764 14.4477 7.08764 14.5798 7.17514C15.0203 7.48139 15.0643 8.18139 15.1084 8.70639L15.1524 9.88764C15.1524 10.3689 15.3286 10.4564 15.5929 10.5001L16.0334 10.6314C16.4563 10.7249 16.8496 10.9202 17.1786 11.2001C17.3108 11.3314 17.3989 11.4626 17.3989 11.5939C17.4869 12.0751 17.0024 12.6876 15.7691 13.2564C14.37 13.8594 12.8317 14.0712 11.3203 13.8689C10.4393 13.7376 9.91076 14.8751 10.4393 15.6189C10.7917 16.1439 11.7608 16.4939 12.6417 16.4939C14.8441 16.4939 16.5179 15.5751 17.1346 14.7876L17.1786 14.7439V14.7001C16.65 15.0064 14.4036 16.3626 11.981 15.9689C11.981 15.9689 11.6727 15.9251 11.4084 15.7939C11.1881 15.7501 10.7477 15.5314 10.7036 15.0939C12.6417 15.6626 13.875 15.0939 13.875 15.0939V15.1376ZM3.21552 10.5876C2.53996 10.7046 1.93832 11.082 1.54171 11.6376C1.2963 11.4291 1.07473 11.1943 0.880994 10.9376C0.264327 9.84389 1.49766 7.74389 2.33457 6.56264C4.44885 3.67514 7.75242 1.44389 9.25004 1.83764C9.51433 1.92514 10.3512 2.84389 10.3512 2.84389C10.3512 2.84389 8.80957 3.67514 7.40004 4.81264C5.50599 6.25639 4.05242 8.31264 3.21552 10.5876ZM4.31671 15.5751H4.00838C2.99528 15.5751 1.89409 14.6564 1.80599 13.6064C1.67385 12.4251 2.24647 11.5064 3.39171 11.2876H3.83218C4.44885 11.2876 5.3298 11.7251 5.55004 13.0376C5.72623 14.2189 5.4179 15.3564 4.31671 15.5751ZM18.1036 13.4751L17.9715 13.0376L17.7953 12.6001C18.1036 12.1626 18.1477 11.7251 18.1036 11.4626C18.0596 11.2001 17.9274 10.9376 17.6631 10.6751C17.2424 10.3289 16.7438 10.0888 16.2096 9.97514L15.8572 9.88764L15.8131 8.66264C15.8131 8.40014 15.8131 8.00639 15.6369 7.56889C15.5048 7.04389 15.1965 6.56264 14.8881 6.25639C15.7691 5.33764 16.3858 4.28764 16.3858 3.41264C16.3858 1.66264 14.2274 1.18139 11.5846 2.23139L11.056 2.49389L9.99885 1.48764C7.04766 -1.09361 -2.42258 9.18764 0.572661 11.6376L1.23337 12.2501C1.05718 12.6876 1.01314 13.1689 1.05718 13.6939C1.1616 14.4133 1.52024 15.0724 2.06897 15.5533C2.6177 16.0342 3.32075 16.3056 4.05242 16.3189C5.24171 18.9876 7.92861 20.6064 11.1 20.6939C14.4477 20.7814 17.2667 19.2501 18.456 16.4939C18.5441 16.2751 18.8524 15.4001 18.8524 14.6126C18.8524 13.8251 18.4119 13.5189 18.1036 13.5189V13.4751Z" fill="black"/>
</g>
<defs>
<clipPath id="clip0">
<rect width="148" height="28" fill="white"/>
</clipPath>
</defs>
</svg>
