<svg width="148" height="28" viewBox="0 0 148 28" fill="none" xmlns="http://www.w3.org/2000/svg">
<g clip-path="url(#clip0)">
<path d="M103.754 11.2002V11.3557H103.805L104.163 11.2002V11.1483L105.034 10.6298L105.802 10.4742C106.673 10.4742 107.338 10.7335 107.851 11.3557C108.414 11.8742 108.67 12.652 108.67 13.6372C108.67 14.6742 108.363 15.5039 107.748 16.2298C107.47 16.5592 107.125 16.8229 106.735 17.0021C106.346 17.1813 105.922 17.2717 105.495 17.2668C105.188 17.2668 104.983 17.1631 104.675 17.1113C104.419 17.0594 104.163 16.9039 103.856 16.7483L103.754 16.8002C103.766 17.4579 103.8 18.1151 103.856 18.7705C103.958 18.8742 104.061 18.9779 104.317 19.0298C104.522 19.0298 104.624 19.1335 104.624 19.2372C104.624 19.3928 104.522 19.4965 104.317 19.5483L103.293 19.652C102.883 19.652 102.525 19.652 102.32 19.5483C102.115 19.4965 102.012 19.3928 102.012 19.2372C102.012 19.1335 102.115 19.0816 102.32 19.0298C102.525 18.9261 102.627 18.8742 102.678 18.7705L102.781 18.2002V14.415C102.758 13.4271 102.69 12.4408 102.576 11.4594L102.217 11.4076C102.012 11.4076 101.91 11.252 101.91 11.1483C101.91 10.9928 102.064 10.8372 102.422 10.6298C102.781 10.4742 103.139 10.4224 103.446 10.4224C103.549 10.4224 103.651 10.4224 103.702 10.5261L103.754 10.8891V11.2002ZM103.754 12.9631V15.0372L103.805 15.6076L103.907 15.9187C104.119 16.1442 104.373 16.3245 104.654 16.4492C104.936 16.5739 105.239 16.6403 105.546 16.6446C106.212 16.6446 106.724 16.4372 107.082 15.9705C107.441 15.5557 107.594 14.9335 107.594 14.1039C107.594 13.2224 107.39 12.5483 107.031 12.0298C106.621 11.5113 106.109 11.252 105.495 11.252C104.931 11.252 104.471 11.4076 104.215 11.6668C103.907 11.9779 103.754 12.3928 103.754 12.9631ZM111.384 11.6668C111.602 11.3101 111.879 10.9943 112.203 10.7335C112.511 10.4742 112.818 10.3705 113.074 10.3705C113.33 10.3705 113.484 10.4742 113.637 10.6298C113.791 10.7335 113.893 10.9409 113.893 11.1483C113.893 11.4076 113.791 11.5631 113.689 11.6668C113.535 11.8742 113.381 11.9261 113.176 11.9261C112.972 11.9261 112.869 11.8742 112.716 11.7705L112.511 11.252C112.121 11.3617 111.79 11.6225 111.589 11.9779C111.435 12.2372 111.333 12.9113 111.333 13.9483C111.355 14.7278 111.406 15.5061 111.486 16.2816C111.486 16.3335 111.691 16.4372 111.896 16.4372H112.101L112.306 16.5928L112.357 16.7483C112.357 16.852 112.255 16.9557 112.05 17.0076L110.923 17.1113C110.462 17.1113 110.155 17.1113 109.899 17.0076C109.745 17.0076 109.643 16.852 109.643 16.7483C109.643 16.5928 109.745 16.5409 109.899 16.4891L110.206 16.3335C110.309 16.2816 110.36 16.1261 110.36 15.9187L110.411 14.7779C110.408 13.8264 110.374 12.8753 110.309 11.9261C110.309 11.7705 110.206 11.615 110.155 11.5631C110.155 11.5113 110.001 11.4594 109.797 11.4594H109.643L109.489 11.4076C109.457 11.3834 109.432 11.3521 109.414 11.3161C109.396 11.2801 109.387 11.2404 109.387 11.2002L109.489 10.9928L109.848 10.7853C110.17 10.6026 110.514 10.4632 110.872 10.3705C110.974 10.3705 111.077 10.4742 111.128 10.6816L111.282 11.615L111.384 11.6668ZM115.583 12.9631H118.912L118.963 12.7557C118.963 12.2372 118.81 11.8224 118.451 11.5113C118.188 11.2442 117.846 11.0698 117.478 11.0138C117.109 10.9578 116.732 11.0231 116.403 11.2002L115.839 11.7187L115.481 12.2372L115.327 12.8076L115.379 12.9631H115.583ZM119.475 13.5335H115.532L115.379 13.5853L115.327 13.7928C115.327 14.5705 115.532 15.2446 115.942 15.7631C116.352 16.2816 116.864 16.4891 117.478 16.4891C118.003 16.499 118.513 16.3146 118.912 15.9705L119.322 15.5557C119.475 15.3483 119.629 15.2965 119.731 15.2965H119.936L119.988 15.5039C119.988 15.6076 119.988 15.7113 119.885 15.815C119.833 15.9447 119.764 16.0668 119.68 16.1779C119.373 16.5114 119 16.7759 118.585 16.9545C118.171 17.1331 117.724 17.2219 117.273 17.215C116.352 17.215 115.635 16.9039 115.02 16.2816C114.472 15.6532 114.179 14.8381 114.201 14.0002C114.201 12.9631 114.508 12.1335 115.122 11.4594C115.737 10.7853 116.505 10.4224 117.427 10.4224C118.246 10.4224 118.861 10.6816 119.373 11.1483C119.834 11.615 120.039 12.1853 120.039 13.015L119.988 13.5335L119.527 13.5853L119.475 13.5335ZM123.828 10.5261L124.033 10.4224H124.187C124.34 10.4224 124.494 10.5261 124.699 10.8372C124.801 11.0965 124.904 11.4076 124.904 11.7705C124.904 11.9261 124.904 12.0298 124.801 12.0816C124.75 12.1853 124.648 12.2372 124.545 12.2372C124.443 12.2372 124.289 12.0816 124.187 11.8224L124.136 11.7187C123.982 11.4076 123.828 11.2002 123.624 11.0965C123.47 10.9928 123.265 10.9409 122.958 10.9409C122.702 10.9409 122.446 11.0446 122.241 11.2002C122.036 11.4076 121.934 11.615 121.934 11.9261C121.934 12.3928 122.446 12.8594 123.47 13.3261L123.982 13.5335C124.34 13.6891 124.597 13.9483 124.801 14.2594C125.006 14.5705 125.109 14.8816 125.109 15.2965C125.109 15.815 124.904 16.3335 124.494 16.6965C124.084 17.0594 123.572 17.215 122.907 17.215L122.19 17.1631L121.678 17.0594H121.473L121.268 17.1631C121.165 17.1631 121.012 17.0076 120.909 16.6965C120.756 16.3853 120.704 16.0742 120.704 15.7631C120.704 15.6076 120.704 15.5039 120.807 15.452C120.909 15.3483 120.961 15.3483 121.063 15.3483C121.217 15.3483 121.319 15.452 121.473 15.7113L121.626 15.9705C121.755 16.1971 121.942 16.3841 122.168 16.5119C122.393 16.6396 122.648 16.7034 122.907 16.6965C123.265 16.6965 123.572 16.5928 123.828 16.3853C124.033 16.1779 124.187 15.8668 124.187 15.5557C124.187 15.2965 124.084 15.0891 123.982 14.9335C123.828 14.7261 123.624 14.5705 123.265 14.415L122.753 14.2076C122.138 13.9483 121.677 13.6891 121.37 13.3779L121.012 12.8594L120.858 12.2372C120.858 11.7187 121.063 11.252 121.473 10.8891C121.831 10.5779 122.343 10.3705 122.958 10.3705L123.367 10.4224L123.88 10.5261H123.828ZM127.157 12.9631H130.588V12.7557C130.588 12.2372 130.486 11.8224 130.127 11.5113C129.864 11.2442 129.523 11.0698 129.154 11.0138C128.785 10.9578 128.408 11.0231 128.079 11.2002C127.874 11.3039 127.669 11.5113 127.516 11.7187L127.157 12.2372L127.003 12.8076L127.055 12.9631H127.208H127.157ZM131.1 13.5335H127.157L126.952 13.5853V13.7928C126.952 14.5705 127.157 15.2446 127.567 15.7631C127.976 16.2816 128.489 16.4891 129.103 16.4891C129.61 16.4866 130.1 16.3029 130.486 15.9705L130.895 15.5557C131.1 15.3483 131.254 15.2965 131.408 15.2965H131.561L131.612 15.5039C131.612 15.6076 131.612 15.7113 131.51 15.815L131.305 16.1779C130.998 16.5114 130.625 16.7759 130.21 16.9545C129.796 17.1331 129.349 17.2219 128.898 17.215C127.976 17.215 127.26 16.9039 126.645 16.2816C126.066 15.6481 125.754 14.8111 125.774 13.9483C125.774 12.9113 126.082 12.0816 126.696 11.4076C127.311 10.7335 128.079 10.3705 129.001 10.3705C129.82 10.3705 130.435 10.6298 130.895 11.0965C131.408 11.5631 131.612 12.1335 131.612 12.9631L131.561 13.4816L131.1 13.5335ZM134.173 11.4076V11.5631H134.224C134.275 11.5631 134.378 11.5631 134.48 11.3557L134.736 11.0965C134.941 10.8372 135.146 10.6816 135.402 10.5779C135.658 10.4742 135.914 10.4224 136.273 10.4224C136.792 10.3879 137.304 10.5548 137.707 10.8891C138.065 11.1483 138.321 11.6668 138.475 12.2891V12.7039C138.54 13.2544 138.557 13.8096 138.526 14.3631C138.546 14.9861 138.58 15.6084 138.628 16.2298L138.782 16.3853L138.987 16.4891C139.192 16.4891 139.294 16.5928 139.294 16.7483C139.294 16.852 139.192 16.9557 138.987 17.0076L138.014 17.1113C137.604 17.1113 137.297 17.1113 137.092 17.0076C136.887 17.0076 136.785 16.852 136.785 16.7483C136.785 16.5928 136.887 16.5409 137.092 16.4891L137.45 16.2816L137.502 15.7113V13.4816C137.502 12.7039 137.45 12.1335 137.194 11.7705C136.99 11.4594 136.631 11.252 136.119 11.252C135.791 11.2654 135.47 11.3512 135.178 11.5035C134.886 11.6557 134.63 11.8708 134.429 12.1335L134.224 12.5483L134.173 13.2224V13.7409C134.185 14.5886 134.219 15.4358 134.275 16.2816L134.634 16.4891C134.839 16.4891 134.941 16.5928 134.941 16.7483C134.941 16.852 134.839 16.9557 134.634 17.0076L133.661 17.1113C133.251 17.1113 132.893 17.1113 132.739 17.0076C132.534 17.0076 132.432 16.852 132.432 16.7483C132.432 16.5928 132.534 16.5409 132.688 16.4891L133.098 16.2816L133.149 15.5557C133.186 14.2067 133.152 12.8566 133.046 11.5113C133.046 11.5113 132.893 11.4076 132.637 11.4076C132.432 11.4076 132.329 11.252 132.329 11.1483C132.329 10.9928 132.483 10.8372 132.842 10.6298C133.2 10.4742 133.558 10.4224 133.866 10.4224L134.071 10.4742L134.173 10.8891V11.4076ZM140.523 11.4076H140.011L139.857 11.3039L139.806 11.2002V11.0446C139.806 10.9409 139.96 10.6816 140.318 10.3187C140.446 10.1702 140.566 10.0143 140.677 9.85201C140.984 9.48905 141.189 9.3335 141.343 9.3335L141.445 9.38535L141.547 9.5409V10.6816H142.828L142.981 10.7335L143.032 10.9409V11.3039L142.828 11.3557H141.65L141.547 11.4076V15.0891C141.547 15.6076 141.547 15.9705 141.65 16.1261C141.803 16.3335 141.957 16.4372 142.213 16.4372C142.316 16.4372 142.469 16.4372 142.623 16.3335L142.93 16.2298L143.084 16.2816L143.186 16.4372C143.186 16.6446 143.033 16.8002 142.725 16.9557C142.469 17.1631 142.162 17.2668 141.803 17.2668C141.343 17.2668 141.035 17.1113 140.83 16.8002C140.626 16.5409 140.523 16.0742 140.523 15.4002V11.3557V11.4076ZM146.668 10.5261L146.873 10.4224H147.027C147.181 10.4224 147.334 10.5261 147.539 10.8372C147.642 11.0965 147.744 11.4076 147.744 11.7705C147.744 11.9261 147.744 12.0298 147.641 12.0816C147.59 12.1853 147.488 12.2372 147.385 12.2372C147.283 12.2372 147.129 12.0816 147.027 11.8224L146.976 11.7187C146.862 11.4691 146.686 11.2544 146.464 11.0965C146.31 10.9928 146.105 10.9409 145.798 10.9409C145.542 10.9409 145.286 11.0446 145.081 11.2002C144.876 11.4076 144.774 11.615 144.774 11.9261C144.774 12.3928 145.286 12.8594 146.31 13.3261L146.822 13.5335C147.181 13.6891 147.488 13.9483 147.641 14.2594C147.846 14.5705 147.949 14.8816 147.949 15.2965C147.949 15.815 147.744 16.3335 147.334 16.6965C146.925 17.0594 146.412 17.215 145.747 17.215L145.03 17.1631L144.518 17.0594H144.313L144.108 17.1631C144.006 17.1631 143.903 17.0076 143.749 16.6965C143.596 16.3853 143.545 16.0742 143.545 15.7631C143.545 15.6076 143.545 15.5039 143.647 15.452C143.749 15.3483 143.801 15.3483 143.903 15.3483C144.057 15.3483 144.159 15.452 144.313 15.7113L144.466 15.9705C144.595 16.1971 144.783 16.3841 145.008 16.5119C145.233 16.6396 145.489 16.7034 145.747 16.6965C146.105 16.6965 146.412 16.5928 146.668 16.3853C146.873 16.1779 147.027 15.8668 147.027 15.5557C147.027 15.2965 146.925 15.0891 146.822 14.9335C146.668 14.7261 146.464 14.5705 146.156 14.415L145.644 14.2076C144.979 13.9483 144.518 13.6891 144.21 13.3779L143.852 12.8594L143.698 12.2372C143.698 11.7187 143.903 11.252 144.313 10.8891C144.671 10.5779 145.183 10.3705 145.798 10.3705L146.208 10.4224L146.72 10.5261H146.668Z" fill="#241C15"/>
<path fill-rule="evenodd" clip-rule="evenodd" d="M19.4602 13.2223H20.0747C20.1771 13.0149 20.1771 12.6001 20.0747 12.1334C19.9723 11.4593 19.7674 11.0964 19.409 11.0964C18.9993 11.2001 18.9993 11.6667 19.1529 12.3408C19.2041 12.7038 19.3578 13.0149 19.5114 13.2223H19.4602ZM16.2339 13.7408C16.4899 13.8964 16.6436 13.9482 16.746 13.8964L16.6948 13.6371C16.5411 13.4297 16.2851 13.2223 15.9778 13.1186C15.6709 12.9857 15.3355 12.935 15.0036 12.9714C14.6718 13.0077 14.3548 13.1298 14.083 13.326C13.9294 13.4297 13.7245 13.6371 13.7757 13.7408L13.8782 13.7927C14.0318 13.7927 14.5439 13.5853 15.1584 13.5334C15.5681 13.5334 15.9266 13.6371 16.1827 13.7408H16.2339ZM15.6706 14.1038C15.3121 14.1038 15.1584 14.2593 15.0048 14.363L14.8 14.6223V14.726H14.9024L15.1584 14.6741C15.6706 14.4667 15.9778 14.5186 16.2851 14.5186H16.5924V14.4149C16.5411 14.2593 16.1315 14.0001 15.6706 14.1038ZM18.3847 15.2445C18.6408 15.3482 18.8969 15.3482 18.9993 15.1408C19.0505 14.9853 18.9481 14.726 18.692 14.6223C18.4872 14.4667 18.1799 14.5186 18.1287 14.726C18.0263 14.8815 18.1287 15.1408 18.3847 15.2445ZM19.9211 13.8445C19.7674 13.8445 19.6138 14.1038 19.5626 14.363C19.5626 14.6223 19.7162 14.8815 19.9211 14.8815C20.1259 14.8815 20.2796 14.6223 20.2796 14.363C20.2796 14.1038 20.1259 13.8445 19.9723 13.8445H19.9211ZM6.55499 18.7704C6.45257 18.7704 6.40135 18.8223 6.35014 18.7704C6.28655 18.7831 6.2209 18.7803 6.15858 18.7623C6.09626 18.7442 6.03906 18.7115 5.99167 18.6667V18.0445L6.09409 17.9408C6.24772 17.5778 6.50378 17.0075 6.19651 16.3853C6.09752 16.1886 5.95236 16.0196 5.77378 15.893C5.5952 15.7664 5.38865 15.6862 5.17229 15.6593C4.7626 15.6075 4.3017 15.763 4.04564 16.0741C3.58474 16.5927 3.53353 17.2149 3.63596 17.4741L3.73838 17.5778C3.78959 17.5778 3.94322 17.526 3.99443 17.3186C3.99443 17.163 4.09686 17.0075 4.19928 16.8001C4.3017 16.6445 4.45533 16.5408 4.71139 16.489C4.91623 16.489 5.12108 16.489 5.27471 16.5927C5.58198 16.8001 5.6844 17.2149 5.58198 17.5778C5.53077 17.7334 5.37713 18.0964 5.42834 18.4075C5.42834 18.9778 5.83803 19.2371 6.1453 19.2371C6.45256 19.2371 6.65741 19.0815 6.75983 18.9778V18.8223C6.70862 18.7704 6.6062 18.8223 6.55499 18.8223V18.7704ZM24.991 19.7038C24.7349 20.8964 24.2228 21.9334 23.3522 22.8149C22.8401 23.4371 22.1744 23.9556 21.4574 24.3186L20.2283 24.8371C16.9508 25.926 13.5709 24.7334 12.4955 22.1408C12.124 21.2208 12.0135 20.214 12.1763 19.2339C12.3392 18.2537 12.769 17.339 13.4173 16.5927L13.5709 16.2815L13.4685 16.0223C13.0076 15.3482 11.5225 14.3112 11.8297 12.1853C12.0346 10.7334 13.3661 9.64451 14.5439 9.69636H14.8512L16.2339 9.85192C16.9508 9.85192 17.6166 9.80007 18.3847 9.12599C18.6408 8.91859 18.8456 8.71118 19.2041 8.65933H19.5114C19.665 8.65933 19.8699 8.65933 20.0235 8.81488C20.638 9.2297 20.7405 10.2149 20.7405 10.9408L20.8429 12.6519C20.8429 13.326 21.0477 13.4297 21.355 13.5334L22.0207 13.7408C22.6237 13.8539 23.1879 14.1217 23.6595 14.5186C23.8131 14.726 23.9155 14.8815 23.9155 15.089C24.018 15.8149 23.4034 16.6445 21.7135 17.4741C19.946 18.2697 18.006 18.5911 16.0802 18.4075L15.5681 18.3038C14.2879 18.1482 13.6221 19.8075 14.3391 20.8964C14.8512 21.6223 16.1315 22.089 17.4117 22.089C20.4332 22.089 22.6865 20.7927 23.5571 19.6519L23.6083 19.5482C23.6595 19.4964 23.6083 19.4445 23.6083 19.5482C22.8913 19.963 19.7674 21.9334 16.4387 21.3112C16.4387 21.3112 16.0802 21.3112 15.7218 21.1038C15.4145 21.0001 14.8 20.7408 14.6975 20.0667C17.4117 20.8964 19.1017 20.1186 19.1017 20.1186V20.0667L19.0505 19.963C19.0505 19.963 16.8484 20.326 14.8 19.5482C15.0048 18.7704 15.6193 19.0297 16.4899 19.1334C18.1287 19.2371 19.6138 18.9778 20.6892 18.6667C21.611 18.4075 22.8401 17.8371 23.8131 17.1112C24.1204 17.7852 24.274 18.6149 24.274 18.6149C24.274 18.6149 24.5301 18.563 24.7349 18.6667C24.8885 18.8223 25.0422 19.0815 24.9398 19.7038H24.991ZM9.73007 7.88155C10.7543 6.6371 12.0346 5.60007 13.1612 5.0297H13.2124L12.9052 5.85933C12.9052 5.91118 12.9052 5.96303 12.9564 5.91118C13.6733 5.39266 14.9024 4.87414 15.9778 4.87414C15.9778 4.87414 16.029 4.87414 15.9778 4.92599C15.8018 5.07702 15.6468 5.25144 15.5169 5.44451H15.5681C16.3363 5.44451 17.4117 5.75562 18.1287 6.17044C18.1287 6.17044 18.1287 6.27414 18.0263 6.27414C16.6223 5.94874 15.1661 5.92836 13.7537 6.21437C12.3413 6.50038 11.0049 7.08626 9.8325 7.9334C9.73007 7.9334 9.67886 7.9334 9.73007 7.88155ZM4.40412 13.5853C3.48825 13.7702 2.6798 14.3097 2.15083 15.089C1.79386 14.8147 1.46758 14.5017 1.17782 14.1556C0.409658 12.6001 2.04841 9.59266 3.22627 7.88155C6.1453 3.7334 10.6519 0.518587 12.8027 1.08896C13.11 1.19266 14.2366 2.48896 14.2366 2.48896C14.2366 2.48896 12.1882 3.68155 10.2422 5.34081C7.59298 7.51152 5.58987 10.3833 4.45533 13.6371L4.40412 13.5853ZM5.94045 20.689H5.53077C4.14807 20.689 2.61173 19.3927 2.4581 17.889C2.30447 16.2297 3.12385 14.9334 4.66018 14.6223C4.86221 14.58 5.06855 14.5626 5.27471 14.5704C6.09409 14.5704 7.32315 15.2445 7.63042 17.163C7.88647 18.7186 7.47679 20.4297 5.94045 20.689ZM24.8885 17.7334L24.7349 17.0593L24.4789 16.4371C24.7909 16.046 24.9435 15.549 24.9054 15.0478C24.8673 14.5465 24.6414 14.0789 24.274 13.7408C23.7028 13.2338 23.0168 12.8775 22.2768 12.7038L21.7647 12.6001V10.8371C21.7647 10.4741 21.7135 9.90377 21.5086 9.28155C21.3339 8.57949 20.9808 7.93594 20.4844 7.41488C21.7647 6.06673 22.5328 4.56303 22.5328 3.26673C22.5328 0.88155 19.5626 0.155624 15.9266 1.71118L15.1584 1.97044L13.827 0.570439C9.67886 -3.05919 -3.27754 11.563 0.870558 15.089L1.74115 15.9186C1.51573 16.5847 1.44562 17.2946 1.5363 17.9927C1.65623 19.0176 2.14923 19.9605 2.919 20.6371C3.661 21.332 4.62328 21.7364 5.63319 21.7778C6.47351 23.6453 7.82975 25.2265 9.53817 26.3307C11.2466 27.4348 13.2341 28.0146 15.2609 28.0001C19.8699 28.1556 23.8131 25.926 25.4007 21.9334C25.5031 21.6741 25.964 20.3778 25.964 19.3408C25.964 18.2001 25.3494 17.7334 24.9398 17.7334H24.8885ZM94.2283 16.5408C93.6138 16.5408 93.1017 15.7112 93.1017 14.5704C93.1017 13.4297 93.6138 12.5482 94.2283 12.5482C94.9965 12.5482 95.3038 13.2741 95.3038 14.5704C95.3038 15.8667 94.9965 16.5408 94.2795 16.5408H94.2283ZM92.6408 11.8741C92.4359 12.289 92.436 12.3927 92.3335 12.3927C92.1287 12.3927 92.2823 12.0815 92.3335 11.7186C92.5384 10.9408 92.436 10.3704 92.436 10.3704H90.3875V20.5853H93.1529V17.2149C93.3308 17.5701 93.6016 17.8691 93.9356 18.0794C94.2697 18.2896 94.6544 18.4031 95.0477 18.4075C97.045 18.4075 98.018 16.6445 98.018 14.2593C98.018 11.6149 96.8401 10.163 94.9965 10.163C93.5626 10.163 92.9481 11.2519 92.6408 11.8741ZM84.6519 11.7704C84.4982 12.1334 84.4982 12.3927 84.3446 12.3927C84.191 12.3927 84.2934 12.0815 84.1398 11.6149C83.9349 10.889 83.4228 10.0593 82.1425 10.0593C80.8622 10.0593 80.2989 11.2519 80.0429 11.8741C79.838 12.289 79.838 12.3927 79.6844 12.3927C79.5308 12.3927 79.6844 12.0815 79.7868 11.6667C79.9405 10.889 79.7868 10.2667 79.7868 10.2667H77.7384V18.3038H80.555V14.3112C80.555 13.5334 80.8623 12.4964 81.4256 12.4964C82.0401 12.4964 82.1937 13.0149 82.1937 13.9482V18.3038H85.0103V14.3112C85.0103 13.5853 85.2664 12.4964 85.8809 12.4964C86.4955 12.4964 86.5979 13.2223 86.5979 13.9482V18.3038H89.3633V13.5853C89.3633 11.5112 88.6463 10.1112 86.8027 10.1112C85.5737 10.1112 84.9591 11.1482 84.6519 11.7704ZM74 18.3038H76.8166V10.3186C76.8166 10.3186 76.3045 10.5778 75.3827 10.5778C74.4609 10.5778 74 10.3186 74 10.3186V18.3038ZM75.3827 7.77784C74.4609 7.77784 73.6415 8.29636 73.6415 8.97044C73.6415 9.59266 74.4609 10.1112 75.3827 10.1112C76.3557 10.1112 77.1238 9.59266 77.1238 8.97044C77.1238 8.29636 76.3557 7.77784 75.3827 7.77784ZM68.1107 11.926C68.0083 12.2371 67.9571 12.4445 67.8546 12.4445C67.6498 12.4445 67.8034 12.0815 67.8546 11.8741C68.0083 11.4593 68.2643 10.3704 68.2643 9.07414C68.2643 8.19266 68.1619 7.88155 68.1619 7.88155H65.755V18.2519H68.5204V14.3112C68.5204 13.6371 68.7764 12.5482 69.5446 12.5482C70.0567 12.5482 70.2616 12.963 70.2616 13.8964V18.3038H73.0782V14.0001C73.0782 11.926 72.7709 10.0593 70.5176 10.0593C68.8789 10.0593 68.2643 11.6149 68.1619 11.926H68.1107ZM60.429 14.2593C60.429 13.5853 61.0436 12.9112 62.2726 12.9112C63.1791 12.9363 64.0627 13.2047 64.8332 13.689V10.9408C64.8332 10.9408 64.0138 10.1112 61.9654 10.1112C59.8657 10.1112 58.0733 11.4075 58.0733 14.1556C58.0733 16.9038 59.6609 18.4593 61.9654 18.4593C63.7578 18.4593 64.8332 17.4223 64.8332 17.4223V14.8297C64.4747 14.9853 63.5529 15.6593 62.2726 15.6593C60.8899 15.6593 60.429 15.0371 60.429 14.2593ZM54.5398 18.3038H57.3052V7.88155H54.5398V18.2519V18.3038ZM50.8014 18.3038H53.618V10.3186C53.618 10.3186 53.1059 10.5778 52.1841 10.5778C51.2623 10.5778 50.8014 10.3186 50.8014 10.3186V18.3038ZM52.2353 7.77784C51.211 7.77784 50.4941 8.29636 50.4941 8.97044C50.4941 9.59266 51.2623 10.1112 52.1841 10.1112C53.1571 10.1112 53.9252 9.59266 53.9252 8.97044C53.9252 8.29636 53.1571 7.77784 52.1841 7.77784H52.2353ZM45.8339 16.3853C45.1681 16.5408 44.8097 16.3853 44.8097 15.8667C44.8097 15.2445 45.4242 14.9853 46.346 14.9853L47.1142 15.0371C47.1142 15.2964 46.5508 16.2297 45.8339 16.3853ZM46.4996 10.1112C44.3488 10.1112 42.8124 10.9408 42.8124 10.9408V13.326C42.8124 13.326 44.5024 12.289 45.8851 12.289C47.0117 12.289 47.1142 12.9112 47.0629 13.4297C47.0629 13.4297 46.7557 13.326 45.7827 13.326C43.5294 13.326 42.3515 14.4149 42.3515 16.126C42.3515 17.7853 43.6318 18.4593 44.7584 18.4593C46.2948 18.4593 47.0629 17.3704 47.2678 16.8001C47.4214 16.4371 47.4214 16.2297 47.5751 16.2297C47.7287 16.2297 47.6775 16.3853 47.6775 16.7482C47.6775 17.3704 47.6775 17.889 47.7799 18.3038H49.8796V14.363C49.8796 11.8741 49.0602 10.1112 46.4996 10.1112ZM37.0256 11.7704C36.8207 12.1334 36.8207 12.3927 36.6671 12.3927C36.5135 12.3927 36.6671 12.1334 36.4623 11.6149C36.3656 11.1579 36.1117 10.7506 35.7459 10.4656C35.38 10.1807 34.926 10.0367 34.465 10.0593C33.1847 10.0593 32.6214 11.2519 32.3654 11.8741C32.1605 12.289 32.1605 12.3927 32.0581 12.3927C31.8533 12.3927 32.0069 12.0815 32.0581 11.6667C32.2629 10.889 32.1093 10.2667 32.1093 10.2667H30.0609V18.3038H32.8775V14.3112C32.8775 13.5334 33.1847 12.4964 33.7481 12.4964C34.3626 12.4964 34.5162 13.0149 34.5162 13.9482V18.3038H37.3328V14.3112C37.3328 13.5853 37.5889 12.4964 38.2034 12.4964C38.818 12.4964 38.9204 13.2223 38.9204 14.0001V18.3556H41.6858V13.6371C41.6858 11.563 40.9688 10.163 39.1252 10.163C37.8962 10.163 37.2816 11.2001 37.0256 11.8223V11.7704Z" fill="#241C15"/>
</g>
<defs>
<clipPath id="clip0">
<rect width="148" height="28" fill="white"/>
</clipPath>
</defs>
</svg>
