<svg width="17" height="17" viewBox="0 0 17 17" fill="none" xmlns="http://www.w3.org/2000/svg">
<g clip-path="url(#clip0)">
<path d="M8.5 17C13.1944 17 17 13.1944 17 8.5C17 3.80558 13.1944 0 8.5 0C3.80558 0 0 3.80558 0 8.5C0 13.1944 3.80558 17 8.5 17Z" fill="white"/>
<path d="M8.5 0C3.80576 0 0 3.80576 0 8.5C0 12.1029 2.23868 15.1811 5.40082 16.4193C5.32387 15.7477 5.26091 14.7123 5.42881 13.9778C5.58272 13.3132 6.42222 9.75226 6.42222 9.75226C6.42222 9.75226 6.17037 9.24156 6.17037 8.493C6.17037 7.3107 6.85597 6.42922 7.70947 6.42922C8.43704 6.42922 8.78683 6.9749 8.78683 7.62551C8.78683 8.35309 8.3251 9.44444 8.08025 10.4588C7.87737 11.3054 8.507 11.9979 9.33951 11.9979C10.8506 11.9979 12.0119 10.4029 12.0119 8.10823C12.0119 6.07243 10.5498 4.65226 8.45802 4.65226C6.03745 4.65226 4.61728 6.4642 4.61728 8.3391C4.61728 9.06667 4.89712 9.85021 5.24691 10.277C5.31687 10.3609 5.32387 10.4379 5.30288 10.5218C5.23992 10.7877 5.093 11.3683 5.06502 11.4872C5.03004 11.6412 4.9391 11.6761 4.77819 11.5992C3.71482 11.1025 3.05021 9.55638 3.05021 8.30412C3.05021 5.62469 4.99506 3.16214 8.6679 3.16214C11.6132 3.16214 13.9078 5.26091 13.9078 8.07325C13.9078 11.0045 12.0609 13.3621 9.50041 13.3621C8.63992 13.3621 7.8284 12.9144 7.55556 12.3827L7.02387 14.4045C6.83498 15.1461 6.31728 16.0695 5.96749 16.6362C6.76502 16.8811 7.60453 17.014 8.48601 17.014C13.1802 17.014 16.986 13.2082 16.986 8.51399C17 3.80576 13.1942 0 8.5 0Z" fill="#241C15"/>
</g>
<defs>
<clipPath id="clip0">
<rect width="17" height="17" fill="white"/>
</clipPath>
</defs>
</svg>
