<svg width="19" height="16" viewBox="0 0 19 16" fill="none" xmlns="http://www.w3.org/2000/svg">
<g clip-path="url(#clip0)">
<path d="M16.762 2.53C17.567 2.031 18.185 1.239 18.476 0.296C17.722 0.758 16.889 1.095 15.999 1.275C15.29 0.49 14.276 0 13.154 0C11.003 0 9.25702 1.809 9.25702 4.039C9.25702 4.356 9.29002 4.663 9.35702 4.959C6.11702 4.79 3.24602 3.184 1.32202 0.737C0.986024 1.336 0.795023 2.03 0.795023 2.77C0.795023 4.171 1.48302 5.407 2.52902 6.132C1.89102 6.112 1.28902 5.929 0.762023 5.628V5.678C0.762023 7.636 2.10602 9.269 3.89002 9.638C3.56302 9.733 3.21902 9.78 2.86302 9.78C2.61202 9.78 2.36702 9.756 2.12902 9.708C2.62502 11.312 4.06402 12.48 5.77002 12.512C4.43602 13.596 2.75402 14.242 0.929023 14.242C0.615023 14.242 0.303023 14.224 -0.000976562 14.187C1.72402 15.331 3.77402 16 5.97402 16C13.145 16 17.065 9.846 17.065 4.508L17.055 3.984C17.817 3.414 18.478 2.704 18.999 1.893C18.301 2.214 17.549 2.432 16.761 2.529L16.762 2.53Z" fill="#241C15"/>
</g>
<defs>
<clipPath id="clip0">
<rect width="19" height="16" fill="white"/>
</clipPath>
</defs>
</svg>
