<svg width="21" height="15" viewBox="0 0 21 15" fill="none" xmlns="http://www.w3.org/2000/svg">
<path d="M8.10898 9.731L8.10798 4.051L13.63 6.901L8.10898 9.731ZM20.234 3.067C20.234 3.067 20.034 1.674 19.422 1.061C18.645 0.256 17.774 0.252 17.374 0.205C14.514 0 10.224 0 10.224 0H10.215C10.215 0 5.92498 0 3.06498 0.205C2.66498 0.252 1.79498 0.256 1.01698 1.061C0.404976 1.674 0.204977 3.067 0.204977 3.067C0.204977 3.067 0.000976562 4.703 0.000976562 6.339V7.873C0.000976562 9.509 0.204977 11.145 0.204977 11.145C0.204977 11.145 0.403977 12.538 1.01698 13.151C1.79498 13.956 2.81598 13.931 3.27098 14.015C4.90598 14.17 10.22 14.218 10.22 14.218C10.22 14.218 14.514 14.212 17.374 14.007C17.773 13.96 18.644 13.956 19.422 13.15C20.034 12.537 20.234 11.144 20.234 11.144C20.234 11.144 20.438 9.509 20.438 7.872V6.338C20.438 4.703 20.234 3.066 20.234 3.066V3.067Z" fill="#241C15"/>
</svg>
