<svg viewBox="0 0 512 512" xmlns="http://www.w3.org/2000/svg" xmlns:xlink="http://www.w3.org/1999/xlink"><style>:root&gt;svg{display:none}:root&gt;svg:target{display:block}</style><svg viewBox="0 0 60 60" id="include--email" xmlns="http://www.w3.org/2000/svg"><path d="M31.238 33.99a22.112 22.112 0 01-6.604-1.042 9.99 9.99 0 01-6.636-7.563c-.753-3.626.62-7.46 3.764-10.52a17.43 17.43 0 011.052-.944 12.746 12.746 0 0111.605-2.505 9.717 9.717 0 016.756 8.937 9.206 9.206 0 01-2.152 6.506 5.058 5.058 0 01-4.946 1.816A2.857 2.857 0 0132.24 27.4a2.715 2.715 0 01-.264-2.11c.875-3.306 1.764-8.33 1.773-8.38a1 1 0 111.97.348c-.037.209-.913 5.157-1.809 8.543a.722.722 0 00.045.569.89.89 0 00.58.357 3.106 3.106 0 002.985-1.185 7.198 7.198 0 001.66-5.087 7.735 7.735 0 00-5.356-7.13 10.701 10.701 0 00-9.734 2.135 16.09 16.09 0 00-.934.838c-1.554 1.512-4.037 4.65-3.2 8.68a8.098 8.098 0 005.285 6.064c4.69 1.496 11.43 1.677 14.98-2.738a1 1 0 011.559 1.252c-2.626 3.266-6.622 4.434-10.542 4.434z"/><path d="M27.815 28.805a4.598 4.598 0 01-2.92-.981c-1.919-1.536-1.972-4.205-1.434-6.022.182-.605.425-1.19.727-1.745a8.198 8.198 0 013.435-3.565 4.729 4.729 0 015.563.896 7.484 7.484 0 011.594 2.746 1 1 0 01-1.884.67 5.579 5.579 0 00-1.156-2.035 2.707 2.707 0 00-3.234-.483 6.269 6.269 0 00-2.565 2.733 7.16 7.16 0 00-.563 1.356c-.389 1.314-.303 3.03.769 3.888 1.172.942 3.15.544 4.263-.416a11.152 11.152 0 002.113-2.572 1 1 0 111.7 1.055 13.128 13.128 0 01-2.503 3.027 6.144 6.144 0 01-3.905 1.448z"/><path d="M57 60H3a3.003 3.003 0 01-3-3V20a1 1 0 011.64-.769l24.536 20.392a6.005 6.005 0 007.65 0L58.36 19.23A1 1 0 0160 20v37a3.003 3.003 0 01-3 3zM2 22.131V57a1 1 0 001 1h54a1 1 0 001-1V22.131l-22.898 19.03a8.01 8.01 0 01-10.203.002z"/><path d="M1.001 21a1 1 0 01-.58-1.816l9-6.38a1 1 0 011.157 1.632l-9 6.38a.994.994 0 01-.577.184zm57.998 0a.994.994 0 01-.577-.184l-9-6.38a1 1 0 011.156-1.632l9 6.38A1 1 0 0159 21zM39.24 7a.997.997 0 01-.578-.184l-4.78-3.39a6.01 6.01 0 00-7.703-.047l-4.84 3.437a1 1 0 11-1.157-1.632l4.78-3.39a7.963 7.963 0 0110.137.046l4.72 3.344A1 1 0 0139.239 7zM1.65 59.46a1 1 0 01-.64-1.77l22.82-18.96a1 1 0 111.278 1.539l-22.82 18.96a.997.997 0 01-.638.231zm56.699 0a.994.994 0 01-.638-.231l-22.82-18.96a1 1 0 111.278-1.538l22.82 18.96a1 1 0 01-.64 1.77z"/><path d="M50 28.48a1 1 0 01-1-1V7.008c-.003.02-.043-.008-.11-.008H11.11a.162.162 0 00-.12.043L11 27.48a1 1 0 01-2 0V7a2.06 2.06 0 012.11-2h37.78A2.06 2.06 0 0151 7v20.48a1 1 0 01-1 1z"/></svg><svg viewBox="0 0 512 512" id="include--padlock" xmlns="http://www.w3.org/2000/svg"><path d="M394.667 214.421v-75.755C394.667 62.208 332.459 0 256 0S117.333 62.208 117.333 138.667v75.755c-24.32 4.949-42.667 26.517-42.667 52.245v192C74.667 488.064 98.581 512 128 512h256c29.419 0 53.333-23.936 53.333-53.333v-192c0-25.75-18.346-47.296-42.666-52.246zm-256-75.754c0-64.704 52.651-117.333 117.333-117.333s117.333 52.629 117.333 117.333v74.667H352v-74.667c0-52.928-43.072-96-96-96s-96 43.072-96 96v74.667h-21.333v-74.667zm192 0v74.667H181.333v-74.667C181.333 97.493 214.827 64 256 64s74.667 33.493 74.667 74.667zm85.333 320c0 17.643-14.357 32-32 32H128c-17.643 0-32-14.357-32-32v-192c0-17.643 14.357-32 32-32h256c17.643 0 32 14.357 32 32v192z"/><path d="M256 277.333c-29.419 0-53.333 23.936-53.333 53.333 0 20.267 11.84 38.677 29.675 47.595l-8.235 57.579a10.607 10.607 0 002.496 8.491 10.709 10.709 0 008.064 3.669h42.667c3.093 0 6.037-1.365 8.064-3.691a10.584 10.584 0 002.496-8.491l-8.235-57.579c17.835-8.896 29.675-27.307 29.675-47.573-.001-29.397-23.915-53.333-53.334-53.333zm8.917 83.862c-5.077 1.493-8.299 6.507-7.552 11.755l7.68 53.717h-18.091l7.68-53.717c.768-5.248-2.475-10.261-7.552-11.755C233.28 357.163 224 344.896 224 330.667c0-17.643 14.357-32 32-32s32 14.357 32 32c0 14.229-9.28 26.496-23.083 30.528z"/></svg><svg viewBox="0 0 480 480" id="include--user" xmlns="http://www.w3.org/2000/svg"><path d="M240 0C107.664 0 0 107.664 0 240c0 57.96 20.656 111.184 54.992 152.704.088.12.096.272.192.384 24.792 29.896 55.928 52.816 90.624 67.624.4.168.792.352 1.192.52 2.808 1.184 5.648 2.28 8.496 3.352 1.12.424 2.24.856 3.376 1.264 2.456.88 4.928 1.712 7.416 2.512 1.592.512 3.184 1.016 4.792 1.496 2.2.656 4.408 1.288 6.632 1.888 1.952.528 3.92 1.016 5.888 1.488 1.992.48 3.992.96 6 1.384 2.24.48 4.504.904 6.776 1.32 1.824.336 3.64.688 5.48.984 2.52.408 5.056.728 7.6 1.056 1.64.208 3.272.448 4.92.624 2.88.304 5.784.52 8.696.72 1.352.096 2.696.24 4.056.312 4.248.24 8.544.368 12.872.368s8.624-.128 12.888-.352c1.36-.072 2.704-.216 4.056-.312 2.912-.208 5.816-.416 8.696-.72 1.648-.176 3.28-.416 4.92-.624 2.544-.328 5.08-.648 7.6-1.056 1.832-.296 3.656-.648 5.48-.984 2.264-.416 4.528-.84 6.776-1.32 2.008-.432 4-.904 6-1.384 1.968-.48 3.936-.968 5.888-1.488a232.661 232.661 0 0011.424-3.384c2.488-.8 4.96-1.632 7.416-2.512 1.128-.408 2.248-.84 3.376-1.264a243.168 243.168 0 008.496-3.352c.4-.168.792-.352 1.192-.52a239.997 239.997 0 0090.624-67.624c.096-.112.104-.272.192-.384C459.344 351.184 480 297.96 480 240 480 107.664 372.336 0 240 0zm97.256 441.76c-.12.056-.232.12-.352.176-2.856 1.376-5.76 2.672-8.688 3.936-.664.28-1.32.568-1.984.848a217.023 217.023 0 01-7.76 3.064 159.85 159.85 0 01-3.272 1.192 230.572 230.572 0 01-6.976 2.368c-1.456.464-2.92.904-4.384 1.336a202.08 202.08 0 01-6.28 1.784c-1.776.472-3.568.904-5.36 1.328-1.88.448-3.752.904-5.648 1.304-2.072.44-4.16.816-6.24 1.192-1.688.312-3.368.64-5.072.912-2.344.368-4.712.664-7.072.96-1.496.192-2.984.416-4.496.576-2.696.288-5.416.472-8.128.664-1.208.08-2.408.216-3.632.28-3.96.208-7.928.32-11.912.32s-7.952-.112-11.904-.32c-1.216-.064-2.416-.192-3.632-.28-2.72-.184-5.432-.376-8.128-.664-1.512-.16-3-.384-4.496-.576-2.36-.296-4.728-.592-7.072-.96-1.704-.272-3.384-.6-5.072-.912-2.088-.376-4.176-.76-6.24-1.192-1.896-.4-3.776-.856-5.648-1.304-1.792-.432-3.584-.856-5.36-1.328-2.104-.56-4.2-1.168-6.28-1.784a212.543 212.543 0 01-4.384-1.336 223.256 223.256 0 01-6.976-2.368 217.023 217.023 0 01-11.032-4.256c-.664-.272-1.312-.56-1.976-.84a223.812 223.812 0 01-8.696-3.936 7.216 7.216 0 01-.352-.176c-27.912-13.504-52.568-32.672-72.576-55.952 15.464-56.944 59.24-102.848 115.56-121.112 1.112.68 2.272 1.288 3.416 1.928.672.376 1.336.776 2.016 1.136a99.592 99.592 0 007.272 3.512c1.896.832 3.856 1.536 5.808 2.256.384.136.768.288 1.152.424 10.848 3.84 22.456 6.04 34.6 6.04s23.752-2.2 34.592-6.04c.384-.136.768-.288 1.152-.424 1.952-.72 3.912-1.424 5.808-2.256a99.592 99.592 0 007.272-3.512c.68-.368 1.344-.76 2.016-1.136 1.144-.64 2.312-1.248 3.432-1.936 56.32 18.272 100.088 64.176 115.56 121.112-20.008 23.272-44.664 42.44-72.576 55.952zM152 176c0-48.52 39.48-88 88-88s88 39.48 88 88c0 30.864-16.008 58.024-40.128 73.736a84.742 84.742 0 01-9.8 5.48c-.4.192-.792.392-1.192.576-23.168 10.536-50.592 10.536-73.76 0-.4-.184-.8-.384-1.192-.576a84.083 84.083 0 01-9.8-5.48C168.008 234.024 152 206.864 152 176zm269.832 194.584c-18.136-53.552-59.512-96.832-112.376-117.392C330.6 234.144 344 206.64 344 176c0-57.344-46.656-104-104-104s-104 46.656-104 104c0 30.64 13.4 58.144 34.552 77.192-52.864 20.568-94.24 63.84-112.376 117.392C31.672 333.792 16 288.704 16 240 16 116.488 116.488 16 240 16s224 100.488 224 224c0 48.704-15.672 93.792-42.168 130.584z"/></svg><svg viewBox="0 0 490.667 490.667" id="include--users" xmlns="http://www.w3.org/2000/svg"><path d="M245.333 85.333c-41.173 0-74.667 33.493-74.667 74.667s33.493 74.667 74.667 74.667S320 201.173 320 160s-33.493-74.667-74.667-74.667zm0 128C215.936 213.333 192 189.397 192 160s23.936-53.333 53.333-53.333 53.333 23.936 53.333 53.333-23.935 53.333-53.333 53.333zm149.334-42.666c-29.397 0-53.333 23.936-53.333 53.333s23.936 53.333 53.333 53.333S448 253.397 448 224s-23.936-53.333-53.333-53.333zm0 85.333c-17.643 0-32-14.357-32-32s14.357-32 32-32 32 14.357 32 32-14.358 32-32 32zM97.515 170.667c-29.419 0-53.333 23.936-53.333 53.333s23.936 53.333 53.333 53.333 53.333-23.936 53.333-53.333-23.915-53.333-53.333-53.333zm0 85.333c-17.643 0-32-14.357-32-32s14.357-32 32-32 32 14.357 32 32-14.358 32-32 32zm147.818 0c-76.459 0-138.667 62.208-138.667 138.667 0 5.888 4.779 10.667 10.667 10.667S128 400.555 128 394.667c0-64.704 52.629-117.333 117.333-117.333s117.333 52.629 117.333 117.333c0 5.888 4.779 10.667 10.667 10.667S384 400.555 384 394.667C384 318.208 321.792 256 245.333 256z"/><path d="M394.667 298.667a96.006 96.006 0 00-49.728 13.867c-5.013 3.072-6.635 9.621-3.584 14.656 3.093 5.035 9.621 6.635 14.656 3.584C367.637 323.712 380.992 320 394.667 320c41.173 0 74.667 33.493 74.667 74.667 0 5.888 4.779 10.667 10.667 10.667s10.667-4.779 10.667-10.667c-.001-52.928-43.073-96-96.001-96zm-248.96 13.845A96.06 96.06 0 0096 298.667c-52.928 0-96 43.072-96 96 0 5.888 4.779 10.667 10.667 10.667s10.667-4.779 10.667-10.667C21.333 353.493 54.827 320 96 320c13.675 0 27.029 3.712 38.635 10.752 5.013 3.051 11.584 1.451 14.656-3.584 3.072-5.035 1.45-11.584-3.584-14.656z"/></svg></svg>