<svg id="Capa_1" enable-background="new 0 0 512.051 512.051" height="512" viewBox="0 0 512.051 512.051" width="512" xmlns="http://www.w3.org/2000/svg"><g><path d="m.013 368.685c.264 6.235 4.361 11.655 10.288 13.61l89.822 29.632 29.632 89.822c1.955 5.927 7.375 10.023 13.61 10.288 6.338.261 12.019-3.446 14.432-9.1l96-225c5.293-12.407-7.277-24.975-19.684-19.684l-225 96c-5.739 2.45-9.363 8.197-9.1 14.432z"/><path d="m256 385.05c71.131 0 129-57.869 129-129s-57.869-129-129-129-129 57.869-129 129c0 8.284-6.716 15-15 15s-15-6.716-15-15c0-87.673 71.327-159 159-159s159 71.327 159 159-71.327 159-159 159c-8.284 0-15-6.716-15-15s6.716-15 15-15z"/><path d="m256 482.05c124.617 0 226-101.383 226-226s-101.383-226-226-226-226 101.383-226 226c0 8.284-6.716 15-15 15s-15-6.716-15-15c0-68.113 26.702-132.327 75.188-180.812 100.3-100.301 261.29-100.335 361.624 0 100.301 100.3 100.335 261.29 0 361.624-48.485 48.486-112.699 75.188-180.812 75.188-8.284 0-15-6.716-15-15s6.716-15 15-15z"/></g></svg>