<?xml version="1.0" encoding="UTF-8"?>
<svg xmlns="http://www.w3.org/2000/svg" id="Layer_3" data-name="Layer 3" viewBox="0 0 64 64" width="512" height="512"><path d="M58.433,40.019l-3.3-3.3A26.177,26.177,0,0,0,36.5,29c-.638,0-1.277.028-1.914.075a12,12,0,1,0-16.794,7.719L14.586,40H9a8.009,8.009,0,0,0-8,8v3a5.006,5.006,0,0,0,5,5h5.069a7.993,7.993,0,0,0,15.862,0H41.069a7.993,7.993,0,0,0,15.862,0H59a4,4,0,0,0,4-4V45A5.006,5.006,0,0,0,58.433,40.019ZM61,45v1H58a1,1,0,0,1-1-1V42h1A3,3,0,0,1,61,45Zm-5.414-5H38V31.051a24.168,24.168,0,0,1,15.718,7.081ZM13,26a10,10,0,1,1,17,7.129V32a7.028,7.028,0,0,0-3.165-5.831A4.951,4.951,0,0,0,28,23a5,5,0,0,0-10,0,4.949,4.949,0,0,0,1.165,3.169A7.028,7.028,0,0,0,16,32v1.129A9.965,9.965,0,0,1,13,26Zm5,8.647V32a5.022,5.022,0,0,1,2.855-4.5,4.834,4.834,0,0,0,4.29,0A5.022,5.022,0,0,1,28,32v2.647a9.915,9.915,0,0,1-10,0ZM23,26a3,3,0,1,1,3-3A3,3,0,0,1,23,26Zm0,12a12,12,0,0,0,10.818-6.84c.723-.08,1.452-.128,2.182-.143V40H17.414l1.868-1.868c.193-.193.393-.374.591-.559A11.956,11.956,0,0,0,23,38ZM9,42v3a2,2,0,0,1-2,2H3.09A6.006,6.006,0,0,1,9,42ZM19,61a6,6,0,1,1,6-6A6.006,6.006,0,0,1,19,61Zm30,0a6,6,0,1,1,6-6A6.006,6.006,0,0,1,49,61Zm10-7H56.931a7.993,7.993,0,0,0-15.862,0H26.931a7.993,7.993,0,0,0-15.862,0H6a3,3,0,0,1-3-3V49H7a4,4,0,0,0,4-4V42H55v3a3,3,0,0,0,3,3h3v4A2,2,0,0,1,59,54Z"/><rect x="28" y="44" width="8" height="2"/><rect x="38" y="44" width="8" height="2"/><path d="M19,51a4,4,0,1,0,4,4A4,4,0,0,0,19,51Zm0,6a2,2,0,1,1,2-2A2,2,0,0,1,19,57Z"/><path d="M49,51a4,4,0,1,0,4,4A4,4,0,0,0,49,51Zm0,6a2,2,0,1,1,2-2A2,2,0,0,1,49,57Z"/><path d="M62.142,6.01l-1.4-.2a16.075,16.075,0,0,1-9.034-4.517,1,1,0,0,0-1.414,0A16.075,16.075,0,0,1,41.259,5.81l-1.4.2A1,1,0,0,0,39,7,26.609,26.609,0,0,0,49.926,28.455l.486.354a1,1,0,0,0,1.176,0l.486-.354A26.609,26.609,0,0,0,63,7,1,1,0,0,0,62.142,6.01ZM51,26.764a24.613,24.613,0,0,1-9.984-18.9l.526-.075A18.111,18.111,0,0,0,51,3.376,18.111,18.111,0,0,0,60.458,7.79l.526.075A24.613,24.613,0,0,1,51,26.764Z"/><path d="M55.707,9.293a1,1,0,0,0-1.414,0L49,14.586l-1.293-1.293a1,1,0,0,0-1.414,0l-2,2a1,1,0,0,0,0,1.414l4,4a1,1,0,0,0,1.414,0l8-8a1,1,0,0,0,0-1.414ZM49,18.586,46.414,16,47,15.414l1.293,1.293a1,1,0,0,0,1.414,0L55,11.414l.586.586Z"/></svg>
