<svg id="Layer_5" enable-background="new 0 0 62 62" height="512" viewBox="0 0 62 62" width="512" xmlns="http://www.w3.org/2000/svg"><g><path d="m41 28.556v-4.556c0-3.859-3.141-7-7-7h-6c-3.859 0-7 3.141-7 7v4.556c-1.19.694-2 1.97-2 3.444 0 1.103.897 2 2 2v4c0 3.859 3.141 7 7 7h6c3.859 0 7-3.141 7-7v-4c1.103 0 2-.897 2-2 0-1.474-.81-2.75-2-3.444zm-18-4.556c0-2.757 2.243-5 5-5h6c2.757 0 5 2.243 5 5v4h-2v-2c0-2.757-2.243-5-5-5h-2c-2.757 0-5 2.243-5 5v2h-2zm4 13h8v1c0 .552-.448 1-1 1h-6c-.552 0-1-.448-1-1zm8-2h-8v-8h8zm-7.816-10c.414-1.161 1.514-2 2.816-2h2c1.302 0 2.402.839 2.816 2zm-4.184 5h2v2h-4c0-1.103.897-2 2-2zm16 8c0 2.757-2.243 5-5 5h-6c-2.757 0-5-2.243-5-5v-4h2v4c0 1.654 1.346 3 3 3h6c1.654 0 3-1.346 3-3v-4h2zm-2-6v-2h2c1.103 0 2 .897 2 2z"/><path d="m53 40h-2c-2.757 0-5 2.243-5 5v10c0 1.654 1.346 3 3 3h6c1.654 0 3-1.346 3-3v-10c0-2.757-2.243-5-5-5zm3 6v6h-8v-6zm-5-4h2c1.302 0 2.402.839 2.816 2h-7.631c.413-1.161 1.513-2 2.815-2zm4 14h-6c-.552 0-1-.448-1-1v-1h8v1c0 .552-.448 1-1 1z"/><path d="m13 22c1.654 0 3-1.346 3-3v-10c0-2.757-2.243-5-5-5h-2c-2.757 0-5 2.243-5 5v10c0 1.654 1.346 3 3 3zm1-12v6h-8v-6zm-5-4h2c1.302 0 2.402.839 2.816 2h-7.632c.414-1.161 1.514-2 2.816-2zm-3 13v-1h8v1c0 .552-.448 1-1 1h-6c-.552 0-1-.448-1-1z"/><path d="m57.432 36.445c.37-1.797.568-3.623.568-5.445 0-14.888-12.112-27-27-27-3.795 0-7.578.813-11.032 2.359-.326-3.56-3.325-6.359-6.968-6.359h-6c-3.859 0-7 3.141-7 7v12c0 3.003 1.906 5.564 4.568 6.555-.37 1.797-.568 3.623-.568 5.445 0 14.888 12.112 27 27 27 3.795 0 7.578-.813 11.032-2.359.326 3.56 3.325 6.359 6.968 6.359h6c3.859 0 7-3.141 7-7v-12c0-3.003-1.906-5.564-4.568-6.555zm-1.432-5.445c0 1.681-.183 3.366-.522 5.024-.159-.011-.317-.024-.478-.024h-3.61c.4-1.634.61-3.309.61-5 0-8.138-4.69-15.486-12.004-18.959 0-.014.004-.027.004-.041 0-1.654-1.346-3-3-3-1.033 0-1.946.525-2.486 1.322-1.163-.197-2.339-.322-3.514-.322-3.922 0-7.687 1.085-11 3.141v-4.578c3.443-1.694 7.138-2.563 11-2.563 13.785 0 25 11.215 25 25zm-14 12v3.45c-3.241 2.316-7.03 3.55-11 3.55-4.065 0-8.032-1.331-11.287-3.74.18-.385.287-.809.287-1.26 0-1.654-1.346-3-3-3-.451 0-.875.107-1.26.287-2.409-3.255-3.74-7.222-3.74-11.287 0-1.696.238-3.373.681-5h.319c3.859 0 7-3.141 7-7v-3.45c3.241-2.316 7.03-3.55 11-3.55 1.012 0 2.024.106 3.027.267.138 1.528 1.41 2.733 2.973 2.733.922 0 1.737-.427 2.288-1.082 6.532 3.169 10.712 9.775 10.712 17.082 0 1.696-.238 3.373-.681 5h-.319c-3.859 0-7 3.141-7 7zm-25 1c.552 0 1 .448 1 1s-.448 1-1 1-1-.448-1-1 .448-1 1-1zm19-32c0-.552.448-1 1-1s1 .448 1 1-.448 1-1 1-1-.448-1-1zm-34 7v-12c0-2.757 2.243-5 5-5h6c2.757 0 5 2.243 5 5v12c0 2.757-2.243 5-5 5h-6c-2.757 0-5-2.243-5-5zm4 12c0-1.681.183-3.366.522-5.024.159.011.317.024.478.024h3.61c-.4 1.634-.61 3.309-.61 5 0 4.589 1.534 9.065 4.306 12.705-.19.393-.306.829-.306 1.295 0 1.654 1.346 3 3 3 .466 0 .902-.116 1.295-.306 3.64 2.772 8.116 4.306 12.705 4.306 3.922 0 7.687-1.085 11-3.141v4.578c-3.443 1.694-7.138 2.563-11 2.563-13.785 0-25-11.215-25-25zm54 24c0 2.757-2.243 5-5 5h-6c-2.757 0-5-2.243-5-5v-12c0-2.757 2.243-5 5-5h6c2.757 0 5 2.243 5 5z"/></g></svg>