<?xml version="1.0" encoding="iso-8859-1"?>
<!-- Generator: Adobe Illustrator 19.0.0, SVG Export Plug-In . SVG Version: 6.00 Build 0)  -->
<svg version="1.1" id="Capa_1" xmlns="http://www.w3.org/2000/svg" xmlns:xlink="http://www.w3.org/1999/xlink" x="0px" y="0px"
	 viewBox="0 0 448.7 448.7" style="enable-background:new 0 0 448.7 448.7;" xml:space="preserve">
<g>
	<g>
		<path d="M427.6,79.05l-29.5-13.4l-26.2-41.7c-8.1-13-22.4-20.9-37.7-20.8h-113c-13.9,0-26.9,6.5-35.4,17.4l-33.7,44.2l-56.3,15.4
			c-15.5,4.3-26.2,18.5-26.2,34.6v21.8c-0.1,19.5,15.5,35.4,35,35.6c0.2,0,0.3,0,0.5,0h3.1c7.2,23.7,32.2,37.1,56,29.9
			c14.4-4.3,25.6-15.6,29.9-29.9h125.2c7.2,23.7,32.2,37.1,56,29.9c14.4-4.3,25.6-15.6,29.9-29.9h7.4c19.8,0,36.1-15.8,36.1-35.5
			v-24.9C448.6,97.65,440.4,84.85,427.6,79.05z M151.2,184.35c-13.7,0-24.9-11.1-24.9-24.9c0-13.7,11.1-24.9,24.9-24.9
			c13.7,0,24.9,11.1,24.9,24.9C176,173.15,164.9,184.35,151.2,184.35z M362.2,184.35c-13.7,0-24.9-11.1-24.9-24.9
			c0-13.7,11.1-24.9,24.9-24.9c13.7,0,24.9,11.1,24.9,24.9C387.1,173.15,376,184.35,362.2,184.35z M412.6,152.15h-6.1
			c-3.4-21-22-37.9-44.3-37.9c-22.4,0-41,16.9-44.3,37.9H195.5c-3.4-21-22-37.9-44.3-37.9s-41,16.9-44.4,37.9h-1.7
			c-8.4,0.1-15.3-6.6-15.4-15c0-0.2,0-0.3,0-0.5v-21.8c-0.1-7.1,4.6-13.4,11.4-15.3l59.7-16.4c2.1-0.6,4-1.8,5.3-3.6l35.7-46.9
			c4.6-6,11.8-9.6,19.4-9.6h112.9c8.4-0.1,16.3,4.3,20.7,11.4l27.8,44.3c1,1.7,2.6,3,4.3,3.8l32.3,14.6c5.7,2.6,9.3,8.2,9.4,14.4
			v25.1h0.1C428.7,145.35,421.4,152.15,412.6,152.15z"/>
	</g>
</g>
<g>
	<g>
		<path d="M416.9,220.251l-0.9-1c-6.5-6.4-15.2-10-24.3-10.1h-0.2c-9.2,0-18,3.8-24.4,10.4c-23,23.4-62.4,63.2-72.4,73.3l-71.8,10.5
			l-11.2-14.9l52.3-16.1c16.9-5.1,27.1-22.8,23.2-40.3c-4-17.6-21-28.9-38.8-25.8l-113.2,18c-8,1.2-15.6,4.6-21.8,9.8L0,344.25
			l85.2,101.3l56.6-62.6l154.2-5.2c10.3-0.4,20.1-4.7,27.5-12l94-97.9l0.1-0.1C430.2,254.251,429.8,233.35,416.9,220.251z
			 M402.9,254.05l-93.7,97.5c-3.7,3.7-8.7,5.9-14,6.1l-162.6,5.5l-46.9,51.9l-58.4-69.5l99.3-96.4c3.3-2.7,7.3-4.4,11.5-5.1
			l113.6-18h0.2c7.2-1.2,14.2,3.3,15.9,10.5c1.7,7.2-2.4,14.5-9.5,16.8l-79.6,24.5l35.5,47.2l90.1-13.1l2.4-2.4
			c0.5-0.5,48.4-48.8,74.8-75.7c2.7-2.7,6.4-4.3,10.2-4.3c3.7,0,7.3,1.4,10.1,3.9l0.7,0.8C408,239.55,408.3,248.45,402.9,254.05z"/>
	</g>
</g>
<g>
</g>
<g>
</g>
<g>
</g>
<g>
</g>
<g>
</g>
<g>
</g>
<g>
</g>
<g>
</g>
<g>
</g>
<g>
</g>
<g>
</g>
<g>
</g>
<g>
</g>
<g>
</g>
<g>
</g>
</svg>
