<svg height="512pt" viewBox="0 0 512 512.00001" width="512pt" xmlns="http://www.w3.org/2000/svg"><path d="m486.398438 170.667969h-17.066407c-4.710937 0-8.53125 3.820312-8.53125 8.53125v17.066406h-17.066406v-8.53125c-.011719-9.421875-7.644531-17.058594-17.066406-17.066406v-8.535157c-.011719-9.421874-7.644531-17.058593-17.066407-17.066406h-8.535156v-17.066406c-.007812-9.421875-7.644531-17.058594-17.066406-17.066406h-3.257812l-14.839844-29.679688c2.113281-1.09375 4.101562-2.40625 5.9375-3.917968 7.722656-6.480469 12.175781-16.054688 12.160156-26.136719 0-4.710938-3.820312-8.53125-8.535156-8.53125-4.710938 0-8.53125 3.820312-8.53125 8.53125.101562 6.164062-3.234375 11.871093-8.65625 14.804687l-.777344-1.554687c-1.601562-2.6875-4.503906-4.335938-7.632812-4.335938-3.132813 0-6.03125 1.648438-7.632813 4.335938l-.769531 1.535156c-5.398438-3.023437-8.726563-8.746094-8.691406-14.933594.039062-6.191406 3.4375-11.871093 8.875-14.828125 10.335937-5.355468 16.804687-16.046875 16.75-27.6875-.015626-2.226562-.929688-4.347656-2.539063-5.882812s-3.769531-2.355469-5.992187-2.269532c-4.785157.183594-8.5625 4.128907-8.535157 8.917969-.230469 5.136719-3.261719 9.734375-7.894531 11.96875-10.996094 6.023438-17.800781 17.59375-17.722656 30.128907.074218 12.539062 7.019531 24.023437 18.085937 29.917968l-14.808593 29.617188h-11.792969c-9.421875.007812-17.054688 7.644531-17.066407 17.066406v17.066406h-8.53125c-9.421874.007813-17.058593 7.644532-17.066406 17.066406v25.601563h-17.070312v-25.601563c0-4.710937-3.820313-8.53125-8.53125-8.53125-4.714844 0-8.535156 3.820313-8.535156 8.53125v68.265626c0 4.714843 3.820312 8.535156 8.535156 8.535156 4.710937 0 8.53125-3.820313 8.53125-8.535156v-25.597657h17.070312v17.066407c.007813 9.421874 7.644532 17.058593 17.066406 17.066406h22.066407l20.597656 20.601562c3.195313 3.210938 7.539063 5.011719 12.066406 5h90.335938c9.421875-.011718 17.054687-7.648437 17.066406-17.070312h17.066406v8.535156c0 4.710938 3.820313 8.535156 8.53125 8.535156h17.066407c14.132812-.015625 25.585937-11.46875 25.601562-25.601562v-42.667969c-.015625-14.132813-11.46875-25.582031-25.601562-25.597656zm-136.53125-83.324219 11.792968 23.589844h-23.585937zm-42.667969 40.65625h76.800781v17.066406h-76.800781zm119.46875 119.464844h-90.335938l-20.597656-20.597656c-3.195313-3.210938-7.539063-5.011719-12.066406-5h-22.066407v-59.734376h128v8.535157c.003907 9.410156 7.632813 17.042969 17.042969 17.050781h.023438zm17.066406-17.066406v-17.066407h17.066406v17.066407zm51.199219 8.535156c-.007813 4.710937-3.824219 8.527344-8.535156 8.53125h-8.53125v-59.730469h8.53125c4.710937.003906 8.527343 3.820313 8.535156 8.53125zm0 0"/><path d="m417.722656 295.765625-128.460937-18.347656c-18.074219-2.515625-35.128907-9.890625-49.34375-21.332031l-84.773438-67.867188c-21.257812-16.832031-47.5625-26.019531-74.675781-26.085938h-63.402344c-9.421875.011719-17.0585935 7.644532-17.066406 17.066407v315.734375c.0078125 9.421875 7.644531 17.058594 17.066406 17.066406h167.425782c12.363281.011719 22.402343-9.992188 22.441406-22.355469-.066406-11.742187 2.730468-23.324219 8.144531-33.738281.585937-1.25 1.242187-2.460938 1.972656-3.628906 15.058594-26.1875 44.449219-40.683594 74.390625-36.683594 22.761719 3.117188 42.757813 16.699219 54.046875 36.710938 7.089844 12.222656 10.8125 26.109374 10.777344 40.238281 0 1.566406.429687 3.101562 1.242187 4.4375 3.164063 9 11.664063 15.019531 21.203126 15.019531h45.824218c20.019532-.023438 36.242188-16.246094 36.265625-36.265625v-130.390625c-.113281-24.910156-18.429687-45.992188-43.078125-49.578125zm26.011719 88.234375h-42.667969c-4.710937-.007812-8.527344-3.824219-8.53125-8.535156v-8.53125c.003906-4.710938 3.820313-8.527344 8.53125-8.535156h42.667969zm-209.605469-110.933594h-109.117187l-26.546875-59.734375h60.75l70.015625 56.054688c1.597656 1.285156 3.242187 2.484375 4.898437 3.679687zm-217.0625-59.820312 28.058594-.285156 19.386719 60.105468h-47.445313zm167.425782 281.6875h-167.425782v-34.132813h177.585938c-3.136719 9.292969-4.753906 19.03125-4.785156 28.84375-.027344 2.941407-2.433594 5.308594-5.375 5.289063zm109.140624-96.269532c-36.675781-4.898437-72.683593 12.800782-91.214843 44.828126-.050781.085937-.078125.160156-.128907.242187h-185.222656v-93.867187h34.132813c4.714843 0 8.535156-3.820313 8.535156-8.535157 0-4.710937-3.820313-8.53125-8.535156-8.53125h-34.132813v-42.667969h47.445313c5.613281 0 10.867187-2.761718 14.046875-7.386718 3.113281-4.464844 3.863281-10.160156 2.015625-15.277344l-19.292969-60.007812c-2.4375-6.71875-8.820312-11.191407-15.96875-11.195313h-28.246094v-17.066406h63.402344c20.15625.050781 39.855469 5.984375 56.6875 17.066406h-38.695312c-5.777344 0-11.160157 2.921875-14.308594 7.769531-3.148438 4.84375-3.632813 10.953125-1.285156 16.230469l26.550781 59.738281c2.746093 6.15625 8.855469 10.125 15.59375 10.128906h143.378906c6.039063 1.886719 12.222656 3.285157 18.484375 4.183594l128.4375 18.34375c14.730469 2.167969 26.203125 13.898438 28.046875 28.671875h-42.292969c-14.132812.015625-25.585937 11.46875-25.601562 25.601563v8.53125c.015625 14.132812 11.46875 25.585937 25.601562 25.601562h42.667969v42.667969h-83.492187l-.019532-.042969c-13.941406-24.589844-38.578125-41.25-66.589844-45.027344zm130.902344 96.269532h-45.824218c-2.945313.019531-5.351563-2.347656-5.378907-5.289063.003907-.410156-.027343-.816406-.085937-1.21875-.441406-9.421875-2.253906-18.726562-5.375-27.625h75.863281v14.933594c-.011719 10.597656-8.601563 19.1875-19.199219 19.199219zm0 0"/><path d="m452.265625 0c-4.710937 0-8.53125 3.820312-8.53125 8.535156v80.125l-9.75-16.25c-2.441406-4.003906-7.65625-5.285156-11.675781-2.875-4.023438 2.414063-5.34375 7.617188-2.957032 11.65625l25.597657 42.667969c.09375.15625.234375.269531.335937.421875.507813.703125 1.109375 1.335938 1.789063 1.875.214843.179688.441406.34375.675781.496094.597656.375 1.242188.675781 1.914062.890625.113282.039062.207032.117187.324219.152343l.085938.007813c.671875.179687 1.367187.273437 2.066406.28125l.125.015625h.007813c.078124 0 .15625-.027344.234374-.03125.660157-.011719 1.316407-.097656 1.957032-.257812.203125-.054688.390625-.167969.59375-.238282.515625-.164062 1.015625-.378906 1.488281-.636718l.113281-.046876c.085938-.054687.128906-.140624.210938-.191406.75-.492187 1.414062-1.101562 1.972656-1.804687.152344-.1875.308594-.355469.445312-.554688.089844-.136719.214844-.234375.296876-.375l25.601562-42.667969c1.59375-2.613281 1.664062-5.882812.183594-8.566406-1.480469-2.683594-4.28125-4.367187-7.347656-4.410156-3.0625-.042969-5.914063 1.554688-7.46875 4.195312l-9.753907 16.246094v-80.125c0-4.714844-3.820312-8.535156-8.535156-8.535156zm0 0"/><path d="m238.933594 0c-4.714844 0-8.535156 3.820312-8.535156 8.535156v80.125l-9.75-16.25c-1.554688-2.640625-4.40625-4.238281-7.472657-4.195312-3.0625.042968-5.867187 1.726562-7.34375 4.410156-1.480469 2.679688-1.410156 5.949219.183594 8.566406l25.601563 42.667969c.09375.15625.230468.269531.335937.421875.507813.703125 1.109375 1.335938 1.792969 1.875.214844.179688.441406.34375.671875.496094.601562.375 1.242187.675781 1.917969.890625.113281.039062.203124.117187.324218.152343l.082032.007813c.675781.179687 1.371093.273437 2.066406.28125l.125.015625h.007812c.078125 0 .15625-.027344.234375-.03125.660157-.011719 1.3125-.097656 1.953125-.257812.203125-.054688.394532-.167969.597656-.238282.515626-.164062 1.011719-.378906 1.488282-.636718l.113281-.046876c.085937-.054687.128906-.140624.210937-.191406.75-.492187 1.414063-1.101562 1.972657-1.804687.152343-.1875.308593-.355469.445312-.554688.089844-.136719.210938-.234375.296875-.375l25.597656-42.667969c2.382813-4.039062 1.0625-9.242187-2.957031-11.65625-4.019531-2.410156-9.234375-1.128906-11.675781 2.875l-9.753906 16.246094v-80.125c0-4.714844-3.820313-8.535156-8.53125-8.535156zm0 0"/></svg>