<svg id="Layer_1" enable-background="new 0 0 512.041 512.041" height="512" viewBox="0 0 512.041 512.041" width="512" xmlns="http://www.w3.org/2000/svg"><g><g><path d="m488.326 2.199c-2.744-2.187-6.431-2.772-9.718-1.552-3.287 1.223-5.693 4.078-6.342 7.524-6.009 31.942-40.77 29.53-85.589 23.059-16.026-2.314-29.865-4.313-40.094-2.764-18.457 2.797-42.166 10.717-59.103 31.795-2.397-8.547-.681-16.642 5.104-25.107 1.979-2.896 2.297-6.616.837-9.805s-4.483-5.38-7.968-5.774c-22.144-2.506-41.714 5.382-55.124 22.209-11.279 14.156-16.387 32.826-14.325 50.328-1.995-.056-3.995-.091-6.004-.091-115.795 0-210 94.205-210 210s94.205 210 210 210c55.337 0 105.733-21.525 143.284-56.628 51.597-3.488 79.549-26.054 93.939-44.521 16.022-20.563 19.151-40.607 19.277-41.45.548-3.689-1.002-7.377-4.021-9.566-3.021-2.188-7.006-2.516-10.343-.849-14.872 7.436-30.5 8.926-42.157 7.127 2.334-7.265 4.292-14.697 5.831-22.28 7.027-2.614 15.359-5.02 24.872-7.162 22.772-5.126 41.872-25.125 47.528-49.765 5.478-23.859-2.553-46.443-22.031-61.961-2.744-2.187-6.43-2.773-9.718-1.552-3.287 1.223-5.693 4.078-6.342 7.524-3.177 16.891-13.732 25.153-34.824 26.836-2.218-10.303-5.194-20.326-8.867-30.01 35.671-9.261 55.737-28.922 66.499-44.511 12.949-18.758 15.613-35.882 15.721-36.602.549-3.688-1.002-7.377-4.021-9.566-3.019-2.188-7.007-2.516-10.342-.849-23.515 11.757-48.059 8.607-56.736 1.813-1.058-.827-2.135-1.982-2.005-2.563.721-3.199 10.619-13.31 47.286-21.564 22.771-5.126 41.872-25.125 47.527-49.764 5.478-23.858-2.552-46.442-22.031-61.959zm-468.326 299.822c0-104.767 85.233-190 190-190s190.001 85.233 190.001 190-85.234 190-190.001 190-190-85.234-190-190zm319.447-165.25c-7.403-5.812-15.211-11.127-23.363-15.919 8.92-9.652 21.449-14.597 35.93-14.208-5.878 8.073-11.689 18.749-12.567 30.127zm100.94 247.562c-8.197 16.309-26.423 39.165-65.766 47.922 11.343-14.307 20.858-30.122 28.202-47.089 11.542 2.504 24.728 2.175 37.564-.833zm23.475-132.648c7.424 11.653 6.491 23.646 4.855 30.769-3.909 17.029-17.243 31.31-32.429 34.728-6.16 1.387-11.908 2.89-17.215 4.495.604-6.473.927-13.027.927-19.655 0-8.286-.498-16.458-1.437-24.496 21.903-2.217 37.067-10.865 45.299-25.841zm27.002-191.999c-3.908 17.028-17.243 31.309-32.427 34.727-37.848 8.521-58.844 20.862-62.405 36.684-1.887 8.38 1.462 16.654 9.186 22.702 11.55 9.043 33.681 13.519 57.409 7.846-8.016 16.135-25.818 38.559-64.31 47.518-3.82-7.716-8.1-15.163-12.805-22.309 2.621-6.104 3.115-12.323 1.284-17.639-1.84-5.342-5.839-9.396-11.285-11.451-9.601-4.235-14.979-9.469-15.991-15.559-2.128-12.808 13.191-30.125 18.713-35.17 2.697-2.446 3.852-6.166 3.013-9.709-.839-3.544-3.537-6.352-7.045-7.33-30.779-8.583-59.245-.403-76.261 21.351-19.105-8.846-39.749-14.914-61.417-17.657-2.802-13.225.726-28.495 9.45-39.442 5.822-7.306 13.441-12.084 22.191-14.068-4.364 15.022-.908 30.38 10.36 45.849 2.058 2.822 5.443 4.371 8.919 4.076 3.481-.292 6.558-2.38 8.115-5.507 12.544-25.185 36.301-33.671 54.021-36.356 7.305-1.104 20.388.783 34.238 2.783 20.205 2.919 43.104 6.226 62.945 2.987 18.654-3.046 31.795-11.458 39.255-25.081 7.413 11.647 6.482 23.635 4.847 30.755z"/><path d="m257.742 170.38c-5.193-1.886-10.928.8-12.811 5.99-1.884 5.192.799 10.928 5.99 12.811 47.3 17.157 79.079 62.504 79.079 112.84 0 66.168-53.832 120-120 120s-120-53.832-120-120c0-50.336 31.779-95.683 79.079-112.84 5.191-1.883 7.874-7.618 5.99-12.811-1.883-5.191-7.616-7.873-12.811-5.99-55.182 20.016-92.258 72.919-92.258 131.641 0 77.196 62.804 140 140 140s140-62.804 140-140c0-58.723-37.075-111.625-92.258-131.641z"/><path d="m110 302.021c0 55.141 44.859 100 100 100s100-44.859 100-100-44.859-100-100-100-100 44.859-100 100zm180 0c0 44.112-35.888 80-80 80s-80-35.888-80-80 35.888-80 80-80 80 35.888 80 80z"/><path d="m180.001 302.021c0 16.542 13.457 30 29.999 30s30-13.458 30-30-13.458-30-30-30-29.999 13.458-29.999 30zm39.999 0c0 5.514-4.486 10-10 10s-9.999-4.486-9.999-10 4.485-10 9.999-10 10 4.486 10 10z"/><path d="m209.993 237.022c-5.522 0-9.997 4.478-9.997 10s4.481 10 10.004 10 10-4.478 10-10-4.478-10-10-10z"/><path d="m164.705 270.816c1.869 1.557 4.138 2.316 6.395 2.316 2.867 0 5.714-1.227 7.692-3.6 3.535-4.243 2.962-10.549-1.28-14.085-4.242-3.533-10.548-2.964-14.085 1.281l-.005.005c-3.535 4.244-2.96 10.547 1.283 14.083z"/><path d="m165.001 302.021c0-5.522-4.478-10-10-10s-10 4.478-10 10v.008c0 5.522 4.478 9.996 10 9.996s10-4.482 10-10.004z"/><path d="m177.512 333.23c-4.244-3.535-10.55-2.963-14.085 1.281-3.535 4.242-2.962 10.548 1.281 14.084l.005.005c1.869 1.557 4.138 2.316 6.394 2.316 2.865 0 5.71-1.226 7.688-3.6 3.535-4.242 2.959-10.55-1.283-14.086z"/><path d="m210 347.021c-5.522 0-10 4.478-10 10s4.478 10 10 10h.008c5.522 0 9.996-4.478 9.996-10s-4.482-10-10.004-10z"/><path d="m255.296 333.227c-4.244-3.534-10.551-2.958-14.087 1.283-3.535 4.243-2.962 10.549 1.281 14.085 1.869 1.558 4.139 2.317 6.396 2.317 2.864 0 5.71-1.225 7.688-3.599l.005-.005c3.535-4.242 2.96-10.545-1.283-14.081z"/><path d="m255 302.021c0 5.522 4.478 10 10 10s10-4.478 10-10v-.007c0-5.522-4.478-9.997-10-9.997s-10 4.481-10 10.004z"/><path d="m242.489 270.813c1.87 1.558 4.14 2.317 6.396 2.317 2.865 0 5.711-1.225 7.688-3.598 3.535-4.243 2.962-10.549-1.281-14.085l-.005-.005c-4.244-3.533-10.546-2.96-14.082 1.283-3.534 4.244-2.958 10.552 1.284 14.088z"/><path d="m210 182.022c5.522 0 10-4.478 10-10s-4.478-10-10-10h-.007c-5.522 0-9.996 4.478-9.996 10s4.481 10 10.003 10z"/></g></g></svg>