<svg id="Layer_1" enable-background="new 0 0 512.037 512.037" height="512" viewBox="0 0 512.037 512.037" width="512" xmlns="http://www.w3.org/2000/svg"><g><path d="m74.566 74.109c4.143 0 7.5-3.358 7.5-7.5v-16.431l18.814 21.385c6.498 7.386 17.607-2.697 11.262-9.908l-14.898-16.934c25.754-8.124 20.249-44.199-6.957-44.72-.018-.003-15.703.002-15.72 0-4.143 0-7.5 3.358-7.5 7.5v59.108c-.001 4.142 3.357 7.5 7.499 7.5zm15.721-59.108c4.729 0 8.725 3.6 8.725 7.862 0 4.261-3.995 7.861-8.725 7.861-1.903 0-5.115.013-8.134.027-.023-5.25-.038-10.5-.045-15.75z"/><path d="m190.062 15.001h5.101v51.474c.344 9.931 14.66 9.923 15 0v-58.974c0-4.142-3.357-7.5-7.5-7.5h-12.601c-9.93.344-9.923 14.659 0 15z"/><path d="m419.416 74.884c.171 0 .344-.002.516-.005 13.312-.269 24.281-10.891 24.972-24.184.84-16.182-13.064-27.715-28.492-26.802l1.473-8.892h15.789c9.925-.341 9.929-14.658 0-15h-22.149c-3.669 0-6.8 2.655-7.399 6.274l-4.388 26.494c-1.03 6.229 5.35 10.357 11.243 7.702 2.296-1.034 4.009-1.662 8.429-1.662 5.974 0 10.824 5.154 10.515 11.108-.284 5.477-4.806 9.854-10.294 9.964-3.823.066-7.4-1.931-9.329-5.241-4.882-8.378-17.842-.828-12.961 7.551 4.579 7.865 13.003 12.693 22.075 12.693z"/><path d="m327.737 479.595-.021-29.981c0-.208-.009-.417-.026-.625-.422-5.052-3.483-9.179-7.8-10.515-4.292-1.33-8.838.305-12.151 4.372-3.397 4.169-18.913 32.15-23.588 40.626-2.85 5.169 1.35 11.122 6.567 11.122h21.998v9.906c0 4.142 3.357 7.5 7.5 7.5s7.5-3.358 7.5-7.5v-9.906c9.944-.316 9.959-14.656.021-14.999zm-15.021 0h-9.25c3.327-5.942 6.559-11.642 9.25-16.299z"/><path d="m218.761 496.865c-5.341.067-10.984.114-15.866.13 3.19-4.293 7.46-10.16 13.049-18.148 3.638-5.201 7.913-12.565 7.913-19.383 0-12.457-10.132-22.59-22.585-22.59-10.768 0-20.088 7.663-22.16 18.22-.798 4.064 1.85 8.006 5.914 8.804 4.071.797 8.007-1.851 8.805-5.915 1.88-8.691 14.408-7.767 15.017 1.084-.876 4.132-2.74 7.673-5.194 11.181-9.327 13.331-14.893 20.621-17.882 24.538-3.353 4.392-8.617 13.98.671 17.079.989.33 24.127.105 32.509 0 9.687-.123 9.52-15.149-.191-15z"/><path d="m309.154 60.362c-3.763 0-6.992-2.804-7.511-6.521-1.338-9.605-16.195-7.532-14.855 2.072 1.546 11.088 11.162 19.449 22.366 19.449 19.468.069 29.781-23.448 16.792-37.681 12.99-14.24 2.672-37.749-16.793-37.681-10.767 0-20.088 7.663-22.16 18.221-1.868 9.515 12.85 12.406 14.719 2.89 1.943-8.894 14.842-7.648 15.026 1.48 0 4.185-3.402 7.59-7.585 7.59-9.697 0-9.697 15 0 15 10.037.352 10.039 14.828.001 15.181z"/><path d="m420.629 462.893c-.306 0-.611.006-.914.017 4.615-6.914 9.348-10.615 9.527-10.753 3.301-2.478 3.98-7.161 1.515-10.475-2.474-3.323-7.172-4.013-10.495-1.54-.84.625-20.506 15.554-23.896 43.562-2.243 14.598 9.451 28.296 24.263 28.296 32.566-1.348 32.553-47.764 0-49.107zm0 34.108c-5.88 0-10.056-5.616-9.412-11.164 2.262-11.399 18.612-10.098 18.958 1.61.001 5.268-4.283 9.554-9.546 9.554z"/><path d="m442.812 346.081v-35.742c0-9.697-15-9.697-15 0v28.816c-5.068-1.1-10.145-1.201-15.232-.302v-67.67c0-4.142-3.357-7.5-7.499-7.5l-79.096-.013c-3.829.6-7.501 3.056-7.501 7.5v67.89c-5.074-1.042-10.151-1.084-15.233-.126v-67.768c0-4.142-3.357-7.5-7.499-7.5l-79.097-.013c-3.829.6-7.501 3.056-7.501 7.5v68.028c-5.066-1.117-10.143-1.234-15.232-.349v-67.682c0-4.142-3.357-7.5-7.499-7.5l-94.214-.015c-4.199 0-7.615-3.42-7.615-7.622v-83.057c5.074 1.026 10.152 1.063 15.232.113v67.824c0 4.142 3.357 7.5 7.499 7.5l79.096.013c3.829-.6 7.501-3.056 7.501-7.5v-67.737c5.089.884 10.166.768 15.232-.349v68.091c0 4.142 3.357 7.5 7.499 7.5l79.097.013c3.829-.6 7.501-3.056 7.501-7.5v-67.856c5.082.958 10.16.916 15.233-.126v67.986c0 4.142 3.357 7.5 7.499 7.5l79.096.013c3.829-.6 7.501-3.056 7.501-7.5v-67.791c5.087.899 10.165.799 15.232-.302v95.308c0 9.697 15 9.697 15 0v-102.236c29.429-22.235 13.996-69.647-23.372-69.871-38.344.3-53.06 49.573-21.861 70.956v66.433l-64.096-.011v-67.181c29.95-21.997 14.72-69.953-22.933-70.198-38.062.278-52.99 49.015-22.3 70.651v66.721l-64.097-.011v-67.582c29.285-22.299 13.798-69.562-23.492-69.78-38.421.307-53.079 49.726-21.741 71.038v66.317l-64.096-.011v-66.681c30.714-21.644 15.777-70.382-22.288-70.661-4.702 0-9.31.838-13.698 2.492-3.876 1.461-5.834 5.787-4.374 9.663 1.461 3.875 5.791 5.833 9.663 4.373 15.153-6.004 32.569 5.982 32.262 22.325 0 12.989-10.947 23.852-23.853 23.852-12.252 0-22.686-9.549-23.753-21.74-.361-4.127-4.002-7.182-8.126-6.817-4.126.361-7.179 3.999-6.817 8.125 1.02 11.652 6.988 21.651 15.751 28.027v89.663c0 12.472 10.145 22.621 22.613 22.622l86.715.014v66.265c-31.34 21.319-16.678 70.733 21.742 71.038 37.291-.219 52.775-47.488 23.491-69.78v-67.517l64.097.011v66.635c-30.691 21.643-15.759 70.375 22.301 70.651 37.655-.246 52.881-48.207 22.932-70.198v-67.083l64.096.011v66.313c-31.201 21.39-16.48 70.657 21.862 70.956 37.371-.222 52.8-47.641 23.372-69.869zm-23.371-235.032c13.152 0 23.853 10.7 23.853 23.853-1.31 31.644-46.4 31.635-47.705 0 0-13.153 10.7-23.853 23.852-23.853zm-108.889 0c13.152 0 23.853 10.7 23.853 23.853-1.31 31.644-46.4 31.635-47.705 0-.001-13.153 10.699-23.853 23.852-23.853zm-109.889 0c13.152 0 23.853 10.7 23.853 23.853-1.31 31.645-46.401 31.635-47.706 0-.001-13.153 10.7-23.853 23.853-23.853zm0 289.903c-13.153 0-23.854-10.7-23.854-23.853 1.31-31.644 46.401-31.636 47.706 0 0 13.153-10.7 23.853-23.852 23.853zm109.889 0c-13.152 0-23.853-10.7-23.853-23.853 1.31-31.644 46.4-31.635 47.705 0 0 13.153-10.7 23.853-23.852 23.853zm108.889 0c-13.152 0-23.853-10.7-23.853-23.853 0-12.777 10.897-23.853 23.853-23.853 13.152 0 23.853 10.7 23.853 23.853s-10.7 23.853-23.853 23.853z"/></g></svg>