<svg id="Capa_1" enable-background="new 0 0 509.816 509.816" height="512" viewBox="0 0 509.816 509.816" width="512" xmlns="http://www.w3.org/2000/svg"><path id="XMLID_1245_" d="m509.391 209.269h-28.543c1.031-3.607 1.595-7.41 1.595-11.344 0-10.003-3.572-19.186-9.505-26.345 5.934-7.158 9.505-16.341 9.505-26.344s-3.572-19.185-9.505-26.344c5.934-7.159 9.505-16.342 9.505-26.345 0-18.226-11.86-33.724-28.265-39.211v-53.002h-82.189v53.003c-16.404 5.487-28.265 20.985-28.265 39.211 0 10.003 3.572 19.186 9.505 26.345-5.934 7.158-9.505 16.341-9.505 26.344s3.572 19.185 9.505 26.344c-5.934 7.159-9.505 16.342-9.505 26.345 0 3.934.564 7.736 1.595 11.344h-54.928v-38.66h-68.499v-130.946c0-21.871-17.793-39.664-39.663-39.664h-142.14c-21.87 0-39.663 17.793-39.663 39.664v430.489c0 21.87 17.793 39.663 39.663 39.663h142.14c21.87 0 39.663-17.793 39.663-39.663v-130.947h68.499v-39.141h219zm-135.667-64.033c0-6.255 5.089-11.344 11.344-11.344h56.03c6.256 0 11.345 5.089 11.345 11.344s-5.089 11.344-11.345 11.344h-56.03c-6.255 0-11.344-5.089-11.344-11.344zm0-52.688c0-6.255 5.089-11.344 11.344-11.344h56.03c6.256 0 11.345 5.089 11.345 11.344 0 6.256-5.089 11.345-11.345 11.345h-56.03c-6.255 0-11.344-5.089-11.344-11.345zm28.264-62.214h22.189v20.87h-22.189zm-28.264 167.591c0-6.256 5.089-11.345 11.344-11.345h56.03c6.256 0 11.345 5.089 11.345 11.345 0 6.255-5.089 11.344-11.345 11.344h-56.03c-6.255 0-11.344-5.089-11.344-11.344zm-343.298 272.228v-6.593l39.684-38.32-20.84-21.58-18.844 18.197v-48.752l39.684-38.321-20.84-21.58-18.844 18.196v-48.752l39.684-38.32-20.84-21.58-18.844 18.197v-48.755l39.684-38.32-20.84-21.58-18.844 18.197v-48.753l39.684-38.32-20.84-21.58-18.844 18.196v-20.366c0-5.329 4.335-9.664 9.663-9.664h56.069v449.816h-56.069c-5.328 0-9.663-4.335-9.663-9.663zm151.803 9.663h-56.07v-449.816h56.07c5.328 0 9.663 4.335 9.663 9.664v20.366l-18.844-18.197-20.84 21.58 39.684 38.32v48.753l-18.844-18.197-20.84 21.58 39.684 38.32v48.753l-18.844-18.197-20.84 21.58 39.684 38.32v48.755l-18.844-18.197-20.84 21.58 39.684 38.321v48.752l-18.844-18.197-20.84 21.58 39.684 38.32v6.593c0 5.329-4.335 9.664-9.663 9.664zm78.162-170.61h-38.499v-108.596h38.499zm219-39.141h-189v-30.797h189z"/></svg>