<svg height="512" viewBox="0 0 60 60" width="512" xmlns="http://www.w3.org/2000/svg"><g id="Page-1" fill="none" fill-rule="evenodd"><g id="036---Traffic" fill="rgb(0,0,0)" fill-rule="nonzero"><path id="Shape" d="m11 18h-5c-1.1045695 0-2 .8954305-2 2v2c0 1.1045695.8954305 2 2 2h5c1.1045695 0 2-.8954305 2-2v-2c0-1.1045695-.8954305-2-2-2zm-5 4v-2h5v2z"/><path id="Shape" d="m20 18h-4c-.5522847 0-1 .4477153-1 1s.4477153 1 1 1h4c.5522847 0 1-.4477153 1-1s-.4477153-1-1-1z"/><path id="Shape" d="m20 22h-4c-.5522847 0-1 .4477153-1 1s.4477153 1 1 1h4c.5522847 0 1-.4477153 1-1s-.4477153-1-1-1z"/><path id="Shape" d="m11 8c.2651948-.00005664.5195073-.10545063.707-.293l2-2c.2599566-.25107447.3642126-.62287789.2726972-.97250732-.0915155-.34962944-.3645604-.6226744-.7141899-.71418984-.3496294-.09151544-.7214328.01274058-.9725073.27269716l-2 2c-.2859079.28599425-.37142191.71603662-.216678 1.08965456.1547439.37361794.5192821.61725909.923678.61734544z"/><path id="Shape" d="m12.293 11.707c.3904999.3903819 1.0235001.3903819 1.414 0l6-6c.2599566-.25107447.3642126-.62287789.2726972-.97250732-.0915155-.34962944-.3645604-.6226744-.7141899-.71418984-.3496294-.09151544-.7214328.01274058-.9725073.27269716l-6 6c-.3903819.3904999-.3903819 1.0235001 0 1.414z"/><path id="Shape" d="m52.857 40h-5.714c-1.2124048.0311002-2.1709625 1.0375188-2.143 2.25v2.5c-.0279625 1.2124812.9305952 2.2188998 2.143 2.25h5.714c1.2124048-.0311002 2.1709625-1.0375188 2.143-2.25v-2.5c.0279625-1.2124812-.9305952-2.2188998-2.143-2.25zm.143 4.75c0 .155-.093.25-.143.25h-5.714c-.05 0-.143-.095-.143-.25v-2.5c0-.155.093-.25.143-.25h5.714c.05 0 .143.095.143.25z"/><path id="Shape" d="m29.857 40h-5.714c-1.2124048.0311002-2.1709625 1.0375188-2.143 2.25v2.5c-.0279625 1.2124812.9305952 2.2188998 2.143 2.25h5.714c1.2124048-.0311002 2.1709625-1.0375188 2.143-2.25v-2.5c.0279625-1.2124812-.9305952-2.2188998-2.143-2.25zm.143 4.75c0 .155-.093.25-.143.25h-5.714c-.05 0-.143-.095-.143-.25v-2.5c0-.155.093-.25.143-.25h5.714c.05 0 .143.095.143.25z"/><path id="Shape" d="m41 40h-5c-.5522847 0-1 .4477153-1 1s.4477153 1 1 1h5c.5522847 0 1-.4477153 1-1s-.4477153-1-1-1z"/><path id="Shape" d="m41 45h-5c-.5522847 0-1 .4477153-1 1s.4477153 1 1 1h5c.5522847 0 1-.4477153 1-1s-.4477153-1-1-1z"/><path id="Shape" d="m29.059 27c.2651948-.0000566.5195073-.1054506.707-.293l3.941-3.941c.2599566-.2510745.3642126-.6228779.2726972-.9725073-.0915155-.3496295-.3645604-.6226744-.7141899-.7141899-.3496294-.0915154-.7214328.0127406-.9725073.2726972l-3.941 3.941c-.2859079.2859943-.3714219.7160366-.216678 1.0896546.1547439.3736179.5192821.6172591.923678.6173454z"/><path id="Shape" d="m28.293 32.766c.3904999.3903819 1.0235001.3903819 1.414 0l10-10c.2599566-.2510745.3642126-.6228779.2726972-.9725073-.0915155-.3496295-.3645604-.6226744-.7141899-.7141899-.3496294-.0915154-.7214328.0127406-.9725073.2726972l-10 10c-.3903819.3904999-.3903819 1.0235001 0 1.414z"/><path id="Shape" d="m60 33.5c.0222462-1.9071027-1.5029649-3.4725686-3.41-3.5h-3.076l-1.95-6.87c-.8605995-3.0234131-3.6155284-5.1143711-6.759-5.13h-8.905c-.1924944-.9289087-.6458891-1.7836635-1.307-2.464.1870785-.1161007.3599216-.253704.515-.41.5748795-.5573278.8971075-1.3253286.892-2.126 0-1.6568542-1.3431458-3-3-3h-2.388l-1.612-5.648c-.74358-2.57139904-3.0942591-4.34408238-5.771-4.352h-10.458c-2.6767409.00791762-5.02741998 1.78060096-5.771 4.352l-1.612 5.648h-2.388c-1.65685425 0-3 1.3431458-3 3 .00153367 1.0313097.53443897 1.9890275 1.41 2.534-.90303444.9278885-1.40883417 2.1712232-1.41 3.466v6c.00525139 1.2667854.80564914 2.3937454 2 2.816v4.184c0 1.6568542 1.34314575 3 3 3h1c1.65685425 0 3-1.3431458 3-3v-4h15.054l-.568 2h-3.076c-1.520068.0463195-2.837842 1.065191-3.2653015 2.5246534s.1324122 3.0282745 1.3873015 3.8873466c-.9775845.9377358-1.5307934 2.2333715-1.532 3.588v9c0 1.6568542 1.3431458 3 3 3v5c0 1.6568542 1.3431458 3 3 3h2c1.6568542 0 3-1.3431458 3-3v-5h21v5c0 1.6568542 1.3431458 3 3 3h2c1.6568542 0 3-1.3431458 3-3v-5c1.6568542 0 3-1.3431458 3-3v-9c-.0011871-1.353938-.5535965-2.6490311-1.53-3.587.9570303-.6611759 1.5288046-1.7497893 1.53-2.913zm-10.359-9.824 3.213 11.324h-28.708l3.213-11.324c.6156145-2.1662385 2.5890135-3.6647335 4.841-3.676h12.61c2.2482724.0156998 4.2164202 1.5133011 4.831 3.676zm-16.641-11.676c.5522847 0 1 .4477153 1 1 .0003954.2693445-.110308.526929-.306.712-.1823963.1865985-.4330776.2906276-.694.288h-1.245l-.572-2zm-24.074-7.1c.49529265-1.71337475 2.0614813-2.89463535 3.845-2.9h10.458c1.7835187.00536465 3.3497074 1.18662525 3.845 2.9l2.6 9.1h-23.348zm-5.926 7.1h1.817l-.572 2h-1.245c-.26969182.0006712-.52769054-.1100548-.713-.306-.18545144-.1830903-.2889672-.4334037-.287-.694 0-.2652165.10535684-.5195704.29289322-.7071068s.44189029-.2928932.70710678-.2928932zm4 20c0 .5522847-.44771525 1-1 1h-1c-.55228475 0-1-.4477153-1-1v-4h3zm1-6h-5c-.55228475 0-1-.4477153-1-1v-6c0-1.6568542 1.34314575-3 3-3h26c1.2667854.0052514 2.3937454.8056491 2.816 2h-1.616c-3.1434716.0156289-5.8984005 2.1065869-6.759 5.13l-.82 2.87zm12.41 9c-.3751086-.0038859-.7317944-.1632176-.985-.44-.2758919-.2834729-.4286421-.6644498-.425-1.06-.0230134-.802877.6072353-1.4733543 1.41-1.5h2.509l-.851 3zm5.59 22c0 .5522847-.4477153 1-1 1h-2c-.5522847 0-1-.4477153-1-1v-5h4zm29 0c0 .5522847-.4477153 1-1 1h-2c-.5522847 0-1-.4477153-1-1v-5h4zm3-8c0 .5522847-.4477153 1-1 1h-37c-.5522847 0-1-.4477153-1-1v-9c0-1.6568542 1.3431458-3 3-3h33c1.6568542 0 3 1.3431458 3 3zm-3.068-14-.851-3h2.509c.8027647.0266457 1.4330134.697123 1.41 1.5.0036365.3994546-.152213.7838594-.433 1.068-.2520653.272699-.6056606.4290482-.977.432z"/></g></g></svg>